<svg xmlns="http://www.w3.org/2000/svg" version="1.1" xmlns:xlink="http://www.w3.org/1999/xlink" xmlns:svgjs="http://svgjs.dev/svgjs" width="2000" height="1252" viewBox="0 0 2000 1252"><g transform="matrix(1,0,0,1,-1.2121212121212466,-2.01935483870966)"><svg viewBox="0 0 396 248" data-background-color="#faffd0" preserveAspectRatio="xMidYMid meet" height="1252" width="2000" xmlns="http://www.w3.org/2000/svg" xmlns:xlink="http://www.w3.org/1999/xlink"><g id="tight-bounds" transform="matrix(1,0,0,1,0.2400000000000091,0.4000000000000057)"><svg viewBox="0 0 395.52 247.2" height="247.2" width="395.52"><g><svg></svg></g><g><svg viewBox="0 0 395.52 247.2" height="247.2" width="395.52"><mask id="bac0226d-0942-4bd5-80c1-7cbb481af60e"><rect width="395.52" height="247.2" fill="white"></rect><g transform="matrix(1,0,0,1,0,97.72714169527117)" id="clone"><svg viewBox="0 0 395.52 51.74571660945765" height="51.74571660945765" width="395.52"><g><svg viewBox="0 0 395.52 51.74571660945765" height="51.74571660945765" width="395.52"><g><svg viewBox="0 0 395.52 51.74571660945765" height="51.74571660945765" width="395.52"><g><svg viewBox="0 0 395.52 51.74571660945765" height="51.74571660945765" width="395.52"><g id="SvgjsG6018"><svg viewBox="0 0 395.52 51.74571660945765" height="51.74571660945765" width="395.52" id="SvgjsSvg6017"><g><svg viewBox="0 0 395.52 37.2820006339031" height="37.2820006339031" width="395.52"><g transform="matrix(1,0,0,1,0,0)"><svg width="395.52" viewBox="-16.44 -56.01 875.97 83.47999999999999" height="37.2820006339031" data-palette-color="#68b6ff"><path d="M37.45-16.82L37.45-16.82 37.45-16.36Q37.4-14.31 37.02-12.11 36.65-9.91 35.96-7.71 35.28-5.52 34.33-3.37 33.37-1.22 32.19 0.74 31.01 2.71 29.64 4.43 28.27 6.15 26.76 7.47L26.76 7.47 23.12 5.37Q23.97 3.93 24.67 2.23 25.37 0.54 25.93-1.32 26.49-3.17 26.89-5.13 27.29-7.08 27.56-9.01 27.83-10.94 27.97-12.81 28.1-14.67 28.1-16.36L28.1-16.36Q28.1-17.68 28.09-19.35 28.08-21.02 27.89-22.75 27.71-24.49 27.29-26.14 26.88-27.78 26.06-29.08 25.24-30.37 23.96-31.15 22.68-31.93 20.78-31.93L20.78-31.93Q19.09-31.93 17.88-31.36 16.67-30.79 15.83-29.82 14.99-28.86 14.49-27.59 13.99-26.32 13.71-24.91 13.43-23.51 13.34-22.08 13.26-20.65 13.26-19.38L13.26-19.38 13.26-12.57 23.78-12.57 23.78-8.54 13.26-8.54 13.26 0 3.56 0 3.56-17.87Q3.56-21.7 4.79-25 6.01-28.3 8.24-30.73 10.47-33.15 13.61-34.53 16.75-35.91 20.61-35.91L20.61-35.91Q23.22-35.91 25.5-35.17 27.78-34.42 29.66-33.12 31.54-31.81 33.02-30.02 34.5-28.22 35.49-26.1 36.47-23.97 36.99-21.61 37.5-19.24 37.45-16.82ZM53.44-15.33L53.44 0 43.75 0 43.75-35.16 68.99-35.16 68.99-30.66 53.44-30.66 53.44-19.8 65.45-19.8 65.45-15.33 53.44-15.33ZM83.74-13.13L83.74 0 74.04 0 74.04-35.16 91.33-35.16Q93.77-35.16 96.04-34.58 98.31-34.01 100.06-32.78 101.8-31.54 102.84-29.59 103.88-27.64 103.88-24.85L103.88-24.85Q103.88-22.68 102.96-20.76 102.05-18.85 100.52-17.35 98.99-15.84 97.02-14.86 95.04-13.87 92.91-13.55L92.91-13.55Q93.87-11.94 94.9-10.5 95.94-9.06 97-7.8 98.07-6.54 99.12-5.48 100.17-4.42 101.12-3.54L101.12-3.54Q103.36-1.49 105.56 0L105.56 0 93.48 0Q92.01-1.39 90.69-3.34L90.69-3.34Q89.57-5 88.43-7.46 87.3-9.91 86.69-13.13L86.69-13.13 83.74-13.13ZM94.04-24.85L94.04-24.85Q94.04-28.39 92.32-30.05 90.6-31.71 87.15-31.71L87.15-31.71 83.74-31.71 83.74-16.46 87.15-16.46Q88.98-16.46 90.29-17.15 91.6-17.85 92.43-19.01 93.26-20.17 93.65-21.68 94.04-23.19 94.04-24.85ZM119.82-35.16L119.82 0 110.12 0 110.12-35.16 119.82-35.16ZM151.62-15.33L151.62 0 141.93 0 141.93-35.16 167.18-35.16 167.18-30.66 151.62-30.66 151.62-19.8 163.63-19.8 163.63-15.33 151.62-15.33ZM175.13-35.16L182.24-35.16Q181.58-33.18 181.09-31.07 180.6-28.96 180.28-26.84 179.97-24.73 179.81-22.68 179.65-20.63 179.65-18.8L179.65-18.8Q179.65-17.46 179.66-15.78 179.67-14.11 179.86-12.38 180.04-10.64 180.45-9 180.87-7.35 181.69-6.05 182.5-4.76 183.79-3.98 185.07-3.2 186.97-3.2L186.97-3.2Q188.66-3.2 189.87-3.77 191.07-4.35 191.92-5.32 192.76-6.3 193.26-7.57 193.76-8.84 194.04-10.23 194.32-11.62 194.41-13.05 194.49-14.48 194.49-15.77L194.49-15.77 194.49-35.16 204.18-35.16 204.18-17.29Q204.18-13.45 202.96-10.16 201.74-6.86 199.52-4.43 197.3-2 194.15-0.62 191 0.76 187.17 0.76L187.17 0.76Q184.53 0.76 182.26 0.01 179.99-0.73 178.1-2.04 176.21-3.34 174.73-5.14 173.25-6.93 172.26-9.06 171.27-11.18 170.76-13.54 170.25-15.89 170.3-18.31L170.3-18.31 170.3-18.8Q170.32-20.75 170.69-22.84 171.05-24.93 171.68-27.03 172.3-29.13 173.18-31.19 174.06-33.25 175.13-35.16L175.13-35.16ZM216.22-24.12L216.22 0 211.73 0 211.73-35.16 218.02-35.16 239.39-11.01 239.39-35.16 243.85-35.16 243.85 0 237.56 0 216.22-24.12ZM285.89-17.63L285.89-17.63Q285.89-15.06 285.21-12.76 284.53-10.45 283.29-8.5 282.06-6.54 280.35-4.97 278.64-3.39 276.58-2.29 274.52-1.2 272.16-0.6 269.8 0 267.31 0L267.31 0 251.81 0 251.81-35.16 267.31-35.16Q269.8-35.16 272.15-34.57 274.49-33.98 276.55-32.9 278.62-31.81 280.34-30.25 282.06-28.69 283.29-26.75 284.53-24.8 285.21-22.5 285.89-20.19 285.89-17.63ZM276.05-17.63L276.05-17.63Q276.05-20.48 275.36-23.06 274.66-25.63 273.2-27.59 271.73-29.54 269.47-30.69 267.22-31.84 264.07-31.84L264.07-31.84 261.5-31.84 261.5-3.42 264.07-3.42Q267.17-3.42 269.43-4.58 271.68-5.74 273.16-7.7 274.64-9.67 275.35-12.23 276.05-14.79 276.05-17.63ZM309.2-35.16L316.31-35.16Q315.65-33.18 315.16-31.07 314.67-28.96 314.35-26.84 314.04-24.73 313.88-22.68 313.72-20.63 313.72-18.8L313.72-18.8Q313.72-17.46 313.73-15.78 313.74-14.11 313.93-12.38 314.11-10.64 314.53-9 314.94-7.35 315.76-6.05 316.58-4.76 317.86-3.98 319.14-3.2 321.04-3.2L321.04-3.2Q322.73-3.2 323.94-3.77 325.15-4.35 325.99-5.32 326.83-6.3 327.33-7.57 327.83-8.84 328.11-10.23 328.39-11.62 328.48-13.05 328.56-14.48 328.56-15.77L328.56-15.77 328.56-35.16 338.26-35.16 338.26-17.29Q338.26-13.45 337.04-10.16 335.81-6.86 333.59-4.43 331.37-2 328.22-0.62 325.07 0.76 321.24 0.76L321.24 0.76Q318.6 0.76 316.33 0.01 314.06-0.73 312.17-2.04 310.28-3.34 308.8-5.14 307.32-6.93 306.33-9.06 305.35-11.18 304.83-13.54 304.32-15.89 304.37-18.31L304.37-18.31 304.37-18.8Q304.39-20.75 304.76-22.84 305.13-24.93 305.75-27.03 306.37-29.13 307.25-31.19 308.13-33.25 309.2-35.16L309.2-35.16ZM350.29-24.12L350.29 0 345.8 0 345.8-35.16 352.1-35.16 373.46-11.01 373.46-35.16 377.93-35.16 377.93 0 371.63 0 350.29-24.12ZM395.58-35.16L395.58 0 385.88 0 385.88-35.16 395.58-35.16ZM434.2-35.16L421.74 0 412.88 0 399.75-35.16 409.64-35.16 419.38-6.86 428.19-35.16 434.2-35.16ZM463.66-4.49L463.66 0 438.42 0 438.42-35.16 463.66-35.16 463.66-30.66 448.11-30.66 448.11-19.8 460.12-19.8 460.12-15.33 448.11-15.33 448.11-4.49 463.66-4.49ZM479.36-13.13L479.36 0 469.66 0 469.66-35.16 486.95-35.16Q489.39-35.16 491.66-34.58 493.93-34.01 495.68-32.78 497.42-31.54 498.46-29.59 499.5-27.64 499.5-24.85L499.5-24.85Q499.5-22.68 498.58-20.76 497.67-18.85 496.14-17.35 494.62-15.84 492.64-14.86 490.66-13.87 488.54-13.55L488.54-13.55Q489.49-11.94 490.53-10.5 491.56-9.06 492.63-7.8 493.69-6.54 494.74-5.48 495.79-4.42 496.74-3.54L496.74-3.54Q498.99-1.49 501.18 0L501.18 0 489.1 0Q487.63-1.39 486.32-3.34L486.32-3.34Q485.19-5 484.06-7.46 482.92-9.91 482.31-13.13L482.31-13.13 479.36-13.13ZM489.66-24.85L489.66-24.85Q489.66-28.39 487.94-30.05 486.22-31.71 482.78-31.71L482.78-31.71 479.36-31.71 479.36-16.46 482.78-16.46Q484.61-16.46 485.91-17.15 487.22-17.85 488.05-19.01 488.88-20.17 489.27-21.68 489.66-23.19 489.66-24.85ZM534.55-10.74L534.55-10.74Q534.55-8.47 533.98-6.74 533.41-5 532.37-3.74 531.33-2.47 529.92-1.61 528.5-0.76 526.83-0.24 525.16 0.27 523.29 0.49 521.42 0.71 519.49 0.71L519.49 0.71Q516.95 0.71 514.8 0.33 512.66-0.05 510.76-0.87 508.87-1.68 507.13-2.98 505.38-4.27 503.65-6.13L503.65-6.13 508.63-11.18Q509.31-9.5 510.51-8.07 511.7-6.64 513.13-5.62 514.56-4.59 516.1-4 517.64-3.42 519-3.42L519-3.42Q520.61-3.42 522.03-3.65 523.45-3.88 524.5-4.42 525.55-4.96 526.14-5.85 526.74-6.74 526.74-8.08L526.74-8.08Q526.74-9.11 526.28-9.84 525.81-10.57 525.07-11.1 524.33-11.62 523.37-11.99 522.42-12.35 521.43-12.61 520.44-12.87 519.49-13.07 518.54-13.28 517.81-13.5L517.81-13.5Q516.37-13.92 514.8-14.39 513.24-14.87 511.73-15.48 510.21-16.09 508.86-16.88 507.5-17.68 506.48-18.76 505.45-19.85 504.84-21.28 504.23-22.71 504.23-24.56L504.23-24.56Q504.23-26.78 504.78-28.5 505.33-30.22 506.33-31.49 507.33-32.76 508.7-33.63 510.07-34.5 511.7-35.02 513.34-35.55 515.18-35.78 517.03-36.01 518.95-36.01L518.95-36.01Q521.59-36.01 523.75-35.52 525.91-35.03 527.74-34.13 529.57-33.23 531.1-31.97 532.63-30.71 533.97-29.17L533.97-29.17 528.99-24.12Q528.4-25.88 527.36-27.29 526.33-28.71 525.06-29.72 523.79-30.74 522.4-31.29 521-31.84 519.71-31.84L519.71-31.84Q518.03-31.84 516.61-31.6 515.19-31.37 514.18-30.85 513.17-30.32 512.61-29.43 512.04-28.54 512.04-27.22L512.04-27.22Q512.04-26.17 512.46-25.44 512.88-24.71 513.57-24.19 514.27-23.68 515.15-23.35 516.02-23.02 516.96-22.78 517.9-22.53 518.82-22.35 519.74-22.17 520.49-21.95L520.49-21.95Q521.96-21.53 523.57-21.07 525.18-20.61 526.74-19.98 528.3-19.36 529.72-18.55 531.14-17.75 532.21-16.64 533.29-15.53 533.92-14.07 534.55-12.62 534.55-10.74ZM550.27-35.16L550.27 0 540.58 0 540.58-35.16 550.27-35.16ZM574.49-30.66L574.49 0 564.8 0 564.8-30.66 555.23-30.66 555.23-35.16 584.06-35.16 584.06-30.66 574.49-30.66ZM610.72-35.16L617.56-35.16 606.18-14.77 606.18 0 596.49 0 596.49-14.23 584.99-35.16 594.87-35.16 602.52-17.48 610.72-35.16ZM660.84-4.47L660.84 0 635.59 0 635.59-35.16 645.28-35.16 645.28-4.47 660.84-4.47ZM690.64-4.49L690.64 0 665.4 0 665.4-35.16 690.64-35.16 690.64-30.66 675.09-30.66 675.09-19.8 687.1-19.8 687.1-15.33 675.09-15.33 675.09-4.49 690.64-4.49ZM701.14-24.12L701.14 0 696.65 0 696.65-35.16 702.95-35.16 724.31-11.01 724.31-35.16 728.78-35.16 728.78 0 722.48 0 701.14-24.12ZM770.81-17.63L770.81-17.63Q770.81-15.06 770.13-12.76 769.45-10.45 768.21-8.5 766.98-6.54 765.27-4.97 763.56-3.39 761.5-2.29 759.44-1.2 757.08-0.6 754.73 0 752.23 0L752.23 0 736.73 0 736.73-35.16 752.23-35.16Q754.73-35.16 757.07-34.57 759.41-33.98 761.48-32.9 763.54-31.81 765.26-30.25 766.98-28.69 768.21-26.75 769.45-24.8 770.13-22.5 770.81-20.19 770.81-17.63ZM760.98-17.63L760.98-17.63Q760.98-20.48 760.28-23.06 759.58-25.63 758.12-27.59 756.65-29.54 754.4-30.69 752.14-31.84 748.99-31.84L748.99-31.84 746.42-31.84 746.42-3.42 748.99-3.42Q752.09-3.42 754.35-4.58 756.61-5.74 758.08-7.7 759.56-9.67 760.27-12.23 760.98-14.79 760.98-17.63ZM802.01-4.49L802.01 0 776.77 0 776.77-35.16 802.01-35.16 802.01-30.66 786.46-30.66 786.46-19.8 798.47-19.8 798.47-15.33 786.46-15.33 786.46-4.49 802.01-4.49ZM817.71-13.13L817.71 0 808.02 0 808.02-35.16 825.3-35.16Q827.74-35.16 830.01-34.58 832.28-34.01 834.03-32.78 835.77-31.54 836.81-29.59 837.85-27.64 837.85-24.85L837.85-24.85Q837.85-22.68 836.93-20.76 836.02-18.85 834.49-17.35 832.97-15.84 830.99-14.86 829.01-13.87 826.89-13.55L826.89-13.55Q827.84-11.94 828.88-10.5 829.92-9.06 830.98-7.8 832.04-6.54 833.09-5.48 834.14-4.42 835.09-3.54L835.09-3.54Q837.34-1.49 839.53 0L839.53 0 827.45 0Q825.98-1.39 824.67-3.34L824.67-3.34Q823.54-5 822.41-7.46 821.27-9.91 820.66-13.13L820.66-13.13 817.71-13.13ZM828.01-24.85L828.01-24.85Q828.01-28.39 826.29-30.05 824.57-31.71 821.13-31.71L821.13-31.71 817.71-31.71 817.71-16.46 821.13-16.46Q822.96-16.46 824.26-17.15 825.57-17.85 826.4-19.01 827.23-20.17 827.62-21.68 828.01-23.19 828.01-24.85Z" opacity="1" transform="matrix(1,0,0,1,0,0)" fill="black" class="wordmark-text-0" id="SvgjsPath6016" stroke-width="39" stroke="black" stroke-linejoin="round"></path></svg></g></svg></g><g transform="matrix(1,0,0,1,19.5,40.14996429593454)"><svg viewBox="0 0 356.52 11.595752313523116" height="11.595752313523116" width="356.52"><g transform="matrix(1,0,0,1,0,0)"><svg width="356.52" viewBox="-20.4 -57.35 2378.23 77.85" height="11.595752313523116" data-palette-color="#68b6ff"><path d="M24.75-36.95L34.8-13.1 43.6-36.75 49.55-36.75 35.25 0 34.55 0 24.55-23.8 14.6-0.05 13.9-0.05-0.4-36.75 5.55-36.75 14.35-13.1 24.45-36.95 24.75-36.95ZM87.93 0.5Q82.93 0.5 78.71-1.83 74.48-4.15 71.98-8.45 69.48-12.75 69.48-18.45L69.48-18.45Q69.48-24.2 71.98-28.48 74.48-32.75 78.71-35.05 82.93-37.35 87.93-37.35L87.93-37.35Q92.93-37.35 97.16-35.05 101.38-32.75 103.88-28.48 106.38-24.2 106.38-18.45L106.38-18.45Q106.38-12.75 103.88-8.45 101.38-4.15 97.16-1.83 92.93 0.5 87.93 0.5L87.93 0.5ZM87.93-4.55Q91.38-4.55 94.23-6.18 97.08-7.8 98.76-10.93 100.43-14.05 100.43-18.4L100.43-18.4Q100.43-22.8 98.76-25.93 97.08-29.05 94.26-30.65 91.43-32.25 87.93-32.25L87.93-32.25Q84.43-32.25 81.58-30.65 78.73-29.05 77.08-25.93 75.43-22.8 75.43-18.4L75.43-18.4Q75.43-14.05 77.13-10.93 78.83-7.8 81.71-6.18 84.58-4.55 87.93-4.55L87.93-4.55ZM155.91 0L149.46 0 142.06-13.9Q139.76-13.8 137.96-13.8L137.96-13.8 136.56-13.8 136.56 0 131.11 0 131.11-36.75 139.46-36.75Q145.81-36.75 149.91-34.13 154.01-31.5 154.01-25.6L154.01-25.6Q154.01-21.9 152.29-19.23 150.56-16.55 147.16-15.1L147.16-15.1 155.91 0ZM136.56-18.35L140.11-18.35Q145.01-18.35 146.84-20.48 148.66-22.6 148.66-25.55L148.66-25.55Q148.66-32.1 139.91-32.1L139.91-32.1 136.56-32.1 136.56-18.35ZM204.9 0L198.45 0 191.05-13.9Q188.75-13.8 186.95-13.8L186.95-13.8 185.55-13.8 185.55 0 180.1 0 180.1-36.75 188.45-36.75Q194.8-36.75 198.9-34.13 203-31.5 203-25.6L203-25.6Q203-21.9 201.27-19.23 199.55-16.55 196.15-15.1L196.15-15.1 204.9 0ZM185.55-18.35L189.1-18.35Q194-18.35 195.82-20.48 197.65-22.6 197.65-25.55L197.65-25.55Q197.65-32.1 188.9-32.1L188.9-32.1 185.55-32.1 185.55-18.35ZM237.13 0L237.13-17.15 224.38-36.75 231.08-36.75 239.93-22.25 248.78-36.75 255.43-36.75 242.73-17.05 242.73 0 237.13 0ZM320.64-36.8L321.19-36.8 338.89 0 332.44 0 329.29-7.2 312.44-7.2 309.29 0 303.04 0 320.64-36.8ZM320.89-26.15L318.69-21.15 314.69-12.25 327.09-12.25 323.14-21.1 320.99-26.15 320.89-26.15ZM360.47 0L360.47-36.75 369.82-36.75Q377.72-36.75 380.32-34.1 382.92-31.45 382.92-27.7L382.92-27.7Q382.92-25.2 381.82-22.98 380.72-20.75 378.32-19.65L378.32-19.65Q381.87-18.75 383.55-16.5 385.22-14.25 385.22-11.2L385.22-11.2Q385.22-8 384.22-5.6 383.22-3.2 380.07-1.6 376.92 0 370.97 0L370.97 0 360.47 0ZM365.97-21.15L370.72-21.15Q374.27-21.15 375.77-22.88 377.27-24.6 377.27-27.25L377.27-27.25Q377.27-32 370.47-32L370.47-32 365.97-32 365.97-21.15ZM365.97-4.7L371.72-4.7Q376.27-4.7 377.85-6.53 379.42-8.35 379.42-11.15L379.42-11.15Q379.42-13.8 377.62-15.25 375.82-16.7 372.17-16.7L372.17-16.7 365.97-16.7 365.97-4.7ZM427.15 0.5Q422.15 0.5 417.93-1.83 413.7-4.15 411.2-8.45 408.7-12.75 408.7-18.45L408.7-18.45Q408.7-24.2 411.2-28.48 413.7-32.75 417.93-35.05 422.15-37.35 427.15-37.35L427.15-37.35Q432.15-37.35 436.38-35.05 440.6-32.75 443.1-28.48 445.6-24.2 445.6-18.45L445.6-18.45Q445.6-12.75 443.1-8.45 440.6-4.15 436.38-1.83 432.15 0.5 427.15 0.5L427.15 0.5ZM427.15-4.55Q430.6-4.55 433.45-6.18 436.3-7.8 437.98-10.93 439.65-14.05 439.65-18.4L439.65-18.4Q439.65-22.8 437.98-25.93 436.3-29.05 433.48-30.65 430.65-32.25 427.15-32.25L427.15-32.25Q423.65-32.25 420.8-30.65 417.95-29.05 416.3-25.93 414.65-22.8 414.65-18.4L414.65-18.4Q414.65-14.05 416.35-10.93 418.05-7.8 420.93-6.18 423.8-4.55 427.15-4.55L427.15-4.55ZM482.99 0.5Q476.09 0.5 472.99-3.65 469.89-7.8 469.89-15.7L469.89-15.7 469.89-36.75 475.49-36.75 475.49-15.6Q475.49-9.75 477.24-7.23 478.99-4.7 482.99-4.7L482.99-4.7Q486.99-4.7 488.71-7.18 490.44-9.65 490.44-15.6L490.44-15.6 490.44-36.75 496.09-36.75 496.09-15.7Q496.09-7.85 492.81-3.68 489.54 0.5 482.99 0.5L482.99 0.5ZM527.92 0L527.92-31.85 518.52-31.85 518.52-36.75 542.97-36.75 542.97-31.85 533.47-31.85 533.47 0 527.92 0ZM610.48-36.8L611.03-36.8 628.73 0 622.28 0 619.13-7.2 602.28-7.2 599.13 0 592.88 0 610.48-36.8ZM610.73-26.15L608.53-21.15 604.53-12.25 616.93-12.25 612.98-21.1 610.83-26.15 610.73-26.15ZM665.51 0.35Q659.81 0.35 655.64-2.2 651.46-4.75 649.26-9.03 647.06-13.3 647.06-18.45L647.06-18.45Q647.06-23.9 649.44-28.2 651.81-32.5 656.11-34.93 660.41-37.35 665.86-37.35L665.86-37.35Q668.31-37.35 670.44-36.83 672.56-36.3 673.96-35.63 675.36-34.95 675.81-34.5L675.81-34.5 673.36-29.5Q670.31-32.2 665.41-32.2L665.41-32.2Q661.96-32.2 659.16-30.5 656.36-28.8 654.76-25.65 653.16-22.5 653.16-18.35L653.16-18.35Q653.16-14.55 654.59-11.45 656.01-8.35 658.76-6.55 661.51-4.75 665.31-4.75L665.31-4.75Q669.71-4.75 673.81-7.25L673.81-7.25 675.46-2.5Q674.36-1.5 671.44-0.58 668.51 0.35 665.51 0.35L665.51 0.35ZM700.4 0L700.4-36.75 706-36.75 706 0 700.4 0ZM759.88 0L738.38-23.8 738.53-19.8 738.53 0 732.93 0 732.93-36.8 733.63-36.8 755.23-12.7 755.03-16.9 755.03-36.75 760.63-36.75 760.63 0 759.88 0ZM804.06 0.5Q798.61 0.5 794.31-2 790.01-4.5 787.58-8.88 785.16-13.25 785.16-18.7L785.16-18.7Q785.16-24 787.61-28.25 790.06-32.5 794.41-34.9 798.76-37.3 804.21-37.3L804.21-37.3Q807.16-37.3 809.53-36.77 811.91-36.25 813.41-35.58 814.91-34.9 815.46-34.4L815.46-34.4 813.26-29.7Q810.16-32.2 804.11-32.2L804.11-32.2Q800.11-32.2 797.16-30.45 794.21-28.7 792.66-25.7 791.11-22.7 791.11-19L791.11-19Q791.11-14.8 792.78-11.5 794.46-8.2 797.43-6.38 800.41-4.55 804.16-4.55L804.16-4.55Q806.51-4.55 808.66-5.13 810.81-5.7 812.31-6.95L812.31-6.95 812.31-14.05 804.76-14.05 804.76-19.2 817.86-19.2 817.86-4.8Q816.06-2.55 812.43-1.03 808.81 0.5 804.06 0.5L804.06 0.5ZM880.32 0L880.32-31.85 870.92-31.85 870.92-36.75 895.37-36.75 895.37-31.85 885.87-31.85 885.87 0 880.32 0ZM919.2 0L919.2-36.75 924.8-36.75 924.8-21.75 937.75-21.75 937.75-36.75 943.35-36.75 943.35 0 937.75 0 937.75-17.05 924.8-17.05 924.8 0 919.2 0ZM982.49-36.8L983.04-36.8 1000.74 0 994.29 0 991.14-7.2 974.29-7.2 971.14 0 964.89 0 982.49-36.8ZM982.74-26.15L980.54-21.15 976.54-12.25 988.94-12.25 984.99-21.1 982.84-26.15 982.74-26.15ZM1026.32 0L1026.32-31.85 1016.92-31.85 1016.92-36.75 1041.37-36.75 1041.37-31.85 1031.87-31.85 1031.87 0 1026.32 0ZM1108.88-36.8L1109.43-36.8 1127.13 0 1120.68 0 1117.53-7.2 1100.68-7.2 1097.53 0 1091.28 0 1108.88-36.8ZM1109.13-26.15L1106.93-21.15 1102.93-12.25 1115.33-12.25 1111.38-21.1 1109.23-26.15 1109.13-26.15ZM1158.51-4.6L1158.51-13.8 1149.06-13.8 1149.06-18.4 1158.51-18.4 1158.51-27.6 1163.36-27.6 1163.36-18.4 1172.86-18.4 1172.86-13.8 1163.36-13.8 1163.36-4.6 1158.51-4.6ZM1243.18-36.8L1243.73-36.8 1261.43 0 1254.98 0 1251.83-7.2 1234.98-7.2 1231.83 0 1225.58 0 1243.18-36.8ZM1243.43-26.15L1241.23-21.15 1237.23-12.25 1249.63-12.25 1245.68-21.1 1243.53-26.15 1243.43-26.15ZM1291.46 0.5Q1288.46 0.5 1285.51-0.55 1282.56-1.6 1281.26-2.9L1281.26-2.9 1283.91-7.65Q1284.96-6.7 1287.18-5.68 1289.41-4.65 1291.46-4.65L1291.46-4.65Q1294.11-4.65 1295.78-5.9 1297.46-7.15 1297.46-9.35L1297.46-9.35Q1297.46-11.05 1296.56-12.3 1295.66-13.55 1294.36-14.38 1293.06-15.2 1290.66-16.4L1290.66-16.4Q1287.81-17.8 1286.76-18.5L1286.76-18.5Q1281.91-21.75 1281.91-27.5L1281.91-27.5Q1281.91-32.25 1285.06-34.77 1288.21-37.3 1293.01-37.3L1293.01-37.3Q1298.16-37.3 1301.76-34.35L1301.76-34.35 1299.11-29.8Q1298.16-30.8 1296.43-31.53 1294.71-32.25 1292.76-32.25L1292.76-32.25Q1290.26-32.25 1288.83-31.13 1287.41-30 1287.41-27.8L1287.41-27.8Q1287.41-26.25 1288.31-25.03 1289.21-23.8 1290.58-22.9 1291.96-22 1294.31-20.7L1294.31-20.7Q1296.56-19.45 1297.76-18.73 1298.96-18 1300.01-17L1300.01-17Q1301.46-15.7 1302.36-13.9 1303.26-12.1 1303.26-9.95L1303.26-9.95Q1303.26-6.6 1301.73-4.25 1300.21-1.9 1297.53-0.7 1294.86 0.5 1291.46 0.5L1291.46 0.5ZM1379.32-36.95L1389.37-13.1 1398.17-36.75 1404.12-36.75 1389.82 0 1389.12 0 1379.12-23.8 1369.17-0.05 1368.47-0.05 1354.17-36.75 1360.12-36.75 1368.92-13.1 1379.02-36.95 1379.32-36.95ZM1426.05 0L1426.05-36.75 1442.15-36.75 1442.15-31.85 1431.6-31.85 1431.6-21.7 1440.1-21.7 1440.1-16.7 1431.6-16.7 1431.6-4.95 1443.8-4.95 1443.8 0 1426.05 0ZM1519.52-36.95L1529.57-13.1 1538.37-36.75 1544.32-36.75 1530.02 0 1529.32 0 1519.32-23.8 1509.37-0.05 1508.67-0.05 1494.37-36.75 1500.32-36.75 1509.12-13.1 1519.22-36.95 1519.52-36.95ZM1582.7 0.5Q1577.7 0.5 1573.47-1.83 1569.25-4.15 1566.75-8.45 1564.25-12.75 1564.25-18.45L1564.25-18.45Q1564.25-24.2 1566.75-28.48 1569.25-32.75 1573.47-35.05 1577.7-37.35 1582.7-37.35L1582.7-37.35Q1587.7-37.35 1591.92-35.05 1596.15-32.75 1598.65-28.48 1601.15-24.2 1601.15-18.45L1601.15-18.45Q1601.15-12.75 1598.65-8.45 1596.15-4.15 1591.92-1.83 1587.7 0.5 1582.7 0.5L1582.7 0.5ZM1582.7-4.55Q1586.15-4.55 1589-6.18 1591.85-7.8 1593.52-10.93 1595.2-14.05 1595.2-18.4L1595.2-18.4Q1595.2-22.8 1593.52-25.93 1591.85-29.05 1589.02-30.65 1586.2-32.25 1582.7-32.25L1582.7-32.25Q1579.2-32.25 1576.35-30.65 1573.5-29.05 1571.85-25.93 1570.2-22.8 1570.2-18.4L1570.2-18.4Q1570.2-14.05 1571.9-10.93 1573.6-7.8 1576.47-6.18 1579.35-4.55 1582.7-4.55L1582.7-4.55ZM1650.68 0L1644.23 0 1636.83-13.9Q1634.53-13.8 1632.73-13.8L1632.73-13.8 1631.33-13.8 1631.33 0 1625.88 0 1625.88-36.75 1634.23-36.75Q1640.58-36.75 1644.68-34.13 1648.78-31.5 1648.78-25.6L1648.78-25.6Q1648.78-21.9 1647.06-19.23 1645.33-16.55 1641.93-15.1L1641.93-15.1 1650.68 0ZM1631.33-18.35L1634.88-18.35Q1639.78-18.35 1641.61-20.48 1643.43-22.6 1643.43-25.55L1643.43-25.55Q1643.43-32.1 1634.68-32.1L1634.68-32.1 1631.33-32.1 1631.33-18.35ZM1699.66 0L1693.21 0 1685.81-13.9Q1683.51-13.8 1681.71-13.8L1681.71-13.8 1680.31-13.8 1680.31 0 1674.86 0 1674.86-36.75 1683.21-36.75Q1689.56-36.75 1693.66-34.13 1697.76-31.5 1697.76-25.6L1697.76-25.6Q1697.76-21.9 1696.04-19.23 1694.31-16.55 1690.91-15.1L1690.91-15.1 1699.66 0ZM1680.31-18.35L1683.86-18.35Q1688.76-18.35 1690.59-20.48 1692.41-22.6 1692.41-25.55L1692.41-25.55Q1692.41-32.1 1683.66-32.1L1683.66-32.1 1680.31-32.1 1680.31-18.35ZM1731.89 0L1731.89-17.15 1719.14-36.75 1725.84-36.75 1734.69-22.25 1743.54-36.75 1750.19-36.75 1737.49-17.05 1737.49 0 1731.89 0ZM1815.41-36.8L1815.96-36.8 1833.66 0 1827.21 0 1824.06-7.2 1807.21-7.2 1804.06 0 1797.81 0 1815.41-36.8ZM1815.66-26.15L1813.46-21.15 1809.46-12.25 1821.86-12.25 1817.91-21.1 1815.76-26.15 1815.66-26.15ZM1855.24 0L1855.24-36.75 1864.59-36.75Q1872.49-36.75 1875.09-34.1 1877.69-31.45 1877.69-27.7L1877.69-27.7Q1877.69-25.2 1876.59-22.98 1875.49-20.75 1873.09-19.65L1873.09-19.65Q1876.64-18.75 1878.31-16.5 1879.99-14.25 1879.99-11.2L1879.99-11.2Q1879.99-8 1878.99-5.6 1877.99-3.2 1874.84-1.6 1871.69 0 1865.74 0L1865.74 0 1855.24 0ZM1860.74-21.15L1865.49-21.15Q1869.04-21.15 1870.54-22.88 1872.04-24.6 1872.04-27.25L1872.04-27.25Q1872.04-32 1865.24-32L1865.24-32 1860.74-32 1860.74-21.15ZM1860.74-4.7L1866.49-4.7Q1871.04-4.7 1872.61-6.53 1874.19-8.35 1874.19-11.15L1874.19-11.15Q1874.19-13.8 1872.39-15.25 1870.59-16.7 1866.94-16.7L1866.94-16.7 1860.74-16.7 1860.74-4.7ZM1921.92 0.5Q1916.92 0.5 1912.7-1.83 1908.47-4.15 1905.97-8.45 1903.47-12.75 1903.47-18.45L1903.47-18.45Q1903.47-24.2 1905.97-28.48 1908.47-32.75 1912.7-35.05 1916.92-37.35 1921.92-37.35L1921.92-37.35Q1926.92-37.35 1931.15-35.05 1935.37-32.75 1937.87-28.48 1940.37-24.2 1940.37-18.45L1940.37-18.45Q1940.37-12.75 1937.87-8.45 1935.37-4.15 1931.15-1.83 1926.92 0.5 1921.92 0.5L1921.92 0.5ZM1921.92-4.55Q1925.37-4.55 1928.22-6.18 1931.07-7.8 1932.75-10.93 1934.42-14.05 1934.42-18.4L1934.42-18.4Q1934.42-22.8 1932.75-25.93 1931.07-29.05 1928.25-30.65 1925.42-32.25 1921.92-32.25L1921.92-32.25Q1918.42-32.25 1915.57-30.65 1912.72-29.05 1911.07-25.93 1909.42-22.8 1909.42-18.4L1909.42-18.4Q1909.42-14.05 1911.12-10.93 1912.82-7.8 1915.7-6.18 1918.57-4.55 1921.92-4.55L1921.92-4.55ZM1977.75 0.5Q1970.85 0.5 1967.75-3.65 1964.65-7.8 1964.65-15.7L1964.65-15.7 1964.65-36.75 1970.25-36.75 1970.25-15.6Q1970.25-9.75 1972-7.23 1973.75-4.7 1977.75-4.7L1977.75-4.7Q1981.75-4.7 1983.48-7.18 1985.2-9.65 1985.2-15.6L1985.2-15.6 1985.2-36.75 1990.85-36.75 1990.85-15.7Q1990.85-7.85 1987.58-3.68 1984.3 0.5 1977.75 0.5L1977.75 0.5ZM2022.69 0L2022.69-31.85 2013.29-31.85 2013.29-36.75 2037.74-36.75 2037.74-31.85 2028.24-31.85 2028.24 0 2022.69 0ZM2110.65 0L2101.8-17.15 2099.5-22.35 2098.45-17.15 2095.05 0 2089.5 0 2097.1-36.75 2097.7-36.75 2107.8-16.9 2110.8-10.25 2113.8-16.9 2123.7-36.75 2124.25-36.75 2132.15 0 2126.65 0 2122.95-17.15 2121.85-22.35 2119.85-17.15 2110.95 0 2110.65 0ZM2172.48 0.5Q2167.48 0.5 2163.26-1.83 2159.03-4.15 2156.53-8.45 2154.03-12.75 2154.03-18.45L2154.03-18.45Q2154.03-24.2 2156.53-28.48 2159.03-32.75 2163.26-35.05 2167.48-37.35 2172.48-37.35L2172.48-37.35Q2177.48-37.35 2181.71-35.05 2185.93-32.75 2188.43-28.48 2190.93-24.2 2190.93-18.45L2190.93-18.45Q2190.93-12.75 2188.43-8.45 2185.93-4.15 2181.71-1.83 2177.48 0.5 2172.48 0.5L2172.48 0.5ZM2172.48-4.55Q2175.93-4.55 2178.78-6.18 2181.63-7.8 2183.31-10.93 2184.98-14.05 2184.98-18.4L2184.98-18.4Q2184.98-22.8 2183.31-25.93 2181.63-29.05 2178.81-30.65 2175.98-32.25 2172.48-32.25L2172.48-32.25Q2168.98-32.25 2166.13-30.65 2163.28-29.05 2161.63-25.93 2159.98-22.8 2159.98-18.4L2159.98-18.4Q2159.98-14.05 2161.68-10.93 2163.38-7.8 2166.26-6.18 2169.13-4.55 2172.48-4.55L2172.48-4.55ZM2242.61 0L2221.11-23.8 2221.26-19.8 2221.26 0 2215.66 0 2215.66-36.8 2216.36-36.8 2237.96-12.7 2237.76-16.9 2237.76-36.75 2243.36-36.75 2243.36 0 2242.61 0ZM2269.59 0L2269.59-36.75 2285.69-36.75 2285.69-31.85 2275.14-31.85 2275.14-21.7 2283.64-21.7 2283.64-16.7 2275.14-16.7 2275.14-4.95 2287.34-4.95 2287.34 0 2269.59 0ZM2319.53 0L2319.53-17.15 2306.78-36.75 2313.48-36.75 2322.33-22.25 2331.18-36.75 2337.83-36.75 2325.13-17.05 2325.13 0 2319.53 0Z" opacity="1" transform="matrix(1,0,0,1,0,0)" fill="black" class="slogan-text-1" id="SvgjsPath6015" stroke-width="39" stroke="black" stroke-linejoin="round"></path></svg></g></svg></g></svg></g></svg></g></svg></g></svg></g></svg></g></mask><g mask="url(#bac0226d-0942-4bd5-80c1-7cbb481af60e)"><g><path d="M99.795 116.047v0.001 1.336c-0.097 3.97-0.513 8.085-1.249 12.345-0.717 4.26-1.743 8.521-3.079 12.781-1.317 4.241-2.895 8.443-4.735 12.607-1.859 4.164-3.931 8.143-6.216 11.939-2.285 3.815-4.754 7.388-7.407 10.719-2.653 3.331-5.442 6.274-8.366 8.83v0l-10.573-6.1c1.646-2.789 3.147-5.829 4.502-9.121 1.356-3.273 2.576-6.71 3.66-10.312 1.084-3.583 2.014-7.272 2.789-11.067 0.775-3.776 1.423-7.533 1.946-11.271 0.523-3.738 0.92-7.417 1.191-11.038 0.252-3.602 0.378-7.039 0.378-10.312v0c0-2.556-0.01-5.451-0.03-8.686-0.019-3.234-0.213-6.526-0.581-9.876-0.349-3.37-0.93-6.652-1.742-9.847-0.794-3.176-1.985-6.023-3.573-8.54-1.588-2.498-3.621-4.502-6.1-6.013-2.479-1.51-5.558-2.266-9.238-2.266v0c-3.273 0-6.081 0.552-8.424 1.656-2.343 1.104-4.328 2.595-5.954 4.473-1.627 1.859-2.924 4.018-3.893 6.478-0.968 2.459-1.724 5.054-2.266 7.785-0.542 2.711-0.9 5.451-1.074 8.22-0.155 2.769-0.232 5.384-0.233 7.843v0 19.782h30.559v11.706h-30.559v24.807h-28.176v-51.909c0-7.417 1.191-14.321 3.572-20.711 2.363-6.391 5.703-11.939 10.022-16.644 4.318-4.686 9.518-8.366 15.599-11.039 6.081-2.672 12.859-4.009 20.334-4.008v0c5.054 0 9.789 0.717 14.204 2.149 4.415 1.452 8.443 3.437 12.084 5.955 3.641 2.537 6.894 5.538 9.76 9.005 2.866 3.486 5.258 7.281 7.175 11.387 1.898 4.125 3.35 8.472 4.357 13.042 0.988 4.59 1.433 9.228 1.336 13.915zM146.243 120.376v44.53h-28.147v-102.133h73.317v13.072h-45.17v31.546h34.887v12.985zM214.535 62.773h20.653c-1.278 3.834-2.392 7.795-3.34 11.881-0.949 4.086-1.733 8.182-2.353 12.287-0.6 4.086-1.055 8.114-1.365 12.084-0.31 3.97-0.465 7.727-0.465 11.271v0c0 2.595 0.01 5.519 0.029 8.773 0.019 3.234 0.213 6.526 0.581 9.876 0.349 3.37 0.93 6.642 1.743 9.818 0.794 3.195 1.985 6.052 3.573 8.569 1.588 2.498 3.621 4.502 6.1 6.013 2.479 1.51 5.558 2.266 9.237 2.266v0c3.273 0 6.081-0.552 8.424-1.656 2.343-1.123 4.328-2.624 5.955-4.502 1.627-1.898 2.924-4.076 3.892-6.536 0.968-2.459 1.724-5.035 2.266-7.727 0.542-2.692 0.9-5.422 1.075-8.191 0.155-2.769 0.232-5.403 0.232-7.901v0-56.325h28.177v51.909c0 7.436-1.181 14.34-3.544 20.712-2.382 6.391-5.722 11.939-10.022 16.644-4.299 4.706-9.499 8.395-15.598 11.067-6.1 2.672-12.859 4.009-20.276 4.009v0c-5.112 0-9.867-0.726-14.262-2.179-4.396-1.433-8.424-3.418-12.084-5.954-3.66-2.518-6.923-5.519-9.79-9.005-2.866-3.466-5.258-7.262-7.175-11.387-1.898-4.105-3.35-8.443-4.357-13.014-0.988-4.551-1.433-9.169-1.336-13.856v0-1.423c0.039-3.776 0.416-7.688 1.133-11.735 0.717-4.047 1.675-8.104 2.876-12.172 1.201-4.067 2.653-8.095 4.357-12.084 1.704-3.989 3.592-7.833 5.664-11.532zM394.168 151.922v12.984h-73.317v-102.133h28.148v89.149z" fill="#68b6ff" fill-rule="nonzero" stroke="none" stroke-width="1" stroke-linecap="butt" stroke-linejoin="miter" stroke-miterlimit="10" stroke-dasharray="" stroke-dashoffset="0" font-family="none" font-weight="none" font-size="none" text-anchor="none" style="mix-blend-mode: normal" data-fill-palette-color="tertiary"></path></g></g><g transform="matrix(1,0,0,1,0,97.72714169527117)"><svg viewBox="0 0 395.52 51.74571660945765" height="51.74571660945765" width="395.52"><g><svg viewBox="0 0 395.52 51.74571660945765" height="51.74571660945765" width="395.52"><g><svg viewBox="0 0 395.52 51.74571660945765" height="51.74571660945765" width="395.52"><g><svg viewBox="0 0 395.52 51.74571660945765" height="51.74571660945765" width="395.52"><g id="textblocktransform"><svg viewBox="0 0 395.52 51.74571660945765" height="51.74571660945765" width="395.52" id="textblock"><g><svg viewBox="0 0 395.52 37.2820006339031" height="37.2820006339031" width="395.52"><g transform="matrix(1,0,0,1,0,0)"><svg width="395.52" viewBox="-16.44 -56.01 875.97 83.47999999999999" height="37.2820006339031" data-palette-color="#68b6ff"><path d="M37.45-16.82L37.45-16.82 37.45-16.36Q37.4-14.31 37.02-12.11 36.65-9.91 35.96-7.71 35.28-5.52 34.33-3.37 33.37-1.22 32.19 0.74 31.01 2.71 29.64 4.43 28.27 6.15 26.76 7.47L26.76 7.47 23.12 5.37Q23.97 3.93 24.67 2.23 25.37 0.54 25.93-1.32 26.49-3.17 26.89-5.13 27.29-7.08 27.56-9.01 27.83-10.94 27.97-12.81 28.1-14.67 28.1-16.36L28.1-16.36Q28.1-17.68 28.09-19.35 28.08-21.02 27.89-22.75 27.71-24.49 27.29-26.14 26.88-27.78 26.06-29.08 25.24-30.37 23.96-31.15 22.68-31.93 20.78-31.93L20.78-31.93Q19.09-31.93 17.88-31.36 16.67-30.79 15.83-29.82 14.99-28.86 14.49-27.59 13.99-26.32 13.71-24.91 13.43-23.51 13.34-22.08 13.26-20.65 13.26-19.38L13.26-19.38 13.26-12.57 23.78-12.57 23.78-8.54 13.26-8.54 13.26 0 3.56 0 3.56-17.87Q3.56-21.7 4.79-25 6.01-28.3 8.24-30.73 10.47-33.15 13.61-34.53 16.75-35.91 20.61-35.91L20.61-35.91Q23.22-35.91 25.5-35.17 27.78-34.42 29.66-33.12 31.54-31.81 33.02-30.02 34.5-28.22 35.49-26.1 36.47-23.97 36.99-21.61 37.5-19.24 37.45-16.82ZM53.44-15.33L53.44 0 43.75 0 43.75-35.16 68.99-35.16 68.99-30.66 53.44-30.66 53.44-19.8 65.45-19.8 65.45-15.33 53.44-15.33ZM83.74-13.13L83.74 0 74.04 0 74.04-35.16 91.33-35.16Q93.77-35.16 96.04-34.58 98.31-34.01 100.06-32.78 101.8-31.54 102.84-29.59 103.88-27.64 103.88-24.85L103.88-24.85Q103.88-22.68 102.96-20.76 102.05-18.85 100.52-17.35 98.99-15.84 97.02-14.86 95.04-13.87 92.91-13.55L92.91-13.55Q93.87-11.94 94.9-10.5 95.94-9.06 97-7.8 98.07-6.54 99.12-5.48 100.17-4.42 101.12-3.54L101.12-3.54Q103.36-1.49 105.56 0L105.56 0 93.48 0Q92.01-1.39 90.69-3.34L90.69-3.34Q89.57-5 88.43-7.46 87.3-9.91 86.69-13.13L86.69-13.13 83.74-13.13ZM94.04-24.85L94.04-24.85Q94.04-28.39 92.32-30.05 90.6-31.71 87.15-31.71L87.15-31.71 83.74-31.71 83.74-16.46 87.15-16.46Q88.98-16.46 90.29-17.15 91.6-17.85 92.43-19.01 93.26-20.17 93.65-21.68 94.04-23.19 94.04-24.85ZM119.82-35.16L119.82 0 110.12 0 110.12-35.16 119.82-35.16ZM151.62-15.33L151.62 0 141.93 0 141.93-35.16 167.18-35.16 167.18-30.66 151.62-30.66 151.62-19.8 163.63-19.8 163.63-15.33 151.62-15.33ZM175.13-35.16L182.24-35.16Q181.58-33.18 181.09-31.07 180.6-28.96 180.28-26.84 179.97-24.73 179.81-22.68 179.65-20.63 179.65-18.8L179.65-18.8Q179.65-17.46 179.66-15.78 179.67-14.11 179.86-12.38 180.04-10.64 180.45-9 180.87-7.35 181.69-6.05 182.5-4.76 183.79-3.98 185.07-3.2 186.97-3.2L186.97-3.2Q188.66-3.2 189.87-3.77 191.07-4.35 191.92-5.32 192.76-6.3 193.26-7.57 193.76-8.84 194.04-10.23 194.32-11.62 194.41-13.05 194.49-14.48 194.49-15.77L194.49-15.77 194.49-35.16 204.18-35.16 204.18-17.29Q204.18-13.45 202.96-10.16 201.74-6.86 199.52-4.43 197.3-2 194.15-0.62 191 0.76 187.17 0.76L187.17 0.76Q184.53 0.76 182.26 0.01 179.99-0.73 178.1-2.04 176.21-3.34 174.73-5.14 173.25-6.93 172.26-9.06 171.27-11.18 170.76-13.54 170.25-15.89 170.3-18.31L170.3-18.31 170.3-18.8Q170.32-20.75 170.69-22.84 171.05-24.93 171.68-27.03 172.3-29.13 173.18-31.19 174.06-33.25 175.13-35.16L175.13-35.16ZM216.22-24.12L216.22 0 211.73 0 211.73-35.16 218.02-35.16 239.39-11.01 239.39-35.16 243.85-35.16 243.85 0 237.56 0 216.22-24.12ZM285.89-17.63L285.89-17.63Q285.89-15.06 285.21-12.76 284.53-10.45 283.29-8.5 282.06-6.54 280.35-4.97 278.64-3.39 276.58-2.29 274.52-1.2 272.16-0.6 269.8 0 267.31 0L267.31 0 251.81 0 251.81-35.16 267.31-35.16Q269.8-35.16 272.15-34.57 274.49-33.98 276.55-32.9 278.62-31.81 280.34-30.25 282.06-28.69 283.29-26.75 284.53-24.8 285.21-22.5 285.89-20.19 285.89-17.63ZM276.05-17.63L276.05-17.63Q276.05-20.48 275.36-23.06 274.66-25.63 273.2-27.59 271.73-29.54 269.47-30.69 267.22-31.84 264.07-31.84L264.07-31.84 261.5-31.84 261.5-3.42 264.07-3.42Q267.17-3.42 269.43-4.58 271.68-5.74 273.16-7.7 274.64-9.67 275.35-12.23 276.05-14.79 276.05-17.63ZM309.2-35.16L316.31-35.16Q315.65-33.18 315.16-31.07 314.67-28.96 314.35-26.84 314.04-24.73 313.88-22.68 313.72-20.63 313.72-18.8L313.72-18.8Q313.72-17.46 313.73-15.78 313.74-14.11 313.93-12.38 314.11-10.64 314.53-9 314.94-7.35 315.76-6.05 316.58-4.76 317.86-3.98 319.14-3.2 321.04-3.2L321.04-3.2Q322.73-3.2 323.94-3.77 325.15-4.35 325.99-5.32 326.83-6.3 327.33-7.57 327.83-8.84 328.11-10.23 328.39-11.62 328.48-13.05 328.56-14.48 328.56-15.77L328.56-15.77 328.56-35.16 338.26-35.16 338.26-17.29Q338.26-13.45 337.04-10.16 335.81-6.86 333.59-4.43 331.37-2 328.22-0.62 325.07 0.76 321.24 0.76L321.24 0.76Q318.6 0.76 316.33 0.01 314.06-0.73 312.17-2.04 310.28-3.34 308.8-5.14 307.32-6.93 306.33-9.06 305.35-11.18 304.83-13.54 304.32-15.89 304.37-18.31L304.37-18.31 304.37-18.8Q304.39-20.75 304.76-22.84 305.13-24.93 305.75-27.03 306.37-29.13 307.25-31.19 308.13-33.25 309.2-35.16L309.2-35.16ZM350.29-24.12L350.29 0 345.8 0 345.8-35.16 352.1-35.16 373.46-11.01 373.46-35.16 377.93-35.16 377.93 0 371.63 0 350.29-24.12ZM395.58-35.16L395.58 0 385.88 0 385.88-35.16 395.58-35.16ZM434.2-35.16L421.74 0 412.88 0 399.75-35.16 409.64-35.16 419.38-6.86 428.19-35.16 434.2-35.16ZM463.66-4.49L463.66 0 438.42 0 438.42-35.16 463.66-35.16 463.66-30.66 448.11-30.66 448.11-19.8 460.12-19.8 460.12-15.33 448.11-15.33 448.11-4.49 463.66-4.49ZM479.36-13.13L479.36 0 469.66 0 469.66-35.16 486.95-35.16Q489.39-35.16 491.66-34.58 493.93-34.01 495.68-32.78 497.42-31.54 498.46-29.59 499.5-27.64 499.5-24.85L499.5-24.85Q499.5-22.68 498.58-20.76 497.67-18.85 496.14-17.35 494.62-15.84 492.64-14.86 490.66-13.87 488.54-13.55L488.54-13.55Q489.49-11.94 490.53-10.5 491.56-9.06 492.63-7.8 493.69-6.54 494.74-5.48 495.79-4.42 496.74-3.54L496.74-3.54Q498.99-1.49 501.18 0L501.18 0 489.1 0Q487.63-1.39 486.32-3.34L486.32-3.34Q485.19-5 484.06-7.46 482.92-9.91 482.31-13.13L482.31-13.13 479.36-13.13ZM489.66-24.85L489.66-24.85Q489.66-28.39 487.94-30.05 486.22-31.71 482.78-31.71L482.78-31.71 479.36-31.71 479.36-16.46 482.78-16.46Q484.61-16.46 485.91-17.15 487.22-17.85 488.05-19.01 488.88-20.17 489.27-21.68 489.66-23.19 489.66-24.85ZM534.55-10.74L534.55-10.74Q534.55-8.47 533.98-6.74 533.41-5 532.37-3.74 531.33-2.47 529.92-1.61 528.5-0.76 526.83-0.24 525.16 0.27 523.29 0.49 521.42 0.71 519.49 0.71L519.49 0.71Q516.95 0.71 514.8 0.33 512.66-0.05 510.76-0.87 508.87-1.68 507.13-2.98 505.38-4.27 503.65-6.13L503.65-6.13 508.63-11.18Q509.31-9.5 510.51-8.07 511.7-6.64 513.13-5.62 514.56-4.59 516.1-4 517.64-3.42 519-3.42L519-3.42Q520.61-3.42 522.03-3.65 523.45-3.88 524.5-4.42 525.55-4.96 526.14-5.85 526.74-6.74 526.74-8.08L526.74-8.08Q526.74-9.11 526.28-9.84 525.81-10.57 525.07-11.1 524.33-11.62 523.37-11.99 522.42-12.35 521.43-12.61 520.44-12.87 519.49-13.07 518.54-13.28 517.81-13.5L517.81-13.5Q516.37-13.92 514.8-14.39 513.24-14.87 511.73-15.48 510.21-16.09 508.86-16.88 507.5-17.68 506.48-18.76 505.45-19.85 504.84-21.28 504.23-22.71 504.23-24.56L504.23-24.56Q504.23-26.78 504.78-28.5 505.33-30.22 506.33-31.49 507.33-32.76 508.7-33.63 510.07-34.5 511.7-35.02 513.34-35.55 515.18-35.78 517.03-36.01 518.95-36.01L518.95-36.01Q521.59-36.01 523.75-35.52 525.91-35.03 527.74-34.13 529.57-33.23 531.1-31.97 532.63-30.71 533.97-29.17L533.97-29.17 528.99-24.12Q528.4-25.88 527.36-27.29 526.33-28.71 525.06-29.72 523.79-30.74 522.4-31.29 521-31.84 519.71-31.84L519.71-31.84Q518.03-31.84 516.61-31.6 515.19-31.37 514.18-30.85 513.17-30.32 512.61-29.43 512.04-28.54 512.04-27.22L512.04-27.22Q512.04-26.17 512.46-25.44 512.88-24.71 513.57-24.19 514.27-23.68 515.15-23.35 516.02-23.02 516.96-22.78 517.9-22.53 518.82-22.35 519.74-22.17 520.49-21.95L520.49-21.95Q521.96-21.53 523.57-21.07 525.18-20.61 526.74-19.98 528.3-19.36 529.72-18.55 531.14-17.75 532.21-16.64 533.29-15.53 533.92-14.07 534.55-12.62 534.55-10.74ZM550.27-35.16L550.27 0 540.58 0 540.58-35.16 550.27-35.16ZM574.49-30.66L574.49 0 564.8 0 564.8-30.66 555.23-30.66 555.23-35.16 584.06-35.16 584.06-30.66 574.49-30.66ZM610.72-35.16L617.56-35.16 606.18-14.77 606.18 0 596.49 0 596.49-14.23 584.99-35.16 594.87-35.16 602.52-17.48 610.72-35.16ZM660.84-4.47L660.84 0 635.59 0 635.59-35.16 645.28-35.16 645.28-4.47 660.84-4.47ZM690.64-4.49L690.64 0 665.4 0 665.4-35.16 690.64-35.16 690.64-30.66 675.09-30.66 675.09-19.8 687.1-19.8 687.1-15.33 675.09-15.33 675.09-4.49 690.64-4.49ZM701.14-24.12L701.14 0 696.65 0 696.65-35.16 702.95-35.16 724.31-11.01 724.31-35.16 728.78-35.16 728.78 0 722.48 0 701.14-24.12ZM770.81-17.63L770.81-17.63Q770.81-15.06 770.13-12.76 769.45-10.45 768.21-8.5 766.98-6.54 765.27-4.97 763.56-3.39 761.5-2.29 759.44-1.2 757.08-0.6 754.73 0 752.23 0L752.23 0 736.73 0 736.73-35.16 752.23-35.16Q754.73-35.16 757.07-34.57 759.41-33.98 761.48-32.9 763.54-31.81 765.26-30.25 766.98-28.69 768.21-26.75 769.45-24.8 770.13-22.5 770.81-20.19 770.81-17.63ZM760.98-17.63L760.98-17.63Q760.98-20.48 760.28-23.06 759.58-25.63 758.12-27.59 756.65-29.54 754.4-30.69 752.14-31.84 748.99-31.84L748.99-31.84 746.42-31.84 746.42-3.42 748.99-3.42Q752.09-3.42 754.35-4.58 756.61-5.74 758.08-7.7 759.56-9.67 760.27-12.23 760.98-14.79 760.98-17.63ZM802.01-4.49L802.01 0 776.77 0 776.77-35.16 802.01-35.16 802.01-30.66 786.46-30.66 786.46-19.8 798.47-19.8 798.47-15.33 786.46-15.33 786.46-4.49 802.01-4.49ZM817.71-13.13L817.71 0 808.02 0 808.02-35.16 825.3-35.16Q827.74-35.16 830.01-34.58 832.28-34.01 834.03-32.78 835.77-31.54 836.81-29.59 837.85-27.64 837.85-24.85L837.85-24.85Q837.85-22.68 836.93-20.76 836.02-18.85 834.49-17.35 832.97-15.84 830.99-14.86 829.01-13.87 826.89-13.55L826.89-13.55Q827.84-11.94 828.88-10.5 829.92-9.06 830.98-7.8 832.04-6.54 833.09-5.48 834.14-4.42 835.09-3.54L835.09-3.54Q837.34-1.49 839.53 0L839.53 0 827.45 0Q825.98-1.39 824.67-3.34L824.67-3.34Q823.54-5 822.41-7.46 821.27-9.91 820.66-13.13L820.66-13.13 817.71-13.13ZM828.01-24.85L828.01-24.85Q828.01-28.39 826.29-30.05 824.57-31.71 821.13-31.71L821.13-31.71 817.71-31.71 817.71-16.46 821.13-16.46Q822.96-16.46 824.26-17.15 825.57-17.85 826.4-19.01 827.23-20.17 827.62-21.68 828.01-23.19 828.01-24.85Z" opacity="1" transform="matrix(1,0,0,1,0,0)" fill="#68b6ff" class="wordmark-text-0" data-fill-palette-color="primary" id="text-0"></path></svg></g></svg></g><g transform="matrix(1,0,0,1,19.5,40.14996429593454)"><svg viewBox="0 0 356.52 11.595752313523116" height="11.595752313523116" width="356.52"><g transform="matrix(1,0,0,1,0,0)"><svg width="356.52" viewBox="-20.4 -57.35 2378.23 77.85" height="11.595752313523116" data-palette-color="#68b6ff"><path d="M24.75-36.95L34.8-13.1 43.6-36.75 49.55-36.75 35.25 0 34.55 0 24.55-23.8 14.6-0.05 13.9-0.05-0.4-36.75 5.55-36.75 14.35-13.1 24.45-36.95 24.75-36.95ZM87.93 0.5Q82.93 0.5 78.71-1.83 74.48-4.15 71.98-8.45 69.48-12.75 69.48-18.45L69.48-18.45Q69.48-24.2 71.98-28.48 74.48-32.75 78.71-35.05 82.93-37.35 87.93-37.35L87.93-37.35Q92.93-37.35 97.16-35.05 101.38-32.75 103.88-28.48 106.38-24.2 106.38-18.45L106.38-18.45Q106.38-12.75 103.88-8.45 101.38-4.15 97.16-1.83 92.93 0.5 87.93 0.5L87.93 0.5ZM87.93-4.55Q91.38-4.55 94.23-6.18 97.08-7.8 98.76-10.93 100.43-14.05 100.43-18.4L100.43-18.4Q100.43-22.8 98.76-25.93 97.08-29.05 94.26-30.65 91.43-32.25 87.93-32.25L87.93-32.25Q84.43-32.25 81.58-30.65 78.73-29.05 77.08-25.93 75.43-22.8 75.43-18.4L75.43-18.4Q75.43-14.05 77.13-10.93 78.83-7.8 81.71-6.18 84.58-4.55 87.93-4.55L87.93-4.55ZM155.91 0L149.46 0 142.06-13.9Q139.76-13.8 137.96-13.8L137.96-13.8 136.56-13.8 136.56 0 131.11 0 131.11-36.75 139.46-36.75Q145.81-36.75 149.91-34.13 154.01-31.5 154.01-25.6L154.01-25.6Q154.01-21.9 152.29-19.23 150.56-16.55 147.16-15.1L147.16-15.1 155.91 0ZM136.56-18.35L140.11-18.35Q145.01-18.35 146.84-20.48 148.66-22.6 148.66-25.55L148.66-25.55Q148.66-32.1 139.91-32.1L139.91-32.1 136.56-32.1 136.56-18.35ZM204.9 0L198.45 0 191.05-13.9Q188.75-13.8 186.95-13.8L186.95-13.8 185.55-13.8 185.55 0 180.1 0 180.1-36.75 188.45-36.75Q194.8-36.75 198.9-34.13 203-31.5 203-25.6L203-25.6Q203-21.9 201.27-19.23 199.55-16.55 196.15-15.1L196.15-15.1 204.9 0ZM185.55-18.35L189.1-18.35Q194-18.35 195.82-20.48 197.65-22.6 197.65-25.55L197.65-25.55Q197.65-32.1 188.9-32.1L188.9-32.1 185.55-32.1 185.55-18.35ZM237.13 0L237.13-17.15 224.38-36.75 231.08-36.75 239.93-22.25 248.78-36.75 255.43-36.75 242.73-17.05 242.73 0 237.13 0ZM320.64-36.8L321.19-36.8 338.89 0 332.44 0 329.29-7.2 312.44-7.2 309.29 0 303.04 0 320.64-36.8ZM320.89-26.15L318.69-21.15 314.69-12.25 327.09-12.25 323.14-21.1 320.99-26.15 320.89-26.15ZM360.47 0L360.47-36.75 369.82-36.75Q377.72-36.75 380.32-34.1 382.92-31.45 382.92-27.7L382.92-27.7Q382.92-25.2 381.82-22.98 380.72-20.75 378.32-19.65L378.32-19.65Q381.87-18.75 383.55-16.5 385.22-14.25 385.22-11.2L385.22-11.2Q385.22-8 384.22-5.6 383.22-3.2 380.07-1.6 376.92 0 370.97 0L370.97 0 360.47 0ZM365.97-21.15L370.72-21.15Q374.27-21.15 375.77-22.88 377.27-24.6 377.27-27.25L377.27-27.25Q377.27-32 370.47-32L370.47-32 365.97-32 365.97-21.15ZM365.97-4.7L371.72-4.7Q376.27-4.7 377.85-6.53 379.42-8.35 379.42-11.15L379.42-11.15Q379.42-13.8 377.62-15.25 375.82-16.7 372.17-16.7L372.17-16.7 365.97-16.7 365.97-4.7ZM427.15 0.5Q422.15 0.5 417.93-1.83 413.7-4.15 411.2-8.45 408.7-12.75 408.7-18.45L408.7-18.45Q408.7-24.2 411.2-28.48 413.7-32.75 417.93-35.05 422.15-37.35 427.15-37.35L427.15-37.35Q432.15-37.35 436.38-35.05 440.6-32.75 443.1-28.48 445.6-24.2 445.6-18.45L445.6-18.45Q445.6-12.75 443.1-8.45 440.6-4.15 436.38-1.83 432.15 0.5 427.15 0.5L427.15 0.5ZM427.15-4.55Q430.6-4.55 433.45-6.18 436.3-7.8 437.98-10.93 439.65-14.05 439.65-18.4L439.65-18.4Q439.65-22.8 437.98-25.93 436.3-29.05 433.48-30.65 430.65-32.25 427.15-32.25L427.15-32.25Q423.65-32.25 420.8-30.65 417.95-29.05 416.3-25.93 414.65-22.8 414.65-18.4L414.65-18.4Q414.65-14.05 416.35-10.93 418.05-7.8 420.93-6.18 423.8-4.55 427.15-4.55L427.15-4.55ZM482.99 0.5Q476.09 0.5 472.99-3.65 469.89-7.8 469.89-15.7L469.89-15.7 469.89-36.75 475.49-36.75 475.49-15.6Q475.49-9.75 477.24-7.23 478.99-4.7 482.99-4.7L482.99-4.7Q486.99-4.7 488.71-7.18 490.44-9.65 490.44-15.6L490.44-15.6 490.44-36.75 496.09-36.75 496.09-15.7Q496.09-7.85 492.81-3.68 489.54 0.5 482.99 0.5L482.99 0.5ZM527.92 0L527.92-31.85 518.52-31.85 518.52-36.75 542.97-36.75 542.97-31.85 533.47-31.85 533.47 0 527.92 0ZM610.48-36.8L611.03-36.8 628.73 0 622.28 0 619.13-7.2 602.28-7.2 599.13 0 592.88 0 610.48-36.8ZM610.73-26.15L608.53-21.15 604.53-12.25 616.93-12.25 612.98-21.1 610.83-26.15 610.73-26.15ZM665.51 0.35Q659.81 0.35 655.64-2.2 651.46-4.75 649.26-9.03 647.06-13.3 647.06-18.45L647.06-18.45Q647.06-23.9 649.44-28.2 651.81-32.5 656.11-34.93 660.41-37.35 665.86-37.35L665.86-37.35Q668.31-37.35 670.44-36.83 672.56-36.3 673.96-35.63 675.36-34.95 675.81-34.5L675.81-34.5 673.36-29.5Q670.31-32.2 665.41-32.2L665.41-32.2Q661.96-32.2 659.16-30.5 656.36-28.8 654.76-25.65 653.16-22.5 653.16-18.35L653.16-18.35Q653.16-14.55 654.59-11.45 656.01-8.35 658.76-6.55 661.51-4.75 665.31-4.75L665.31-4.75Q669.71-4.75 673.81-7.25L673.81-7.25 675.46-2.5Q674.36-1.5 671.44-0.58 668.51 0.35 665.51 0.35L665.51 0.35ZM700.4 0L700.4-36.75 706-36.75 706 0 700.4 0ZM759.88 0L738.38-23.8 738.53-19.8 738.53 0 732.93 0 732.93-36.8 733.63-36.8 755.23-12.7 755.03-16.9 755.03-36.75 760.63-36.75 760.63 0 759.88 0ZM804.06 0.5Q798.61 0.5 794.31-2 790.01-4.5 787.58-8.88 785.16-13.25 785.16-18.7L785.16-18.7Q785.16-24 787.61-28.25 790.06-32.5 794.41-34.9 798.76-37.3 804.21-37.3L804.21-37.3Q807.16-37.3 809.53-36.77 811.91-36.25 813.41-35.58 814.91-34.9 815.46-34.4L815.46-34.4 813.26-29.7Q810.16-32.2 804.11-32.2L804.11-32.2Q800.11-32.2 797.16-30.45 794.21-28.7 792.66-25.7 791.11-22.7 791.11-19L791.11-19Q791.11-14.8 792.78-11.5 794.46-8.2 797.43-6.38 800.41-4.55 804.16-4.55L804.16-4.55Q806.51-4.55 808.66-5.13 810.81-5.7 812.31-6.95L812.31-6.95 812.31-14.05 804.76-14.05 804.76-19.2 817.86-19.2 817.86-4.8Q816.06-2.55 812.43-1.03 808.81 0.5 804.06 0.5L804.06 0.5ZM880.32 0L880.32-31.85 870.92-31.85 870.92-36.75 895.37-36.75 895.37-31.85 885.87-31.85 885.87 0 880.32 0ZM919.2 0L919.2-36.75 924.8-36.75 924.8-21.75 937.75-21.75 937.75-36.75 943.35-36.75 943.35 0 937.75 0 937.75-17.05 924.8-17.05 924.8 0 919.2 0ZM982.49-36.8L983.04-36.8 1000.74 0 994.29 0 991.14-7.2 974.29-7.2 971.14 0 964.89 0 982.49-36.8ZM982.74-26.15L980.54-21.15 976.54-12.25 988.94-12.25 984.99-21.1 982.84-26.15 982.74-26.15ZM1026.32 0L1026.32-31.85 1016.92-31.85 1016.92-36.75 1041.37-36.75 1041.37-31.85 1031.87-31.85 1031.87 0 1026.32 0ZM1108.88-36.8L1109.43-36.8 1127.13 0 1120.68 0 1117.53-7.2 1100.68-7.2 1097.53 0 1091.28 0 1108.88-36.8ZM1109.13-26.15L1106.93-21.15 1102.93-12.25 1115.33-12.25 1111.38-21.1 1109.23-26.15 1109.13-26.15ZM1158.51-4.6L1158.51-13.8 1149.06-13.8 1149.06-18.4 1158.51-18.4 1158.51-27.6 1163.36-27.6 1163.36-18.4 1172.86-18.4 1172.86-13.8 1163.36-13.8 1163.36-4.6 1158.51-4.6ZM1243.18-36.8L1243.73-36.8 1261.43 0 1254.98 0 1251.83-7.2 1234.98-7.2 1231.83 0 1225.58 0 1243.18-36.8ZM1243.43-26.15L1241.23-21.15 1237.23-12.25 1249.63-12.25 1245.68-21.1 1243.53-26.15 1243.43-26.15ZM1291.46 0.5Q1288.46 0.5 1285.51-0.55 1282.56-1.6 1281.26-2.9L1281.26-2.9 1283.91-7.65Q1284.96-6.7 1287.18-5.68 1289.41-4.65 1291.46-4.65L1291.46-4.65Q1294.11-4.65 1295.78-5.9 1297.46-7.15 1297.46-9.35L1297.46-9.35Q1297.46-11.05 1296.56-12.3 1295.66-13.55 1294.36-14.38 1293.06-15.2 1290.66-16.4L1290.66-16.4Q1287.81-17.8 1286.76-18.5L1286.76-18.5Q1281.91-21.75 1281.91-27.5L1281.91-27.5Q1281.91-32.25 1285.06-34.77 1288.21-37.3 1293.01-37.3L1293.01-37.3Q1298.16-37.3 1301.76-34.35L1301.76-34.35 1299.11-29.8Q1298.16-30.8 1296.43-31.53 1294.71-32.25 1292.76-32.25L1292.76-32.25Q1290.26-32.25 1288.83-31.13 1287.41-30 1287.41-27.8L1287.41-27.8Q1287.41-26.25 1288.31-25.03 1289.21-23.8 1290.58-22.9 1291.96-22 1294.31-20.7L1294.31-20.7Q1296.56-19.45 1297.76-18.73 1298.96-18 1300.01-17L1300.01-17Q1301.46-15.7 1302.36-13.9 1303.26-12.1 1303.26-9.95L1303.26-9.95Q1303.26-6.6 1301.73-4.25 1300.21-1.9 1297.53-0.7 1294.86 0.5 1291.46 0.5L1291.46 0.5ZM1379.32-36.95L1389.37-13.1 1398.17-36.75 1404.12-36.75 1389.82 0 1389.12 0 1379.12-23.8 1369.17-0.05 1368.47-0.05 1354.17-36.75 1360.12-36.75 1368.92-13.1 1379.02-36.95 1379.32-36.95ZM1426.05 0L1426.05-36.75 1442.15-36.75 1442.15-31.85 1431.6-31.85 1431.6-21.7 1440.1-21.7 1440.1-16.7 1431.6-16.7 1431.6-4.95 1443.8-4.95 1443.8 0 1426.05 0ZM1519.52-36.95L1529.57-13.1 1538.37-36.75 1544.32-36.75 1530.02 0 1529.32 0 1519.32-23.8 1509.37-0.05 1508.67-0.05 1494.37-36.75 1500.32-36.75 1509.12-13.1 1519.22-36.95 1519.52-36.95ZM1582.7 0.5Q1577.7 0.5 1573.47-1.83 1569.25-4.15 1566.75-8.45 1564.25-12.75 1564.25-18.45L1564.25-18.45Q1564.25-24.2 1566.75-28.48 1569.25-32.75 1573.47-35.05 1577.7-37.35 1582.7-37.35L1582.7-37.35Q1587.7-37.35 1591.92-35.05 1596.15-32.75 1598.65-28.48 1601.15-24.2 1601.15-18.45L1601.15-18.45Q1601.15-12.75 1598.65-8.45 1596.15-4.15 1591.92-1.83 1587.7 0.5 1582.7 0.5L1582.7 0.5ZM1582.7-4.55Q1586.15-4.55 1589-6.18 1591.85-7.8 1593.52-10.93 1595.2-14.05 1595.2-18.4L1595.2-18.4Q1595.2-22.8 1593.52-25.93 1591.85-29.05 1589.02-30.65 1586.2-32.25 1582.7-32.25L1582.7-32.25Q1579.2-32.25 1576.35-30.65 1573.5-29.05 1571.85-25.93 1570.2-22.8 1570.2-18.4L1570.2-18.4Q1570.2-14.05 1571.9-10.93 1573.6-7.8 1576.47-6.18 1579.35-4.55 1582.7-4.55L1582.7-4.55ZM1650.68 0L1644.23 0 1636.83-13.9Q1634.53-13.8 1632.73-13.8L1632.73-13.8 1631.33-13.8 1631.33 0 1625.88 0 1625.88-36.75 1634.23-36.75Q1640.58-36.75 1644.68-34.13 1648.78-31.5 1648.78-25.6L1648.78-25.6Q1648.78-21.9 1647.06-19.23 1645.33-16.55 1641.93-15.1L1641.93-15.1 1650.68 0ZM1631.33-18.35L1634.88-18.35Q1639.78-18.35 1641.61-20.48 1643.43-22.6 1643.43-25.55L1643.43-25.55Q1643.43-32.1 1634.68-32.1L1634.68-32.1 1631.33-32.1 1631.33-18.35ZM1699.66 0L1693.21 0 1685.81-13.9Q1683.51-13.8 1681.71-13.8L1681.71-13.8 1680.31-13.8 1680.31 0 1674.86 0 1674.86-36.75 1683.21-36.75Q1689.56-36.75 1693.66-34.13 1697.76-31.5 1697.76-25.6L1697.76-25.6Q1697.76-21.9 1696.04-19.23 1694.31-16.55 1690.91-15.1L1690.91-15.1 1699.66 0ZM1680.31-18.35L1683.86-18.35Q1688.76-18.35 1690.59-20.48 1692.41-22.6 1692.41-25.55L1692.41-25.55Q1692.41-32.1 1683.66-32.1L1683.66-32.1 1680.31-32.1 1680.31-18.35ZM1731.89 0L1731.89-17.15 1719.14-36.75 1725.84-36.75 1734.69-22.25 1743.54-36.75 1750.19-36.75 1737.49-17.05 1737.49 0 1731.89 0ZM1815.41-36.8L1815.96-36.8 1833.66 0 1827.21 0 1824.06-7.2 1807.21-7.2 1804.06 0 1797.81 0 1815.41-36.8ZM1815.66-26.15L1813.46-21.15 1809.46-12.25 1821.86-12.25 1817.91-21.1 1815.76-26.15 1815.66-26.15ZM1855.24 0L1855.24-36.75 1864.59-36.75Q1872.49-36.75 1875.09-34.1 1877.69-31.45 1877.69-27.7L1877.69-27.7Q1877.69-25.2 1876.59-22.98 1875.49-20.75 1873.09-19.65L1873.09-19.65Q1876.64-18.75 1878.31-16.5 1879.99-14.25 1879.99-11.2L1879.99-11.2Q1879.99-8 1878.99-5.6 1877.99-3.2 1874.84-1.6 1871.69 0 1865.74 0L1865.74 0 1855.24 0ZM1860.74-21.15L1865.49-21.15Q1869.04-21.15 1870.54-22.88 1872.04-24.6 1872.04-27.25L1872.04-27.25Q1872.04-32 1865.24-32L1865.24-32 1860.74-32 1860.74-21.15ZM1860.74-4.7L1866.49-4.7Q1871.04-4.7 1872.61-6.53 1874.19-8.35 1874.19-11.15L1874.19-11.15Q1874.19-13.8 1872.39-15.25 1870.59-16.7 1866.94-16.7L1866.94-16.7 1860.74-16.7 1860.74-4.7ZM1921.92 0.5Q1916.92 0.5 1912.7-1.83 1908.47-4.15 1905.97-8.45 1903.47-12.75 1903.47-18.45L1903.47-18.45Q1903.47-24.2 1905.97-28.48 1908.47-32.75 1912.7-35.05 1916.92-37.35 1921.92-37.35L1921.92-37.35Q1926.92-37.35 1931.15-35.05 1935.37-32.75 1937.87-28.48 1940.37-24.2 1940.37-18.45L1940.37-18.45Q1940.37-12.75 1937.87-8.45 1935.37-4.15 1931.15-1.83 1926.92 0.5 1921.92 0.5L1921.92 0.5ZM1921.92-4.55Q1925.37-4.55 1928.22-6.18 1931.07-7.8 1932.75-10.93 1934.42-14.05 1934.42-18.4L1934.42-18.4Q1934.42-22.8 1932.75-25.93 1931.07-29.05 1928.25-30.65 1925.42-32.25 1921.92-32.25L1921.92-32.25Q1918.42-32.25 1915.57-30.65 1912.72-29.05 1911.07-25.93 1909.42-22.8 1909.42-18.4L1909.42-18.4Q1909.42-14.05 1911.12-10.93 1912.82-7.8 1915.7-6.18 1918.57-4.55 1921.92-4.55L1921.92-4.55ZM1977.75 0.5Q1970.85 0.5 1967.75-3.65 1964.65-7.8 1964.65-15.7L1964.65-15.7 1964.65-36.75 1970.25-36.75 1970.25-15.6Q1970.25-9.75 1972-7.23 1973.75-4.7 1977.75-4.7L1977.75-4.7Q1981.75-4.7 1983.48-7.18 1985.2-9.65 1985.2-15.6L1985.2-15.6 1985.2-36.75 1990.85-36.75 1990.85-15.7Q1990.85-7.85 1987.58-3.68 1984.3 0.5 1977.75 0.5L1977.75 0.5ZM2022.69 0L2022.69-31.85 2013.29-31.85 2013.29-36.75 2037.74-36.75 2037.74-31.85 2028.24-31.85 2028.24 0 2022.69 0ZM2110.65 0L2101.8-17.15 2099.5-22.35 2098.45-17.15 2095.05 0 2089.5 0 2097.1-36.75 2097.7-36.75 2107.8-16.9 2110.8-10.25 2113.8-16.9 2123.7-36.75 2124.25-36.75 2132.15 0 2126.65 0 2122.95-17.15 2121.85-22.35 2119.85-17.15 2110.95 0 2110.65 0ZM2172.48 0.5Q2167.48 0.5 2163.26-1.83 2159.03-4.15 2156.53-8.45 2154.03-12.75 2154.03-18.45L2154.03-18.45Q2154.03-24.2 2156.53-28.48 2159.03-32.75 2163.26-35.05 2167.48-37.35 2172.48-37.35L2172.48-37.35Q2177.48-37.35 2181.71-35.05 2185.93-32.75 2188.43-28.48 2190.93-24.2 2190.93-18.45L2190.93-18.45Q2190.93-12.75 2188.43-8.45 2185.93-4.15 2181.71-1.83 2177.48 0.5 2172.48 0.5L2172.48 0.5ZM2172.48-4.55Q2175.93-4.55 2178.78-6.18 2181.63-7.8 2183.31-10.93 2184.98-14.05 2184.98-18.4L2184.98-18.4Q2184.98-22.8 2183.31-25.93 2181.63-29.05 2178.81-30.65 2175.98-32.25 2172.48-32.25L2172.48-32.25Q2168.98-32.25 2166.13-30.65 2163.28-29.05 2161.63-25.93 2159.98-22.8 2159.98-18.4L2159.98-18.4Q2159.98-14.05 2161.68-10.93 2163.38-7.8 2166.26-6.18 2169.13-4.55 2172.48-4.55L2172.48-4.55ZM2242.61 0L2221.11-23.8 2221.26-19.8 2221.26 0 2215.66 0 2215.66-36.8 2216.36-36.8 2237.96-12.7 2237.76-16.9 2237.76-36.75 2243.36-36.75 2243.36 0 2242.61 0ZM2269.59 0L2269.59-36.75 2285.69-36.75 2285.69-31.85 2275.14-31.85 2275.14-21.7 2283.64-21.7 2283.64-16.7 2275.14-16.7 2275.14-4.95 2287.34-4.95 2287.34 0 2269.59 0ZM2319.53 0L2319.53-17.15 2306.78-36.75 2313.48-36.75 2322.33-22.25 2331.18-36.75 2337.83-36.75 2325.13-17.05 2325.13 0 2319.53 0Z" opacity="1" transform="matrix(1,0,0,1,0,0)" fill="#68b6ff" class="slogan-text-1" data-fill-palette-color="secondary" id="text-1"></path></svg></g></svg></g></svg></g></svg></g></svg></g></svg></g></svg></g></svg></g><defs></defs></svg><rect width="395.52" height="247.2" fill="none" stroke="none" visibility="hidden"></rect></g></svg></g></svg>