<svg xmlns="http://www.w3.org/2000/svg" width="490" height="500" viewBox="0 0 490 500" fill="none">
  <path d="M2.0424 265.142C-3.0255 229.934 1.15924 193.965 16.6016 158.842C43.1559 98.482 100.399 27.0165 167.563 4.72271C186.242 -1.47709 217.159 -5.66715 243.652 19.5714C252.679 28.7137 258.007 38.5799 260.59 44.1863C261.221 45.7296 261.859 47.2792 262.496 48.8156C270.97 69.152 280.584 88.8198 298.64 104.928C347.003 148.074 425.025 147.356 467.073 196.568C492.061 225.8 494.507 266.133 484.505 298.275C468.188 350.726 432.357 393.922 392.15 431.36C339.593 480.304 269.191 517.564 195.545 491.36C156.974 477.638 122.565 452.946 92.7123 424.8C43.4841 378.4 10.3351 322.791 2.02808 265.13L2.0424 265.142Z" fill="#00A4B3"/>
  <path d="M2.0424 265.142C-3.0255 229.934 1.15924 193.965 16.6016 158.842C43.1559 98.482 100.399 27.0165 167.563 4.72271C186.242 -1.47709 217.159 -5.66715 243.652 19.5714C252.679 28.7137 258.007 38.5799 260.59 44.1863C261.221 45.7296 261.859 47.2792 262.496 48.8156C270.97 69.152 280.584 88.8198 298.64 104.928C347.003 148.074 425.025 147.356 467.073 196.568C492.061 225.8 494.507 266.133 484.505 298.275C468.188 350.726 432.357 393.922 392.15 431.36C339.593 480.304 269.191 517.564 195.545 491.36C156.974 477.638 122.565 452.946 92.7123 424.8C43.4841 378.4 10.3351 322.791 2.02808 265.13L2.0424 265.142Z" fill="#00A4B3"/>
</svg>