<svg width="38" height="38" viewBox="0 0 38 38" fill="none" xmlns="http://www.w3.org/2000/svg">
<circle cx="19" cy="19" r="19" fill="#F7F7F8"/>
<path fill-rule="evenodd" clip-rule="evenodd" d="M12.7 11.8C12.4613 11.8 12.2324 11.8948 12.0636 12.0636C11.8948 12.2324 11.8 12.4613 11.8 12.7V24.9272L13.8636 22.8636C14.0324 22.6948 14.2613 22.6 14.5 22.6H25.3C25.5387 22.6 25.7676 22.5052 25.9364 22.3364C26.1052 22.1676 26.2 21.9387 26.2 21.7V12.7C26.2 12.4613 26.1052 12.2324 25.9364 12.0636C25.7676 11.8948 25.5387 11.8 25.3 11.8H12.7ZM10.7908 10.7908C11.2972 10.2845 11.9839 10 12.7 10H25.3C26.0161 10 26.7028 10.2845 27.2092 10.7908C27.7155 11.2972 28 11.9839 28 12.7V21.7C28 22.4161 27.7155 23.1028 27.2092 23.6092C26.7028 24.1155 26.0161 24.4 25.3 24.4H14.8728L11.5364 27.7364C11.279 27.9938 10.8919 28.0708 10.5556 27.9315C10.2193 27.7922 10 27.464 10 27.1V12.7C10 11.9839 10.2845 11.2972 10.7908 10.7908ZM13.6 14.5C13.6 14.003 14.003 13.6 14.5 13.6H22.6C23.0971 13.6 23.5 14.003 23.5 14.5C23.5 14.9971 23.0971 15.4 22.6 15.4H14.5C14.003 15.4 13.6 14.9971 13.6 14.5ZM14.5 17.2001C14.003 17.2001 13.6 17.603 13.6 18.1001C13.6 18.5971 14.003 19.0001 14.5 19.0001H19.9C20.3971 19.0001 20.8 18.5971 20.8 18.1001C20.8 17.603 20.3971 17.2001 19.9 17.2001H14.5Z" fill="#00818A"/>
</svg>
