<svg width="38" height="38" viewBox="0 0 38 38" fill="none" xmlns="http://www.w3.org/2000/svg">
<circle cx="19" cy="19" r="19" fill="#F7F7F8"/>
<path fill-rule="evenodd" clip-rule="evenodd" d="M11.5271 13.771C11.6661 13.4962 11.9518 13.3056 12.2778 13.3056H25.7222C26.0482 13.3056 26.3339 13.4962 26.4729 13.7709L19 19.002L11.5271 13.771ZM9.75704 14.1264C9.75679 14.1375 9.75677 14.1487 9.75697 14.1598V24.2292C9.75697 25.6175 10.8894 26.75 12.2778 26.75H25.7222C27.1106 26.75 28.2431 25.6175 28.2431 24.2292V14.1496C28.2431 14.146 28.2431 14.1424 28.2431 14.1388M26.5625 15.7595V24.2292C26.5625 24.6894 26.1825 25.0694 25.7222 25.0694H12.2778C11.8176 25.0694 11.4375 24.6894 11.4375 24.2292V15.7596L18.5181 20.716C18.8074 20.9186 19.1925 20.9186 19.4818 20.716L26.5625 15.7595ZM28.2431 14.1388C28.2393 12.7536 27.1083 11.625 25.7222 11.625H12.2778C10.8959 11.625 9.76756 12.7469 9.75704 14.1264" fill="#00818A"/>
</svg>
