<svg width="38" height="38" viewBox="0 0 38 38" fill="none" xmlns="http://www.w3.org/2000/svg">
<circle cx="19" cy="19" r="19" fill="#F7F7F8"/>
<path d="M20.5298 14.2492C21.3247 14.404 22.0553 14.792 22.628 15.3636C23.2007 15.9352 23.5895 16.6644 23.7446 17.4578M20.5298 11C22.1814 11.1831 23.7214 11.9213 24.8972 13.0933C26.0729 14.2653 26.8144 15.8015 27 17.4497M26.1861 23.9319V26.3688C26.1871 26.595 26.1406 26.819 26.0498 27.0262C25.959 27.2335 25.8258 27.4196 25.6588 27.5725C25.4918 27.7255 25.2946 27.8419 25.0799 27.9144C24.8652 27.9869 24.6377 28.0138 24.4119 27.9934C21.9075 27.7218 19.5019 26.8677 17.3883 25.4996C15.4219 24.2525 13.7547 22.5885 12.5052 20.6258C11.1297 18.5067 10.2737 16.094 10.0066 13.5831C9.98627 13.3585 10.013 13.1321 10.0851 12.9184C10.1573 12.7046 10.2732 12.5082 10.4256 12.3416C10.5779 12.175 10.7633 12.042 10.97 11.9508C11.1768 11.8597 11.4002 11.8125 11.6262 11.8123H14.0678C14.4627 11.8084 14.8456 11.948 15.1451 12.2051C15.4446 12.4621 15.6402 12.8191 15.6955 13.2095C15.7985 13.9893 15.9897 14.7551 16.2652 15.492C16.3747 15.7828 16.3984 16.0988 16.3335 16.4025C16.2686 16.7063 16.1178 16.9851 15.899 17.206L14.8653 18.2376C16.0239 20.2713 17.711 21.9551 19.7485 23.1115L20.7821 22.0798C21.0034 21.8614 21.2828 21.7109 21.5871 21.6461C21.8915 21.5814 22.2081 21.605 22.4994 21.7143C23.2377 21.9893 24.0049 22.1801 24.7863 22.2829C25.1816 22.3386 25.5427 22.5373 25.8008 22.8414C26.0589 23.1454 26.196 23.5335 26.1861 23.9319Z" stroke="#00818A" stroke-width="1.7" stroke-linecap="round" stroke-linejoin="round"/>
</svg>
