<svg width="38" height="38" viewBox="0 0 38 38" fill="none" xmlns="http://www.w3.org/2000/svg">
<circle cx="19" cy="19" r="19" fill="#F7F7F8"/>
<path fill-rule="evenodd" clip-rule="evenodd" d="M13.25 12.5909C13.25 12.1139 13.6418 11.7273 14.125 11.7273H22.875C23.3582 11.7273 23.75 12.1139 23.75 12.5909V26.4091C23.75 26.8861 23.3582 27.2727 22.875 27.2727H14.125C13.6418 27.2727 13.25 26.8861 13.25 26.4091V12.5909ZM14.125 10C12.6753 10 11.5 11.16 11.5 12.5909V26.4091C11.5 27.84 12.6753 29 14.125 29H22.875C24.3247 29 25.5 27.84 25.5 26.4091V12.5909C25.5 11.16 24.3247 10 22.875 10H14.125ZM18.5 23.8182C18.0168 23.8182 17.625 24.2048 17.625 24.6818C17.625 25.1588 18.0168 25.5455 18.5 25.5455H18.5087C18.992 25.5455 19.3837 25.1588 19.3837 24.6818C19.3837 24.2048 18.992 23.8182 18.5087 23.8182H18.5Z" fill="#00818A"/>
</svg>
