<svg width="38" height="38" viewBox="0 0 38 38" fill="none" xmlns="http://www.w3.org/2000/svg">
<circle cx="19" cy="19" r="19" fill="#F7F7F8"/>
<path fill-rule="evenodd" clip-rule="evenodd" d="M11.0844 13.0844C11.2549 12.914 11.4862 12.8182 11.7273 12.8182H26.2727C26.5138 12.8182 26.7451 12.914 26.9156 13.0844C27.086 13.2549 27.1818 13.4862 27.1818 13.7273V22.8182C27.1818 23.0593 27.086 23.2905 26.9156 23.461C26.7451 23.6315 26.5138 23.7273 26.2727 23.7273H25.3636C24.8616 23.7273 24.4545 24.1343 24.4545 24.6364C24.4545 25.1384 24.8616 25.5455 25.3636 25.5455H26.2727C26.996 25.5455 27.6897 25.2581 28.2012 24.7467C28.7127 24.2352 29 23.5415 29 22.8182V13.7273C29 13.004 28.7127 12.3103 28.2012 11.7988C27.6897 11.2873 26.996 11 26.2727 11H11.7273C11.004 11 10.3103 11.2873 9.7988 11.7988C9.28734 12.3103 9 13.004 9 13.7273V22.8182C9 23.5415 9.28734 24.2352 9.7988 24.7467C10.3103 25.2581 11.004 25.5455 11.7273 25.5455H12.6364C13.1384 25.5455 13.5455 25.1384 13.5455 24.6364C13.5455 24.1343 13.1384 23.7273 12.6364 23.7273H11.7273C11.4862 23.7273 11.2549 23.6315 11.0844 23.461C10.914 23.2905 10.8182 23.0593 10.8182 22.8182V13.7273C10.8182 13.4862 10.914 13.2549 11.0844 13.0844ZM19.6985 21.236C19.5258 21.0288 19.2699 20.9089 19.0001 20.9089C18.7303 20.9089 18.4744 21.0288 18.3017 21.236L13.7563 26.6906C13.5304 26.9616 13.4818 27.3387 13.6314 27.6582C13.781 27.9776 14.1019 28.1817 14.4546 28.1817H23.5455C23.8983 28.1817 24.2192 27.9776 24.3688 27.6582C24.5184 27.3387 24.4697 26.9616 24.2439 26.6906L19.6985 21.236ZM21.6046 26.3635H16.3956L19.0001 23.2381L21.6046 26.3635Z" fill="#00818A"/>
</svg>
