<svg width="52" height="52" viewBox="0 0 52 52" fill="none" xmlns="http://www.w3.org/2000/svg">
<circle cx="26" cy="26" r="26" fill="#00A4B3"/>
<path fill-rule="evenodd" clip-rule="evenodd" d="M26.9409 12.5803C26.9409 12.895 26.683 13.1529 26.3683 13.1529C26.0535 13.1529 25.7957 12.8951 25.7957 12.5808V10.0726C25.7957 9.75785 26.0535 9.5 26.3683 9.5C26.683 9.5 26.9404 9.75785 26.9409 10.0726V12.5803ZM26.9945 15.5419C31.2732 15.8372 34.7881 19.2784 35.1708 23.5468L35.1712 23.5466C35.4188 26.3056 34.4007 28.9636 32.3787 30.8386C31.2932 31.846 30.6703 33.2579 30.6703 34.7123V38.1479C30.6703 39.2541 29.8383 40.1697 28.7669 40.3006C28.4363 41.1935 27.5172 41.9887 26.3685 41.9887C25.2198 41.9887 24.3012 41.1935 23.97 40.3014C22.8991 40.1701 22.0667 39.2549 22.0667 38.1487V34.7131C22.0667 33.2584 21.444 31.8465 20.3582 30.8393C18.337 28.9638 17.319 26.3058 17.566 23.5468C17.9482 19.2784 21.4631 15.8373 25.7423 15.5419C26.1635 15.5127 26.5748 15.5127 26.9945 15.5419ZM29.226 35.7987V35.2543H23.51V35.7987H29.226ZM23.993 26.2H24.7006V25.4929C24.7006 25.1031 24.3833 24.7859 23.993 24.7859C23.6032 24.7859 23.2859 25.1031 23.2859 25.4929C23.2859 25.8827 23.6032 26.2 23.993 26.2ZM26.9525 27.283H25.7836V34.1714H26.9525V27.283ZM23.51 36.8823V37.4267H29.226V36.8823H23.51ZM25.4137 39.9767C25.597 40.2703 25.9533 40.5453 26.368 40.5453C26.7828 40.5453 27.1392 40.2701 27.3221 39.9767H25.4137ZM28.1773 38.8736H28.5018C28.7692 38.8736 29.0006 38.7258 29.1258 38.5097H23.61C23.7357 38.7263 23.9671 38.8736 24.2345 38.8736H24.5601C24.6162 38.8736 24.6709 38.8814 24.7235 38.8937H28.0138C28.0665 38.8816 28.1208 38.8736 28.1773 38.8736ZM29.2547 34.1722C29.3927 32.5128 30.1519 30.9358 31.3965 29.7812L31.3961 29.7814C33.0879 28.2121 33.939 25.9867 33.7323 23.6767C33.4132 20.1074 30.4732 17.2302 26.8949 16.983C26.7178 16.9706 26.5423 16.9671 26.3681 16.9671C26.1941 16.9671 26.0186 16.9706 25.8413 16.983C22.2632 17.2304 19.3236 20.1072 19.0039 23.676C18.7969 25.9866 19.6485 28.212 21.3401 29.7812C22.585 30.9355 23.344 32.5123 23.4819 34.1722H24.7009V27.2838H23.9933C23.0065 27.2838 22.2032 26.4806 22.2032 25.4937C22.2032 24.5069 23.0065 23.7036 23.9933 23.7036C24.9806 23.7036 25.7839 24.5064 25.7839 25.4937V26.2008H26.9528V25.4937C26.9528 24.5069 27.756 23.7036 28.7433 23.7036C29.7301 23.7036 30.5334 24.5069 30.5334 25.4937C30.5334 26.4806 29.7301 27.2838 28.7433 27.2838H28.0357V34.1722H29.2547ZM28.0357 25.4935V26.2006H28.7433C29.1331 26.2006 29.4504 25.8833 29.4504 25.4935C29.4504 25.1037 29.1331 24.7864 28.7433 24.7864C28.353 24.7864 28.0357 25.1032 28.0357 25.4935ZM35.1478 12.4067C34.8932 12.2217 34.5334 12.2786 34.3483 12.5334L32.874 14.5624C32.6892 14.8173 32.7459 15.1768 33.0007 15.3619C33.2555 15.547 33.6151 15.4901 33.8001 15.2352L35.2744 13.2062C35.4593 12.9519 35.4026 12.592 35.1478 12.4067ZM40.175 20.6402L37.7896 21.4152C37.4899 21.5124 37.1654 21.347 37.0684 21.0478C36.9712 20.7487 37.1367 20.4238 37.4358 20.3266L39.8211 19.5516C40.1203 19.4544 40.4449 19.6199 40.5423 19.919C40.6395 20.2182 40.4741 20.5427 40.175 20.6402ZM40.1237 28.4452L37.7383 27.6702C37.4392 27.573 37.1141 27.7385 37.0171 28.0376C36.9197 28.3367 37.0851 28.6613 37.3845 28.7588L39.7699 29.5338C40.069 29.631 40.3936 29.4656 40.4911 29.1664C40.5883 28.8673 40.4231 28.5427 40.1237 28.4452ZM32.8666 33.6638C33.1214 33.479 33.4809 33.5359 33.666 33.7904L35.1403 35.8195C35.3252 36.0743 35.2682 36.4339 35.0137 36.619C34.7589 36.8038 34.399 36.7469 34.2142 36.4923L32.7399 34.4632C32.5551 34.2084 32.612 33.8489 32.8666 33.6638ZM19.5694 33.5659C19.3145 33.3808 18.955 33.4377 18.7699 33.6925L17.2956 35.7216C17.1105 35.9764 17.1674 36.336 17.4223 36.521C17.6771 36.7061 18.0367 36.6492 18.2217 36.3944L19.696 34.3653C19.8811 34.1105 19.8239 33.7509 19.5694 33.5659ZM14.7807 27.5127C15.0798 27.4152 15.4047 27.5809 15.5019 27.8801C15.5993 28.1797 15.4339 28.5043 15.1345 28.6013L12.7491 29.3763C12.45 29.4735 12.1254 29.3081 12.028 29.0089C11.9305 28.7097 12.0962 28.3849 12.3953 28.2877L14.7807 27.5127ZM15.186 20.1683L12.8007 19.3933C12.5015 19.2961 12.1769 19.4615 12.0795 19.7607C11.982 20.0598 12.1477 20.3844 12.4468 20.4819L14.8322 21.2569C15.1313 21.3541 15.4564 21.1886 15.5534 20.8895C15.6506 20.5901 15.4854 20.2655 15.186 20.1683ZM19.7036 15.2648C19.4488 15.4497 19.0893 15.3928 18.9042 15.1382L17.4299 13.1091C17.2451 12.8543 17.3017 12.4947 17.5565 12.3097C17.8113 12.1248 18.1709 12.1815 18.356 12.4363L19.8303 14.4654C20.0151 14.7202 19.9585 15.0798 19.7036 15.2648Z" fill="white"/>
</svg>
