<svg width="90" height="91" viewBox="0 0 90 91" fill="none" xmlns="http://www.w3.org/2000/svg">
<circle cx="58.2354" cy="58.598" r="31.7647" fill="#D1EEF2"/>
<path fill-rule="evenodd" clip-rule="evenodd" d="M58.1288 36.2957H57.1747V9.42408C57.1747 4.24074 52.9927 0.0227051 47.8535 0.0227051H9.32116C4.18205 0.0227051 0 4.24074 0 9.42408V66.4246C0 71.6079 4.18205 75.826 9.32116 75.826H43.968L44.2308 76.0406C48.1618 79.2445 53.0983 81.0078 58.1288 81.0078C70.3506 81.0078 80.2941 70.9787 80.2941 58.6518C80.2941 46.3249 70.3506 36.2957 58.1288 36.2957ZM9.32116 72.5688C5.96261 72.5688 3.22938 69.812 3.22938 66.4246V9.42408C3.22938 6.03663 5.96261 3.27988 9.32116 3.27988H47.8535C51.2121 3.27988 53.9453 6.03663 53.9453 9.42408V36.7029L53.204 36.8732C48.3893 37.9806 44.015 40.7373 40.8869 44.6341C37.7118 48.5886 35.9635 53.5676 35.9635 58.6533C35.9635 63.0904 37.2597 67.3854 39.7126 71.072L40.7093 72.5703H9.32116V72.5688ZM58.1288 77.7506C47.6877 77.7506 39.1929 69.1828 39.1929 58.6518C39.1929 48.1208 47.6877 39.5529 58.1288 39.5529C68.57 39.5529 77.0647 48.1208 77.0647 58.6518C77.0647 69.1828 68.57 77.7506 58.1288 77.7506ZM11.89 31.7801H45.2847C46.1757 31.7801 46.8994 31.0502 46.8994 30.1515V12.015C46.8994 11.1163 46.1757 10.3864 45.2847 10.3864H11.89C10.999 10.3864 10.2753 11.1163 10.2753 12.015V30.1515C10.2753 31.0502 10.999 31.7801 11.89 31.7801ZM13.5047 13.6436H43.67V28.5229H13.5047V13.6436ZM11.89 38.8867H17.0276C17.9187 38.8867 18.6423 39.6166 18.6423 40.5153C18.6423 41.4139 17.9187 42.1438 17.0276 42.1438H11.89C10.999 42.1438 10.2753 41.4139 10.2753 40.5153C10.2753 39.6166 10.999 38.8867 11.89 38.8867ZM31.1562 38.8867H26.0185C25.1275 38.8867 24.4038 39.6166 24.4038 40.5153C24.4038 41.4139 25.1275 42.1438 26.0185 42.1438H31.1562C32.0472 42.1438 32.7709 41.4139 32.7709 40.5153C32.7709 39.6166 32.0472 38.8867 31.1562 38.8867ZM11.89 49.2504H17.0276C17.9187 49.2504 18.6423 49.9803 18.6423 50.879C18.6423 51.7777 17.9187 52.5076 17.0276 52.5076H11.89C10.999 52.5076 10.2753 51.7777 10.2753 50.879C10.2753 49.9803 10.999 49.2504 11.89 49.2504ZM29.8718 49.2504H26.0185C25.1275 49.2504 24.4038 49.9803 24.4038 50.879C24.4038 51.7777 25.1275 52.5076 26.0185 52.5076H29.8718C30.7628 52.5076 31.4865 51.7777 31.4865 50.879C31.4865 49.9803 30.7628 49.2504 29.8718 49.2504ZM11.89 59.6141H17.0276C17.9187 59.6141 18.6423 60.344 18.6423 61.2427C18.6423 62.1414 17.9187 62.8713 17.0276 62.8713H11.89C10.999 62.8713 10.2753 62.1414 10.2753 61.2427C10.2753 60.344 10.999 59.6141 11.89 59.6141ZM28.5873 59.6141H26.0185C25.1275 59.6141 24.4038 60.344 24.4038 61.2427C24.4038 62.1414 25.1275 62.8713 26.0185 62.8713H28.5873C29.4784 62.8713 30.202 62.1414 30.202 61.2427C30.202 60.344 29.4784 59.6141 28.5873 59.6141ZM20.8779 19.1423H20.8897C21.9422 19.1423 22.798 20.0055 22.798 21.067C22.798 22.1285 21.9451 22.9917 20.8897 22.9917C19.8343 22.9917 18.9755 22.1285 18.9755 21.067C18.9755 20.0055 19.8299 19.1423 20.8779 19.1423ZM29.8967 19.1586H29.885C28.8369 19.1586 27.9826 20.0217 27.9826 21.0833C27.9826 22.1448 28.8413 23.008 29.8967 23.008C30.9521 23.008 31.805 22.1448 31.805 21.0833C31.805 20.0217 30.9492 19.1586 29.8967 19.1586ZM59.3779 69.8658C59.074 70.1643 58.6615 70.3311 58.2318 70.3284C57.3704 70.3345 56.6576 69.6727 56.6157 68.8279V67.2011C55.2869 66.9046 54.1057 66.1624 53.2745 65.1022C52.4434 64.0419 52.0144 62.7298 52.0625 61.3927C52.0625 60.5155 52.7857 59.8051 53.6788 59.8051C54.5711 59.8051 55.2951 60.5155 55.2951 61.3927V61.3921C55.2951 63.9285 57.8085 64.2966 58.5771 64.2966C59.3629 64.2581 60.1116 63.9535 60.6959 63.4356C60.9943 63.1992 61.1675 62.8433 61.1689 62.4672L61.1682 62.4665C61.1682 61.305 61.1682 60.4724 57.9652 59.7174C53.7179 58.7208 52.6929 56.3295 52.5843 54.4899C52.5616 53.0367 53.1453 51.6368 54.2006 50.6178C54.8641 49.983 55.7049 49.5583 56.6158 49.3975V47.8876C56.6158 47.0103 57.339 46.2999 58.2321 46.2999C59.1245 46.2999 59.8484 47.0103 59.8484 47.8876V49.6298C60.9146 49.8844 61.8819 50.4382 62.6327 51.2242C63.3841 52.0096 63.8853 52.9935 64.0764 54.0544C64.1843 54.4798 64.108 54.9296 63.866 55.2983C63.624 55.6663 63.2384 55.9203 62.799 55.9993C62.3604 56.0783 61.9074 55.9756 61.5485 55.715C61.1896 55.455 60.9559 55.0606 60.9029 54.6257C60.9012 54.6179 60.8994 54.6097 60.8976 54.6013C60.7941 54.128 60.4787 52.6863 57.7094 52.5052C57.2337 52.4383 56.7525 52.5916 56.4087 52.9219C56.0328 53.2925 55.8052 53.7839 55.768 54.3058C55.7732 54.3415 55.7778 54.3797 55.7826 54.4202C55.8511 54.9939 55.9728 56.0142 58.7249 56.6292C61.6722 57.2877 64.4118 58.479 64.4118 62.4382C64.4042 63.68 63.8639 64.8611 62.9234 65.6911C62.0564 66.4717 60.9962 67.0161 59.8481 67.2693V68.7408C59.8509 69.1622 59.6811 69.568 59.3779 69.8658Z" fill="#00A4B3"/>
</svg>
