<svg width="10" height="7" viewBox="0 0 10 7" fill="none" xmlns="http://www.w3.org/2000/svg">
<path d="M7.99175 0.450489L3.81038 4.62915L2.00023 2.81577C1.79684 2.64195 1.51881 2.58281 1.26196 2.65858C1.00511 2.73434 0.804089 2.93469 0.728138 3.19102C0.65218 3.44721 0.711464 3.72451 0.885741 3.92738L3.25709 6.29259C3.40517 6.4395 3.60551 6.52186 3.81432 6.52186C4.02314 6.52186 4.22348 6.4395 4.37156 6.29259L9.11425 1.56216C9.28853 1.3593 9.34795 1.08199 9.27186 0.825805C9.1959 0.569487 8.99502 0.369116 8.73803 0.293361C8.48118 0.2176 8.20329 0.276731 7.99976 0.450557L7.99175 0.450489Z" fill="#002769"/>
</svg>
