<svg width="18" height="14" viewBox="0 0 18 14" fill="none" xmlns="http://www.w3.org/2000/svg">
<path d="M14.9834 0.900734L6.62071 9.25805L3.0004 5.6313C2.59362 5.28365 2.03757 5.16538 1.52386 5.31691C1.01016 5.46843 0.608116 5.86914 0.456215 6.38179C0.304299 6.89417 0.422867 7.44878 0.771421 7.85451L5.51412 12.5849C5.81027 12.8787 6.21096 13.0435 6.62859 13.0435C7.04622 13.0435 7.4469 12.8787 7.74305 12.5849L17.2284 3.12408C17.577 2.71835 17.6958 2.16374 17.5437 1.65137C17.3917 1.13873 16.99 0.737987 16.476 0.586479C15.9623 0.434956 15.4065 0.553218 14.9995 0.90087L14.9834 0.900734Z" fill="#D9D9D9"/>
</svg>
