<svg id="add" viewBox="0 0 20 20" fill="none" xmlns="http://www.w3.org/2000/svg">
<path fill-rule="evenodd" clip-rule="evenodd" d="M1.4 9.07338C0.902944 9.07338 0.5 9.47632 0.5 9.97338C0.5 10.4704 0.902943 10.8734 1.4 10.8734L9.10002 10.8734V18.5734C9.10002 19.0705 9.50297 19.4734 10 19.4734C10.4971 19.4734 10.9 19.0705 10.9 18.5734L10.9 10.8734L18.6 10.8734C19.0971 10.8734 19.5 10.4704 19.5 9.97338C19.5 9.47632 19.0971 9.07338 18.6 9.07338L10.9 9.07338L10.9 1.3734C10.9 0.876347 10.4971 0.473403 10 0.473403C9.50297 0.473403 9.10002 0.876347 9.10002 1.3734L9.10002 9.07338L1.4 9.07338Z" fill="currentColor"/>
</svg>