<svg id="arrow" viewBox="0 0 25 15" fill="none" xmlns="http://www.w3.org/2000/svg">
<path d="M24.4472 6.62352L18.0872 0.263497C17.8599 0.036212 17.5287 -0.0525088 17.2184 0.030684C16.908 0.113877 16.6655 0.356354 16.5824 0.666686C16.4992 0.977019 16.5879 1.30822 16.8152 1.5355L21.6397 6.36004L0.91511 6.3604C0.673912 6.356 0.441088 6.44913 0.269011 6.61808C0.0969503 6.7873 -1.09081e-05 7.01828 9.20409e-10 7.2596C9.20409e-10 7.50094 0.0969598 7.73192 0.269011 7.90113C0.441072 8.07007 0.673894 8.1632 0.91511 8.15881L21.6397 8.15917L16.8152 12.9837C16.5879 13.211 16.4992 13.5422 16.5824 13.8525C16.6656 14.1629 16.908 14.4053 17.2184 14.4885C17.5287 14.5717 17.8599 14.483 18.0872 14.2557L24.4472 7.89569C24.6159 7.72703 24.7107 7.49818 24.7107 7.25968C24.7107 7.02119 24.6159 6.79218 24.4472 6.62352Z" fill="currentColor"/>
</svg>
