<svg id="check_circle_light" viewBox="0 0 18 18" fill="none" xmlns="http://www.w3.org/2000/svg">
<circle cx="9" cy="9" r="9" fill="white"/>
<path d="M11.9917 6.45049L7.81038 10.6291L6.00023 8.81577C5.79684 8.64195 5.51881 8.58281 5.26196 8.65858C5.00511 8.73434 4.80409 8.93469 4.72814 9.19102C4.65218 9.44721 4.71146 9.72451 4.88574 9.92738L7.25709 12.2926C7.40517 12.4395 7.60551 12.5219 7.81432 12.5219C8.02314 12.5219 8.22348 12.4395 8.37156 12.2926L13.1143 7.56216C13.2885 7.3593 13.3479 7.08199 13.2719 6.82581C13.1959 6.56949 12.995 6.36912 12.738 6.29336C12.4812 6.2176 12.2033 6.27673 11.9998 6.45056L11.9917 6.45049Z" fill="currentColor"/>
</svg>