<svg id="check_circle_dark" viewBox="0 0 18 18" fill="none" xmlns="http://www.w3.org/2000/svg">
<circle cx="9" cy="9" r="9" fill="currentColor"/>
<path d="M11.9917 6.45037L7.81038 10.629L6.00023 8.81566C5.79684 8.64183 5.51881 8.5827 5.26196 8.65846C5.00511 8.73422 4.80409 8.93458 4.72814 9.1909C4.65218 9.44709 4.71146 9.7244 4.88574 9.92726L7.25709 12.2925C7.40517 12.4394 7.60551 12.5217 7.81432 12.5217C8.02314 12.5217 8.22348 12.4394 8.37156 12.2925L13.1143 7.56205C13.2885 7.35919 13.3479 7.08188 13.2719 6.82569C13.1959 6.56937 12.995 6.369 12.738 6.29325C12.4812 6.21749 12.2033 6.27662 11.9998 6.45044L11.9917 6.45037Z" fill="white"/>
</svg>
