<svg id="check_mark" viewBox="0 0 17 12" fill="none" xmlns="http://www.w3.org/2000/svg">
<path fill-rule="evenodd" clip-rule="evenodd" d="M5.95056 8.4511L14.2882 0.363881L14.2951 0.363937L14.3513 0.317319C14.7018 0.0268497 15.182 -0.0729407 15.6266 0.0543349C16.0711 0.181503 16.415 0.516778 16.5445 0.941091C16.6734 1.36225 16.5746 1.81886 16.2797 2.15579L6.91998 11.2167C6.66556 11.4616 6.32003 11.6 5.95851 11.6C5.59705 11.6 5.25127 11.4613 4.99684 11.2165L0.320151 6.68911C0.0253335 6.35223 -0.0733298 5.89557 0.0553625 5.47429C0.184887 5.05002 0.529015 4.71484 0.973293 4.58765C1.41542 4.46108 1.893 4.5591 2.24257 4.84576L5.95056 8.4511Z" fill="currentColor"/>
</svg>