<svg id="circle_x" viewBox="0 0 18 18" fill="none" xmlns="http://www.w3.org/2000/svg">
<circle cx="9" cy="9" r="8.25" stroke="currentColor" stroke-width="1.5"/>
<path fill-rule="evenodd" clip-rule="evenodd" d="M5.53036 5.46967C5.23747 5.76256 5.23747 6.23744 5.53036 6.53033L8.00003 9L5.45929 11.5407C5.1664 11.8336 5.1664 12.3085 5.45929 12.6014C5.75219 12.8943 6.22706 12.8943 6.51995 12.6014L9.06069 10.0607L11.5408 12.5407C11.8337 12.8336 12.3085 12.8336 12.6014 12.5407C12.8943 12.2478 12.8943 11.773 12.6014 11.4801L10.1214 9L12.5304 6.59099C12.8233 6.2981 12.8233 5.82322 12.5304 5.53033C12.2375 5.23744 11.7626 5.23744 11.4697 5.53033L9.06069 7.93934L6.59102 5.46967C6.29813 5.17678 5.82325 5.17678 5.53036 5.46967Z" fill="currentColor"/>
</svg>