<svg id="clock" width="16" height="16" viewBox="0 0 16 16" fill="none" xmlns="http://www.w3.org/2000/svg">
<g clip-path="url(#clip0_1515_26228)">
<path d="M8 0C3.58877 0 0 3.58877 0 8C0 12.4112 3.58877 16 8 16C12.4112 16 16 12.4112 16 8C16 3.58877 12.4112 0 8 0ZM8 14.4008C4.47089 14.4008 1.59924 11.5294 1.59924 8C1.59924 4.47057 4.47089 1.59924 8 1.59924C11.5291 1.59924 14.4008 4.47089 14.4008 8C14.4008 11.5291 11.5291 14.4008 8 14.4008Z" fill="currentColor"/>
<path d="M10.9858 9.73963L8.78775 7.76914C8.7941 7.72821 8.80045 7.68759 8.80045 7.64476V4.15753C8.80045 3.71615 8.44252 3.35791 8.00083 3.35791C7.55913 3.35791 7.20121 3.71584 7.20121 4.15753V7.64507C7.20121 7.71298 7.19264 8.48721 7.44363 8.71219L9.91801 10.9305C10.0706 11.0676 10.2613 11.1345 10.4514 11.1345C10.6707 11.1345 10.8893 11.0447 11.0473 10.8686C11.3421 10.5396 11.3145 10.0344 10.9858 9.73963Z" fill="currentColor"/>
</g>
<defs>
<clipPath id="clip0_1515_26228">
<rect width="16" height="16" fill="white"/>
</clipPath>
</defs>
</svg>
