<svg id="document" viewBox="0 0 13 15" fill="none" xmlns="http://www.w3.org/2000/svg">
<path fill-rule="evenodd" clip-rule="evenodd" d="M12.7002 0.321362C12.8833 0.505116 12.9998 0.750041 12.9832 1.0255L13 13.9898C13 14.5408 12.5006 15 11.9014 15H1.09862C0.499388 15 0 14.5408 0 13.9898V4.10205C0 3.97959 0.0332072 3.8725 0.116457 3.75004L0.149781 3.7194L4.0947 0.0765522C4.19455 0.0152675 4.32773 0 4.42758 0L11.9013 0.0152675C12.2009 0.0152675 12.5005 0.12235 12.7002 0.321362ZM1.33158 13.7755H11.6683L11.6684 13.7755V1.23981H5.14341L5.16002 3.65808C5.16002 4.27041 4.64389 4.74487 3.97814 4.74487H1.33158V13.7755ZM3.75991 7.41757C3.47828 7.41757 3.25 7.68252 3.25 8.00844C3.25 8.33438 3.47828 8.59933 3.75955 8.59933H9.47707C9.7587 8.59933 9.98698 8.33437 9.98698 8.00844C9.98698 7.6821 9.75833 7.41757 9.47707 7.41757H3.75991ZM3.75991 9.7802C3.47828 9.7802 3.25 10.0452 3.25 10.3711C3.25 10.6974 3.47828 10.962 3.75955 10.962H8.45762C8.73925 10.962 8.96754 10.697 8.96754 10.3711C8.96754 10.0447 8.73889 9.7802 8.45762 9.7802H3.75991Z" fill="currentColor"/>
</svg>