<svg id="lightbulb" viewBox="0 0 35 34" fill="none" xmlns="http://www.w3.org/2000/svg">
<path fill-rule="evenodd" clip-rule="evenodd" d="M17.9409 3.58029C17.9409 3.89504 17.683 4.15289 17.3683 4.15289C17.0535 4.15289 16.7957 3.89505 16.7957 3.5808V1.0726C16.7957 0.757847 17.0535 0.5 17.3683 0.5C17.683 0.5 17.9404 0.757847 17.9409 1.0726V3.58029ZM17.9945 6.54193C22.2732 6.83716 25.7881 10.2784 26.1708 14.5468L26.1712 14.5466C26.4188 17.3056 25.4007 19.9636 23.3787 21.8386C22.2932 22.846 21.6703 24.2579 21.6703 25.7123V29.1479C21.6703 30.2541 20.8383 31.1697 19.7669 31.3006C19.4363 32.1935 18.5172 32.9887 17.3685 32.9887C16.2198 32.9887 15.3012 32.1935 14.97 31.3014C13.8991 31.1701 13.0667 30.2549 13.0667 29.1487V25.7131C13.0667 24.2584 12.444 22.8465 11.3582 21.8393C9.337 19.9638 8.31896 17.3058 8.56597 14.5468C8.94823 10.2784 12.4631 6.83729 16.7423 6.54193C17.1635 6.51272 17.5748 6.51272 17.9945 6.54193ZM20.226 26.7987V26.2543H14.51V26.7987H20.226ZM14.993 17.2H15.7006V16.4929C15.7006 16.1031 15.3833 15.7859 14.993 15.7859C14.6032 15.7859 14.2859 16.1031 14.2859 16.4929C14.2859 16.8827 14.6032 17.2 14.993 17.2ZM17.9525 18.283H16.7836V25.1714H17.9525V18.283ZM14.51 27.8823V28.4267H20.226V27.8823H14.51ZM16.4137 30.9767C16.597 31.2703 16.9533 31.5453 17.368 31.5453C17.7828 31.5453 18.1392 31.2701 18.3221 30.9767H16.4137ZM19.1773 29.8736H19.5018C19.7692 29.8736 20.0006 29.7258 20.1258 29.5097H14.61C14.7357 29.7263 14.9671 29.8736 15.2345 29.8736H15.5601C15.6162 29.8736 15.6709 29.8814 15.7235 29.8937H19.0138C19.0665 29.8816 19.1208 29.8736 19.1773 29.8736ZM20.2547 25.1722C20.3927 23.5128 21.1519 21.9358 22.3965 20.7812L22.3961 20.7814C24.0879 19.2121 24.939 16.9867 24.7323 14.6767C24.4132 11.1074 21.4732 8.23024 17.8949 7.98297C17.7178 7.97063 17.5423 7.9671 17.3681 7.9671C17.1941 7.9671 17.0186 7.97063 16.8413 7.98297C13.2632 8.23037 10.3236 11.1072 10.0039 14.676C9.79687 16.9866 10.6485 19.212 12.3401 20.7812C13.585 21.9355 14.344 23.5123 14.4819 25.1722H15.7009V18.2838H14.9933C14.0065 18.2838 13.2032 17.4806 13.2032 16.4937C13.2032 15.5069 14.0065 14.7036 14.9933 14.7036C15.9806 14.7036 16.7839 15.5064 16.7839 16.4937V17.2008H17.9528V16.4937C17.9528 15.5069 18.756 14.7036 19.7433 14.7036C20.7301 14.7036 21.5334 15.5069 21.5334 16.4937C21.5334 17.4806 20.7301 18.2838 19.7433 18.2838H19.0357V25.1722H20.2547ZM19.0357 16.4935V17.2006H19.7433C20.1331 17.2006 20.4504 16.8833 20.4504 16.4935C20.4504 16.1037 20.1331 15.7864 19.7433 15.7864C19.353 15.7864 19.0357 16.1032 19.0357 16.4935ZM26.1478 3.40673C25.8932 3.22166 25.5334 3.27856 25.3483 3.53339L23.874 5.56245C23.6892 5.81727 23.7459 6.17684 24.0007 6.3619C24.2555 6.54696 24.6151 6.49007 24.8001 6.23525L26.2744 4.20619C26.4593 3.95187 26.4026 3.59204 26.1478 3.40673ZM31.175 11.6402L28.7896 12.4152C28.4899 12.5124 28.1654 12.347 28.0684 12.0478C27.9712 11.7487 28.1367 11.4238 28.4358 11.3266L30.8211 10.5516C31.1203 10.4544 31.4449 10.6199 31.5423 10.919C31.6395 11.2182 31.4741 11.5427 31.175 11.6402ZM31.1237 19.4452L28.7383 18.6702C28.4392 18.573 28.1141 18.7385 28.0171 19.0376C27.9197 19.3367 28.0851 19.6613 28.3845 19.7588L30.7699 20.5338C31.069 20.631 31.3936 20.4656 31.4911 20.1664C31.5883 19.8673 31.4231 19.5427 31.1237 19.4452ZM23.8666 24.6638C24.1214 24.479 24.4809 24.5359 24.666 24.7904L26.1403 26.8195C26.3252 27.0743 26.2682 27.4339 26.0137 27.619C25.7589 27.8038 25.399 27.7469 25.2142 27.4923L23.7399 25.4632C23.5551 25.2084 23.612 24.8489 23.8666 24.6638ZM10.5694 24.5659C10.3145 24.3808 9.95496 24.4377 9.76991 24.6925L8.2956 26.7216C8.11053 26.9764 8.16744 27.336 8.42226 27.521C8.67708 27.7061 9.03666 27.6492 9.22171 27.3944L10.696 25.3653C10.8811 25.1105 10.8239 24.7509 10.5694 24.5659ZM5.78067 18.5127C6.07984 18.4152 6.40467 18.5809 6.50187 18.8801C6.59931 19.1797 6.43388 19.5043 6.13449 19.6013L3.74915 20.3763C3.44998 20.4735 3.1254 20.3081 3.02795 20.0089C2.9305 19.7097 3.09619 19.3849 3.39533 19.2877L5.78067 18.5127ZM6.186 11.1683L3.80066 10.3933C3.50152 10.2961 3.17694 10.4615 3.07946 10.7607C2.98198 11.0598 3.1477 11.3844 3.44684 11.4819L5.83218 12.2569C6.13132 12.3541 6.4564 12.1886 6.55338 11.8895C6.65057 11.5901 6.48539 11.2655 6.186 11.1683ZM10.7036 6.26484C10.4488 6.44966 10.0893 6.39275 9.90419 6.13818L8.42988 4.10912C8.24506 3.85432 8.30171 3.49474 8.55654 3.30967C8.81134 3.12484 9.17092 3.1815 9.35599 3.43632L10.8303 5.46538C11.0151 5.72019 10.9585 6.07976 10.7036 6.26484Z" fill="white"/>
</svg>