<svg id="person" viewBox="0 0 15 17" fill="none" xmlns="http://www.w3.org/2000/svg">
<path fill-rule="evenodd" clip-rule="evenodd" d="M4.8387 4.56213C4.8387 3.11048 6.0302 1.93369 7.49999 1.93369C8.96978 1.93369 10.1613 3.11048 10.1613 4.56213C10.1613 6.01377 8.96978 7.19056 7.49999 7.19056C6.0302 7.19056 4.8387 6.01377 4.8387 4.56213ZM7.49999 0.5C5.22849 0.5 3.38708 2.31868 3.38708 4.56213C3.38708 6.80558 5.22849 8.62425 7.49999 8.62425C9.77148 8.62425 11.6129 6.80558 11.6129 4.56213C11.6129 2.31868 9.77148 0.5 7.49999 0.5ZM4.1129 9.98148C3.02209 9.98148 1.97596 10.4095 1.20464 11.1713C0.433322 11.933 0 12.9663 0 14.0436V14.9904C0 15.3913 0.324955 15.7162 0.725806 15.7162C1.12666 15.7162 1.45161 15.3913 1.45161 14.9904V14.0436C1.45161 13.3465 1.732 12.678 2.23109 12.185C2.73018 11.6921 3.40709 11.4152 4.1129 11.4152H10.8871C11.5929 11.4152 12.2698 11.6921 12.7689 12.185C13.268 12.678 13.5484 13.3465 13.5484 14.0436V14.9904C13.5484 15.3913 13.8733 15.7162 14.2742 15.7162C14.675 15.7162 15 15.3913 15 14.9904V14.0436C15 12.9663 14.5667 11.933 13.7954 11.1713C13.024 10.4095 11.9779 9.98148 10.8871 9.98148H4.1129Z" fill="currentColor"/>
</svg>