<svg id="teal_checkmark" width="21" height="21" viewBox="0 0 21 21" fill="none" xmlns="http://www.w3.org/2000/svg">
<path d="M20.5655 9.45133L18.7931 7.67905C18.515 7.40109 18.3588 7.02399 18.3588 6.6308V4.12356C18.3591 3.73031 18.2029 3.3531 17.9248 3.07503C17.6468 2.79696 17.2695 2.64084 16.8763 2.64106H14.3689C13.9758 2.64136 13.5988 2.48545 13.3206 2.20765L11.5483 0.434526C11.2704 0.15632 10.8933 0 10.5 0C10.1067 0 9.72963 0.15632 9.45171 0.434526L7.67935 2.20681C7.40139 2.48491 7.02427 2.64113 6.63106 2.64106H4.12373C3.73031 2.64084 3.35296 2.79707 3.07485 3.07533C2.79675 3.35358 2.64072 3.731 2.64117 4.1244V6.63164C2.64146 7.02471 2.48555 7.40179 2.20774 7.67989L0.434544 9.45217C0.156326 9.73008 0 10.1072 0 10.5004C0 10.8937 0.156326 11.2708 0.434544 11.5487L2.2069 13.321C2.48501 13.5989 2.64124 13.976 2.64117 14.3692V16.8764C2.64094 17.2697 2.79707 17.6469 3.07515 17.925C3.35323 18.203 3.73046 18.3592 4.12373 18.3589H6.63106C7.02415 18.3586 7.40125 18.5146 7.67935 18.7924L9.45171 20.5655C9.72963 20.8437 10.1067 21 10.5 21C10.8933 21 11.2704 20.8437 11.5483 20.5655L13.3206 18.7932C13.5986 18.5151 13.9757 18.3589 14.3689 18.3589H16.8763C17.2695 18.3592 17.6468 18.203 17.9248 17.925C18.2029 17.6469 18.3591 17.2697 18.3588 16.8764V14.3692C18.3585 13.9761 18.5145 13.599 18.7923 13.321L20.5655 11.5487C20.8437 11.2708 21 10.8937 21 10.5004C21 10.1072 20.8437 9.72924 20.5655 9.45133Z" fill="#00A4B3"/>
<path d="M13.2961 8.1895L9.1147 12.3682L7.30455 10.5548C7.10116 10.381 6.82314 10.3218 6.56628 10.3976C6.30943 10.4734 6.10841 10.6737 6.03246 10.93C5.9565 11.1862 6.01579 11.4635 6.19006 11.6664L8.56141 14.0316C8.70949 14.1785 8.90983 14.2609 9.11864 14.2609C9.32746 14.2609 9.5278 14.1785 9.67588 14.0316L14.4186 9.30118C14.5929 9.09831 14.6523 8.82101 14.5762 8.56482C14.5002 8.3085 14.2993 8.10813 14.0424 8.03238C13.7855 7.95661 13.5076 8.01574 13.3041 8.18957L13.2961 8.1895Z" fill="white"/>
</svg>