<svg id="triangle_warning" xmlns="http://www.w3.org/2000/svg" width="23" height="20" viewBox="0 0 23 20" fill="none">
<path fill-rule="evenodd" clip-rule="evenodd" d="M11.3908 2.37824L19.9772 17.2504C20.1203 17.4982 19.9415 17.8081 19.6552 17.8081H2.48239C2.19617 17.8081 2.01729 17.4982 2.1604 17.2504L10.7468 2.37824C10.8899 2.13037 11.2477 2.13037 11.3908 2.37824ZM8.92221 1.32479C9.87626 -0.327666 12.2614 -0.327665 13.2154 1.32479L21.8018 16.1969C22.7559 17.8494 21.5633 19.915 19.6552 19.915H2.48239C0.574291 19.915 -0.618268 17.8494 0.335779 16.1969L8.92221 1.32479ZM12.1456 11.2395C12.1456 11.7871 11.7017 12.231 11.1541 12.231C10.6065 12.231 10.1627 11.7871 10.1627 11.2395V7.02576C10.1627 6.47818 10.6065 6.03428 11.1541 6.03428C11.7017 6.03428 12.1456 6.47818 12.1456 7.02576L12.1456 11.2395ZM12.3935 14.9576C12.3935 15.642 11.8386 16.1969 11.1541 16.1969C10.4697 16.1969 9.91478 15.642 9.91478 14.9576C9.91478 14.2731 10.4697 13.7182 11.1541 13.7182C11.8386 13.7182 12.3935 14.2731 12.3935 14.9576Z" fill="#002769"/>
</svg>