<svg id="x_close" width="20" height="20" viewBox="0 0 20 20" fill="none" xmlns="http://www.w3.org/2000/svg">
<path fill-rule="evenodd" clip-rule="evenodd" d="M4.57416 3.2636C4.22269 2.91213 3.65284 2.91213 3.30137 3.2636C2.9499 3.61508 2.9499 4.18492 3.30137 4.5364L8.74611 9.98113L3.30137 15.4259C2.9499 15.7773 2.9499 16.3472 3.30137 16.6987C3.65284 17.0501 4.22269 17.0501 4.57416 16.6987L10.0189 11.2539L15.4636 16.6986C15.8151 17.0501 16.3849 17.0501 16.7364 16.6986C17.0879 16.3472 17.0879 15.7773 16.7364 15.4258L11.2917 9.98113L16.7364 4.53643C17.0879 4.18496 17.0879 3.61511 16.7364 3.26364C16.3849 2.91217 15.8151 2.91217 15.4636 3.26364L10.0189 8.70834L4.57416 3.2636Z" fill="currentColor"/>
</svg>