<svg xmlns="http://www.w3.org/2000/svg" version="1.1" xmlns:xlink="http://www.w3.org/1999/xlink" xmlns:svgjs="http://svgjs.dev/svgjs" width="2000" height="1252" viewBox="0 0 2000 1252"><g transform="matrix(1,0,0,1,-1.2121212121212466,-2.01935483870966)"><svg viewBox="0 0 396 248" data-background-color="#faffd0" preserveAspectRatio="xMidYMid meet" height="1252" width="2000" xmlns="http://www.w3.org/2000/svg" xmlns:xlink="http://www.w3.org/1999/xlink"><g id="tight-bounds" transform="matrix(1,0,0,1,0.2400000000000091,0.4000000000000057)"><svg viewBox="0 0 395.52 247.2" height="247.2" width="395.52"><g><svg></svg></g><g><svg viewBox="0 0 395.52 247.2" height="247.2" width="395.52"><mask id="ee789251-e308-41a8-b3ac-9f2202a50a87"><rect width="395.52" height="247.2" fill="white"></rect><g transform="matrix(1,0,0,1,0,101.6579051913807)" id="clone"><svg viewBox="0 0 395.52 43.88418961723859" height="43.88418961723859" width="395.52"><g><svg viewBox="0 0 395.52 43.88418961723859" height="43.88418961723859" width="395.52"><g><svg viewBox="0 0 395.52 43.88418961723859" height="43.88418961723859" width="395.52"><g><svg viewBox="0 0 395.52 43.88418961723859" height="43.88418961723859" width="395.52"><g id="SvgjsG9706"><svg viewBox="0 0 395.52 43.88418961723859" height="43.88418961723859" width="395.52" id="SvgjsSvg9705"><g><svg viewBox="0 0 395.52 37.2820006339031" height="37.2820006339031" width="395.52"><g transform="matrix(1,0,0,1,0,0)"><svg width="395.52" viewBox="-16.44 -56.01 875.97 83.47999999999999" height="37.2820006339031" data-palette-color="#68b6ff"><path d="M37.45-16.82L37.45-16.82 37.45-16.36Q37.4-14.31 37.02-12.11 36.65-9.91 35.96-7.71 35.28-5.52 34.33-3.37 33.37-1.22 32.19 0.74 31.01 2.71 29.64 4.43 28.27 6.15 26.76 7.47L26.76 7.47 23.12 5.37Q23.97 3.93 24.67 2.23 25.37 0.54 25.93-1.32 26.49-3.17 26.89-5.13 27.29-7.08 27.56-9.01 27.83-10.94 27.97-12.81 28.1-14.67 28.1-16.36L28.1-16.36Q28.1-17.68 28.09-19.35 28.08-21.02 27.89-22.75 27.71-24.49 27.29-26.14 26.88-27.78 26.06-29.08 25.24-30.37 23.96-31.15 22.68-31.93 20.78-31.93L20.78-31.93Q19.09-31.93 17.88-31.36 16.67-30.79 15.83-29.82 14.99-28.86 14.49-27.59 13.99-26.32 13.71-24.91 13.43-23.51 13.34-22.08 13.26-20.65 13.26-19.38L13.26-19.38 13.26-12.57 23.78-12.57 23.78-8.54 13.26-8.54 13.26 0 3.56 0 3.56-17.87Q3.56-21.7 4.79-25 6.01-28.3 8.24-30.73 10.47-33.15 13.61-34.53 16.75-35.91 20.61-35.91L20.61-35.91Q23.22-35.91 25.5-35.17 27.78-34.42 29.66-33.12 31.54-31.81 33.02-30.02 34.5-28.22 35.49-26.1 36.47-23.97 36.99-21.61 37.5-19.24 37.45-16.82ZM53.44-15.33L53.44 0 43.75 0 43.75-35.16 68.99-35.16 68.99-30.66 53.44-30.66 53.44-19.8 65.45-19.8 65.45-15.33 53.44-15.33ZM83.74-13.13L83.74 0 74.04 0 74.04-35.16 91.33-35.16Q93.77-35.16 96.04-34.58 98.31-34.01 100.06-32.78 101.8-31.54 102.84-29.59 103.88-27.64 103.88-24.85L103.88-24.85Q103.88-22.68 102.96-20.76 102.05-18.85 100.52-17.35 98.99-15.84 97.02-14.86 95.04-13.87 92.91-13.55L92.91-13.55Q93.87-11.94 94.9-10.5 95.94-9.06 97-7.8 98.07-6.54 99.12-5.48 100.17-4.42 101.12-3.54L101.12-3.54Q103.36-1.49 105.56 0L105.56 0 93.48 0Q92.01-1.39 90.69-3.34L90.69-3.34Q89.57-5 88.43-7.46 87.3-9.91 86.69-13.13L86.69-13.13 83.74-13.13ZM94.04-24.85L94.04-24.85Q94.04-28.39 92.32-30.05 90.6-31.71 87.15-31.71L87.15-31.71 83.74-31.71 83.74-16.46 87.15-16.46Q88.98-16.46 90.29-17.15 91.6-17.85 92.43-19.01 93.26-20.17 93.65-21.68 94.04-23.19 94.04-24.85ZM119.82-35.16L119.82 0 110.12 0 110.12-35.16 119.82-35.16ZM151.62-15.33L151.62 0 141.93 0 141.93-35.16 167.18-35.16 167.18-30.66 151.62-30.66 151.62-19.8 163.63-19.8 163.63-15.33 151.62-15.33ZM175.13-35.16L182.24-35.16Q181.58-33.18 181.09-31.07 180.6-28.96 180.28-26.84 179.97-24.73 179.81-22.68 179.65-20.63 179.65-18.8L179.65-18.8Q179.65-17.46 179.66-15.78 179.67-14.11 179.86-12.38 180.04-10.64 180.45-9 180.87-7.35 181.69-6.05 182.5-4.76 183.79-3.98 185.07-3.2 186.97-3.2L186.97-3.2Q188.66-3.2 189.87-3.77 191.07-4.35 191.92-5.32 192.76-6.3 193.26-7.57 193.76-8.84 194.04-10.23 194.32-11.62 194.41-13.05 194.49-14.48 194.49-15.77L194.49-15.77 194.49-35.16 204.18-35.16 204.18-17.29Q204.18-13.45 202.96-10.16 201.74-6.86 199.52-4.43 197.3-2 194.15-0.62 191 0.76 187.17 0.76L187.17 0.76Q184.53 0.76 182.26 0.01 179.99-0.73 178.1-2.04 176.21-3.34 174.73-5.14 173.25-6.93 172.26-9.06 171.27-11.18 170.76-13.54 170.25-15.89 170.3-18.31L170.3-18.31 170.3-18.8Q170.32-20.75 170.69-22.84 171.05-24.93 171.68-27.03 172.3-29.13 173.18-31.19 174.06-33.25 175.13-35.16L175.13-35.16ZM216.22-24.12L216.22 0 211.73 0 211.73-35.16 218.02-35.16 239.39-11.01 239.39-35.16 243.85-35.16 243.85 0 237.56 0 216.22-24.12ZM285.89-17.63L285.89-17.63Q285.89-15.06 285.21-12.76 284.53-10.45 283.29-8.5 282.06-6.54 280.35-4.97 278.64-3.39 276.58-2.29 274.52-1.2 272.16-0.6 269.8 0 267.31 0L267.31 0 251.81 0 251.81-35.16 267.31-35.16Q269.8-35.16 272.15-34.57 274.49-33.98 276.55-32.9 278.62-31.81 280.34-30.25 282.06-28.69 283.29-26.75 284.53-24.8 285.21-22.5 285.89-20.19 285.89-17.63ZM276.05-17.63L276.05-17.63Q276.05-20.48 275.36-23.06 274.66-25.63 273.2-27.59 271.73-29.54 269.47-30.69 267.22-31.84 264.07-31.84L264.07-31.84 261.5-31.84 261.5-3.42 264.07-3.42Q267.17-3.42 269.43-4.58 271.68-5.74 273.16-7.7 274.64-9.67 275.35-12.23 276.05-14.79 276.05-17.63ZM309.2-35.16L316.31-35.16Q315.65-33.18 315.16-31.07 314.67-28.96 314.35-26.84 314.04-24.73 313.88-22.68 313.72-20.63 313.72-18.8L313.72-18.8Q313.72-17.46 313.73-15.78 313.74-14.11 313.93-12.38 314.11-10.64 314.53-9 314.94-7.35 315.76-6.05 316.58-4.76 317.86-3.98 319.14-3.2 321.04-3.2L321.04-3.2Q322.73-3.2 323.94-3.77 325.15-4.35 325.99-5.32 326.83-6.3 327.33-7.57 327.83-8.84 328.11-10.23 328.39-11.62 328.48-13.05 328.56-14.48 328.56-15.77L328.56-15.77 328.56-35.16 338.26-35.16 338.26-17.29Q338.26-13.45 337.04-10.16 335.81-6.86 333.59-4.43 331.37-2 328.22-0.62 325.07 0.76 321.24 0.76L321.24 0.76Q318.6 0.76 316.33 0.01 314.06-0.73 312.17-2.04 310.28-3.34 308.8-5.14 307.32-6.93 306.33-9.06 305.35-11.18 304.83-13.54 304.32-15.89 304.37-18.31L304.37-18.31 304.37-18.8Q304.39-20.75 304.76-22.84 305.13-24.93 305.75-27.03 306.37-29.13 307.25-31.19 308.13-33.25 309.2-35.16L309.2-35.16ZM350.29-24.12L350.29 0 345.8 0 345.8-35.16 352.1-35.16 373.46-11.01 373.46-35.16 377.93-35.16 377.93 0 371.63 0 350.29-24.12ZM395.58-35.16L395.58 0 385.88 0 385.88-35.16 395.58-35.16ZM434.2-35.16L421.74 0 412.88 0 399.75-35.16 409.64-35.16 419.38-6.86 428.19-35.16 434.2-35.16ZM463.66-4.49L463.66 0 438.42 0 438.42-35.16 463.66-35.16 463.66-30.66 448.11-30.66 448.11-19.8 460.12-19.8 460.12-15.33 448.11-15.33 448.11-4.49 463.66-4.49ZM479.36-13.13L479.36 0 469.66 0 469.66-35.16 486.95-35.16Q489.39-35.16 491.66-34.58 493.93-34.01 495.68-32.78 497.42-31.54 498.46-29.59 499.5-27.64 499.5-24.85L499.5-24.85Q499.5-22.68 498.58-20.76 497.67-18.85 496.14-17.35 494.62-15.84 492.64-14.86 490.66-13.87 488.54-13.55L488.54-13.55Q489.49-11.94 490.53-10.5 491.56-9.06 492.63-7.8 493.69-6.54 494.74-5.48 495.79-4.42 496.74-3.54L496.74-3.54Q498.99-1.49 501.18 0L501.18 0 489.1 0Q487.63-1.39 486.32-3.34L486.32-3.34Q485.19-5 484.06-7.46 482.92-9.91 482.31-13.13L482.31-13.13 479.36-13.13ZM489.66-24.85L489.66-24.85Q489.66-28.39 487.94-30.05 486.22-31.71 482.78-31.71L482.78-31.71 479.36-31.71 479.36-16.46 482.78-16.46Q484.61-16.46 485.91-17.15 487.22-17.85 488.05-19.01 488.88-20.17 489.27-21.68 489.66-23.19 489.66-24.85ZM534.55-10.74L534.55-10.74Q534.55-8.47 533.98-6.74 533.41-5 532.37-3.74 531.33-2.47 529.92-1.61 528.5-0.76 526.83-0.24 525.16 0.27 523.29 0.49 521.42 0.71 519.49 0.71L519.49 0.71Q516.95 0.71 514.8 0.33 512.66-0.05 510.76-0.87 508.87-1.68 507.13-2.98 505.38-4.27 503.65-6.13L503.65-6.13 508.63-11.18Q509.31-9.5 510.51-8.07 511.7-6.64 513.13-5.62 514.56-4.59 516.1-4 517.64-3.42 519-3.42L519-3.42Q520.61-3.42 522.03-3.65 523.45-3.88 524.5-4.42 525.55-4.96 526.14-5.85 526.74-6.74 526.74-8.08L526.74-8.08Q526.74-9.11 526.28-9.84 525.81-10.57 525.07-11.1 524.33-11.62 523.37-11.99 522.42-12.35 521.43-12.61 520.44-12.87 519.49-13.07 518.54-13.28 517.81-13.5L517.81-13.5Q516.37-13.92 514.8-14.39 513.24-14.87 511.73-15.48 510.21-16.09 508.86-16.88 507.5-17.68 506.48-18.76 505.45-19.85 504.84-21.28 504.23-22.71 504.23-24.56L504.23-24.56Q504.23-26.78 504.78-28.5 505.33-30.22 506.33-31.49 507.33-32.76 508.7-33.63 510.07-34.5 511.7-35.02 513.34-35.55 515.18-35.78 517.03-36.01 518.95-36.01L518.95-36.01Q521.59-36.01 523.75-35.52 525.91-35.03 527.74-34.13 529.57-33.23 531.1-31.97 532.63-30.71 533.97-29.17L533.97-29.17 528.99-24.12Q528.4-25.88 527.36-27.29 526.33-28.71 525.06-29.72 523.79-30.74 522.4-31.29 521-31.84 519.71-31.84L519.71-31.84Q518.03-31.84 516.61-31.6 515.19-31.37 514.18-30.85 513.17-30.32 512.61-29.43 512.04-28.54 512.04-27.22L512.04-27.22Q512.04-26.17 512.46-25.44 512.88-24.71 513.57-24.19 514.27-23.68 515.15-23.35 516.02-23.02 516.96-22.78 517.9-22.53 518.82-22.35 519.74-22.17 520.49-21.95L520.49-21.95Q521.96-21.53 523.57-21.07 525.18-20.61 526.74-19.98 528.3-19.36 529.72-18.55 531.14-17.75 532.21-16.64 533.29-15.53 533.92-14.07 534.55-12.62 534.55-10.74ZM550.27-35.16L550.27 0 540.58 0 540.58-35.16 550.27-35.16ZM574.49-30.66L574.49 0 564.8 0 564.8-30.66 555.23-30.66 555.23-35.16 584.06-35.16 584.06-30.66 574.49-30.66ZM610.72-35.16L617.56-35.16 606.18-14.77 606.18 0 596.49 0 596.49-14.23 584.99-35.16 594.87-35.16 602.52-17.48 610.72-35.16ZM660.84-4.47L660.84 0 635.59 0 635.59-35.16 645.28-35.16 645.28-4.47 660.84-4.47ZM690.64-4.49L690.64 0 665.4 0 665.4-35.16 690.64-35.16 690.64-30.66 675.09-30.66 675.09-19.8 687.1-19.8 687.1-15.33 675.09-15.33 675.09-4.49 690.64-4.49ZM701.14-24.12L701.14 0 696.65 0 696.65-35.16 702.95-35.16 724.31-11.01 724.31-35.16 728.78-35.16 728.78 0 722.48 0 701.14-24.12ZM770.81-17.63L770.81-17.63Q770.81-15.06 770.13-12.76 769.45-10.45 768.21-8.5 766.98-6.54 765.27-4.97 763.56-3.39 761.5-2.29 759.44-1.2 757.08-0.6 754.73 0 752.23 0L752.23 0 736.73 0 736.73-35.16 752.23-35.16Q754.73-35.16 757.07-34.57 759.41-33.98 761.48-32.9 763.54-31.81 765.26-30.25 766.98-28.69 768.21-26.75 769.45-24.8 770.13-22.5 770.81-20.19 770.81-17.63ZM760.98-17.63L760.98-17.63Q760.98-20.48 760.28-23.06 759.58-25.63 758.12-27.59 756.65-29.54 754.4-30.69 752.14-31.84 748.99-31.84L748.99-31.84 746.42-31.84 746.42-3.42 748.99-3.42Q752.09-3.42 754.35-4.58 756.61-5.74 758.08-7.7 759.56-9.67 760.27-12.23 760.98-14.79 760.98-17.63ZM802.01-4.49L802.01 0 776.77 0 776.77-35.16 802.01-35.16 802.01-30.66 786.46-30.66 786.46-19.8 798.47-19.8 798.47-15.33 786.46-15.33 786.46-4.49 802.01-4.49ZM817.71-13.13L817.71 0 808.02 0 808.02-35.16 825.3-35.16Q827.74-35.16 830.01-34.58 832.28-34.01 834.03-32.78 835.77-31.54 836.81-29.59 837.85-27.64 837.85-24.85L837.85-24.85Q837.85-22.68 836.93-20.76 836.02-18.85 834.49-17.35 832.97-15.84 830.99-14.86 829.01-13.87 826.89-13.55L826.89-13.55Q827.84-11.94 828.88-10.5 829.92-9.06 830.98-7.8 832.04-6.54 833.09-5.48 834.14-4.42 835.09-3.54L835.09-3.54Q837.34-1.49 839.53 0L839.53 0 827.45 0Q825.98-1.39 824.67-3.34L824.67-3.34Q823.54-5 822.41-7.46 821.27-9.91 820.66-13.13L820.66-13.13 817.71-13.13ZM828.01-24.85L828.01-24.85Q828.01-28.39 826.29-30.05 824.57-31.71 821.13-31.71L821.13-31.71 817.71-31.71 817.71-16.46 821.13-16.46Q822.96-16.46 824.26-17.15 825.57-17.85 826.4-19.01 827.23-20.17 827.62-21.68 828.01-23.19 828.01-24.85Z" opacity="1" transform="matrix(1,0,0,1,0,0)" fill="black" class="wordmark-text-0" id="SvgjsPath9704" stroke-width="39" stroke="black" stroke-linejoin="round"></path></svg></g></svg></g><g transform="matrix(1,0,0,1,19.5,40.14996429593454)"><svg viewBox="0 0 356.52 3.7342253213040544" height="3.7342253213040544" width="356.52"><g transform="matrix(1,0,0,1,0,0)"><svg width="356.52" viewBox="-18.58 -59.5 8858.34 92.50999999999999" height="3.7342253213040544" data-palette-color="#68b6ff"><path d="M25.15-22.46L19.51 0 10.64 0 1.42-35.16 11.3-35.16 17.14-10.21 22.31-35.16 31.2-35.16 36.87-9.57 43.24-35.16 49.22-35.16 38.99 0 30.1 0 25.15-22.46ZM235.19-14.16L235.19-14.16Q235.19-11.96 234.6-10.03 234.02-8.11 232.98-6.47 231.94-4.83 230.48-3.53 229.01-2.22 227.27-1.32 225.52-0.42 223.53 0.07 221.54 0.56 219.44 0.56L219.44 0.56Q217.34 0.56 215.36 0.07 213.39-0.42 211.64-1.32 209.9-2.22 208.43-3.53 206.97-4.83 205.93-6.47 204.89-8.11 204.31-10.05 203.72-11.99 203.72-14.16L203.72-14.16Q203.72-16.33 204.31-18.27 204.89-20.21 205.93-21.85 206.97-23.49 208.43-24.79 209.9-26.1 211.64-27 213.39-27.91 215.36-28.39 217.34-28.88 219.44-28.88L219.44-28.88Q221.54-28.88 223.53-28.39 225.52-27.91 227.27-27 229.01-26.1 230.48-24.79 231.94-23.49 232.98-21.85 234.02-20.21 234.6-18.27 235.19-16.33 235.19-14.16ZM226.79-14.16L226.79-14.16Q226.79-15.33 226.66-16.64 226.52-17.94 226.2-19.2 225.89-20.46 225.34-21.62 224.79-22.78 223.98-23.65 223.18-24.51 222.05-25.04 220.93-25.56 219.44-25.56L219.44-25.56Q218.03-25.56 216.93-25.02 215.83-24.49 215.01-23.6 214.19-22.71 213.64-21.53 213.09-20.36 212.75-19.1 212.41-17.85 212.26-16.56 212.12-15.28 212.12-14.16L212.12-14.16Q212.12-13.04 212.26-11.76 212.41-10.47 212.75-9.2 213.09-7.93 213.64-6.77 214.19-5.62 215.01-4.72 215.83-3.83 216.93-3.3 218.03-2.76 219.44-2.76L219.44-2.76Q220.91-2.76 222.03-3.28 223.15-3.81 223.97-4.69 224.79-5.57 225.33-6.71 225.86-7.86 226.19-9.13 226.52-10.4 226.66-11.69 226.79-12.99 226.79-14.16ZM418.35-25.71L418.35-25.71 413.71-18.02Q413.42-18.99 412.96-20.21 412.49-21.44 411.81-22.5 411.13-23.56 410.17-24.28 409.22-25 407.98-25L407.98-25Q406.83-25 405.99-24.41 405.14-23.83 404.56-22.89 403.97-21.95 403.59-20.76 403.21-19.58 403.01-18.37 402.8-17.16 402.73-16.05 402.65-14.94 402.65-14.14L402.65-14.14 402.65 0 394.38 0 394.38-28.2 397.55-28.2 400.9-21.63Q401.58-23.22 402.46-24.55 403.34-25.88 404.48-26.84 405.63-27.81 407.08-28.34 408.54-28.88 410.37-28.88L410.37-28.88Q411.32-28.88 412.49-28.72 413.66-28.56 414.79-28.19 415.91-27.81 416.86-27.2 417.81-26.59 418.35-25.71ZM599.76-25.71L599.76-25.71 595.12-18.02Q594.82-18.99 594.36-20.21 593.9-21.44 593.21-22.5 592.53-23.56 591.58-24.28 590.63-25 589.38-25L589.38-25Q588.23-25 587.39-24.41 586.55-23.83 585.96-22.89 585.38-21.95 585-20.76 584.62-19.58 584.41-18.37 584.2-17.16 584.13-16.05 584.06-14.94 584.06-14.14L584.06-14.14 584.06 0 575.78 0 575.78-28.2 578.96-28.2 582.3-21.63Q582.98-23.22 583.86-24.55 584.74-25.88 585.89-26.84 587.04-27.81 588.49-28.34 589.94-28.88 591.77-28.88L591.77-28.88Q592.73-28.88 593.9-28.72 595.07-28.56 596.19-28.19 597.32-27.81 598.27-27.2 599.22-26.59 599.76-25.71ZM776.72-28.2L782.43-28.2 772.18-3.39Q770.42 0.85 768.26 5.02 766.1 9.18 763.58 13.01L763.58 13.01 760.36 11.06Q760.97 9.96 761.8 8.52 762.63 7.08 763.44 5.54 764.24 4 764.93 2.5 765.61 1 765.98-0.24L765.98-0.24 753.65-28.2 761.9-28.2 770.27-9.13 776.72-28.2ZM1136.4-28.2L1136.4 0 1128.15 0 1128.15-3.37Q1126.69-1.37 1124.62-0.4 1122.56 0.56 1120.09 0.56L1120.09 0.56Q1116.87 0.56 1114.33-0.59 1111.79-1.73 1110.04-3.72 1108.28-5.71 1107.35-8.4 1106.42-11.08 1106.42-14.16L1106.42-14.16Q1106.42-17.24 1107.35-19.92 1108.28-22.61 1110.04-24.6 1111.79-26.59 1114.33-27.73 1116.87-28.88 1120.09-28.88L1120.09-28.88Q1121.73-28.88 1123.21-28.39 1124.68-27.91 1125.92-27.01 1127.15-26.12 1128.09-24.87 1129.03-23.61 1129.57-22.07L1129.57-22.07 1133.23-28.2 1136.4-28.2ZM1128.1-14.16L1128.1-14.16Q1128.1-15.26 1127.99-16.48 1127.88-17.7 1127.61-18.9 1127.35-20.09 1126.87-21.18 1126.39-22.27 1125.65-23.11 1124.9-23.95 1123.85-24.44 1122.8-24.93 1121.41-24.93L1121.41-24.93Q1120.02-24.93 1119-24.43 1117.97-23.93 1117.24-23.08 1116.51-22.24 1116.03-21.14 1115.55-20.04 1115.28-18.85 1115.02-17.65 1114.91-16.44 1114.8-15.23 1114.8-14.16L1114.8-14.16Q1114.8-13.09 1114.91-11.87 1115.02-10.64 1115.28-9.45 1115.55-8.25 1116.03-7.15 1116.51-6.05 1117.24-5.21 1117.97-4.37 1119-3.87 1120.02-3.37 1121.41-3.37L1121.41-3.37Q1122.68-3.37 1123.67-3.89 1124.66-4.42 1125.4-5.3 1126.15-6.18 1126.66-7.3 1127.17-8.42 1127.49-9.62 1127.81-10.82 1127.96-12 1128.1-13.18 1128.1-14.16ZM1327.26-14.06L1327.26-14.06Q1327.26-10.99 1326.33-8.3 1325.4-5.62 1323.64-3.63 1321.88-1.64 1319.35-0.49 1316.81 0.66 1313.58 0.66L1313.58 0.66Q1311.95 0.66 1310.47 0.17 1308.99-0.32 1307.76-1.21 1306.53-2.1 1305.59-3.34 1304.65-4.59 1304.11-6.13L1304.11-6.13 1300.45 0 1297.28 0 1297.28-38.57 1305.53-38.57 1305.53-24.83Q1306.99-26.86 1309.06-27.81 1311.12-28.76 1313.58-28.76L1313.58-28.76Q1316.81-28.76 1319.35-27.61 1321.88-26.46 1323.64-24.49 1325.4-22.51 1326.33-19.82 1327.26-17.14 1327.26-14.06ZM1318.88-14.06L1318.88-14.06Q1318.88-15.14 1318.77-16.35 1318.66-17.55 1318.39-18.75 1318.12-19.95 1317.65-21.04 1317.17-22.14 1316.44-22.99 1315.71-23.83 1314.68-24.33 1313.66-24.83 1312.27-24.83L1312.27-24.83Q1311-24.83 1310.01-24.3 1309.02-23.78 1308.27-22.9 1307.53-22.02 1307.02-20.9 1306.5-19.78 1306.19-18.58 1305.87-17.38 1305.72-16.21 1305.58-15.04 1305.58-14.06L1305.58-14.06Q1305.58-12.96 1305.69-11.74 1305.8-10.52 1306.06-9.31 1306.33-8.11 1306.81-7.02 1307.29-5.93 1308.03-5.09 1308.77-4.25 1309.81-3.76 1310.85-3.27 1312.27-3.27L1312.27-3.27Q1313.63-3.27 1314.67-3.77 1315.71-4.27 1316.44-5.11 1317.17-5.96 1317.65-7.07 1318.12-8.18 1318.39-9.38 1318.66-10.57 1318.77-11.78 1318.88-12.99 1318.88-14.06ZM1516.35-14.16L1516.35-14.16Q1516.35-11.96 1515.77-10.03 1515.18-8.11 1514.14-6.47 1513.1-4.83 1511.64-3.53 1510.17-2.22 1508.43-1.32 1506.68-0.42 1504.69 0.07 1502.7 0.56 1500.6 0.56L1500.6 0.56Q1498.5 0.56 1496.53 0.07 1494.55-0.42 1492.8-1.32 1491.06-2.22 1489.59-3.53 1488.13-4.83 1487.09-6.47 1486.05-8.11 1485.47-10.05 1484.88-11.99 1484.88-14.16L1484.88-14.16Q1484.88-16.33 1485.47-18.27 1486.05-20.21 1487.09-21.85 1488.13-23.49 1489.59-24.79 1491.06-26.1 1492.8-27 1494.55-27.91 1496.53-28.39 1498.5-28.88 1500.6-28.88L1500.6-28.88Q1502.7-28.88 1504.69-28.39 1506.68-27.91 1508.43-27 1510.17-26.1 1511.64-24.79 1513.1-23.49 1514.14-21.85 1515.18-20.21 1515.77-18.27 1516.35-16.33 1516.35-14.16ZM1507.95-14.16L1507.95-14.16Q1507.95-15.33 1507.82-16.64 1507.68-17.94 1507.37-19.2 1507.05-20.46 1506.5-21.62 1505.95-22.78 1505.14-23.65 1504.34-24.51 1503.22-25.04 1502.09-25.56 1500.6-25.56L1500.6-25.56Q1499.19-25.56 1498.09-25.02 1496.99-24.49 1496.17-23.6 1495.35-22.71 1494.81-21.53 1494.26-20.36 1493.91-19.1 1493.57-17.85 1493.43-16.56 1493.28-15.28 1493.28-14.16L1493.28-14.16Q1493.28-13.04 1493.43-11.76 1493.57-10.47 1493.91-9.2 1494.26-7.93 1494.81-6.77 1495.35-5.62 1496.17-4.72 1496.99-3.83 1498.09-3.3 1499.19-2.76 1500.6-2.76L1500.6-2.76Q1502.07-2.76 1503.19-3.28 1504.31-3.81 1505.13-4.69 1505.95-5.57 1506.49-6.71 1507.02-7.86 1507.35-9.13 1507.68-10.4 1507.82-11.69 1507.95-12.99 1507.95-14.16ZM1674.1-12.06L1674.1-12.06Q1674.1-13.99 1674.43-16.06 1674.76-18.14 1675.38-20.21 1676-22.29 1676.88-24.32 1677.76-26.34 1678.86-28.2L1678.86-28.2 1684.89-28.2Q1684.28-26.37 1683.8-24.38 1683.33-22.39 1683-20.4 1682.67-18.41 1682.48-16.5 1682.3-14.6 1682.3-12.96L1682.3-12.96Q1682.3-12.01 1682.39-10.93 1682.47-9.84 1682.69-8.75 1682.91-7.67 1683.31-6.67 1683.72-5.66 1684.35-4.9 1684.99-4.13 1685.9-3.67 1686.82-3.22 1688.06-3.22L1688.06-3.22Q1689.28-3.22 1690.25-3.77 1691.21-4.32 1691.95-5.21 1692.68-6.1 1693.19-7.25 1693.7-8.4 1694.03-9.61 1694.36-10.82 1694.52-11.98 1694.68-13.13 1694.68-14.06L1694.68-14.06 1694.68-28.2 1702.93-28.2 1702.93 0 1699.76 0 1695.97-6.57Q1695.27-4.93 1694.25-3.6 1693.24-2.27 1691.95-1.32 1690.65-0.37 1689.08 0.15 1687.5 0.66 1685.67 0.66L1685.67 0.66Q1682.74 0.66 1680.57-0.29 1678.4-1.25 1676.96-2.93 1675.51-4.61 1674.81-6.95 1674.1-9.28 1674.1-12.06ZM1874.42-24.93L1874.42 0 1866.15 0 1866.15-24.93 1861.02-24.93 1861.02-28.2 1866.15-28.2 1866.15-38.57 1874.42-38.57 1874.42-28.2 1882.97-28.2 1882.97-24.93 1874.42-24.93ZM2237.33-28.2L2237.33 0 2229.08 0 2229.08-3.37Q2227.61-1.37 2225.55-0.4 2223.49 0.56 2221.02 0.56L2221.02 0.56Q2217.8 0.56 2215.26-0.59 2212.72-1.73 2210.96-3.72 2209.21-5.71 2208.28-8.4 2207.35-11.08 2207.35-14.16L2207.35-14.16Q2207.35-17.24 2208.28-19.92 2209.21-22.61 2210.96-24.6 2212.72-26.59 2215.26-27.73 2217.8-28.88 2221.02-28.88L2221.02-28.88Q2222.66-28.88 2224.14-28.39 2225.61-27.91 2226.85-27.01 2228.08-26.12 2229.02-24.87 2229.96-23.61 2230.5-22.07L2230.5-22.07 2234.16-28.2 2237.33-28.2ZM2229.03-14.16L2229.03-14.16Q2229.03-15.26 2228.92-16.48 2228.81-17.7 2228.54-18.9 2228.27-20.09 2227.8-21.18 2227.32-22.27 2226.58-23.11 2225.83-23.95 2224.78-24.44 2223.73-24.93 2222.34-24.93L2222.34-24.93Q2220.95-24.93 2219.92-24.43 2218.9-23.93 2218.17-23.08 2217.43-22.24 2216.96-21.14 2216.48-20.04 2216.21-18.85 2215.94-17.65 2215.84-16.44 2215.73-15.23 2215.73-14.16L2215.73-14.16Q2215.73-13.09 2215.84-11.87 2215.94-10.64 2216.21-9.45 2216.48-8.25 2216.96-7.15 2217.43-6.05 2218.17-5.21 2218.9-4.37 2219.92-3.87 2220.95-3.37 2222.34-3.37L2222.34-3.37Q2223.61-3.37 2224.6-3.89 2225.59-4.42 2226.33-5.3 2227.08-6.18 2227.59-7.3 2228.1-8.42 2228.42-9.62 2228.74-10.82 2228.88-12 2229.03-13.18 2229.03-14.16ZM2424.23-21.22L2424.23-21.22 2420.67-19.8Q2419.81-22.49 2417.81-23.93 2415.81-25.37 2413-25.37L2413-25.37Q2411.49-25.37 2410.3-24.89 2409.12-24.41 2408.23-23.58 2407.34-22.75 2406.71-21.66 2406.09-20.56 2405.7-19.31 2405.31-18.07 2405.14-16.74 2404.97-15.41 2404.97-14.16L2404.97-14.16Q2404.97-12.82 2405.11-11.45 2405.26-10.08 2405.61-8.83 2405.97-7.57 2406.55-6.48 2407.14-5.4 2408.03-4.59 2408.92-3.78 2410.15-3.32 2411.39-2.86 2413-2.86L2413-2.86Q2414.29-2.86 2415.46-3.25 2416.64-3.64 2417.61-4.35 2418.59-5.05 2419.35-6.03 2420.1-7.01 2420.54-8.2L2420.54-8.2 2424.13-6.88Q2423.33-4.96 2422-3.55 2420.67-2.15 2418.98-1.23 2417.3-0.32 2415.37 0.12 2413.44 0.56 2411.46 0.56L2411.46 0.56Q2408.26 0.56 2405.53-0.52 2402.79-1.61 2400.8-3.58 2398.81-5.54 2397.69-8.24 2396.57-10.94 2396.57-14.16L2396.57-14.16Q2396.57-17.41 2397.68-20.12 2398.79-22.83 2400.77-24.78 2402.75-26.73 2405.48-27.81 2408.21-28.88 2411.46-28.88L2411.46-28.88Q2413.51-28.88 2415.46-28.43 2417.42-27.98 2419.09-27.04 2420.76-26.1 2422.09-24.66 2423.42-23.22 2424.23-21.22ZM2591.77-35.01L2591.77-35.01Q2591.77-34.08 2591.41-33.25 2591.06-32.42 2590.45-31.81 2589.84-31.2 2589.01-30.85 2588.18-30.49 2587.25-30.49L2587.25-30.49Q2586.32-30.49 2585.51-30.85 2584.69-31.2 2584.08-31.81 2583.47-32.42 2583.11-33.25 2582.76-34.08 2582.76-35.01L2582.76-35.01Q2582.76-35.94 2583.11-36.76 2583.47-37.57 2584.08-38.18 2584.69-38.79 2585.51-39.15 2586.32-39.5 2587.25-39.5L2587.25-39.5Q2588.18-39.5 2589.01-39.15 2589.84-38.79 2590.45-38.18 2591.06-37.57 2591.41-36.76 2591.77-35.94 2591.77-35.01ZM2591.4-28.17L2591.4 0 2583.12 0 2583.12-28.17 2591.4-28.17ZM2781.13-16.16L2781.13-16.16Q2781.13-13.31 2780.44-10.21 2779.74-7.1 2778.49-4.13 2777.25-1.15 2775.52 1.48 2773.78 4.1 2771.71 6.01L2771.71 6.01 2768.61 4.32Q2769.27 3.1 2769.85 1.59 2770.44 0.07 2770.91-1.62 2771.39-3.32 2771.77-5.13 2772.15-6.93 2772.4-8.7 2772.66-10.47 2772.79-12.15 2772.93-13.82 2772.93-15.26L2772.93-15.26Q2772.93-16.21 2772.85-17.3 2772.78-18.38 2772.55-19.47 2772.32-20.56 2771.93-21.56 2771.54-22.56 2770.89-23.32 2770.24-24.07 2769.33-24.54 2768.41-25 2767.17-25L2767.17-25Q2765.95-25 2764.99-24.45 2764.04-23.9 2763.31-23.01 2762.58-22.12 2762.05-20.97 2761.53-19.82 2761.2-18.62 2760.87-17.41 2760.72-16.24 2760.57-15.06 2760.57-14.14L2760.57-14.14 2760.57 0 2752.3 0 2752.3-28.2 2755.47-28.2 2759.26-21.63Q2759.94-23.27 2760.97-24.61 2761.99-25.95 2763.28-26.9 2764.58-27.86 2766.15-28.37 2767.73-28.88 2769.56-28.88L2769.56-28.88Q2772.49-28.88 2774.66-27.93 2776.83-26.98 2778.27-25.28 2779.72-23.58 2780.42-21.25 2781.13-18.92 2781.13-16.16ZM2968.96-28.2L2968.96-3.39Q2968.96-0.02 2967.96 2.95 2966.95 5.93 2965.05 8.17 2963.15 10.4 2960.38 11.71 2957.6 13.01 2954.06 13.01L2954.06 13.01Q2952.11 13.01 2950.12 12.57 2948.13 12.13 2946.36 11.22 2944.59 10.3 2943.19 8.9 2941.78 7.5 2940.98 5.59L2940.98 5.59 2944.54 4.25Q2945.01 5.44 2945.75 6.45 2946.5 7.45 2947.47 8.17 2948.45 8.89 2949.62 9.29 2950.79 9.69 2952.09 9.69L2952.09 9.69Q2954.53 9.69 2956.18 8.69 2957.82 7.69 2958.82 6.08 2959.83 4.47 2960.27 2.43 2960.7 0.39 2960.7-1.71L2960.7-1.71 2960.7-3.37Q2959.24-1.37 2957.18-0.4 2955.11 0.56 2952.65 0.56L2952.65 0.56Q2949.43 0.56 2946.89-0.59 2944.35-1.73 2942.59-3.72 2940.83-5.71 2939.9-8.4 2938.98-11.08 2938.98-14.16L2938.98-14.16Q2938.98-17.24 2939.9-19.92 2940.83-22.61 2942.59-24.6 2944.35-26.59 2946.89-27.73 2949.43-28.88 2952.65-28.88L2952.65-28.88Q2954.28-28.88 2955.76-28.39 2957.24-27.91 2958.47-27.01 2959.7-26.12 2960.64-24.87 2961.58-23.61 2962.12-22.07L2962.12-22.07 2965.78-28.2 2968.96-28.2ZM2960.66-14.16L2960.66-14.16Q2960.66-15.26 2960.55-16.48 2960.44-17.7 2960.17-18.9 2959.9-20.09 2959.42-21.18 2958.95-22.27 2958.2-23.11 2957.46-23.95 2956.41-24.44 2955.36-24.93 2953.97-24.93L2953.97-24.93Q2952.57-24.93 2951.55-24.43 2950.52-23.93 2949.79-23.08 2949.06-22.24 2948.58-21.14 2948.11-20.04 2947.84-18.85 2947.57-17.65 2947.46-16.44 2947.35-15.23 2947.35-14.16L2947.35-14.16Q2947.35-13.09 2947.46-11.87 2947.57-10.64 2947.84-9.45 2948.11-8.25 2948.58-7.15 2949.06-6.05 2949.79-5.21 2950.52-4.37 2951.55-3.87 2952.57-3.37 2953.97-3.37L2953.97-3.37Q2955.24-3.37 2956.22-3.89 2957.21-4.42 2957.96-5.3 2958.7-6.18 2959.22-7.3 2959.73-8.42 2960.05-9.62 2960.36-10.82 2960.51-12 2960.66-13.18 2960.66-14.16ZM3308.6-24.93L3308.6 0 3300.32 0 3300.32-24.93 3295.19-24.93 3295.19-28.2 3300.32-28.2 3300.32-38.57 3308.6-38.57 3308.6-28.2 3317.14-28.2 3317.14-24.93 3308.6-24.93ZM3503.8-16.16L3503.8-16.16Q3503.8-13.31 3503.1-10.21 3502.4-7.1 3501.16-4.13 3499.91-1.15 3498.18 1.48 3496.45 4.1 3494.37 6.01L3494.37 6.01 3491.27 4.32Q3491.93 3.1 3492.52 1.59 3493.1 0.07 3493.58-1.62 3494.06-3.32 3494.43-5.13 3494.81-6.93 3495.07-8.7 3495.32-10.47 3495.46-12.15 3495.59-13.82 3495.59-15.26L3495.59-15.26Q3495.59-16.21 3495.52-17.3 3495.45-18.38 3495.21-19.47 3494.98-20.56 3494.59-21.56 3494.2-22.56 3493.55-23.32 3492.91-24.07 3491.99-24.54 3491.08-25 3489.83-25L3489.83-25Q3488.61-25 3487.66-24.45 3486.71-23.9 3485.97-23.01 3485.24-22.12 3484.72-20.97 3484.19-19.82 3483.86-18.62 3483.53-17.41 3483.39-16.24 3483.24-15.06 3483.24-14.14L3483.24-14.14 3483.24 0 3474.96 0 3474.96-38.57 3483.22-38.57 3483.22-24.05Q3484.8-26.37 3487.11-27.62 3489.42-28.88 3492.22-28.88L3492.22-28.88Q3495.15-28.88 3497.33-27.93 3499.5-26.98 3500.94-25.28 3502.38-23.58 3503.09-21.25 3503.8-18.92 3503.8-16.16ZM3691.62-28.2L3691.62 0 3683.37 0 3683.37-3.37Q3681.91-1.37 3679.84-0.4 3677.78 0.56 3675.31 0.56L3675.31 0.56Q3672.09 0.56 3669.55-0.59 3667.01-1.73 3665.25-3.72 3663.5-5.71 3662.57-8.4 3661.64-11.08 3661.64-14.16L3661.64-14.16Q3661.64-17.24 3662.57-19.92 3663.5-22.61 3665.25-24.6 3667.01-26.59 3669.55-27.73 3672.09-28.88 3675.31-28.88L3675.31-28.88Q3676.95-28.88 3678.43-28.39 3679.9-27.91 3681.14-27.01 3682.37-26.12 3683.31-24.87 3684.25-23.61 3684.79-22.07L3684.79-22.07 3688.45-28.2 3691.62-28.2ZM3683.32-14.16L3683.32-14.16Q3683.32-15.26 3683.21-16.48 3683.1-17.7 3682.83-18.9 3682.56-20.09 3682.09-21.18 3681.61-22.27 3680.87-23.11 3680.12-23.95 3679.07-24.44 3678.02-24.93 3676.63-24.93L3676.63-24.93Q3675.24-24.93 3674.21-24.43 3673.19-23.93 3672.46-23.08 3671.72-22.24 3671.25-21.14 3670.77-20.04 3670.5-18.85 3670.24-17.65 3670.13-16.44 3670.02-15.23 3670.02-14.16L3670.02-14.16Q3670.02-13.09 3670.13-11.87 3670.24-10.64 3670.5-9.45 3670.77-8.25 3671.25-7.15 3671.72-6.05 3672.46-5.21 3673.19-4.37 3674.21-3.87 3675.24-3.37 3676.63-3.37L3676.63-3.37Q3677.9-3.37 3678.89-3.89 3679.88-4.42 3680.62-5.3 3681.37-6.18 3681.88-7.3 3682.39-8.42 3682.71-9.62 3683.03-10.82 3683.17-12 3683.32-13.18 3683.32-14.16ZM3863.11-24.93L3863.11 0 3854.84 0 3854.84-24.93 3849.71-24.93 3849.71-28.2 3854.84-28.2 3854.84-38.57 3863.11-38.57 3863.11-28.2 3871.66-28.2 3871.66-24.93 3863.11-24.93ZM4231.64-16.82L4231.64-16.82 4231.64-16.36Q4231.59-14.31 4231.21-12.11 4230.83-9.91 4230.15-7.71 4229.46-5.52 4228.51-3.37 4227.56-1.22 4226.38 0.74 4225.19 2.71 4223.82 4.43 4222.46 6.15 4220.94 7.47L4220.94 7.47 4217.31 5.37Q4218.16 3.93 4218.86 2.23 4219.55 0.54 4220.11-1.32 4220.68-3.17 4221.08-5.13 4221.48-7.08 4221.75-9.01 4222.02-10.94 4222.15-12.81 4222.29-14.67 4222.29-16.36L4222.29-16.36Q4222.29-17.68 4222.27-19.35 4222.26-21.02 4222.08-22.75 4221.9-24.49 4221.48-26.14 4221.07-27.78 4220.25-29.08 4219.43-30.37 4218.15-31.15 4216.87-31.93 4214.96-31.93L4214.96-31.93Q4213.28-31.93 4212.07-31.36 4210.86-30.79 4210.02-29.82 4209.18-28.86 4208.68-27.59 4208.18-26.32 4207.89-24.91 4207.61-23.51 4207.53-22.08 4207.44-20.65 4207.44-19.38L4207.44-19.38 4207.44-12.57 4217.97-12.57 4217.97-8.54 4207.44-8.54 4207.44 0 4197.75 0 4197.75-17.87Q4197.75-21.7 4198.97-25 4200.19-28.3 4202.43-30.73 4204.66-33.15 4207.8-34.53 4210.93-35.91 4214.79-35.91L4214.79-35.91Q4217.4-35.91 4219.69-35.17 4221.97-34.42 4223.85-33.12 4225.73-31.81 4227.21-30.02 4228.68-28.22 4229.67-26.1 4230.66-23.97 4231.17-21.61 4231.69-19.24 4231.64-16.82ZM4410.41-19.85L4410.41-15.36 4403.84-15.36 4403.84-7.84 4396.59-7.84 4396.59-15.36 4390.02-15.36 4390.02-19.85 4396.59-19.85 4396.59-27 4403.84-27 4403.84-19.85 4410.41-19.85ZM4766.45-28.2L4766.45 0 4758.2 0 4758.2-3.37Q4756.74-1.37 4754.67-0.4 4752.61 0.56 4750.14 0.56L4750.14 0.56Q4746.92 0.56 4744.38-0.59 4741.84-1.73 4740.09-3.72 4738.33-5.71 4737.4-8.4 4736.47-11.08 4736.47-14.16L4736.47-14.16Q4736.47-17.24 4737.4-19.92 4738.33-22.61 4740.09-24.6 4741.84-26.59 4744.38-27.73 4746.92-28.88 4750.14-28.88L4750.14-28.88Q4751.78-28.88 4753.26-28.39 4754.73-27.91 4755.97-27.01 4757.2-26.12 4758.14-24.87 4759.08-23.61 4759.62-22.07L4759.62-22.07 4763.28-28.2 4766.45-28.2ZM4758.15-14.16L4758.15-14.16Q4758.15-15.26 4758.04-16.48 4757.93-17.7 4757.66-18.9 4757.39-20.09 4756.92-21.18 4756.44-22.27 4755.7-23.11 4754.95-23.95 4753.9-24.44 4752.85-24.93 4751.46-24.93L4751.46-24.93Q4750.07-24.93 4749.05-24.43 4748.02-23.93 4747.29-23.08 4746.55-22.24 4746.08-21.14 4745.6-20.04 4745.33-18.85 4745.07-17.65 4744.96-16.44 4744.85-15.23 4744.85-14.16L4744.85-14.16Q4744.85-13.09 4744.96-11.87 4745.07-10.64 4745.33-9.45 4745.6-8.25 4746.08-7.15 4746.55-6.05 4747.29-5.21 4748.02-4.37 4749.05-3.87 4750.07-3.37 4751.46-3.37L4751.46-3.37Q4752.73-3.37 4753.72-3.89 4754.71-4.42 4755.45-5.3 4756.2-6.18 4756.71-7.3 4757.22-8.42 4757.54-9.62 4757.86-10.82 4758.01-12 4758.15-13.18 4758.15-14.16ZM4951.59-9.01L4951.59-9.01Q4951.59-7.15 4951.06-5.71 4950.52-4.27 4949.59-3.21 4948.66-2.15 4947.39-1.43 4946.12-0.71 4944.67-0.27 4943.22 0.17 4941.63 0.37 4940.04 0.56 4938.48 0.56L4938.48 0.56Q4936.38 0.56 4934.77 0.29 4933.16 0.02 4931.7-0.57 4930.23-1.17 4928.78-2.12 4927.33-3.08 4925.54-4.44L4925.54-4.44 4930.35-8.37Q4931.01-7.13 4932.1-6.12 4933.18-5.1 4934.36-4.37 4935.53-3.64 4936.63-3.25 4937.73-2.86 4938.41-2.86L4938.41-2.86Q4938.97-2.86 4939.68-2.89 4940.39-2.93 4941.12-3.04 4941.85-3.15 4942.56-3.37 4943.27-3.59 4943.82-3.97 4944.37-4.35 4944.7-4.92 4945.03-5.49 4945.03-6.3L4945.03-6.3Q4945.03-7.13 4944.6-7.75 4944.17-8.37 4943.49-8.84 4942.8-9.3 4941.92-9.62 4941.05-9.94 4940.15-10.18 4939.26-10.42 4938.43-10.61 4937.6-10.79 4936.99-10.96L4936.99-10.96Q4935.87-11.28 4934.62-11.61 4933.38-11.94 4932.16-12.37 4930.94-12.79 4929.83-13.38 4928.72-13.96 4927.87-14.78 4927.03-15.6 4926.53-16.71 4926.03-17.82 4926.03-19.31L4926.03-19.31Q4926.03-22.05 4927.12-23.89 4928.2-25.73 4929.99-26.84 4931.77-27.95 4934.04-28.42 4936.31-28.88 4938.65-28.88L4938.65-28.88Q4940.26-28.88 4942.05-28.55 4943.83-28.22 4945.51-27.58 4947.2-26.93 4948.66-26 4950.13-25.07 4951.1-23.88L4951.1-23.88 4946.29-19.92Q4945.76-21.39 4944.89-22.44 4944.02-23.49 4943.01-24.16 4942-24.83 4940.94-25.15 4939.87-25.46 4938.97-25.46L4938.97-25.46Q4938.09-25.46 4936.99-25.39 4935.89-25.32 4934.93-24.98 4933.97-24.63 4933.29-23.94 4932.62-23.24 4932.62-22.02L4932.62-22.02Q4932.62-21.14 4933.03-20.52 4933.43-19.9 4934.09-19.45 4934.75-18.99 4935.59-18.69 4936.43-18.38 4937.31-18.15 4938.19-17.92 4939.02-17.75 4939.85-17.58 4940.51-17.38L4940.51-17.38Q4941.63-17.07 4942.89-16.74 4944.15-16.41 4945.37-15.98 4946.59-15.55 4947.72-14.98 4948.86-14.4 4949.71-13.57 4950.57-12.74 4951.08-11.63 4951.59-10.52 4951.59-9.01ZM5296.53-17.14L5291.87 0 5284.45 0 5276.73-28.2 5284.98-28.2 5289.82-8.42 5293.85-28.2 5301.27-28.2 5306.2-7.89 5310.96-28.2 5316.67-28.2 5308.13 0 5300.71 0 5296.53-17.14ZM5481.23-13.38L5481.23-13.38Q5482.75-13.04 5484.26-12.84 5485.77-12.65 5487.31-12.65L5487.31-12.65Q5488.92-12.65 5490.3-12.95 5491.68-13.26 5492.69-13.98 5493.71-14.7 5494.29-15.89 5494.88-17.09 5494.88-18.87L5494.88-18.87Q5494.88-20.31 5494.49-21.51 5494.1-22.71 5493.33-23.56 5492.56-24.41 5491.44-24.89 5490.31-25.37 5488.82-25.37L5488.82-25.37Q5487.43-25.37 5486.32-24.85 5485.21-24.34 5484.37-23.47 5483.53-22.61 5482.93-21.46 5482.33-20.31 5481.94-19.07 5481.55-17.82 5481.38-16.55 5481.21-15.28 5481.21-14.16L5481.21-14.16Q5481.21-13.96 5481.21-13.77 5481.21-13.57 5481.23-13.38ZM5501.57-18.95L5501.57-18.95Q5501.57-17.21 5501.01-15.86 5500.45-14.5 5499.48-13.48 5498.52-12.45 5497.25-11.74 5495.98-11.04 5494.54-10.58 5493.1-10.13 5491.57-9.94 5490.05-9.74 5488.6-9.74L5488.6-9.74Q5486.77-9.74 5484.99-10 5483.21-10.25 5481.48-10.82L5481.48-10.82Q5481.74-9.2 5482.33-7.75 5482.92-6.3 5483.89-5.21 5484.87-4.13 5486.3-3.49 5487.73-2.86 5489.68-2.86L5489.68-2.86Q5490.97-2.86 5492.14-3.25 5493.32-3.64 5494.29-4.35 5495.27-5.05 5496.01-6.03 5496.76-7.01 5497.22-8.2L5497.22-8.2 5500.79-6.88Q5499.98-4.96 5498.58-3.55 5497.17-2.15 5495.4-1.23 5493.63-0.32 5491.64 0.12 5489.65 0.56 5487.7 0.56L5487.7 0.56Q5484.48 0.56 5481.74-0.52 5479.01-1.61 5477.03-3.56 5475.06-5.52 5473.93-8.23 5472.81-10.94 5472.81-14.16L5472.81-14.16Q5472.81-17.38 5473.93-20.09 5475.06-22.8 5477.03-24.76 5479.01-26.71 5481.74-27.8 5484.48-28.88 5487.7-28.88L5487.7-28.88Q5489.26-28.88 5490.9-28.66 5492.54-28.44 5494.07-27.97 5495.61-27.49 5496.98-26.73 5498.35-25.98 5499.36-24.87 5500.37-23.75 5500.97-22.29 5501.57-20.83 5501.57-18.95ZM5846.46-17.14L5841.8 0 5834.37 0 5826.66-28.2 5834.91-28.2 5839.74-8.42 5843.77-28.2 5851.19-28.2 5856.13-7.89 5860.89-28.2 5866.6-28.2 5858.06 0 5850.63 0 5846.46-17.14ZM6054.16-14.16L6054.16-14.16Q6054.16-11.96 6053.57-10.03 6052.99-8.11 6051.95-6.47 6050.91-4.83 6049.45-3.53 6047.98-2.22 6046.23-1.32 6044.49-0.42 6042.5 0.07 6040.51 0.56 6038.41 0.56L6038.41 0.56Q6036.31 0.56 6034.33 0.07 6032.36-0.42 6030.61-1.32 6028.86-2.22 6027.4-3.53 6025.93-4.83 6024.9-6.47 6023.86-8.11 6023.27-10.05 6022.69-11.99 6022.69-14.16L6022.69-14.16Q6022.69-16.33 6023.27-18.27 6023.86-20.21 6024.9-21.85 6025.93-23.49 6027.4-24.79 6028.86-26.1 6030.61-27 6032.36-27.91 6034.33-28.39 6036.31-28.88 6038.41-28.88L6038.41-28.88Q6040.51-28.88 6042.5-28.39 6044.49-27.91 6046.23-27 6047.98-26.1 6049.45-24.79 6050.91-23.49 6051.95-21.85 6052.99-20.21 6053.57-18.27 6054.16-16.33 6054.16-14.16ZM6045.76-14.16L6045.76-14.16Q6045.76-15.33 6045.62-16.64 6045.49-17.94 6045.17-19.2 6044.86-20.46 6044.31-21.62 6043.76-22.78 6042.95-23.65 6042.15-24.51 6041.02-25.04 6039.9-25.56 6038.41-25.56L6038.41-25.56Q6036.99-25.56 6035.9-25.02 6034.8-24.49 6033.98-23.6 6033.16-22.71 6032.61-21.53 6032.06-20.36 6031.72-19.1 6031.38-17.85 6031.23-16.56 6031.09-15.28 6031.09-14.16L6031.09-14.16Q6031.09-13.04 6031.23-11.76 6031.38-10.47 6031.72-9.2 6032.06-7.93 6032.61-6.77 6033.16-5.62 6033.98-4.72 6034.8-3.83 6035.9-3.3 6036.99-2.76 6038.41-2.76L6038.41-2.76Q6039.88-2.76 6041-3.28 6042.12-3.81 6042.94-4.69 6043.76-5.57 6044.29-6.71 6044.83-7.86 6045.16-9.13 6045.49-10.4 6045.62-11.69 6045.76-12.99 6045.76-14.16ZM6237.32-25.71L6237.32-25.71 6232.68-18.02Q6232.39-18.99 6231.92-20.21 6231.46-21.44 6230.78-22.5 6230.09-23.56 6229.14-24.28 6228.19-25 6226.94-25L6226.94-25Q6225.8-25 6224.95-24.41 6224.11-23.83 6223.53-22.89 6222.94-21.95 6222.56-20.76 6222.18-19.58 6221.98-18.37 6221.77-17.16 6221.69-16.05 6221.62-14.94 6221.62-14.14L6221.62-14.14 6221.62 0 6213.35 0 6213.35-28.2 6216.52-28.2 6219.86-21.63Q6220.55-23.22 6221.43-24.55 6222.31-25.88 6223.45-26.84 6224.6-27.81 6226.05-28.34 6227.51-28.88 6229.34-28.88L6229.34-28.88Q6230.29-28.88 6231.46-28.72 6232.63-28.56 6233.76-28.19 6234.88-27.81 6235.83-27.2 6236.78-26.59 6237.32-25.71ZM6418.72-25.71L6418.72-25.71 6414.09-18.02Q6413.79-18.99 6413.33-20.21 6412.87-21.44 6412.18-22.5 6411.5-23.56 6410.55-24.28 6409.59-25 6408.35-25L6408.35-25Q6407.2-25 6406.36-24.41 6405.52-23.83 6404.93-22.89 6404.34-21.95 6403.97-20.76 6403.59-19.58 6403.38-18.37 6403.17-17.16 6403.1-16.05 6403.03-14.94 6403.03-14.14L6403.03-14.14 6403.03 0 6394.75 0 6394.75-28.2 6397.92-28.2 6401.27-21.63Q6401.95-23.22 6402.83-24.55 6403.71-25.88 6404.86-26.84 6406.01-27.81 6407.46-28.34 6408.91-28.88 6410.74-28.88L6410.74-28.88Q6411.69-28.88 6412.87-28.72 6414.04-28.56 6415.16-28.19 6416.28-27.81 6417.24-27.2 6418.19-26.59 6418.72-25.71ZM6595.69-28.2L6601.4-28.2 6591.15-3.39Q6589.39 0.85 6587.23 5.02 6585.07 9.18 6582.55 13.01L6582.55 13.01 6579.33 11.06Q6579.94 9.96 6580.77 8.52 6581.6 7.08 6582.41 5.54 6583.21 4 6583.89 2.5 6584.58 1 6584.94-0.24L6584.94-0.24 6572.61-28.2 6580.87-28.2 6589.24-9.13 6595.69-28.2ZM6955.37-28.2L6955.37 0 6947.12 0 6947.12-3.37Q6945.65-1.37 6943.59-0.4 6941.53 0.56 6939.06 0.56L6939.06 0.56Q6935.84 0.56 6933.3-0.59 6930.76-1.73 6929-3.72 6927.25-5.71 6926.32-8.4 6925.39-11.08 6925.39-14.16L6925.39-14.16Q6925.39-17.24 6926.32-19.92 6927.25-22.61 6929-24.6 6930.76-26.59 6933.3-27.73 6935.84-28.88 6939.06-28.88L6939.06-28.88Q6940.7-28.88 6942.18-28.39 6943.65-27.91 6944.89-27.01 6946.12-26.12 6947.06-24.87 6948-23.61 6948.54-22.07L6948.54-22.07 6952.2-28.2 6955.37-28.2ZM6947.07-14.16L6947.07-14.16Q6947.07-15.26 6946.96-16.48 6946.85-17.7 6946.58-18.9 6946.31-20.09 6945.84-21.18 6945.36-22.27 6944.62-23.11 6943.87-23.95 6942.82-24.44 6941.77-24.93 6940.38-24.93L6940.38-24.93Q6938.99-24.93 6937.96-24.43 6936.94-23.93 6936.21-23.08 6935.47-22.24 6935-21.14 6934.52-20.04 6934.25-18.85 6933.98-17.65 6933.87-16.44 6933.76-15.23 6933.76-14.16L6933.76-14.16Q6933.76-13.09 6933.87-11.87 6933.98-10.64 6934.25-9.45 6934.52-8.25 6935-7.15 6935.47-6.05 6936.21-5.21 6936.94-4.37 6937.96-3.87 6938.99-3.37 6940.38-3.37L6940.38-3.37Q6941.65-3.37 6942.64-3.89 6943.63-4.42 6944.37-5.3 6945.12-6.18 6945.63-7.3 6946.14-8.42 6946.46-9.62 6946.78-10.82 6946.92-12 6947.07-13.18 6947.07-14.16ZM7146.22-14.06L7146.22-14.06Q7146.22-10.99 7145.3-8.3 7144.37-5.62 7142.61-3.63 7140.85-1.64 7138.31-0.49 7135.77 0.66 7132.55 0.66L7132.55 0.66Q7130.92 0.66 7129.44 0.17 7127.96-0.32 7126.73-1.21 7125.5-2.1 7124.56-3.34 7123.62-4.59 7123.08-6.13L7123.08-6.13 7119.42 0 7116.24 0 7116.24-38.57 7124.5-38.57 7124.5-24.83Q7125.96-26.86 7128.02-27.81 7130.09-28.76 7132.55-28.76L7132.55-28.76Q7135.77-28.76 7138.31-27.61 7140.85-26.46 7142.61-24.49 7144.37-22.51 7145.3-19.82 7146.22-17.14 7146.22-14.06ZM7137.85-14.06L7137.85-14.06Q7137.85-15.14 7137.74-16.35 7137.63-17.55 7137.36-18.75 7137.09-19.95 7136.62-21.04 7136.14-22.14 7135.41-22.99 7134.68-23.83 7133.65-24.33 7132.63-24.83 7131.23-24.83L7131.23-24.83Q7129.96-24.83 7128.98-24.3 7127.99-23.78 7127.24-22.9 7126.5-22.02 7125.98-20.9 7125.47-19.78 7125.15-18.58 7124.84-17.38 7124.69-16.21 7124.54-15.04 7124.54-14.06L7124.54-14.06Q7124.54-12.96 7124.65-11.74 7124.76-10.52 7125.03-9.31 7125.3-8.11 7125.78-7.02 7126.25-5.93 7127-5.09 7127.74-4.25 7128.78-3.76 7129.82-3.27 7131.23-3.27L7131.23-3.27Q7132.6-3.27 7133.64-3.77 7134.68-4.27 7135.41-5.11 7136.14-5.96 7136.62-7.07 7137.09-8.18 7137.36-9.38 7137.63-10.57 7137.74-11.78 7137.85-12.99 7137.85-14.06ZM7335.32-14.16L7335.32-14.16Q7335.32-11.96 7334.73-10.03 7334.15-8.11 7333.11-6.47 7332.07-4.83 7330.61-3.53 7329.14-2.22 7327.4-1.32 7325.65-0.42 7323.66 0.07 7321.67 0.56 7319.57 0.56L7319.57 0.56Q7317.47 0.56 7315.5 0.07 7313.52-0.42 7311.77-1.32 7310.03-2.22 7308.56-3.53 7307.1-4.83 7306.06-6.47 7305.02-8.11 7304.44-10.05 7303.85-11.99 7303.85-14.16L7303.85-14.16Q7303.85-16.33 7304.44-18.27 7305.02-20.21 7306.06-21.85 7307.1-23.49 7308.56-24.79 7310.03-26.1 7311.77-27 7313.52-27.91 7315.5-28.39 7317.47-28.88 7319.57-28.88L7319.57-28.88Q7321.67-28.88 7323.66-28.39 7325.65-27.91 7327.4-27 7329.14-26.1 7330.61-24.79 7332.07-23.49 7333.11-21.85 7334.15-20.21 7334.73-18.27 7335.32-16.33 7335.32-14.16ZM7326.92-14.16L7326.92-14.16Q7326.92-15.33 7326.79-16.64 7326.65-17.94 7326.33-19.2 7326.02-20.46 7325.47-21.62 7324.92-22.78 7324.11-23.65 7323.31-24.51 7322.18-25.04 7321.06-25.56 7319.57-25.56L7319.57-25.56Q7318.16-25.56 7317.06-25.02 7315.96-24.49 7315.14-23.6 7314.32-22.71 7313.77-21.53 7313.22-20.36 7312.88-19.1 7312.54-17.85 7312.39-16.56 7312.25-15.28 7312.25-14.16L7312.25-14.16Q7312.25-13.04 7312.39-11.76 7312.54-10.47 7312.88-9.2 7313.22-7.93 7313.77-6.77 7314.32-5.62 7315.14-4.72 7315.96-3.83 7317.06-3.3 7318.16-2.76 7319.57-2.76L7319.57-2.76Q7321.04-2.76 7322.16-3.28 7323.28-3.81 7324.1-4.69 7324.92-5.57 7325.46-6.71 7325.99-7.86 7326.32-9.13 7326.65-10.4 7326.79-11.69 7326.92-12.99 7326.92-14.16ZM7493.07-12.06L7493.07-12.06Q7493.07-13.99 7493.4-16.06 7493.73-18.14 7494.35-20.21 7494.97-22.29 7495.85-24.32 7496.73-26.34 7497.83-28.2L7497.83-28.2 7503.86-28.2Q7503.25-26.37 7502.77-24.38 7502.3-22.39 7501.97-20.4 7501.64-18.41 7501.45-16.5 7501.27-14.6 7501.27-12.96L7501.27-12.96Q7501.27-12.01 7501.36-10.93 7501.44-9.84 7501.66-8.75 7501.88-7.67 7502.28-6.67 7502.69-5.66 7503.32-4.9 7503.96-4.13 7504.87-3.67 7505.79-3.22 7507.03-3.22L7507.03-3.22Q7508.25-3.22 7509.22-3.77 7510.18-4.32 7510.91-5.21 7511.65-6.1 7512.16-7.25 7512.67-8.4 7513-9.61 7513.33-10.82 7513.49-11.98 7513.65-13.13 7513.65-14.06L7513.65-14.06 7513.65-28.2 7521.9-28.2 7521.9 0 7518.73 0 7514.94-6.57Q7514.23-4.93 7513.22-3.6 7512.21-2.27 7510.91-1.32 7509.62-0.37 7508.04 0.15 7506.47 0.66 7504.64 0.66L7504.64 0.66Q7501.71 0.66 7499.54-0.29 7497.36-1.25 7495.92-2.93 7494.48-4.61 7493.77-6.95 7493.07-9.28 7493.07-12.06ZM7693.39-24.93L7693.39 0 7685.12 0 7685.12-24.93 7679.99-24.93 7679.99-28.2 7685.12-28.2 7685.12-38.57 7693.39-38.57 7693.39-28.2 7701.94-28.2 7701.94-24.93 7693.39-24.93ZM8071.53-16.46L8071.53-16.46Q8071.53-13.55 8070.85-10.4 8070.17-7.25 8068.93-4.26 8067.7-1.27 8065.97 1.39 8064.23 4.05 8062.11 6.01L8062.11 6.01 8059.01 4.32Q8059.72 3.05 8060.3 1.46 8060.89-0.12 8061.38-1.88 8061.87-3.64 8062.23-5.49 8062.6-7.35 8062.86-9.19 8063.11-11.04 8063.23-12.77 8063.36-14.5 8063.36-16.02L8063.36-16.02Q8063.36-16.87 8063.31-17.87 8063.26-18.87 8063.1-19.87 8062.94-20.87 8062.62-21.79 8062.31-22.71 8061.76-23.43 8061.21-24.15 8060.39-24.57 8059.57-25 8058.42-25L8058.42-25Q8057.3-25 8056.51-24.4 8055.71-23.8 8055.15-22.85 8054.59-21.9 8054.26-20.7 8053.93-19.51 8053.76-18.3 8053.59-17.09 8053.53-15.99 8053.47-14.89 8053.47-14.14L8053.47-14.14 8053.47 0 8045.24 0 8045.24-13.13Q8045.24-13.99 8045.26-15.2 8045.29-16.41 8045.2-17.72 8045.12-19.04 8044.89-20.35 8044.65-21.66 8044.15-22.68 8043.65-23.71 8042.8-24.35 8041.94-25 8040.65-25L8040.65-25Q8039.55-25 8038.81-24.39 8038.06-23.78 8037.56-22.81 8037.06-21.85 8036.78-20.64 8036.5-19.43 8036.37-18.23 8036.23-17.02 8036.21-15.93 8036.18-14.84 8036.18-14.14L8036.18-14.14 8036.18 0 8027.91 0 8027.91-28.2 8031.08-28.2 8034.11-21.63Q8035.13-25.05 8037.34-26.97 8039.55-28.88 8043.21-28.88L8043.21-28.88Q8046.51-28.88 8048.68-27.51 8050.86-26.15 8052.1-23.07L8052.1-23.07Q8052.81-24.41 8053.68-25.49 8054.54-26.56 8055.6-27.32 8056.67-28.08 8057.96-28.48 8059.25-28.88 8060.82-28.88L8060.82-28.88Q8063.7-28.88 8065.74-27.94 8067.77-27 8069.07-25.34 8070.36-23.68 8070.95-21.4 8071.53-19.12 8071.53-16.46ZM8260.8-14.16L8260.8-14.16Q8260.8-11.96 8260.21-10.03 8259.63-8.11 8258.59-6.47 8257.55-4.83 8256.09-3.53 8254.62-2.22 8252.88-1.32 8251.13-0.42 8249.14 0.07 8247.15 0.56 8245.05 0.56L8245.05 0.56Q8242.95 0.56 8240.98 0.07 8239-0.42 8237.25-1.32 8235.51-2.22 8234.04-3.53 8232.58-4.83 8231.54-6.47 8230.5-8.11 8229.92-10.05 8229.33-11.99 8229.33-14.16L8229.33-14.16Q8229.33-16.33 8229.92-18.27 8230.5-20.21 8231.54-21.85 8232.58-23.49 8234.04-24.79 8235.51-26.1 8237.25-27 8239-27.91 8240.98-28.39 8242.95-28.88 8245.05-28.88L8245.05-28.88Q8247.15-28.88 8249.14-28.39 8251.13-27.91 8252.88-27 8254.62-26.1 8256.09-24.79 8257.55-23.49 8258.59-21.85 8259.63-20.21 8260.21-18.27 8260.8-16.33 8260.8-14.16ZM8252.4-14.16L8252.4-14.16Q8252.4-15.33 8252.27-16.64 8252.13-17.94 8251.82-19.2 8251.5-20.46 8250.95-21.62 8250.4-22.78 8249.59-23.65 8248.79-24.51 8247.67-25.04 8246.54-25.56 8245.05-25.56L8245.05-25.56Q8243.64-25.56 8242.54-25.02 8241.44-24.49 8240.62-23.6 8239.8-22.71 8239.26-21.53 8238.71-20.36 8238.36-19.1 8238.02-17.85 8237.88-16.56 8237.73-15.28 8237.73-14.16L8237.73-14.16Q8237.73-13.04 8237.88-11.76 8238.02-10.47 8238.36-9.2 8238.71-7.93 8239.26-6.77 8239.8-5.62 8240.62-4.72 8241.44-3.83 8242.54-3.3 8243.64-2.76 8245.05-2.76L8245.05-2.76Q8246.52-2.76 8247.64-3.28 8248.76-3.81 8249.58-4.69 8250.4-5.57 8250.94-6.71 8251.47-7.86 8251.8-9.13 8252.13-10.4 8252.27-11.69 8252.4-12.99 8252.4-14.16ZM8448.82-16.16L8448.82-16.16Q8448.82-13.31 8448.13-10.21 8447.43-7.1 8446.18-4.13 8444.94-1.15 8443.21 1.48 8441.47 4.1 8439.4 6.01L8439.4 6.01 8436.3 4.32Q8436.96 3.1 8437.54 1.59 8438.13 0.07 8438.6-1.62 8439.08-3.32 8439.46-5.13 8439.84-6.93 8440.09-8.7 8440.35-10.47 8440.48-12.15 8440.62-13.82 8440.62-15.26L8440.62-15.26Q8440.62-16.21 8440.55-17.3 8440.47-18.38 8440.24-19.47 8440.01-20.56 8439.62-21.56 8439.23-22.56 8438.58-23.32 8437.93-24.07 8437.02-24.54 8436.1-25 8434.86-25L8434.86-25Q8433.64-25 8432.68-24.45 8431.73-23.9 8431-23.01 8430.27-22.12 8429.74-20.97 8429.22-19.82 8428.89-18.62 8428.56-17.41 8428.41-16.24 8428.26-15.06 8428.26-14.14L8428.26-14.14 8428.26 0 8419.99 0 8419.99-28.2 8423.16-28.2 8426.95-21.63Q8427.63-23.27 8428.66-24.61 8429.68-25.95 8430.97-26.9 8432.27-27.86 8433.84-28.37 8435.42-28.88 8437.25-28.88L8437.25-28.88Q8440.18-28.88 8442.35-27.93 8444.52-26.98 8445.97-25.28 8447.41-23.58 8448.11-21.25 8448.82-18.92 8448.82-16.16ZM8615.04-13.38L8615.04-13.38Q8616.55-13.04 8618.07-12.84 8619.58-12.65 8621.12-12.65L8621.12-12.65Q8622.73-12.65 8624.11-12.95 8625.49-13.26 8626.5-13.98 8627.52-14.7 8628.1-15.89 8628.69-17.09 8628.69-18.87L8628.69-18.87Q8628.69-20.31 8628.3-21.51 8627.91-22.71 8627.14-23.56 8626.37-24.41 8625.25-24.89 8624.12-25.37 8622.63-25.37L8622.63-25.37Q8621.24-25.37 8620.13-24.85 8619.02-24.34 8618.18-23.47 8617.34-22.61 8616.74-21.46 8616.14-20.31 8615.75-19.07 8615.36-17.82 8615.19-16.55 8615.02-15.28 8615.02-14.16L8615.02-14.16Q8615.02-13.96 8615.02-13.77 8615.02-13.57 8615.04-13.38ZM8635.38-18.95L8635.38-18.95Q8635.38-17.21 8634.82-15.86 8634.25-14.5 8633.29-13.48 8632.33-12.45 8631.06-11.74 8629.79-11.04 8628.35-10.58 8626.91-10.13 8625.38-9.94 8623.85-9.74 8622.41-9.74L8622.41-9.74Q8620.58-9.74 8618.8-10 8617.02-10.25 8615.28-10.82L8615.28-10.82Q8615.55-9.2 8616.14-7.75 8616.73-6.3 8617.7-5.21 8618.68-4.13 8620.11-3.49 8621.53-2.86 8623.49-2.86L8623.49-2.86Q8624.78-2.86 8625.95-3.25 8627.13-3.64 8628.1-4.35 8629.08-5.05 8629.82-6.03 8630.57-7.01 8631.03-8.2L8631.03-8.2 8634.6-6.88Q8633.79-4.96 8632.39-3.55 8630.98-2.15 8629.21-1.23 8627.44-0.32 8625.45 0.12 8623.46 0.56 8621.51 0.56L8621.51 0.56Q8618.29 0.56 8615.55-0.52 8612.82-1.61 8610.84-3.56 8608.86-5.52 8607.74-8.23 8606.62-10.94 8606.62-14.16L8606.62-14.16Q8606.62-17.38 8607.74-20.09 8608.86-22.8 8610.84-24.76 8612.82-26.71 8615.55-27.8 8618.29-28.88 8621.51-28.88L8621.51-28.88Q8623.07-28.88 8624.71-28.66 8626.34-28.44 8627.88-27.97 8629.42-27.49 8630.79-26.73 8632.16-25.98 8633.17-24.87 8634.18-23.75 8634.78-22.29 8635.38-20.83 8635.38-18.95ZM8814.05-28.2L8819.76-28.2 8809.51-3.39Q8807.75 0.85 8805.59 5.02 8803.43 9.18 8800.91 13.01L8800.91 13.01 8797.69 11.06Q8798.3 9.96 8799.13 8.52 8799.96 7.08 8800.77 5.54 8801.57 4 8802.26 2.5 8802.94 1 8803.31-0.24L8803.31-0.24 8790.98-28.2 8799.23-28.2 8807.6-9.13 8814.05-28.2Z" opacity="1" transform="matrix(1,0,0,1,0,0)" fill="black" class="slogan-text-1" id="SvgjsPath9703" stroke-width="39" stroke="black" stroke-linejoin="round"></path></svg></g></svg></g></svg></g></svg></g></svg></g></svg></g></svg></g></mask><g mask="url(#ee789251-e308-41a8-b3ac-9f2202a50a87)"><g><path d="M99.795 116.047v0.001 1.336c-0.097 3.97-0.513 8.085-1.249 12.345-0.717 4.26-1.743 8.521-3.079 12.781-1.317 4.241-2.895 8.443-4.735 12.607-1.859 4.164-3.931 8.143-6.216 11.939-2.285 3.815-4.754 7.388-7.407 10.719-2.653 3.331-5.442 6.274-8.366 8.83v0l-10.573-6.1c1.646-2.789 3.147-5.829 4.502-9.121 1.356-3.273 2.576-6.71 3.66-10.312 1.084-3.583 2.014-7.272 2.789-11.067 0.775-3.776 1.423-7.533 1.946-11.271 0.523-3.738 0.92-7.417 1.191-11.038 0.252-3.602 0.378-7.039 0.378-10.312v0c0-2.556-0.01-5.451-0.03-8.686-0.019-3.234-0.213-6.526-0.581-9.876-0.349-3.37-0.93-6.652-1.742-9.847-0.794-3.176-1.985-6.023-3.573-8.54-1.588-2.498-3.621-4.502-6.1-6.013-2.479-1.51-5.558-2.266-9.238-2.266v0c-3.273 0-6.081 0.552-8.424 1.656-2.343 1.104-4.328 2.595-5.954 4.473-1.627 1.859-2.924 4.018-3.893 6.478-0.968 2.459-1.724 5.054-2.266 7.785-0.542 2.711-0.9 5.451-1.074 8.22-0.155 2.769-0.232 5.384-0.233 7.843v0 19.782h30.559v11.706h-30.559v24.807h-28.176v-51.909c0-7.417 1.191-14.321 3.572-20.711 2.363-6.391 5.703-11.939 10.022-16.644 4.318-4.686 9.518-8.366 15.599-11.039 6.081-2.672 12.859-4.009 20.334-4.008v0c5.054 0 9.789 0.717 14.204 2.149 4.415 1.452 8.443 3.437 12.084 5.955 3.641 2.537 6.894 5.538 9.76 9.005 2.866 3.486 5.258 7.281 7.175 11.387 1.898 4.125 3.35 8.472 4.357 13.042 0.988 4.59 1.433 9.228 1.336 13.915zM146.243 120.376v44.53h-28.147v-102.133h73.317v13.072h-45.17v31.546h34.887v12.985zM214.535 62.773h20.653c-1.278 3.834-2.392 7.795-3.34 11.881-0.949 4.086-1.733 8.182-2.353 12.287-0.6 4.086-1.055 8.114-1.365 12.084-0.31 3.97-0.465 7.727-0.465 11.271v0c0 2.595 0.01 5.519 0.029 8.773 0.019 3.234 0.213 6.526 0.581 9.876 0.349 3.37 0.93 6.642 1.743 9.818 0.794 3.195 1.985 6.052 3.573 8.569 1.588 2.498 3.621 4.502 6.1 6.013 2.479 1.51 5.558 2.266 9.237 2.266v0c3.273 0 6.081-0.552 8.424-1.656 2.343-1.123 4.328-2.624 5.955-4.502 1.627-1.898 2.924-4.076 3.892-6.536 0.968-2.459 1.724-5.035 2.266-7.727 0.542-2.692 0.9-5.422 1.075-8.191 0.155-2.769 0.232-5.403 0.232-7.901v0-56.325h28.177v51.909c0 7.436-1.181 14.34-3.544 20.712-2.382 6.391-5.722 11.939-10.022 16.644-4.299 4.706-9.499 8.395-15.598 11.067-6.1 2.672-12.859 4.009-20.276 4.009v0c-5.112 0-9.867-0.726-14.262-2.179-4.396-1.433-8.424-3.418-12.084-5.954-3.66-2.518-6.923-5.519-9.79-9.005-2.866-3.466-5.258-7.262-7.175-11.387-1.898-4.105-3.35-8.443-4.357-13.014-0.988-4.551-1.433-9.169-1.336-13.856v0-1.423c0.039-3.776 0.416-7.688 1.133-11.735 0.717-4.047 1.675-8.104 2.876-12.172 1.201-4.067 2.653-8.095 4.357-12.084 1.704-3.989 3.592-7.833 5.664-11.532zM394.168 151.922v12.984h-73.317v-102.133h28.148v89.149z" fill="#68b6ff" fill-rule="nonzero" stroke="none" stroke-width="1" stroke-linecap="butt" stroke-linejoin="miter" stroke-miterlimit="10" stroke-dasharray="" stroke-dashoffset="0" font-family="none" font-weight="none" font-size="none" text-anchor="none" style="mix-blend-mode: normal" data-fill-palette-color="tertiary"></path></g></g><g transform="matrix(1,0,0,1,0,101.6579051913807)"><svg viewBox="0 0 395.52 43.88418961723859" height="43.88418961723859" width="395.52"><g><svg viewBox="0 0 395.52 43.88418961723859" height="43.88418961723859" width="395.52"><g><svg viewBox="0 0 395.52 43.88418961723859" height="43.88418961723859" width="395.52"><g><svg viewBox="0 0 395.52 43.88418961723859" height="43.88418961723859" width="395.52"><g id="textblocktransform"><svg viewBox="0 0 395.52 43.88418961723859" height="43.88418961723859" width="395.52" id="textblock"><g><svg viewBox="0 0 395.52 37.2820006339031" height="37.2820006339031" width="395.52"><g transform="matrix(1,0,0,1,0,0)"><svg width="395.52" viewBox="-16.44 -56.01 875.97 83.47999999999999" height="37.2820006339031" data-palette-color="#68b6ff"><path d="M37.45-16.82L37.45-16.82 37.45-16.36Q37.4-14.31 37.02-12.11 36.65-9.91 35.96-7.71 35.28-5.52 34.33-3.37 33.37-1.22 32.19 0.74 31.01 2.71 29.64 4.43 28.27 6.15 26.76 7.47L26.76 7.47 23.12 5.37Q23.97 3.93 24.67 2.23 25.37 0.54 25.93-1.32 26.49-3.17 26.89-5.13 27.29-7.08 27.56-9.01 27.83-10.94 27.97-12.81 28.1-14.67 28.1-16.36L28.1-16.36Q28.1-17.68 28.09-19.35 28.08-21.02 27.89-22.75 27.71-24.49 27.29-26.14 26.88-27.78 26.06-29.08 25.24-30.37 23.96-31.15 22.68-31.93 20.78-31.93L20.78-31.93Q19.09-31.93 17.88-31.36 16.67-30.79 15.83-29.82 14.99-28.86 14.49-27.59 13.99-26.32 13.71-24.91 13.43-23.51 13.34-22.08 13.26-20.65 13.26-19.38L13.26-19.38 13.26-12.57 23.78-12.57 23.78-8.54 13.26-8.54 13.26 0 3.56 0 3.56-17.87Q3.56-21.7 4.79-25 6.01-28.3 8.24-30.73 10.47-33.15 13.61-34.53 16.75-35.91 20.61-35.91L20.61-35.91Q23.22-35.91 25.5-35.17 27.78-34.42 29.66-33.12 31.54-31.81 33.02-30.02 34.5-28.22 35.49-26.1 36.47-23.97 36.99-21.61 37.5-19.24 37.45-16.82ZM53.44-15.33L53.44 0 43.75 0 43.75-35.16 68.99-35.16 68.99-30.66 53.44-30.66 53.44-19.8 65.45-19.8 65.45-15.33 53.44-15.33ZM83.74-13.13L83.74 0 74.04 0 74.04-35.16 91.33-35.16Q93.77-35.16 96.04-34.58 98.31-34.01 100.06-32.78 101.8-31.54 102.84-29.59 103.88-27.64 103.88-24.85L103.88-24.85Q103.88-22.68 102.96-20.76 102.05-18.85 100.52-17.35 98.99-15.84 97.02-14.86 95.04-13.87 92.91-13.55L92.91-13.55Q93.87-11.94 94.9-10.5 95.94-9.06 97-7.8 98.07-6.54 99.12-5.48 100.17-4.42 101.12-3.54L101.12-3.54Q103.36-1.49 105.56 0L105.56 0 93.48 0Q92.01-1.39 90.69-3.34L90.69-3.34Q89.57-5 88.43-7.46 87.3-9.91 86.69-13.13L86.69-13.13 83.74-13.13ZM94.04-24.85L94.04-24.85Q94.04-28.39 92.32-30.05 90.6-31.71 87.15-31.71L87.15-31.71 83.74-31.71 83.74-16.46 87.15-16.46Q88.98-16.46 90.29-17.15 91.6-17.85 92.43-19.01 93.26-20.17 93.65-21.68 94.04-23.19 94.04-24.85ZM119.82-35.16L119.82 0 110.12 0 110.12-35.16 119.82-35.16ZM151.62-15.33L151.62 0 141.93 0 141.93-35.16 167.18-35.16 167.18-30.66 151.62-30.66 151.62-19.8 163.63-19.8 163.63-15.33 151.62-15.33ZM175.13-35.16L182.24-35.16Q181.58-33.18 181.09-31.07 180.6-28.96 180.28-26.84 179.97-24.73 179.81-22.68 179.65-20.63 179.65-18.8L179.65-18.8Q179.65-17.46 179.66-15.78 179.67-14.11 179.86-12.38 180.04-10.64 180.45-9 180.87-7.35 181.69-6.05 182.5-4.76 183.79-3.98 185.07-3.2 186.97-3.2L186.97-3.2Q188.66-3.2 189.87-3.77 191.07-4.35 191.92-5.32 192.76-6.3 193.26-7.57 193.76-8.84 194.04-10.23 194.32-11.62 194.41-13.05 194.49-14.48 194.49-15.77L194.49-15.77 194.49-35.16 204.18-35.16 204.18-17.29Q204.18-13.45 202.96-10.16 201.74-6.86 199.52-4.43 197.3-2 194.15-0.62 191 0.76 187.17 0.76L187.17 0.76Q184.53 0.76 182.26 0.01 179.99-0.73 178.1-2.04 176.21-3.34 174.73-5.14 173.25-6.93 172.26-9.06 171.27-11.18 170.76-13.54 170.25-15.89 170.3-18.31L170.3-18.31 170.3-18.8Q170.32-20.75 170.69-22.84 171.05-24.93 171.68-27.03 172.3-29.13 173.18-31.19 174.06-33.25 175.13-35.16L175.13-35.16ZM216.22-24.12L216.22 0 211.73 0 211.73-35.16 218.02-35.16 239.39-11.01 239.39-35.16 243.85-35.16 243.85 0 237.56 0 216.22-24.12ZM285.89-17.63L285.89-17.63Q285.89-15.06 285.21-12.76 284.53-10.45 283.29-8.5 282.06-6.54 280.35-4.97 278.64-3.39 276.58-2.29 274.52-1.2 272.16-0.6 269.8 0 267.31 0L267.31 0 251.81 0 251.81-35.16 267.31-35.16Q269.8-35.16 272.15-34.57 274.49-33.98 276.55-32.9 278.62-31.81 280.34-30.25 282.06-28.69 283.29-26.75 284.53-24.8 285.21-22.5 285.89-20.19 285.89-17.63ZM276.05-17.63L276.05-17.63Q276.05-20.48 275.36-23.06 274.66-25.63 273.2-27.59 271.73-29.54 269.47-30.69 267.22-31.84 264.07-31.84L264.07-31.84 261.5-31.84 261.5-3.42 264.07-3.42Q267.17-3.42 269.43-4.58 271.68-5.74 273.16-7.7 274.64-9.67 275.35-12.23 276.05-14.79 276.05-17.63ZM309.2-35.16L316.31-35.16Q315.65-33.18 315.16-31.07 314.67-28.96 314.35-26.84 314.04-24.73 313.88-22.68 313.72-20.63 313.72-18.8L313.72-18.8Q313.72-17.46 313.73-15.78 313.74-14.11 313.93-12.38 314.11-10.64 314.53-9 314.94-7.35 315.76-6.05 316.58-4.76 317.86-3.98 319.14-3.2 321.04-3.2L321.04-3.2Q322.73-3.2 323.94-3.77 325.15-4.35 325.99-5.32 326.83-6.3 327.33-7.57 327.83-8.84 328.11-10.23 328.39-11.62 328.48-13.05 328.56-14.48 328.56-15.77L328.56-15.77 328.56-35.16 338.26-35.16 338.26-17.29Q338.26-13.45 337.04-10.16 335.81-6.86 333.59-4.43 331.37-2 328.22-0.62 325.07 0.76 321.24 0.76L321.24 0.76Q318.6 0.76 316.33 0.01 314.06-0.73 312.17-2.04 310.28-3.34 308.8-5.14 307.32-6.93 306.33-9.06 305.35-11.18 304.83-13.54 304.32-15.89 304.37-18.31L304.37-18.31 304.37-18.8Q304.39-20.75 304.76-22.84 305.13-24.93 305.75-27.03 306.37-29.13 307.25-31.19 308.13-33.25 309.2-35.16L309.2-35.16ZM350.29-24.12L350.29 0 345.8 0 345.8-35.16 352.1-35.16 373.46-11.01 373.46-35.16 377.93-35.16 377.93 0 371.63 0 350.29-24.12ZM395.58-35.16L395.58 0 385.88 0 385.88-35.16 395.58-35.16ZM434.2-35.16L421.74 0 412.88 0 399.75-35.16 409.64-35.16 419.38-6.86 428.19-35.16 434.2-35.16ZM463.66-4.49L463.66 0 438.42 0 438.42-35.16 463.66-35.16 463.66-30.66 448.11-30.66 448.11-19.8 460.12-19.8 460.12-15.33 448.11-15.33 448.11-4.49 463.66-4.49ZM479.36-13.13L479.36 0 469.66 0 469.66-35.16 486.95-35.16Q489.39-35.16 491.66-34.58 493.93-34.01 495.68-32.78 497.42-31.54 498.46-29.59 499.5-27.64 499.5-24.85L499.5-24.85Q499.5-22.68 498.58-20.76 497.67-18.85 496.14-17.35 494.62-15.84 492.64-14.86 490.66-13.87 488.54-13.55L488.54-13.55Q489.49-11.94 490.53-10.5 491.56-9.06 492.63-7.8 493.69-6.54 494.74-5.48 495.79-4.42 496.74-3.54L496.74-3.54Q498.99-1.49 501.18 0L501.18 0 489.1 0Q487.63-1.39 486.32-3.34L486.32-3.34Q485.19-5 484.06-7.46 482.92-9.91 482.31-13.13L482.31-13.13 479.36-13.13ZM489.66-24.85L489.66-24.85Q489.66-28.39 487.94-30.05 486.22-31.71 482.78-31.71L482.78-31.71 479.36-31.71 479.36-16.46 482.78-16.46Q484.61-16.46 485.91-17.15 487.22-17.85 488.05-19.01 488.88-20.17 489.27-21.68 489.66-23.19 489.66-24.85ZM534.55-10.74L534.55-10.74Q534.55-8.47 533.98-6.74 533.41-5 532.37-3.74 531.33-2.47 529.92-1.61 528.5-0.76 526.83-0.24 525.16 0.27 523.29 0.49 521.42 0.71 519.49 0.71L519.49 0.71Q516.95 0.71 514.8 0.33 512.66-0.05 510.76-0.87 508.87-1.68 507.13-2.98 505.38-4.27 503.65-6.13L503.65-6.13 508.63-11.18Q509.31-9.5 510.51-8.07 511.7-6.64 513.13-5.62 514.56-4.59 516.1-4 517.64-3.42 519-3.42L519-3.42Q520.61-3.42 522.03-3.65 523.45-3.88 524.5-4.42 525.55-4.96 526.14-5.85 526.74-6.74 526.74-8.08L526.74-8.08Q526.74-9.11 526.28-9.84 525.81-10.57 525.07-11.1 524.33-11.62 523.37-11.99 522.42-12.35 521.43-12.61 520.44-12.87 519.49-13.07 518.54-13.28 517.81-13.5L517.81-13.5Q516.37-13.92 514.8-14.39 513.24-14.87 511.73-15.48 510.21-16.09 508.86-16.88 507.5-17.68 506.48-18.76 505.45-19.85 504.84-21.28 504.23-22.71 504.23-24.56L504.23-24.56Q504.23-26.78 504.78-28.5 505.33-30.22 506.33-31.49 507.33-32.76 508.7-33.63 510.07-34.5 511.7-35.02 513.34-35.55 515.18-35.78 517.03-36.01 518.95-36.01L518.95-36.01Q521.59-36.01 523.75-35.52 525.91-35.03 527.74-34.13 529.57-33.23 531.1-31.97 532.63-30.71 533.97-29.17L533.97-29.17 528.99-24.12Q528.4-25.88 527.36-27.29 526.33-28.71 525.06-29.72 523.79-30.74 522.4-31.29 521-31.84 519.71-31.84L519.71-31.84Q518.03-31.84 516.61-31.6 515.19-31.37 514.18-30.85 513.17-30.32 512.61-29.43 512.04-28.54 512.04-27.22L512.04-27.22Q512.04-26.17 512.46-25.44 512.88-24.71 513.57-24.19 514.27-23.68 515.15-23.35 516.02-23.02 516.96-22.78 517.9-22.53 518.82-22.35 519.74-22.17 520.49-21.95L520.49-21.95Q521.96-21.53 523.57-21.07 525.18-20.61 526.74-19.98 528.3-19.36 529.72-18.55 531.14-17.75 532.21-16.64 533.29-15.53 533.92-14.07 534.55-12.62 534.55-10.74ZM550.27-35.16L550.27 0 540.58 0 540.58-35.16 550.27-35.16ZM574.49-30.66L574.49 0 564.8 0 564.8-30.66 555.23-30.66 555.23-35.16 584.06-35.16 584.06-30.66 574.49-30.66ZM610.72-35.16L617.56-35.16 606.18-14.77 606.18 0 596.49 0 596.49-14.23 584.99-35.16 594.87-35.16 602.52-17.48 610.72-35.16ZM660.84-4.47L660.84 0 635.59 0 635.59-35.16 645.28-35.16 645.28-4.47 660.84-4.47ZM690.64-4.49L690.64 0 665.4 0 665.4-35.16 690.64-35.16 690.64-30.66 675.09-30.66 675.09-19.8 687.1-19.8 687.1-15.33 675.09-15.33 675.09-4.49 690.64-4.49ZM701.14-24.12L701.14 0 696.65 0 696.65-35.16 702.95-35.16 724.31-11.01 724.31-35.16 728.78-35.16 728.78 0 722.48 0 701.14-24.12ZM770.81-17.63L770.81-17.63Q770.81-15.06 770.13-12.76 769.45-10.45 768.21-8.5 766.98-6.54 765.27-4.97 763.56-3.39 761.5-2.29 759.44-1.2 757.08-0.6 754.73 0 752.23 0L752.23 0 736.73 0 736.73-35.16 752.23-35.16Q754.73-35.16 757.07-34.57 759.41-33.98 761.48-32.9 763.54-31.81 765.26-30.25 766.98-28.69 768.21-26.75 769.45-24.8 770.13-22.5 770.81-20.19 770.81-17.63ZM760.98-17.63L760.98-17.63Q760.98-20.48 760.28-23.06 759.58-25.63 758.12-27.59 756.65-29.54 754.4-30.69 752.14-31.84 748.99-31.84L748.99-31.84 746.42-31.84 746.42-3.42 748.99-3.42Q752.09-3.42 754.35-4.58 756.61-5.74 758.08-7.7 759.56-9.67 760.27-12.23 760.98-14.79 760.98-17.63ZM802.01-4.49L802.01 0 776.77 0 776.77-35.16 802.01-35.16 802.01-30.66 786.46-30.66 786.46-19.8 798.47-19.8 798.47-15.33 786.46-15.33 786.46-4.49 802.01-4.49ZM817.71-13.13L817.71 0 808.02 0 808.02-35.16 825.3-35.16Q827.74-35.16 830.01-34.58 832.28-34.01 834.03-32.78 835.77-31.54 836.81-29.59 837.85-27.64 837.85-24.85L837.85-24.85Q837.85-22.68 836.93-20.76 836.02-18.85 834.49-17.35 832.97-15.84 830.99-14.86 829.01-13.87 826.89-13.55L826.89-13.55Q827.84-11.94 828.88-10.5 829.92-9.06 830.98-7.8 832.04-6.54 833.09-5.48 834.14-4.42 835.09-3.54L835.09-3.54Q837.34-1.49 839.53 0L839.53 0 827.45 0Q825.98-1.39 824.67-3.34L824.67-3.34Q823.54-5 822.41-7.46 821.27-9.91 820.66-13.13L820.66-13.13 817.71-13.13ZM828.01-24.85L828.01-24.85Q828.01-28.39 826.29-30.05 824.57-31.71 821.13-31.71L821.13-31.71 817.71-31.71 817.71-16.46 821.13-16.46Q822.96-16.46 824.26-17.15 825.57-17.85 826.4-19.01 827.23-20.17 827.62-21.68 828.01-23.19 828.01-24.85Z" opacity="1" transform="matrix(1,0,0,1,0,0)" fill="#68b6ff" class="wordmark-text-0" data-fill-palette-color="primary" id="text-0"></path></svg></g></svg></g><g transform="matrix(1,0,0,1,19.5,40.14996429593454)"><svg viewBox="0 0 356.52 3.7342253213040544" height="3.7342253213040544" width="356.52"><g transform="matrix(1,0,0,1,0,0)"><svg width="356.52" viewBox="-18.58 -59.5 8858.34 92.50999999999999" height="3.7342253213040544" data-palette-color="#68b6ff"><path d="M25.15-22.46L19.51 0 10.64 0 1.42-35.16 11.3-35.16 17.14-10.21 22.31-35.16 31.2-35.16 36.87-9.57 43.24-35.16 49.22-35.16 38.99 0 30.1 0 25.15-22.46ZM235.19-14.16L235.19-14.16Q235.19-11.96 234.6-10.03 234.02-8.11 232.98-6.47 231.94-4.83 230.48-3.53 229.01-2.22 227.27-1.32 225.52-0.42 223.53 0.07 221.54 0.56 219.44 0.56L219.44 0.56Q217.34 0.56 215.36 0.07 213.39-0.42 211.64-1.32 209.9-2.22 208.43-3.53 206.97-4.83 205.93-6.47 204.89-8.11 204.31-10.05 203.72-11.99 203.72-14.16L203.72-14.16Q203.72-16.33 204.31-18.27 204.89-20.21 205.93-21.85 206.97-23.49 208.43-24.79 209.9-26.1 211.64-27 213.39-27.91 215.36-28.39 217.34-28.88 219.44-28.88L219.44-28.88Q221.54-28.88 223.53-28.39 225.52-27.91 227.27-27 229.01-26.1 230.48-24.79 231.94-23.49 232.98-21.85 234.02-20.21 234.6-18.27 235.19-16.33 235.19-14.16ZM226.79-14.16L226.79-14.16Q226.79-15.33 226.66-16.64 226.52-17.94 226.2-19.2 225.89-20.46 225.34-21.62 224.79-22.78 223.98-23.65 223.18-24.51 222.05-25.04 220.93-25.56 219.44-25.56L219.44-25.56Q218.03-25.56 216.93-25.02 215.83-24.49 215.01-23.6 214.19-22.71 213.64-21.53 213.09-20.36 212.75-19.1 212.41-17.85 212.26-16.56 212.12-15.28 212.12-14.16L212.12-14.16Q212.12-13.04 212.26-11.76 212.41-10.47 212.75-9.2 213.09-7.93 213.64-6.77 214.19-5.62 215.01-4.72 215.83-3.83 216.93-3.3 218.03-2.76 219.44-2.76L219.44-2.76Q220.91-2.76 222.03-3.28 223.15-3.81 223.97-4.69 224.79-5.57 225.33-6.71 225.86-7.86 226.19-9.13 226.52-10.4 226.66-11.69 226.79-12.99 226.79-14.16ZM418.35-25.71L418.35-25.71 413.71-18.02Q413.42-18.99 412.96-20.21 412.49-21.44 411.81-22.5 411.13-23.56 410.17-24.28 409.22-25 407.98-25L407.98-25Q406.83-25 405.99-24.41 405.14-23.83 404.56-22.89 403.97-21.95 403.59-20.76 403.21-19.58 403.01-18.37 402.8-17.16 402.73-16.05 402.65-14.94 402.65-14.14L402.65-14.14 402.65 0 394.38 0 394.38-28.2 397.55-28.2 400.9-21.63Q401.58-23.22 402.46-24.55 403.34-25.88 404.48-26.84 405.63-27.81 407.08-28.34 408.54-28.88 410.37-28.88L410.37-28.88Q411.32-28.88 412.49-28.72 413.66-28.56 414.79-28.19 415.91-27.81 416.86-27.2 417.81-26.59 418.35-25.71ZM599.76-25.71L599.76-25.71 595.12-18.02Q594.82-18.99 594.36-20.21 593.9-21.44 593.21-22.5 592.53-23.56 591.58-24.28 590.63-25 589.38-25L589.38-25Q588.23-25 587.39-24.41 586.55-23.83 585.96-22.89 585.38-21.95 585-20.76 584.62-19.58 584.41-18.37 584.2-17.16 584.13-16.05 584.06-14.94 584.06-14.14L584.06-14.14 584.06 0 575.78 0 575.78-28.2 578.96-28.2 582.3-21.63Q582.98-23.22 583.86-24.55 584.74-25.88 585.89-26.84 587.04-27.81 588.49-28.34 589.94-28.88 591.77-28.88L591.77-28.88Q592.73-28.88 593.9-28.72 595.07-28.56 596.19-28.19 597.32-27.81 598.27-27.2 599.22-26.59 599.76-25.71ZM776.72-28.2L782.43-28.2 772.18-3.39Q770.42 0.85 768.26 5.02 766.1 9.18 763.58 13.01L763.58 13.01 760.36 11.06Q760.97 9.96 761.8 8.52 762.63 7.08 763.44 5.54 764.24 4 764.93 2.5 765.61 1 765.98-0.24L765.98-0.24 753.65-28.2 761.9-28.2 770.27-9.13 776.72-28.2ZM1136.4-28.2L1136.4 0 1128.15 0 1128.15-3.37Q1126.69-1.37 1124.62-0.4 1122.56 0.56 1120.09 0.56L1120.09 0.56Q1116.87 0.56 1114.33-0.59 1111.79-1.73 1110.04-3.72 1108.28-5.71 1107.35-8.4 1106.42-11.08 1106.42-14.16L1106.42-14.16Q1106.42-17.24 1107.35-19.92 1108.28-22.61 1110.04-24.6 1111.79-26.59 1114.33-27.73 1116.87-28.88 1120.09-28.88L1120.09-28.88Q1121.73-28.88 1123.21-28.39 1124.68-27.91 1125.92-27.01 1127.15-26.12 1128.09-24.87 1129.03-23.61 1129.57-22.07L1129.57-22.07 1133.23-28.2 1136.4-28.2ZM1128.1-14.16L1128.1-14.16Q1128.1-15.26 1127.99-16.48 1127.88-17.7 1127.61-18.9 1127.35-20.09 1126.87-21.18 1126.39-22.27 1125.65-23.11 1124.9-23.95 1123.85-24.44 1122.8-24.93 1121.41-24.93L1121.41-24.93Q1120.02-24.93 1119-24.43 1117.97-23.93 1117.24-23.08 1116.51-22.24 1116.03-21.14 1115.55-20.04 1115.28-18.85 1115.02-17.65 1114.91-16.44 1114.8-15.23 1114.8-14.16L1114.8-14.16Q1114.8-13.09 1114.91-11.87 1115.02-10.64 1115.28-9.45 1115.55-8.25 1116.03-7.15 1116.51-6.05 1117.24-5.21 1117.97-4.37 1119-3.87 1120.02-3.37 1121.41-3.37L1121.41-3.37Q1122.68-3.37 1123.67-3.89 1124.66-4.42 1125.4-5.3 1126.15-6.18 1126.66-7.3 1127.17-8.42 1127.49-9.62 1127.81-10.82 1127.96-12 1128.1-13.18 1128.1-14.16ZM1327.26-14.06L1327.26-14.06Q1327.26-10.99 1326.33-8.3 1325.4-5.62 1323.64-3.63 1321.88-1.64 1319.35-0.49 1316.81 0.66 1313.58 0.66L1313.58 0.66Q1311.95 0.66 1310.47 0.17 1308.99-0.32 1307.76-1.21 1306.53-2.1 1305.59-3.34 1304.65-4.59 1304.11-6.13L1304.11-6.13 1300.45 0 1297.28 0 1297.28-38.57 1305.53-38.57 1305.53-24.83Q1306.99-26.86 1309.06-27.81 1311.12-28.76 1313.58-28.76L1313.58-28.76Q1316.81-28.76 1319.35-27.61 1321.88-26.46 1323.64-24.49 1325.4-22.51 1326.33-19.82 1327.26-17.14 1327.26-14.06ZM1318.88-14.06L1318.88-14.06Q1318.88-15.14 1318.77-16.35 1318.66-17.55 1318.39-18.75 1318.12-19.95 1317.65-21.04 1317.17-22.14 1316.44-22.99 1315.71-23.83 1314.68-24.33 1313.66-24.83 1312.27-24.83L1312.27-24.83Q1311-24.83 1310.01-24.3 1309.02-23.78 1308.27-22.9 1307.53-22.02 1307.02-20.9 1306.5-19.78 1306.19-18.58 1305.87-17.38 1305.72-16.21 1305.58-15.04 1305.58-14.06L1305.58-14.06Q1305.58-12.96 1305.69-11.74 1305.8-10.52 1306.06-9.31 1306.33-8.11 1306.81-7.02 1307.29-5.93 1308.03-5.09 1308.77-4.25 1309.81-3.76 1310.85-3.27 1312.27-3.27L1312.27-3.27Q1313.63-3.27 1314.67-3.77 1315.71-4.27 1316.44-5.11 1317.17-5.96 1317.65-7.07 1318.12-8.18 1318.39-9.38 1318.66-10.57 1318.77-11.78 1318.88-12.99 1318.88-14.06ZM1516.35-14.16L1516.35-14.16Q1516.35-11.96 1515.77-10.03 1515.18-8.11 1514.14-6.47 1513.1-4.83 1511.64-3.53 1510.17-2.22 1508.43-1.32 1506.68-0.42 1504.69 0.07 1502.7 0.56 1500.6 0.56L1500.6 0.56Q1498.5 0.56 1496.53 0.07 1494.55-0.42 1492.8-1.32 1491.06-2.22 1489.59-3.53 1488.13-4.83 1487.09-6.47 1486.05-8.11 1485.47-10.05 1484.88-11.99 1484.88-14.16L1484.88-14.16Q1484.88-16.33 1485.47-18.27 1486.05-20.21 1487.09-21.85 1488.13-23.49 1489.59-24.79 1491.06-26.1 1492.8-27 1494.55-27.91 1496.53-28.39 1498.5-28.88 1500.6-28.88L1500.6-28.88Q1502.7-28.88 1504.69-28.39 1506.68-27.91 1508.43-27 1510.17-26.1 1511.64-24.79 1513.1-23.49 1514.14-21.85 1515.18-20.21 1515.77-18.27 1516.35-16.33 1516.35-14.16ZM1507.95-14.16L1507.95-14.16Q1507.95-15.33 1507.82-16.64 1507.68-17.94 1507.37-19.2 1507.05-20.46 1506.5-21.62 1505.95-22.78 1505.14-23.65 1504.34-24.51 1503.22-25.04 1502.09-25.56 1500.6-25.56L1500.6-25.56Q1499.19-25.56 1498.09-25.02 1496.99-24.49 1496.17-23.6 1495.35-22.71 1494.81-21.53 1494.26-20.36 1493.91-19.1 1493.57-17.85 1493.43-16.56 1493.28-15.28 1493.28-14.16L1493.28-14.16Q1493.28-13.04 1493.43-11.76 1493.57-10.47 1493.91-9.2 1494.26-7.93 1494.81-6.77 1495.35-5.62 1496.17-4.72 1496.99-3.83 1498.09-3.3 1499.19-2.76 1500.6-2.76L1500.6-2.76Q1502.07-2.76 1503.19-3.28 1504.31-3.81 1505.13-4.69 1505.95-5.57 1506.49-6.71 1507.02-7.86 1507.35-9.13 1507.68-10.4 1507.82-11.69 1507.95-12.99 1507.95-14.16ZM1674.1-12.06L1674.1-12.06Q1674.1-13.99 1674.43-16.06 1674.76-18.14 1675.38-20.21 1676-22.29 1676.88-24.32 1677.76-26.34 1678.86-28.2L1678.86-28.2 1684.89-28.2Q1684.28-26.37 1683.8-24.38 1683.33-22.39 1683-20.4 1682.67-18.41 1682.48-16.5 1682.3-14.6 1682.3-12.96L1682.3-12.96Q1682.3-12.01 1682.39-10.93 1682.47-9.84 1682.69-8.75 1682.91-7.67 1683.31-6.67 1683.72-5.66 1684.35-4.9 1684.99-4.13 1685.9-3.67 1686.82-3.22 1688.06-3.22L1688.06-3.22Q1689.28-3.22 1690.25-3.77 1691.21-4.32 1691.95-5.21 1692.68-6.1 1693.19-7.25 1693.7-8.4 1694.03-9.61 1694.36-10.82 1694.52-11.98 1694.68-13.13 1694.68-14.06L1694.68-14.06 1694.68-28.2 1702.93-28.2 1702.93 0 1699.76 0 1695.97-6.57Q1695.27-4.93 1694.25-3.6 1693.24-2.27 1691.95-1.32 1690.65-0.37 1689.08 0.15 1687.5 0.66 1685.67 0.66L1685.67 0.66Q1682.74 0.66 1680.57-0.29 1678.4-1.25 1676.96-2.93 1675.51-4.61 1674.81-6.95 1674.1-9.28 1674.1-12.06ZM1874.42-24.93L1874.42 0 1866.15 0 1866.15-24.93 1861.02-24.93 1861.02-28.2 1866.15-28.2 1866.15-38.57 1874.42-38.57 1874.42-28.2 1882.97-28.2 1882.97-24.93 1874.42-24.93ZM2237.33-28.2L2237.33 0 2229.08 0 2229.08-3.37Q2227.61-1.37 2225.55-0.4 2223.49 0.56 2221.02 0.56L2221.02 0.56Q2217.8 0.56 2215.26-0.59 2212.72-1.73 2210.96-3.72 2209.21-5.71 2208.28-8.4 2207.35-11.08 2207.35-14.16L2207.35-14.16Q2207.35-17.24 2208.28-19.92 2209.21-22.61 2210.96-24.6 2212.72-26.59 2215.26-27.73 2217.8-28.88 2221.02-28.88L2221.02-28.88Q2222.66-28.88 2224.14-28.39 2225.61-27.91 2226.85-27.01 2228.08-26.12 2229.02-24.87 2229.96-23.61 2230.5-22.07L2230.5-22.07 2234.16-28.2 2237.33-28.2ZM2229.03-14.16L2229.03-14.16Q2229.03-15.26 2228.92-16.48 2228.81-17.7 2228.54-18.9 2228.27-20.09 2227.8-21.18 2227.32-22.27 2226.58-23.11 2225.83-23.95 2224.78-24.44 2223.73-24.93 2222.34-24.93L2222.34-24.93Q2220.95-24.93 2219.92-24.43 2218.9-23.93 2218.17-23.08 2217.43-22.24 2216.96-21.14 2216.48-20.04 2216.21-18.85 2215.94-17.65 2215.84-16.44 2215.73-15.23 2215.73-14.16L2215.73-14.16Q2215.73-13.09 2215.84-11.87 2215.94-10.64 2216.21-9.45 2216.48-8.25 2216.96-7.15 2217.43-6.05 2218.17-5.21 2218.9-4.37 2219.92-3.87 2220.95-3.37 2222.34-3.37L2222.34-3.37Q2223.61-3.37 2224.6-3.89 2225.59-4.42 2226.33-5.3 2227.08-6.18 2227.59-7.3 2228.1-8.42 2228.42-9.62 2228.74-10.82 2228.88-12 2229.03-13.18 2229.03-14.16ZM2424.23-21.22L2424.23-21.22 2420.67-19.8Q2419.81-22.49 2417.81-23.93 2415.81-25.37 2413-25.37L2413-25.37Q2411.49-25.37 2410.3-24.89 2409.12-24.41 2408.23-23.58 2407.34-22.75 2406.71-21.66 2406.09-20.56 2405.7-19.31 2405.31-18.07 2405.14-16.74 2404.97-15.41 2404.97-14.16L2404.97-14.16Q2404.97-12.82 2405.11-11.45 2405.26-10.08 2405.61-8.83 2405.97-7.57 2406.55-6.48 2407.14-5.4 2408.03-4.59 2408.92-3.78 2410.15-3.32 2411.39-2.86 2413-2.86L2413-2.86Q2414.29-2.86 2415.46-3.25 2416.64-3.64 2417.61-4.35 2418.59-5.05 2419.35-6.03 2420.1-7.01 2420.54-8.2L2420.54-8.2 2424.13-6.88Q2423.33-4.96 2422-3.55 2420.67-2.15 2418.98-1.23 2417.3-0.32 2415.37 0.12 2413.44 0.56 2411.46 0.56L2411.46 0.56Q2408.26 0.56 2405.53-0.52 2402.79-1.61 2400.8-3.58 2398.81-5.54 2397.69-8.24 2396.57-10.94 2396.57-14.16L2396.57-14.16Q2396.57-17.41 2397.68-20.12 2398.79-22.83 2400.77-24.78 2402.75-26.73 2405.48-27.81 2408.21-28.88 2411.46-28.88L2411.46-28.88Q2413.51-28.88 2415.46-28.43 2417.42-27.98 2419.09-27.04 2420.76-26.1 2422.09-24.66 2423.42-23.22 2424.23-21.22ZM2591.77-35.01L2591.77-35.01Q2591.77-34.08 2591.41-33.25 2591.06-32.42 2590.45-31.81 2589.84-31.2 2589.01-30.85 2588.18-30.49 2587.25-30.49L2587.25-30.49Q2586.32-30.49 2585.51-30.85 2584.69-31.2 2584.08-31.81 2583.47-32.42 2583.11-33.25 2582.76-34.08 2582.76-35.01L2582.76-35.01Q2582.76-35.94 2583.11-36.76 2583.47-37.57 2584.08-38.18 2584.69-38.79 2585.51-39.15 2586.32-39.5 2587.25-39.5L2587.25-39.5Q2588.18-39.5 2589.01-39.15 2589.84-38.79 2590.45-38.18 2591.06-37.57 2591.41-36.76 2591.77-35.94 2591.77-35.01ZM2591.4-28.17L2591.4 0 2583.12 0 2583.12-28.17 2591.4-28.17ZM2781.13-16.16L2781.13-16.16Q2781.13-13.31 2780.44-10.21 2779.74-7.1 2778.49-4.13 2777.25-1.15 2775.52 1.48 2773.78 4.1 2771.71 6.01L2771.71 6.01 2768.61 4.32Q2769.27 3.1 2769.85 1.59 2770.44 0.07 2770.91-1.62 2771.39-3.32 2771.77-5.13 2772.15-6.93 2772.4-8.7 2772.66-10.47 2772.79-12.15 2772.93-13.82 2772.93-15.26L2772.93-15.26Q2772.93-16.21 2772.85-17.3 2772.78-18.38 2772.55-19.47 2772.32-20.56 2771.93-21.56 2771.54-22.56 2770.89-23.32 2770.24-24.07 2769.33-24.54 2768.41-25 2767.17-25L2767.17-25Q2765.95-25 2764.99-24.45 2764.04-23.9 2763.31-23.01 2762.58-22.12 2762.05-20.97 2761.53-19.82 2761.2-18.62 2760.87-17.41 2760.72-16.24 2760.57-15.06 2760.57-14.14L2760.57-14.14 2760.57 0 2752.3 0 2752.3-28.2 2755.47-28.2 2759.26-21.63Q2759.94-23.27 2760.97-24.61 2761.99-25.95 2763.28-26.9 2764.58-27.86 2766.15-28.37 2767.73-28.88 2769.56-28.88L2769.56-28.88Q2772.49-28.88 2774.66-27.93 2776.83-26.98 2778.27-25.28 2779.72-23.58 2780.42-21.25 2781.13-18.92 2781.13-16.16ZM2968.96-28.2L2968.96-3.39Q2968.96-0.02 2967.96 2.95 2966.95 5.93 2965.05 8.17 2963.15 10.4 2960.38 11.71 2957.6 13.01 2954.06 13.01L2954.06 13.01Q2952.11 13.01 2950.12 12.57 2948.13 12.13 2946.36 11.22 2944.59 10.3 2943.19 8.9 2941.78 7.5 2940.98 5.59L2940.98 5.59 2944.54 4.25Q2945.01 5.44 2945.75 6.45 2946.5 7.45 2947.47 8.17 2948.45 8.89 2949.62 9.29 2950.79 9.69 2952.09 9.69L2952.09 9.69Q2954.53 9.69 2956.18 8.69 2957.82 7.69 2958.82 6.08 2959.83 4.47 2960.27 2.43 2960.7 0.39 2960.7-1.71L2960.7-1.71 2960.7-3.37Q2959.24-1.37 2957.18-0.4 2955.11 0.56 2952.65 0.56L2952.65 0.56Q2949.43 0.56 2946.89-0.59 2944.35-1.73 2942.59-3.72 2940.83-5.71 2939.9-8.4 2938.98-11.08 2938.98-14.16L2938.98-14.16Q2938.98-17.24 2939.9-19.92 2940.83-22.61 2942.59-24.6 2944.35-26.59 2946.89-27.73 2949.43-28.88 2952.65-28.88L2952.65-28.88Q2954.28-28.88 2955.76-28.39 2957.24-27.91 2958.47-27.01 2959.7-26.12 2960.64-24.87 2961.58-23.61 2962.12-22.07L2962.12-22.07 2965.78-28.2 2968.96-28.2ZM2960.66-14.16L2960.66-14.16Q2960.66-15.26 2960.55-16.48 2960.44-17.7 2960.17-18.9 2959.9-20.09 2959.42-21.18 2958.95-22.27 2958.2-23.11 2957.46-23.95 2956.41-24.44 2955.36-24.93 2953.97-24.93L2953.97-24.93Q2952.57-24.93 2951.55-24.43 2950.52-23.93 2949.79-23.08 2949.06-22.24 2948.58-21.14 2948.11-20.04 2947.84-18.85 2947.57-17.65 2947.46-16.44 2947.35-15.23 2947.35-14.16L2947.35-14.16Q2947.35-13.09 2947.46-11.87 2947.57-10.64 2947.84-9.45 2948.11-8.25 2948.58-7.15 2949.06-6.05 2949.79-5.21 2950.52-4.37 2951.55-3.87 2952.57-3.37 2953.97-3.37L2953.97-3.37Q2955.24-3.37 2956.22-3.89 2957.21-4.42 2957.96-5.3 2958.7-6.18 2959.22-7.3 2959.73-8.42 2960.05-9.62 2960.36-10.82 2960.51-12 2960.66-13.18 2960.66-14.16ZM3308.6-24.93L3308.6 0 3300.32 0 3300.32-24.93 3295.19-24.93 3295.19-28.2 3300.32-28.2 3300.32-38.57 3308.6-38.57 3308.6-28.2 3317.14-28.2 3317.14-24.93 3308.6-24.93ZM3503.8-16.16L3503.8-16.16Q3503.8-13.31 3503.1-10.21 3502.4-7.1 3501.16-4.13 3499.91-1.15 3498.18 1.48 3496.45 4.1 3494.37 6.01L3494.37 6.01 3491.27 4.32Q3491.93 3.1 3492.52 1.59 3493.1 0.07 3493.58-1.62 3494.06-3.32 3494.43-5.13 3494.81-6.93 3495.07-8.7 3495.32-10.47 3495.46-12.15 3495.59-13.82 3495.59-15.26L3495.59-15.26Q3495.59-16.21 3495.52-17.3 3495.45-18.38 3495.21-19.47 3494.98-20.56 3494.59-21.56 3494.2-22.56 3493.55-23.32 3492.91-24.07 3491.99-24.54 3491.08-25 3489.83-25L3489.83-25Q3488.61-25 3487.66-24.45 3486.71-23.9 3485.97-23.01 3485.24-22.12 3484.72-20.97 3484.19-19.82 3483.86-18.62 3483.53-17.41 3483.39-16.24 3483.24-15.06 3483.24-14.14L3483.24-14.14 3483.24 0 3474.96 0 3474.96-38.57 3483.22-38.57 3483.22-24.05Q3484.8-26.37 3487.11-27.62 3489.42-28.88 3492.22-28.88L3492.22-28.88Q3495.15-28.88 3497.33-27.93 3499.5-26.98 3500.94-25.28 3502.38-23.58 3503.09-21.25 3503.8-18.92 3503.8-16.16ZM3691.62-28.2L3691.62 0 3683.37 0 3683.37-3.37Q3681.91-1.37 3679.84-0.4 3677.78 0.56 3675.31 0.56L3675.31 0.56Q3672.09 0.56 3669.55-0.59 3667.01-1.73 3665.25-3.72 3663.5-5.71 3662.57-8.4 3661.64-11.08 3661.64-14.16L3661.64-14.16Q3661.64-17.24 3662.57-19.92 3663.5-22.61 3665.25-24.6 3667.01-26.59 3669.55-27.73 3672.09-28.88 3675.31-28.88L3675.31-28.88Q3676.95-28.88 3678.43-28.39 3679.9-27.91 3681.14-27.01 3682.37-26.12 3683.31-24.87 3684.25-23.61 3684.79-22.07L3684.79-22.07 3688.45-28.2 3691.62-28.2ZM3683.32-14.16L3683.32-14.16Q3683.32-15.26 3683.21-16.48 3683.1-17.7 3682.83-18.9 3682.56-20.09 3682.09-21.18 3681.61-22.27 3680.87-23.11 3680.12-23.95 3679.07-24.44 3678.02-24.93 3676.63-24.93L3676.63-24.93Q3675.24-24.93 3674.21-24.43 3673.19-23.93 3672.46-23.08 3671.72-22.24 3671.25-21.14 3670.77-20.04 3670.5-18.85 3670.24-17.65 3670.13-16.44 3670.02-15.23 3670.02-14.16L3670.02-14.16Q3670.02-13.09 3670.13-11.87 3670.24-10.64 3670.5-9.45 3670.77-8.25 3671.25-7.15 3671.72-6.05 3672.46-5.21 3673.19-4.37 3674.21-3.87 3675.24-3.37 3676.63-3.37L3676.63-3.37Q3677.9-3.37 3678.89-3.89 3679.88-4.42 3680.62-5.3 3681.37-6.18 3681.88-7.3 3682.39-8.42 3682.71-9.62 3683.03-10.82 3683.17-12 3683.32-13.18 3683.32-14.16ZM3863.11-24.93L3863.11 0 3854.84 0 3854.84-24.93 3849.71-24.93 3849.71-28.2 3854.84-28.2 3854.84-38.57 3863.11-38.57 3863.11-28.2 3871.66-28.2 3871.66-24.93 3863.11-24.93ZM4231.64-16.82L4231.64-16.82 4231.64-16.36Q4231.59-14.31 4231.21-12.11 4230.83-9.91 4230.15-7.71 4229.46-5.52 4228.51-3.37 4227.56-1.22 4226.38 0.74 4225.19 2.71 4223.82 4.43 4222.46 6.15 4220.94 7.47L4220.94 7.47 4217.31 5.37Q4218.16 3.93 4218.86 2.23 4219.55 0.54 4220.11-1.32 4220.68-3.17 4221.08-5.13 4221.48-7.08 4221.75-9.01 4222.02-10.94 4222.15-12.81 4222.29-14.67 4222.29-16.36L4222.29-16.36Q4222.29-17.68 4222.27-19.35 4222.26-21.02 4222.08-22.75 4221.9-24.49 4221.48-26.14 4221.07-27.78 4220.25-29.08 4219.43-30.37 4218.15-31.15 4216.87-31.93 4214.96-31.93L4214.96-31.93Q4213.28-31.93 4212.07-31.36 4210.86-30.79 4210.02-29.82 4209.18-28.86 4208.68-27.59 4208.18-26.32 4207.89-24.91 4207.61-23.51 4207.53-22.08 4207.44-20.65 4207.44-19.38L4207.44-19.38 4207.44-12.57 4217.97-12.57 4217.97-8.54 4207.44-8.54 4207.44 0 4197.75 0 4197.75-17.87Q4197.75-21.7 4198.97-25 4200.19-28.3 4202.43-30.73 4204.66-33.15 4207.8-34.53 4210.93-35.91 4214.79-35.91L4214.79-35.91Q4217.4-35.91 4219.69-35.17 4221.97-34.42 4223.85-33.12 4225.73-31.81 4227.21-30.02 4228.68-28.22 4229.67-26.1 4230.66-23.97 4231.17-21.61 4231.69-19.24 4231.64-16.82ZM4410.41-19.85L4410.41-15.36 4403.84-15.36 4403.84-7.84 4396.59-7.84 4396.59-15.36 4390.02-15.36 4390.02-19.85 4396.59-19.85 4396.59-27 4403.84-27 4403.84-19.85 4410.41-19.85ZM4766.45-28.2L4766.45 0 4758.2 0 4758.2-3.37Q4756.74-1.37 4754.67-0.4 4752.61 0.56 4750.14 0.56L4750.14 0.56Q4746.92 0.56 4744.38-0.59 4741.84-1.73 4740.09-3.72 4738.33-5.71 4737.4-8.4 4736.47-11.08 4736.47-14.16L4736.47-14.16Q4736.47-17.24 4737.4-19.92 4738.33-22.61 4740.09-24.6 4741.84-26.59 4744.38-27.73 4746.92-28.88 4750.14-28.88L4750.14-28.88Q4751.78-28.88 4753.26-28.39 4754.73-27.91 4755.97-27.01 4757.2-26.12 4758.14-24.87 4759.08-23.61 4759.62-22.07L4759.62-22.07 4763.28-28.2 4766.45-28.2ZM4758.15-14.16L4758.15-14.16Q4758.15-15.26 4758.04-16.48 4757.93-17.7 4757.66-18.9 4757.39-20.09 4756.92-21.18 4756.44-22.27 4755.7-23.11 4754.95-23.95 4753.9-24.44 4752.85-24.93 4751.46-24.93L4751.46-24.93Q4750.07-24.93 4749.05-24.43 4748.02-23.93 4747.29-23.08 4746.55-22.24 4746.08-21.14 4745.6-20.04 4745.33-18.85 4745.07-17.65 4744.96-16.44 4744.85-15.23 4744.85-14.16L4744.85-14.16Q4744.85-13.09 4744.96-11.87 4745.07-10.64 4745.33-9.45 4745.6-8.25 4746.08-7.15 4746.55-6.05 4747.29-5.21 4748.02-4.37 4749.05-3.87 4750.07-3.37 4751.46-3.37L4751.46-3.37Q4752.73-3.37 4753.72-3.89 4754.71-4.42 4755.45-5.3 4756.2-6.18 4756.71-7.3 4757.22-8.42 4757.54-9.62 4757.86-10.82 4758.01-12 4758.15-13.18 4758.15-14.16ZM4951.59-9.01L4951.59-9.01Q4951.59-7.15 4951.06-5.71 4950.52-4.27 4949.59-3.21 4948.66-2.15 4947.39-1.43 4946.12-0.71 4944.67-0.27 4943.22 0.17 4941.63 0.37 4940.04 0.56 4938.48 0.56L4938.48 0.56Q4936.38 0.56 4934.77 0.29 4933.16 0.02 4931.7-0.57 4930.23-1.17 4928.78-2.12 4927.33-3.08 4925.54-4.44L4925.54-4.44 4930.35-8.37Q4931.01-7.13 4932.1-6.12 4933.18-5.1 4934.36-4.37 4935.53-3.64 4936.63-3.25 4937.73-2.86 4938.41-2.86L4938.41-2.86Q4938.97-2.86 4939.68-2.89 4940.39-2.93 4941.12-3.04 4941.85-3.15 4942.56-3.37 4943.27-3.59 4943.82-3.97 4944.37-4.35 4944.7-4.92 4945.03-5.49 4945.03-6.3L4945.03-6.3Q4945.03-7.13 4944.6-7.75 4944.17-8.37 4943.49-8.84 4942.8-9.3 4941.92-9.62 4941.05-9.94 4940.15-10.18 4939.26-10.42 4938.43-10.61 4937.6-10.79 4936.99-10.96L4936.99-10.96Q4935.87-11.28 4934.62-11.61 4933.38-11.94 4932.16-12.37 4930.94-12.79 4929.83-13.38 4928.72-13.96 4927.87-14.78 4927.03-15.6 4926.53-16.71 4926.03-17.82 4926.03-19.31L4926.03-19.31Q4926.03-22.05 4927.12-23.89 4928.2-25.73 4929.99-26.84 4931.77-27.95 4934.04-28.42 4936.31-28.88 4938.65-28.88L4938.65-28.88Q4940.26-28.88 4942.05-28.55 4943.83-28.22 4945.51-27.58 4947.2-26.93 4948.66-26 4950.13-25.07 4951.1-23.88L4951.1-23.88 4946.29-19.92Q4945.76-21.39 4944.89-22.44 4944.02-23.49 4943.01-24.16 4942-24.83 4940.94-25.15 4939.87-25.46 4938.97-25.46L4938.97-25.46Q4938.09-25.46 4936.99-25.39 4935.89-25.32 4934.93-24.98 4933.97-24.63 4933.29-23.94 4932.62-23.24 4932.62-22.02L4932.62-22.02Q4932.62-21.14 4933.03-20.52 4933.43-19.9 4934.09-19.45 4934.75-18.99 4935.59-18.69 4936.43-18.38 4937.31-18.15 4938.19-17.92 4939.02-17.75 4939.85-17.58 4940.51-17.38L4940.51-17.38Q4941.63-17.07 4942.89-16.74 4944.15-16.41 4945.37-15.98 4946.59-15.55 4947.72-14.98 4948.86-14.4 4949.71-13.57 4950.57-12.74 4951.08-11.63 4951.59-10.52 4951.59-9.01ZM5296.53-17.14L5291.87 0 5284.45 0 5276.73-28.2 5284.98-28.2 5289.82-8.42 5293.85-28.2 5301.27-28.2 5306.2-7.89 5310.96-28.2 5316.67-28.2 5308.13 0 5300.71 0 5296.53-17.14ZM5481.23-13.38L5481.23-13.38Q5482.75-13.04 5484.26-12.84 5485.77-12.65 5487.31-12.65L5487.31-12.65Q5488.92-12.65 5490.3-12.95 5491.68-13.26 5492.69-13.98 5493.71-14.7 5494.29-15.89 5494.88-17.09 5494.88-18.87L5494.88-18.87Q5494.88-20.31 5494.49-21.51 5494.1-22.71 5493.33-23.56 5492.56-24.41 5491.44-24.89 5490.31-25.37 5488.82-25.37L5488.82-25.37Q5487.43-25.37 5486.32-24.85 5485.21-24.34 5484.37-23.47 5483.53-22.61 5482.93-21.46 5482.33-20.31 5481.94-19.07 5481.55-17.82 5481.38-16.55 5481.21-15.28 5481.21-14.16L5481.21-14.16Q5481.21-13.96 5481.21-13.77 5481.21-13.57 5481.23-13.38ZM5501.57-18.95L5501.57-18.95Q5501.57-17.21 5501.01-15.86 5500.45-14.5 5499.48-13.48 5498.52-12.45 5497.25-11.74 5495.98-11.04 5494.54-10.58 5493.1-10.13 5491.57-9.94 5490.05-9.74 5488.6-9.74L5488.6-9.74Q5486.77-9.74 5484.99-10 5483.21-10.25 5481.48-10.82L5481.48-10.82Q5481.74-9.2 5482.33-7.75 5482.92-6.3 5483.89-5.21 5484.87-4.13 5486.3-3.49 5487.73-2.86 5489.68-2.86L5489.68-2.86Q5490.97-2.86 5492.14-3.25 5493.32-3.64 5494.29-4.35 5495.27-5.05 5496.01-6.03 5496.76-7.01 5497.22-8.2L5497.22-8.2 5500.79-6.88Q5499.98-4.96 5498.58-3.55 5497.17-2.15 5495.4-1.23 5493.63-0.32 5491.64 0.12 5489.65 0.56 5487.7 0.56L5487.7 0.56Q5484.48 0.56 5481.74-0.52 5479.01-1.61 5477.03-3.56 5475.06-5.52 5473.93-8.23 5472.81-10.94 5472.81-14.16L5472.81-14.16Q5472.81-17.38 5473.93-20.09 5475.06-22.8 5477.03-24.76 5479.01-26.71 5481.74-27.8 5484.48-28.88 5487.7-28.88L5487.7-28.88Q5489.26-28.88 5490.9-28.66 5492.54-28.44 5494.07-27.97 5495.61-27.49 5496.98-26.73 5498.35-25.98 5499.36-24.87 5500.37-23.75 5500.97-22.29 5501.57-20.83 5501.57-18.95ZM5846.46-17.14L5841.8 0 5834.37 0 5826.66-28.2 5834.91-28.2 5839.74-8.42 5843.77-28.2 5851.19-28.2 5856.13-7.89 5860.89-28.2 5866.6-28.2 5858.06 0 5850.63 0 5846.46-17.14ZM6054.16-14.16L6054.16-14.16Q6054.16-11.96 6053.57-10.03 6052.99-8.11 6051.95-6.47 6050.91-4.83 6049.45-3.53 6047.98-2.22 6046.23-1.32 6044.49-0.42 6042.5 0.07 6040.51 0.56 6038.41 0.56L6038.41 0.56Q6036.31 0.56 6034.33 0.07 6032.36-0.42 6030.61-1.32 6028.86-2.22 6027.4-3.53 6025.93-4.83 6024.9-6.47 6023.86-8.11 6023.27-10.05 6022.69-11.99 6022.69-14.16L6022.69-14.16Q6022.69-16.33 6023.27-18.27 6023.86-20.21 6024.9-21.85 6025.93-23.49 6027.4-24.79 6028.86-26.1 6030.61-27 6032.36-27.91 6034.33-28.39 6036.31-28.88 6038.41-28.88L6038.41-28.88Q6040.51-28.88 6042.5-28.39 6044.49-27.91 6046.23-27 6047.98-26.1 6049.45-24.79 6050.91-23.49 6051.95-21.85 6052.99-20.21 6053.57-18.27 6054.16-16.33 6054.16-14.16ZM6045.76-14.16L6045.76-14.16Q6045.76-15.33 6045.62-16.64 6045.49-17.94 6045.17-19.2 6044.86-20.46 6044.31-21.62 6043.76-22.78 6042.95-23.65 6042.15-24.51 6041.02-25.04 6039.9-25.56 6038.41-25.56L6038.41-25.56Q6036.99-25.56 6035.9-25.02 6034.8-24.49 6033.98-23.6 6033.16-22.71 6032.61-21.53 6032.06-20.36 6031.72-19.1 6031.38-17.85 6031.23-16.56 6031.09-15.28 6031.09-14.16L6031.09-14.16Q6031.09-13.04 6031.23-11.76 6031.38-10.47 6031.72-9.2 6032.06-7.93 6032.61-6.77 6033.16-5.62 6033.98-4.72 6034.8-3.83 6035.9-3.3 6036.99-2.76 6038.41-2.76L6038.41-2.76Q6039.88-2.76 6041-3.28 6042.12-3.81 6042.94-4.69 6043.76-5.57 6044.29-6.71 6044.83-7.86 6045.16-9.13 6045.49-10.4 6045.62-11.69 6045.76-12.99 6045.76-14.16ZM6237.32-25.71L6237.32-25.71 6232.68-18.02Q6232.39-18.99 6231.92-20.21 6231.46-21.44 6230.78-22.5 6230.09-23.56 6229.14-24.28 6228.19-25 6226.94-25L6226.94-25Q6225.8-25 6224.95-24.41 6224.11-23.83 6223.53-22.89 6222.94-21.95 6222.56-20.76 6222.18-19.58 6221.98-18.37 6221.77-17.16 6221.69-16.05 6221.62-14.94 6221.62-14.14L6221.62-14.14 6221.62 0 6213.35 0 6213.35-28.2 6216.52-28.2 6219.86-21.63Q6220.55-23.22 6221.43-24.55 6222.31-25.88 6223.45-26.84 6224.6-27.81 6226.05-28.34 6227.51-28.88 6229.34-28.88L6229.34-28.88Q6230.29-28.88 6231.46-28.72 6232.63-28.56 6233.76-28.19 6234.88-27.81 6235.83-27.2 6236.78-26.59 6237.32-25.71ZM6418.72-25.71L6418.72-25.71 6414.09-18.02Q6413.79-18.99 6413.33-20.21 6412.87-21.44 6412.18-22.5 6411.5-23.56 6410.55-24.28 6409.59-25 6408.35-25L6408.35-25Q6407.2-25 6406.36-24.41 6405.52-23.83 6404.93-22.89 6404.34-21.95 6403.97-20.76 6403.59-19.58 6403.38-18.37 6403.17-17.16 6403.1-16.05 6403.03-14.94 6403.03-14.14L6403.03-14.14 6403.03 0 6394.75 0 6394.75-28.2 6397.92-28.2 6401.27-21.63Q6401.95-23.22 6402.83-24.55 6403.71-25.88 6404.86-26.84 6406.01-27.81 6407.46-28.34 6408.91-28.88 6410.74-28.88L6410.74-28.88Q6411.69-28.88 6412.87-28.72 6414.04-28.56 6415.16-28.19 6416.28-27.81 6417.24-27.2 6418.19-26.59 6418.72-25.71ZM6595.69-28.2L6601.4-28.2 6591.15-3.39Q6589.39 0.85 6587.23 5.02 6585.07 9.18 6582.55 13.01L6582.55 13.01 6579.33 11.06Q6579.94 9.96 6580.77 8.52 6581.6 7.08 6582.41 5.54 6583.21 4 6583.89 2.5 6584.58 1 6584.94-0.24L6584.94-0.24 6572.61-28.2 6580.87-28.2 6589.24-9.13 6595.69-28.2ZM6955.37-28.2L6955.37 0 6947.12 0 6947.12-3.37Q6945.65-1.37 6943.59-0.4 6941.53 0.56 6939.06 0.56L6939.06 0.56Q6935.84 0.56 6933.3-0.59 6930.76-1.73 6929-3.72 6927.25-5.71 6926.32-8.4 6925.39-11.08 6925.39-14.16L6925.39-14.16Q6925.39-17.24 6926.32-19.92 6927.25-22.61 6929-24.6 6930.76-26.59 6933.3-27.73 6935.84-28.88 6939.06-28.88L6939.06-28.88Q6940.7-28.88 6942.18-28.39 6943.65-27.91 6944.89-27.01 6946.12-26.12 6947.06-24.87 6948-23.61 6948.54-22.07L6948.54-22.07 6952.2-28.2 6955.37-28.2ZM6947.07-14.16L6947.07-14.16Q6947.07-15.26 6946.96-16.48 6946.85-17.7 6946.58-18.9 6946.31-20.09 6945.84-21.18 6945.36-22.27 6944.62-23.11 6943.87-23.95 6942.82-24.44 6941.77-24.93 6940.38-24.93L6940.38-24.93Q6938.99-24.93 6937.96-24.43 6936.94-23.93 6936.21-23.08 6935.47-22.24 6935-21.14 6934.52-20.04 6934.25-18.85 6933.98-17.65 6933.87-16.44 6933.76-15.23 6933.76-14.16L6933.76-14.16Q6933.76-13.09 6933.87-11.87 6933.98-10.64 6934.25-9.45 6934.52-8.25 6935-7.15 6935.47-6.05 6936.21-5.21 6936.94-4.37 6937.96-3.87 6938.99-3.37 6940.38-3.37L6940.38-3.37Q6941.65-3.37 6942.64-3.89 6943.63-4.42 6944.37-5.3 6945.12-6.18 6945.63-7.3 6946.14-8.42 6946.46-9.62 6946.78-10.82 6946.92-12 6947.07-13.18 6947.07-14.16ZM7146.22-14.06L7146.22-14.06Q7146.22-10.99 7145.3-8.3 7144.37-5.62 7142.61-3.63 7140.85-1.64 7138.31-0.49 7135.77 0.66 7132.55 0.66L7132.55 0.66Q7130.92 0.66 7129.44 0.17 7127.96-0.32 7126.73-1.21 7125.5-2.1 7124.56-3.34 7123.62-4.59 7123.08-6.13L7123.08-6.13 7119.42 0 7116.24 0 7116.24-38.57 7124.5-38.57 7124.5-24.83Q7125.96-26.86 7128.02-27.81 7130.09-28.76 7132.55-28.76L7132.55-28.76Q7135.77-28.76 7138.31-27.61 7140.85-26.46 7142.61-24.49 7144.37-22.51 7145.3-19.82 7146.22-17.14 7146.22-14.06ZM7137.85-14.06L7137.85-14.06Q7137.85-15.14 7137.74-16.35 7137.63-17.55 7137.36-18.75 7137.09-19.95 7136.62-21.04 7136.14-22.14 7135.41-22.99 7134.68-23.83 7133.65-24.33 7132.63-24.83 7131.23-24.83L7131.23-24.83Q7129.96-24.83 7128.98-24.3 7127.99-23.78 7127.24-22.9 7126.5-22.02 7125.98-20.9 7125.47-19.78 7125.15-18.58 7124.84-17.38 7124.69-16.21 7124.54-15.04 7124.54-14.06L7124.54-14.06Q7124.54-12.96 7124.65-11.74 7124.76-10.52 7125.03-9.31 7125.3-8.11 7125.78-7.02 7126.25-5.93 7127-5.09 7127.74-4.25 7128.78-3.76 7129.82-3.27 7131.23-3.27L7131.23-3.27Q7132.6-3.27 7133.64-3.77 7134.68-4.27 7135.41-5.11 7136.14-5.96 7136.62-7.07 7137.09-8.18 7137.36-9.38 7137.63-10.57 7137.74-11.78 7137.85-12.99 7137.85-14.06ZM7335.32-14.16L7335.32-14.16Q7335.32-11.96 7334.73-10.03 7334.15-8.11 7333.11-6.47 7332.07-4.83 7330.61-3.53 7329.14-2.22 7327.4-1.32 7325.65-0.42 7323.66 0.07 7321.67 0.56 7319.57 0.56L7319.57 0.56Q7317.47 0.56 7315.5 0.07 7313.52-0.42 7311.77-1.32 7310.03-2.22 7308.56-3.53 7307.1-4.83 7306.06-6.47 7305.02-8.11 7304.44-10.05 7303.85-11.99 7303.85-14.16L7303.85-14.16Q7303.85-16.33 7304.44-18.27 7305.02-20.21 7306.06-21.85 7307.1-23.49 7308.56-24.79 7310.03-26.1 7311.77-27 7313.52-27.91 7315.5-28.39 7317.47-28.88 7319.57-28.88L7319.57-28.88Q7321.67-28.88 7323.66-28.39 7325.65-27.91 7327.4-27 7329.14-26.1 7330.61-24.79 7332.07-23.49 7333.11-21.85 7334.15-20.21 7334.73-18.27 7335.32-16.33 7335.32-14.16ZM7326.92-14.16L7326.92-14.16Q7326.92-15.33 7326.79-16.64 7326.65-17.94 7326.33-19.2 7326.02-20.46 7325.47-21.62 7324.92-22.78 7324.11-23.65 7323.31-24.51 7322.18-25.04 7321.06-25.56 7319.57-25.56L7319.57-25.56Q7318.16-25.56 7317.06-25.02 7315.96-24.49 7315.14-23.6 7314.32-22.71 7313.77-21.53 7313.22-20.36 7312.88-19.1 7312.54-17.85 7312.39-16.56 7312.25-15.28 7312.25-14.16L7312.25-14.16Q7312.25-13.04 7312.39-11.76 7312.54-10.47 7312.88-9.2 7313.22-7.93 7313.77-6.77 7314.32-5.62 7315.14-4.72 7315.96-3.83 7317.06-3.3 7318.16-2.76 7319.57-2.76L7319.57-2.76Q7321.04-2.76 7322.16-3.28 7323.28-3.81 7324.1-4.69 7324.92-5.57 7325.46-6.71 7325.99-7.86 7326.32-9.13 7326.65-10.4 7326.79-11.69 7326.92-12.99 7326.92-14.16ZM7493.07-12.06L7493.07-12.06Q7493.07-13.99 7493.4-16.06 7493.73-18.14 7494.35-20.21 7494.97-22.29 7495.85-24.32 7496.73-26.34 7497.83-28.2L7497.83-28.2 7503.86-28.2Q7503.25-26.37 7502.77-24.38 7502.3-22.39 7501.97-20.4 7501.64-18.41 7501.45-16.5 7501.27-14.6 7501.27-12.96L7501.27-12.96Q7501.27-12.01 7501.36-10.93 7501.44-9.84 7501.66-8.75 7501.88-7.67 7502.28-6.67 7502.69-5.66 7503.32-4.9 7503.96-4.13 7504.87-3.67 7505.79-3.22 7507.03-3.22L7507.03-3.22Q7508.25-3.22 7509.22-3.77 7510.18-4.32 7510.91-5.21 7511.65-6.1 7512.16-7.25 7512.67-8.4 7513-9.61 7513.33-10.82 7513.49-11.98 7513.65-13.13 7513.65-14.06L7513.65-14.06 7513.65-28.2 7521.9-28.2 7521.9 0 7518.73 0 7514.94-6.57Q7514.23-4.93 7513.22-3.6 7512.21-2.27 7510.91-1.32 7509.62-0.37 7508.04 0.15 7506.47 0.66 7504.64 0.66L7504.64 0.66Q7501.71 0.66 7499.54-0.29 7497.36-1.25 7495.92-2.93 7494.48-4.61 7493.77-6.95 7493.07-9.28 7493.07-12.06ZM7693.39-24.93L7693.39 0 7685.12 0 7685.12-24.93 7679.99-24.93 7679.99-28.2 7685.12-28.2 7685.12-38.57 7693.39-38.57 7693.39-28.2 7701.94-28.2 7701.94-24.93 7693.39-24.93ZM8071.53-16.46L8071.53-16.46Q8071.53-13.55 8070.85-10.4 8070.17-7.25 8068.93-4.26 8067.7-1.27 8065.97 1.39 8064.23 4.05 8062.11 6.01L8062.11 6.01 8059.01 4.32Q8059.72 3.05 8060.3 1.46 8060.89-0.12 8061.38-1.88 8061.87-3.64 8062.23-5.49 8062.6-7.35 8062.86-9.19 8063.11-11.04 8063.23-12.77 8063.36-14.5 8063.36-16.02L8063.36-16.02Q8063.36-16.87 8063.31-17.87 8063.26-18.87 8063.1-19.87 8062.94-20.87 8062.62-21.79 8062.31-22.71 8061.76-23.43 8061.21-24.15 8060.39-24.57 8059.57-25 8058.42-25L8058.42-25Q8057.3-25 8056.51-24.4 8055.71-23.8 8055.15-22.85 8054.59-21.9 8054.26-20.7 8053.93-19.51 8053.76-18.3 8053.59-17.09 8053.53-15.99 8053.47-14.89 8053.47-14.14L8053.47-14.14 8053.47 0 8045.24 0 8045.24-13.13Q8045.24-13.99 8045.26-15.2 8045.29-16.41 8045.2-17.72 8045.12-19.04 8044.89-20.35 8044.65-21.66 8044.15-22.68 8043.65-23.71 8042.8-24.35 8041.94-25 8040.65-25L8040.65-25Q8039.55-25 8038.81-24.39 8038.06-23.78 8037.56-22.81 8037.06-21.85 8036.78-20.64 8036.5-19.43 8036.37-18.23 8036.23-17.02 8036.21-15.93 8036.18-14.84 8036.18-14.14L8036.18-14.14 8036.18 0 8027.91 0 8027.91-28.2 8031.08-28.2 8034.11-21.63Q8035.13-25.05 8037.34-26.97 8039.55-28.88 8043.21-28.88L8043.21-28.88Q8046.51-28.88 8048.68-27.51 8050.86-26.15 8052.1-23.07L8052.1-23.07Q8052.81-24.41 8053.68-25.49 8054.54-26.56 8055.6-27.32 8056.67-28.08 8057.96-28.48 8059.25-28.88 8060.82-28.88L8060.82-28.88Q8063.7-28.88 8065.74-27.94 8067.77-27 8069.07-25.34 8070.36-23.68 8070.95-21.4 8071.53-19.12 8071.53-16.46ZM8260.8-14.16L8260.8-14.16Q8260.8-11.96 8260.21-10.03 8259.63-8.11 8258.59-6.47 8257.55-4.83 8256.09-3.53 8254.62-2.22 8252.88-1.32 8251.13-0.42 8249.14 0.07 8247.15 0.56 8245.05 0.56L8245.05 0.56Q8242.95 0.56 8240.98 0.07 8239-0.42 8237.25-1.32 8235.51-2.22 8234.04-3.53 8232.58-4.83 8231.54-6.47 8230.5-8.11 8229.92-10.05 8229.33-11.99 8229.33-14.16L8229.33-14.16Q8229.33-16.33 8229.92-18.27 8230.5-20.21 8231.54-21.85 8232.58-23.49 8234.04-24.79 8235.51-26.1 8237.25-27 8239-27.91 8240.98-28.39 8242.95-28.88 8245.05-28.88L8245.05-28.88Q8247.15-28.88 8249.14-28.39 8251.13-27.91 8252.88-27 8254.62-26.1 8256.09-24.79 8257.55-23.49 8258.59-21.85 8259.63-20.21 8260.21-18.27 8260.8-16.33 8260.8-14.16ZM8252.4-14.16L8252.4-14.16Q8252.4-15.33 8252.27-16.64 8252.13-17.94 8251.82-19.2 8251.5-20.46 8250.95-21.62 8250.4-22.78 8249.59-23.65 8248.79-24.51 8247.67-25.04 8246.54-25.56 8245.05-25.56L8245.05-25.56Q8243.64-25.56 8242.54-25.02 8241.44-24.49 8240.62-23.6 8239.8-22.71 8239.26-21.53 8238.71-20.36 8238.36-19.1 8238.02-17.85 8237.88-16.56 8237.73-15.28 8237.73-14.16L8237.73-14.16Q8237.73-13.04 8237.88-11.76 8238.02-10.47 8238.36-9.2 8238.71-7.93 8239.26-6.77 8239.8-5.62 8240.62-4.72 8241.44-3.83 8242.54-3.3 8243.64-2.76 8245.05-2.76L8245.05-2.76Q8246.52-2.76 8247.64-3.28 8248.76-3.81 8249.58-4.69 8250.4-5.57 8250.94-6.71 8251.47-7.86 8251.8-9.13 8252.13-10.4 8252.27-11.69 8252.4-12.99 8252.4-14.16ZM8448.82-16.16L8448.82-16.16Q8448.82-13.31 8448.13-10.21 8447.43-7.1 8446.18-4.13 8444.94-1.15 8443.21 1.48 8441.47 4.1 8439.4 6.01L8439.4 6.01 8436.3 4.32Q8436.96 3.1 8437.54 1.59 8438.13 0.07 8438.6-1.62 8439.08-3.32 8439.46-5.13 8439.84-6.93 8440.09-8.7 8440.35-10.47 8440.48-12.15 8440.62-13.82 8440.62-15.26L8440.62-15.26Q8440.62-16.21 8440.55-17.3 8440.47-18.38 8440.24-19.47 8440.01-20.56 8439.62-21.56 8439.23-22.56 8438.58-23.32 8437.93-24.07 8437.02-24.54 8436.1-25 8434.86-25L8434.86-25Q8433.64-25 8432.68-24.45 8431.73-23.9 8431-23.01 8430.27-22.12 8429.74-20.97 8429.22-19.82 8428.89-18.62 8428.56-17.41 8428.41-16.24 8428.26-15.06 8428.26-14.14L8428.26-14.14 8428.26 0 8419.99 0 8419.99-28.2 8423.16-28.2 8426.95-21.63Q8427.63-23.27 8428.66-24.61 8429.68-25.95 8430.97-26.9 8432.27-27.86 8433.84-28.37 8435.42-28.88 8437.25-28.88L8437.25-28.88Q8440.18-28.88 8442.35-27.93 8444.52-26.98 8445.97-25.28 8447.41-23.58 8448.11-21.25 8448.82-18.92 8448.82-16.16ZM8615.04-13.38L8615.04-13.38Q8616.55-13.04 8618.07-12.84 8619.58-12.65 8621.12-12.65L8621.12-12.65Q8622.73-12.65 8624.11-12.95 8625.49-13.26 8626.5-13.98 8627.52-14.7 8628.1-15.89 8628.69-17.09 8628.69-18.87L8628.69-18.87Q8628.69-20.31 8628.3-21.51 8627.91-22.71 8627.14-23.56 8626.37-24.41 8625.25-24.89 8624.12-25.37 8622.63-25.37L8622.63-25.37Q8621.24-25.37 8620.13-24.85 8619.02-24.34 8618.18-23.47 8617.34-22.61 8616.74-21.46 8616.14-20.31 8615.75-19.07 8615.36-17.82 8615.19-16.55 8615.02-15.28 8615.02-14.16L8615.02-14.16Q8615.02-13.96 8615.02-13.77 8615.02-13.57 8615.04-13.38ZM8635.38-18.95L8635.38-18.95Q8635.38-17.21 8634.82-15.86 8634.25-14.5 8633.29-13.48 8632.33-12.45 8631.06-11.74 8629.79-11.04 8628.35-10.58 8626.91-10.13 8625.38-9.94 8623.85-9.74 8622.41-9.74L8622.41-9.74Q8620.58-9.74 8618.8-10 8617.02-10.25 8615.28-10.82L8615.28-10.82Q8615.55-9.2 8616.14-7.75 8616.73-6.3 8617.7-5.21 8618.68-4.13 8620.11-3.49 8621.53-2.86 8623.49-2.86L8623.49-2.86Q8624.78-2.86 8625.95-3.25 8627.13-3.64 8628.1-4.35 8629.08-5.05 8629.82-6.03 8630.57-7.01 8631.03-8.2L8631.03-8.2 8634.6-6.88Q8633.79-4.96 8632.39-3.55 8630.98-2.15 8629.21-1.23 8627.44-0.32 8625.45 0.12 8623.46 0.56 8621.51 0.56L8621.51 0.56Q8618.29 0.56 8615.55-0.52 8612.82-1.61 8610.84-3.56 8608.86-5.52 8607.74-8.23 8606.62-10.94 8606.62-14.16L8606.62-14.16Q8606.62-17.38 8607.74-20.09 8608.86-22.8 8610.84-24.76 8612.82-26.71 8615.55-27.8 8618.29-28.88 8621.51-28.88L8621.51-28.88Q8623.07-28.88 8624.71-28.66 8626.34-28.44 8627.88-27.97 8629.42-27.49 8630.79-26.73 8632.16-25.98 8633.17-24.87 8634.18-23.75 8634.78-22.29 8635.38-20.83 8635.38-18.95ZM8814.05-28.2L8819.76-28.2 8809.51-3.39Q8807.75 0.85 8805.59 5.02 8803.43 9.18 8800.91 13.01L8800.91 13.01 8797.69 11.06Q8798.3 9.96 8799.13 8.52 8799.96 7.08 8800.77 5.54 8801.57 4 8802.26 2.5 8802.94 1 8803.31-0.24L8803.31-0.24 8790.98-28.2 8799.23-28.2 8807.6-9.13 8814.05-28.2Z" opacity="1" transform="matrix(1,0,0,1,0,0)" fill="#68b6ff" class="slogan-text-1" data-fill-palette-color="secondary" id="text-1"></path></svg></g></svg></g></svg></g></svg></g></svg></g></svg></g></svg></g></svg></g><defs></defs></svg><rect width="395.52" height="247.2" fill="none" stroke="none" visibility="hidden"></rect></g></svg></g></svg>