<svg xmlns="http://www.w3.org/2000/svg" version="1.1" xmlns:xlink="http://www.w3.org/1999/xlink" xmlns:svgjs="http://svgjs.dev/svgjs" width="128" height="128" viewBox="0 0 128 128"><g transform="matrix(0.44782608695652176,0,0,0.44782608695652176,35.33913043478261,12.5)"><svg viewBox="0 0 125 225" data-background-color="#80d6af" preserveAspectRatio="xMidYMid meet" height="230" width="128" xmlns="http://www.w3.org/2000/svg" xmlns:xlink="http://www.w3.org/1999/xlink"><g id="tight-bounds" transform="matrix(1,0,0,1,0,0)"><svg viewBox="0 0 125 225" height="225" width="125"><g><svg></svg></g><g><svg viewBox="0 0 125 225" height="225" width="125"><g><path d="M115.111 85.986c-3.428-4.179-9.915-6.328-16.797-8.596-2.953-0.976-5.999-1.991-8.978-3.217-3.006-1.239-5.959-2.835-8.834-4.364-5.841-3.138-11.879-6.381-18.009-6.381-6.117 0-12.156 3.243-17.997 6.381-2.874 1.543-5.841 3.138-8.847 4.377-2.966 1.226-6.025 2.228-8.978 3.217-6.882 2.281-13.369 4.43-16.797 8.597-4.575 5.577-4.469 13.843-4.364 22.584 0.013 1.318 0.026 2.624 0.026 3.916 0 1.292-0.013 2.597-0.039 3.916-0.105 8.754-0.211 17.008 4.364 22.598 3.428 4.166 9.915 6.315 16.783 8.596 2.953 0.976 5.999 1.991 8.992 3.217 3.006 1.239 5.959 2.821 8.82 4.364 5.854 3.151 11.892 6.394 18.01 6.394 6.131 0 12.169-3.243 18.01-6.381 2.874-1.543 5.827-3.138 8.833-4.364 2.966-1.226 5.999-2.228 8.939-3.204 6.922-2.294 13.408-4.443 16.837-8.609 4.575-5.577 4.469-13.843 4.364-22.585-0.013-1.332-0.04-2.637-0.04-3.929 0-1.292 0.013-2.597 0.04-3.902 0.145-8.781 0.251-17.047-4.338-22.625zM119.356 82.506c-6.144-7.489-17.891-9.269-27.924-13.409-8.978-3.692-18.115-11.167-28.926-11.167-10.811 0-19.948 7.475-28.927 11.167-10.046 4.14-21.78 5.92-27.924 13.409-6.671 8.122-5.59 19.579-5.59 29.994 0 10.402-1.081 21.873 5.577 29.994 6.144 7.489 17.891 9.269 27.924 13.409 8.978 3.705 18.115 11.167 28.927 11.167 10.811 0 19.948-7.462 28.926-11.167 10.046-4.14 21.78-5.92 27.924-13.409 6.658-8.122 5.577-19.579 5.577-29.994 0.026-10.416 1.107-21.873-5.564-29.994zM121.044 116.376c0.119 9.071 0.224 17.601-4.72 23.626-3.718 4.522-10.416 6.75-17.509 9.098-2.953 0.976-5.972 1.978-8.873 3.177-2.927 1.2-5.841 2.769-8.662 4.285-6.038 3.243-12.248 6.579-18.774 6.579-6.526 0-12.736-3.336-18.748-6.566-2.835-1.529-5.762-3.098-8.689-4.298-2.94-1.213-5.959-2.215-8.886-3.177-7.106-2.347-13.804-4.575-17.509-9.098-4.931-6.012-4.825-14.555-4.72-23.599 0.013-1.318 0.04-2.61 0.04-3.903 0-1.292-0.013-2.584-0.026-3.903-0.119-9.044-0.224-17.588 4.719-23.599 3.718-4.522 10.416-6.737 17.509-9.098 2.94-0.976 5.959-1.978 8.886-3.177 2.927-1.213 5.854-2.782 8.689-4.298 6.012-3.23 12.235-6.579 18.748-6.579 6.513 0 12.736 3.336 18.748 6.566 2.835 1.529 5.762 3.098 8.688 4.298 2.927 1.213 5.959 2.202 8.873 3.177 7.093 2.347 13.804 4.575 17.509 9.097 4.944 6.025 4.839 14.555 4.72 23.6-0.013 1.332-0.04 2.624-0.039 3.903 0 1.292 0.013 2.584 0.026 3.889z" fill="#ffffff" fill-rule="nonzero" stroke="none" stroke-width="1" stroke-linecap="butt" stroke-linejoin="miter" stroke-miterlimit="10" stroke-dasharray="" stroke-dashoffset="0" font-family="none" font-weight="none" font-size="none" text-anchor="none" style="mix-blend-mode: normal" data-fill-palette-color="tertiary"></path></g><g transform="matrix(1,0,0,1,40.77511732034939,84.69)"><svg viewBox="0 0 43.449765359301225 55.620000000000005" height="55.620000000000005" width="43.449765359301225"><g><svg viewBox="0 0 43.449765359301225 55.620000000000005" height="55.620000000000005" width="43.449765359301225"><g><svg viewBox="0 0 43.449765359301225 55.620000000000005" height="55.620000000000005" width="43.449765359301225"><g id="textblocktransform"><svg viewBox="0 0 43.449765359301225 55.620000000000005" height="55.620000000000005" width="43.449765359301225" id="textblock"><g><svg viewBox="0 0 43.449765359301225 55.620000000000005" height="55.620000000000005" width="43.449765359301225"><g transform="matrix(1,0,0,1,0,0)"><svg width="43.449765359301225" viewBox="3.56 -35.91 33.894464285714285 43.379999999999995" height="55.620000000000005" data-palette-color="#80d6af"><path d="M37.45-16.82L37.45-16.82 37.45-16.36Q37.4-14.31 37.02-12.11 36.65-9.91 35.96-7.71 35.28-5.52 34.33-3.37 33.37-1.22 32.19 0.74 31.01 2.71 29.64 4.43 28.27 6.15 26.76 7.47L26.76 7.47 23.12 5.37Q23.97 3.93 24.67 2.23 25.37 0.54 25.93-1.32 26.49-3.17 26.89-5.13 27.29-7.08 27.56-9.01 27.83-10.94 27.97-12.81 28.1-14.67 28.1-16.36L28.1-16.36Q28.1-17.68 28.09-19.35 28.08-21.02 27.89-22.75 27.71-24.49 27.29-26.14 26.88-27.78 26.06-29.08 25.24-30.37 23.96-31.15 22.68-31.93 20.78-31.93L20.78-31.93Q19.09-31.93 17.88-31.36 16.67-30.79 15.83-29.82 14.99-28.86 14.49-27.59 13.99-26.32 13.71-24.91 13.43-23.51 13.34-22.08 13.26-20.65 13.26-19.38L13.26-19.38 13.26-12.57 23.78-12.57 23.78-8.54 13.26-8.54 13.26 0 3.56 0 3.56-17.87Q3.56-21.7 4.79-25 6.01-28.3 8.24-30.73 10.47-33.15 13.61-34.53 16.75-35.91 20.61-35.91L20.61-35.91Q23.22-35.91 25.5-35.17 27.78-34.42 29.66-33.12 31.54-31.81 33.02-30.02 34.5-28.22 35.49-26.1 36.47-23.97 36.99-21.61 37.5-19.24 37.45-16.82Z" opacity="1" transform="matrix(1,0,0,1,0,0)" fill="#000000" class="wordmark-text-0" data-fill-palette-color="quaternary" id="text-0"></path></svg></g></svg></g></svg></g></svg></g></svg></g></svg></g></svg></g><defs></defs></svg><rect width="125" height="225" fill="none" stroke="none" visibility="hidden"></rect></g></svg></g></svg>