<svg viewBox="0 0 129 48" fill="none" xmlns="http://www.w3.org/2000/svg">
<g clip-path="url(#clip0_609_17964)">
<path d="M115 0H14C6.26801 0 0 6.26801 0 14V34C0 41.732 6.26801 48 14 48H115C122.732 48 129 41.732 129 34V14C129 6.26801 122.732 0 115 0Z" fill="white"/>
<path d="M28.8012 23.312C28.8012 21.624 29.7512 20.041 31.2292 19.091C30.2792 17.719 28.8012 16.981 27.2192 16.875C25.5292 16.664 23.8412 17.93 22.9972 17.93C22.1522 17.93 20.7802 16.875 19.3032 16.98C18.3802 17.0326 17.4841 17.3101 16.6929 17.7883C15.9018 18.2666 15.2396 18.9312 14.7642 19.724C12.7592 23.101 14.2372 28.166 16.1372 30.91C17.0872 32.282 18.1422 33.76 19.6192 33.76C20.9912 33.654 21.5192 32.81 23.3132 32.81C25.0022 32.81 25.5302 33.76 27.0072 33.654C28.4852 33.654 29.4352 32.282 30.3842 30.91C31.037 29.9219 31.5688 28.859 31.9682 27.744C30.0682 27.111 28.8012 25.317 28.8012 23.312ZM26.0572 15.08C26.9022 14.13 27.3242 12.864 27.2182 11.492C25.9522 11.598 24.7912 12.232 23.9462 13.181C23.1022 14.131 22.6802 15.397 22.7862 16.558C24.0522 16.664 25.2132 16.136 26.0572 15.081V15.08ZM46.6382 30.276H41.7832L40.6232 33.653H38.6172L43.1552 20.99H45.2662L49.8042 33.653H47.6942L46.6382 30.276ZM42.4172 28.693H46.2172L44.3172 23.1L42.4172 28.693ZM59.7252 29.116C59.7252 31.965 58.1412 33.864 55.9252 33.864C55.3468 33.9126 54.767 33.7882 54.2596 33.5065C53.7521 33.2248 53.3398 32.7986 53.0752 32.282V36.819H51.1752V24.472H52.9702V26.055C53.6032 25 54.6592 24.367 55.9252 24.473C58.2472 24.367 59.7252 26.266 59.7252 29.116ZM57.8252 29.116C57.8252 27.216 56.8752 26.056 55.3972 26.056C53.9202 26.056 52.9702 27.322 52.9702 29.116C52.9702 31.016 53.9202 32.176 55.3972 32.176C56.8752 32.176 57.8252 31.016 57.8252 29.116ZM69.8572 29.116C69.8572 31.965 68.2742 33.864 66.0572 33.864C65.479 33.9124 64.8994 33.7879 64.3922 33.5062C63.8849 33.2245 63.4728 32.7984 63.2082 32.282V36.819H61.3082V24.472H63.1032V26.055C63.7362 25 64.7912 24.367 66.0582 24.473C68.3802 24.367 69.8572 26.266 69.8572 29.116ZM67.9572 29.116C67.9572 27.216 67.0072 26.056 65.5302 26.056C64.0532 26.056 63.1032 27.322 63.1032 29.116C63.1032 31.016 64.0532 32.176 65.5302 32.176C67.0082 32.176 67.9572 31.016 67.9572 29.116ZM76.6132 30.17C76.7182 31.437 77.9852 32.281 79.6732 32.281C81.2562 32.281 82.4172 31.437 82.4172 30.276C82.4172 29.326 81.6782 28.693 80.0952 28.271L78.4072 27.849C76.0852 27.321 75.0292 26.16 75.0292 24.472C75.0292 22.256 76.9292 20.779 79.6732 20.779C82.3122 20.779 84.2112 22.256 84.2112 24.472H82.3112C82.2062 23.206 81.1512 22.467 79.6732 22.467C78.1962 22.467 77.1402 23.206 77.1402 24.367C77.1402 25.211 77.7732 25.738 79.4622 26.16L80.8342 26.477C83.4732 27.11 84.5282 28.165 84.5282 29.959C84.5282 32.281 82.6282 33.759 79.6732 33.759C76.8232 33.759 75.0292 32.281 74.8182 30.065L76.6132 30.17ZM88.4322 22.362V24.578H90.2262V26.055H88.4322V31.12C88.4322 31.859 88.7492 32.281 89.5922 32.281H90.2262V33.653C89.9092 33.758 89.4872 33.758 89.1712 33.758C87.2712 33.758 86.5322 33.02 86.5322 31.226V25.95H85.1602V24.472H86.5322V22.256H88.4322V22.362ZM91.1762 29.116C91.1762 26.266 92.8642 24.366 95.5032 24.366C98.1412 24.366 99.8302 26.161 99.8302 29.116C99.8302 32.07 98.1412 33.864 95.5032 33.864C92.8642 33.864 91.1762 31.964 91.1762 29.116ZM98.0362 29.116C98.0362 27.111 97.0862 25.95 95.6092 25.95C94.1312 25.95 93.1812 27.11 93.1812 29.116C93.1812 31.121 94.1312 32.281 95.6092 32.281C97.0862 32.281 98.0362 31.121 98.0362 29.116ZM101.52 24.473H103.314V26.055C103.525 25 104.475 24.367 105.53 24.367C105.741 24.367 105.952 24.367 106.163 24.472V26.266C105.847 26.161 105.636 26.161 105.319 26.161C104.264 26.161 103.419 26.9 103.314 27.955V33.759H101.414L101.52 24.473ZM114.924 31.015C114.713 32.704 113.024 33.865 110.913 33.865C108.275 33.865 106.586 32.07 106.586 29.221C106.586 26.372 108.275 24.473 110.808 24.473C113.341 24.473 114.924 26.266 114.924 29.01V29.643H108.38V29.749C108.275 31.121 109.224 32.281 110.596 32.387H110.913C111.863 32.492 112.707 31.965 113.024 31.121L114.924 31.015ZM108.591 28.271H113.235C113.341 27.005 112.391 26.055 111.124 25.95H110.913C110.299 25.9555 109.712 26.2018 109.278 26.6358C108.843 27.0699 108.597 27.6571 108.591 28.271ZM42.1002 11.598C43.5772 11.492 44.8432 12.653 44.9492 14.131V14.658C44.9492 16.558 43.8932 17.719 42.0992 17.719H39.8832V11.598H42.1002ZM40.8332 16.769H41.9932C43.0492 16.875 43.9992 16.031 43.9992 14.975V14.553C44.1042 13.498 43.3662 12.548 42.3102 12.443H40.8332V16.769ZM46.0052 15.397C45.8992 14.237 46.7442 13.181 48.0102 13.075C49.1712 12.97 50.2272 13.815 50.3322 15.081V15.503C50.4382 16.663 49.5932 17.719 48.4322 17.825C47.2722 17.825 46.2162 16.98 46.0052 15.82V15.397ZM49.4882 15.397C49.4882 14.447 49.0662 13.814 48.2212 13.814C47.4832 13.814 46.9552 14.447 46.9552 15.397C46.9552 16.347 47.3772 16.98 48.2212 16.98C48.9612 16.875 49.4882 16.347 49.4882 15.397ZM56.1362 17.614H55.1862L54.2362 14.236H54.1312L53.1812 17.614H52.2312L50.9652 13.076H51.9152L52.7592 16.558H52.8652L53.8152 13.076H54.6592L55.6092 16.558H55.7142L56.5592 13.076H57.5092L56.1362 17.614ZM58.4592 13.075H59.3032V13.815H59.4092C59.6192 13.287 60.1482 12.97 60.7812 12.97C61.6252 12.864 62.3642 13.498 62.3642 14.342V17.614H61.4142V14.87C61.4142 14.13 61.0972 13.814 60.4642 13.814C59.9372 13.814 59.4092 14.236 59.4092 14.764V17.614H58.4592V13.075ZM63.7342 11.281H64.6842V17.614H63.7342V11.28V11.281ZM65.9522 15.397C65.8472 14.237 66.6912 13.181 67.9572 13.075C69.1192 12.97 70.1742 13.815 70.2792 15.081V15.503C70.3852 16.663 69.5412 17.719 68.3792 17.825C67.2192 17.93 66.1632 17.086 66.0582 15.925C65.9522 15.608 65.9522 15.503 65.9522 15.397ZM69.3302 15.397C69.3302 14.447 68.9072 13.814 68.0632 13.814C67.3242 13.814 66.7972 14.447 66.7972 15.397C66.7972 16.347 67.2192 16.98 68.0632 16.98C68.9072 16.875 69.3302 16.347 69.3302 15.397ZM71.2282 16.347C71.2282 15.503 71.8622 15.081 72.9182 14.975L74.1842 14.87V14.448C74.1842 13.92 73.8672 13.708 73.2342 13.708C72.7062 13.708 72.3902 13.92 72.2842 14.236H71.4402C71.5452 13.498 72.2842 12.97 73.3402 12.97C74.5002 12.97 75.1332 13.498 75.1332 14.553V17.719H74.2892V17.086H74.1842C73.8672 17.508 73.3392 17.825 72.8122 17.825C72.0722 17.93 71.3342 17.403 71.3342 16.558C71.2282 16.453 71.2282 16.347 71.2282 16.347ZM74.1842 15.925V15.503L73.0232 15.609C72.3902 15.609 72.0732 15.819 72.0732 16.242C72.0732 16.664 72.3902 16.875 72.9172 16.875C73.5502 16.981 74.0782 16.558 74.1842 15.925ZM76.2952 15.397C76.2952 13.92 77.0342 13.075 78.1952 13.075C78.8282 13.075 79.3552 13.392 79.5672 13.92H79.6722V11.28H80.6222V17.613H79.7782V16.874H79.6722C79.5231 17.1332 79.3077 17.3479 79.0481 17.4962C78.7885 17.6446 78.4941 17.7211 78.1952 17.718C76.9282 17.718 76.2952 16.768 76.2952 15.396V15.397ZM77.1392 15.397C77.1392 16.347 77.5612 16.98 78.4062 16.98C79.1442 16.98 79.6722 16.347 79.6722 15.397C79.6722 14.447 79.1442 13.814 78.4062 13.814C77.6672 13.814 77.1392 14.342 77.1392 15.397ZM84.2102 15.397C84.1052 14.237 84.9492 13.181 86.2152 13.075C87.3762 12.97 88.4322 13.815 88.5372 15.081V15.503C88.6432 16.663 87.7982 17.719 86.6372 17.825C85.4772 17.93 84.4212 17.086 84.3162 15.925C84.2102 15.608 84.2102 15.503 84.2102 15.397ZM87.6932 15.397C87.6932 14.447 87.2712 13.814 86.4262 13.814C85.6882 13.814 85.1602 14.447 85.1602 15.397C85.1602 16.347 85.5822 16.98 86.4262 16.98C87.1662 16.875 87.6932 16.347 87.6932 15.397ZM89.8032 13.075H90.6472V13.815H90.7532C90.9632 13.287 91.4912 12.97 92.1252 12.97C92.9692 12.864 93.7082 13.498 93.7082 14.342V17.614H92.7582V14.87C92.7582 14.13 92.4412 13.814 91.8082 13.814C91.2802 13.814 90.7532 14.236 90.7532 14.764V17.614H89.8032V13.075ZM98.7752 11.915V13.075H99.7252V13.815H98.7752V16.136C98.7752 16.664 98.9852 16.875 99.4082 16.875H99.7252V17.614H99.1972C98.1412 17.614 97.8252 17.297 97.8252 16.347V13.71H97.0852V13.077H97.9302V11.916H98.7752V11.915ZM100.99 11.281H101.835V13.814H101.94C102.151 13.287 102.784 12.97 103.312 12.97C104.157 12.97 104.895 13.603 104.895 14.447V17.72H103.945V14.976C103.945 14.237 103.629 13.921 102.996 13.921C102.362 13.921 101.94 14.343 101.835 14.871V17.721H100.885L100.99 11.281ZM110.278 16.453C110.067 17.297 109.223 17.825 108.273 17.825C107.112 17.825 106.162 16.981 106.162 15.82V15.503C106.057 14.343 106.796 13.287 107.957 13.076H108.273C109.54 13.076 110.278 13.92 110.278 15.398V15.714H107.007C106.901 16.347 107.429 16.981 108.062 16.981H108.168C108.59 17.086 109.012 16.769 109.223 16.453H110.278ZM107.112 14.975H109.434C109.434 14.342 109.012 13.815 108.379 13.815H108.273C107.64 13.709 107.112 14.236 107.112 14.975C107.112 14.87 107.112 14.87 107.112 14.975Z" fill="#1D252C"/>
</g>
<defs>
<clipPath id="clip0_609_17964">
<rect width="129" height="48" fill="white"/>
</clipPath>
</defs>
</svg>
