<svg width="358" height="497" viewBox="0 0 358 497" fill="none" xmlns="http://www.w3.org/2000/svg">
<g clip-path="url(#clip0_4_4033)">
<rect x="3" y="3" width="352" height="491.522" rx="8.39203" fill="white"/>
<g clip-path="url(#clip1_4_4033)">
<path d="M43.6785 168.103H49.5602L55.1357 155.42H75.4155L80.9909 168.103H86.9339L67.6344 124.602H62.9167L43.6785 168.103ZM57.3413 150.274L65.2449 132.322L73.1485 150.274H57.3413Z" fill="#395BB6"/>
<path d="M93.0468 168.103H105.546C118.902 168.103 128.705 158.79 128.705 146.352C128.705 133.915 118.902 124.602 105.546 124.602H93.0468V168.103ZM98.7448 162.772V129.932H105.546C116.022 129.932 122.946 136.917 122.946 146.352C122.946 155.788 116.022 162.772 105.546 162.772H98.7448Z" fill="#395BB6"/>
<path d="M149.122 168.103H153.901L172.404 124.602H166.216L151.573 159.157L136.869 124.602H130.558L149.122 168.103Z" fill="#395BB6"/>
<path d="M178.787 168.103H184.485V124.602H178.787V168.103Z" fill="#395BB6"/>
<path d="M192.465 160.995C194.732 165.468 200.552 168.838 207.72 168.838C215.808 168.838 221.567 164.181 221.567 156.768C221.567 150.335 217.891 146.659 211.458 144.208L206.189 142.186C201.777 140.532 199.633 138.878 199.633 135.202C199.633 131.587 203.187 129.197 207.475 129.197C211.213 129.197 213.909 130.851 216.114 133.486L220.28 129.81C217.585 126.318 213.051 123.867 207.598 123.867C199.817 123.867 193.996 128.339 193.996 135.447C193.996 141.39 197.06 144.943 203.861 147.455L209.62 149.661C213.664 151.193 215.869 153.521 215.869 157.013C215.869 161.057 212.316 163.507 207.843 163.507C202.942 163.507 199.388 161.241 197.06 157.564L192.465 160.995Z" fill="#395BB6"/>
<path d="M271.912 146.352C271.912 133.731 261.986 123.867 249.426 123.867C236.928 123.867 226.941 133.731 226.941 146.352C226.941 158.974 236.928 168.838 249.426 168.838C261.986 168.838 271.912 158.974 271.912 146.352ZM232.7 146.352C232.7 136.795 239.93 129.259 249.426 129.259C258.984 129.259 266.214 136.795 266.214 146.352C266.214 155.91 258.984 163.446 249.426 163.446C239.93 163.446 232.7 155.91 232.7 146.352Z" fill="#395BB6"/>
<path d="M280.501 168.103H286.199V148.313H290.427L307.153 168.103H314.322L297.595 148.252C304.274 147.271 308.317 142.983 308.317 136.611C308.317 129.442 303.355 124.602 295.328 124.602H280.501V168.103ZM286.199 143.228V129.871H294.654C299.617 129.871 302.619 132.199 302.619 136.611C302.619 140.961 299.617 143.228 294.654 143.228H286.199Z" fill="#395BB6"/>
<path d="M311.125 83.4256C309.517 80.2109 306.571 78.041 300.409 75.4425C295.373 73.3262 292.828 71.8796 291.274 70.1919C290.015 68.8256 289.64 67.7005 289.774 65.6646C289.881 63.7625 290.363 62.6374 291.542 61.3783C293.069 59.7442 295.159 59.1817 297.677 59.7174C301.802 60.5747 304.428 63.4411 306.705 69.4686C307.508 71.6117 307.615 71.692 309.062 71.1563L309.973 70.808L309.946 68.3434C309.919 66.9772 309.866 64.1108 309.785 61.9945L309.678 58.0565L308.982 57.7618C305.204 56.1545 298.025 55.1633 293.364 55.5919C288.06 56.0741 284.148 57.7618 281.148 60.8694C278.174 63.9501 276.808 67.5934 277.049 71.9064C277.237 75.4693 278.308 78.041 280.505 80.2645C282.541 82.354 284.256 83.3452 289.158 85.2472C297.061 88.3279 299.177 90.1764 299.15 93.9804C299.15 97.195 297.436 99.5525 294.328 100.651C293.23 101.053 290.417 101.053 288.917 100.651C284.979 99.606 281.978 96.2038 279.407 89.8817L278.737 88.2743L277.96 88.3011C277.532 88.3279 276.942 88.4619 276.674 88.5958L276.139 88.8369L276.192 91.5962C276.219 93.1231 276.299 96.311 276.353 98.722L276.46 103.062L277.344 103.437C279.139 104.214 284.55 105.392 287.926 105.767C288.354 105.821 290.658 105.821 293.069 105.794C297.248 105.741 297.543 105.714 299.659 105.178C305.874 103.544 309.893 100.088 311.661 94.8376C312.196 93.2303 312.277 92.7213 312.357 90.3371C312.464 87.176 312.17 85.5151 311.125 83.4256Z" fill="black"/>
<path d="M263.119 57.3543C257.895 54.729 249.805 54.9166 243.885 57.8098C238.286 60.5422 234.428 65.0963 232.285 71.5257C231.16 74.8743 230.812 77.5799 230.919 81.9197C230.999 84.6522 231.106 86.072 231.401 87.3579C233.598 97.2162 240.375 103.913 249.805 105.628C251.894 106.003 256.609 106.003 258.726 105.655C261.726 105.119 265.182 103.806 267.378 102.306C270.03 100.511 272.79 97.8055 272.79 96.9483C272.79 96.4393 271.879 95.2606 271.477 95.2606C271.316 95.2606 270.566 95.6356 269.843 96.1178C267.244 97.8055 264.753 98.5021 261.271 98.5021C256.502 98.5021 253.448 97.2966 250.421 94.2426C249.082 92.8764 248.519 92.1531 247.822 90.7869C246.296 87.8133 245.465 84.4111 245.331 80.5535L245.278 78.8926L259.369 78.839L273.459 78.7854L273.513 77.821C273.54 77.2853 273.486 75.919 273.352 74.7671C272.468 66.1947 269.012 60.3011 263.119 57.3543ZM248.921 74.7135L245.358 74.7671V73.9902C245.358 73.5616 245.492 72.4365 245.626 71.4989C246.805 63.8372 249.671 59.2296 253.261 59.2296C256.556 59.2296 258.592 63.7569 259.02 72.0614L259.127 74.4189L255.806 74.526C253.984 74.6064 250.876 74.6867 248.921 74.7135Z" fill="black"/>
<path d="M212.048 56.4455C210.923 56.2044 209.905 56.1776 207.735 56.2312C204.44 56.3384 202.19 56.8473 199.725 57.9725C198.921 58.3475 198.198 58.669 198.145 58.669C198.091 58.669 198.091 53.6863 198.171 47.632C198.252 39.0595 198.225 36.5682 198.037 36.5682C197.421 36.5682 177.973 40.265 177.758 40.4258C177.597 40.5597 177.544 40.9616 177.571 41.5777C177.624 42.6492 177.517 42.5689 179.875 43.1047C180.598 43.2654 181.428 43.5869 181.723 43.8012C182.527 44.3637 183.17 45.596 183.625 47.3373C183.973 48.7035 184.027 49.6947 184.188 59.044C184.348 68.5809 184.321 78.3588 184.054 96.3074L183.946 103.755L185.339 104.076C187.349 104.532 193.135 105.496 195.01 105.683C197.769 105.978 204.252 105.925 206.288 105.63C215.236 104.29 221.96 99.0934 225.094 91.1639C225.925 89.0476 226.728 85.8061 226.996 83.4219C227.318 80.6091 227.13 74.9566 226.648 72.6796C224.799 63.9732 219.388 57.9725 212.048 56.4455ZM198.466 101.397C198.225 100.754 197.93 78.4392 198.037 69.5185L198.118 62.5534L199.377 62.1783C200.207 61.9372 201.198 61.8033 202.35 61.8033C203.958 61.8033 204.172 61.8569 205.538 62.5266C208.806 64.1339 211.057 68.179 212.102 74.2869C212.477 76.5372 212.53 82.7254 212.182 85.4311C211.325 92.0747 209.155 97.4593 206.262 100.058C205.11 101.103 204.038 101.638 202.645 101.906C201.654 102.094 201.332 102.094 199.538 101.96C198.787 101.906 198.627 101.826 198.466 101.397Z" fill="black"/>
<path d="M175.706 55.4299C173.482 55.4299 172.304 55.671 170.509 56.5015C167.241 58.0016 164.803 60.4394 162.606 64.4042L161.91 65.6365L161.99 63.4398C162.044 62.2343 162.124 59.984 162.178 58.4303L162.258 55.6174H161.803C161.213 55.6174 142.327 59.3947 141.764 59.6358C141.389 59.7965 141.336 59.9572 141.336 60.868C141.336 61.8057 141.389 61.9128 141.764 61.9932C142.006 62.0468 142.863 62.2075 143.693 62.3682C145.354 62.6897 145.863 62.9576 146.56 63.8684C147.819 65.5561 148.087 68.5029 148.087 81.0668C148.087 91.327 147.872 96.4437 147.363 98.051C146.774 100.007 145.702 101.025 143.854 101.346C143.265 101.453 142.461 101.614 142.113 101.694L141.443 101.828L141.389 103.141C141.363 104.052 141.416 104.507 141.577 104.614C141.711 104.695 148.167 104.748 155.909 104.721L170 104.668L170.054 103.194C170.08 102.391 170.054 101.721 169.946 101.721C168.848 101.721 165.499 101.266 164.964 101.051C163.383 100.382 162.606 98.9618 162.285 96.0686C161.883 92.6664 161.669 84.2011 161.776 77.2896C161.883 70.2977 161.883 70.2709 162.312 69.7887C163.329 68.6904 165.928 67.8331 168.232 67.8331C170.08 67.8331 172.009 68.3153 174.045 69.2797C175.036 69.7619 175.92 70.0834 176.054 70.0566C176.322 69.9495 180.93 57.7337 180.93 57.1712C180.957 56.2871 178.331 55.4299 175.706 55.4299Z" fill="black"/>
<path d="M141.361 76.6726C140.37 68.2073 136.78 62.0191 130.86 58.5366C124.297 54.679 114.304 54.4379 107.205 58.0008C102.089 60.5725 97.8828 65.5285 96.0344 71.2077C94.1056 77.0745 94.1056 84.7897 96.0344 90.7904C97.2667 94.6212 98.9276 97.434 101.499 99.9789C104.58 103.033 108.625 104.988 113.233 105.658C114.894 105.899 120.091 105.899 121.805 105.658C122.609 105.551 124.002 105.23 124.913 104.988C133.298 102.551 139.004 96.1214 140.959 86.906C141.468 84.7093 141.656 79.2444 141.361 76.6726ZM120.171 102.015C114.974 103.569 111.25 98.6127 109.804 88.2186C109.348 84.87 109.348 75.7082 109.804 71.8774C110.822 63.5193 113.394 59.2867 117.465 59.2599C119.287 59.2599 120.305 59.7153 121.752 61.1351C125.154 64.5641 126.788 71.1273 126.761 81.441C126.734 89.6652 125.931 94.8355 124.082 98.3448C123.171 100.033 121.511 101.613 120.171 102.015Z" fill="black"/>
<path d="M72.8809 42.0047H78.9505C85.9144 42.0047 87.0524 42.1424 89.5182 43.3814C93.095 45.171 95.6963 48.6951 97.9995 54.8349C98.9208 57.3404 98.9208 57.3128 100.98 56.6796L102.362 56.2666L102.227 47.2359C102.145 42.2801 102.037 37.8473 101.983 37.4068L101.847 36.6359L75.2654 36.5808C60.6332 36.5533 48.3855 36.5808 48.0604 36.6359L47.4101 36.746L47.4643 38.3429L47.5185 39.9398L49.5507 40.1876C52.1791 40.518 53.7507 41.2613 54.672 42.638C56.7584 45.7492 57.1378 49.9892 57.1378 70.0879C57.1378 91.5083 56.7042 96.7119 54.672 99.4101C53.6152 100.814 52.7752 101.255 50.4178 101.695C47.3288 102.274 47.4372 102.191 47.4372 103.815C47.4372 104.724 47.5185 105.192 47.681 105.275C48.0333 105.412 82.0396 105.44 82.3918 105.275C82.8525 105.082 82.8254 102.549 82.3647 102.301C82.175 102.191 81.037 101.971 79.8176 101.778C78.5983 101.585 77.2435 101.282 76.837 101.09C74.6151 100.098 73.3686 97.3727 72.908 92.4444C72.5828 88.9202 72.3119 82.395 72.3119 77.5768V73.1716L74.3712 73.2267C78.788 73.3643 81.0641 73.6121 81.9854 74.0251C83.9905 74.9337 85.5892 77.4116 86.4292 80.9082L86.8628 82.7805L88.4344 82.8355L90.006 82.8906V59.4053L88.4344 59.4604L86.8628 59.5154L86.4021 61.3601C85.5079 64.9669 84.0718 67.1695 81.9312 68.1882C81.0641 68.6012 80.4409 68.7113 78.3544 68.849C76.9725 68.9316 75.0486 69.0142 74.0461 69.0142H72.2577V63.1773C72.2577 57.3404 72.5557 44.9507 72.7725 43.0234L72.8809 42.0047Z" fill="black"/>
</g>
<rect x="3" y="168.838" width="352" height="24" fill="white"/>
<g clip-path="url(#clip2_4_4033)">
<path d="M41.0567 301.266C41.0445 302.58 41.7454 303.783 42.8541 304.35C43.7335 304.799 44.7428 304.785 45.5962 304.344C46.0474 304.11 46.4577 303.8 46.9143 303.577L70.9074 291.881C71.3549 291.663 71.758 291.36 72.2003 291.131C73.0674 290.683 74.0834 290.683 74.9506 291.132C75.3927 291.36 75.7958 291.663 76.2432 291.881L100.237 303.577C100.693 303.8 101.103 304.11 101.554 304.344C102.408 304.785 103.418 304.8 104.298 304.35C105.405 303.783 106.106 302.58 106.094 301.266V199.982C106.094 196.837 103.544 194.287 100.399 194.287H46.7508C43.6056 194.287 41.056 196.837 41.056 199.982L41.0567 301.266Z" fill="url(#paint0_linear_4_4033)"/>
<path d="M94.3407 221.822C92.8876 220.334 90.4926 220.34 89.0463 221.834C82.6825 228.368 75.9467 235.673 69.4947 242.469C67.9411 244.106 65.3825 244.24 63.6575 242.785L56.6739 236.895C55.0848 235.556 52.7044 235.788 51.404 237.409L51.3411 237.488C50.0548 239.091 50.2779 241.427 51.8443 242.758L51.9058 242.81L64.6211 253.538C66.0975 254.782 68.3042 254.686 69.6465 253.298C77.7012 245.028 86.4278 235.358 94.3295 227.245L94.4161 227.156C95.8385 225.686 95.8332 223.351 94.4041 221.887L94.3407 221.822Z" fill="white"/>
<g clip-path="url(#clip3_4_4033)">
<path d="M133.463 228.838V194.095H146.528C152.204 194.095 156.853 198.695 156.853 204.42C156.853 206.867 155.874 208.922 154.357 210.39C157.293 211.907 159.3 214.892 159.3 218.611C159.3 224.336 154.7 228.838 148.73 228.838H133.463ZM141.243 208.139H145.647C147.751 208.139 149.268 206.573 149.268 204.714C149.268 202.805 147.751 201.191 145.647 201.191H141.243V208.139ZM141.243 221.694H148.094C150.149 221.694 151.715 220.177 151.715 218.219C151.715 216.311 150.149 214.745 148.045 214.745H141.243V221.694ZM163.056 228.838V194.095H185.076V201.533H170.836V207.748H182.14V215.185H170.836V221.4H185.076V228.838H163.056ZM199.917 229.425C194.436 229.425 189.739 227.125 187.047 223.21L193.017 218.17C194.681 220.666 197.666 222.134 200.21 222.134C202.804 222.134 204.418 220.911 204.418 219.247C204.418 217.485 203.048 216.262 199.574 215.088L197.127 214.256C191.5 212.347 188.368 208.971 188.368 204.224C188.368 197.472 193.409 193.508 200.357 193.508C204.565 193.508 208.333 194.829 211.563 198.304L206.474 203.686C204.859 201.729 202.657 200.799 200.455 200.799C198.351 200.799 196.247 201.631 196.247 203.442C196.247 205.301 197.959 206.133 201.629 207.454L204.076 208.335C209.116 210.145 212.395 213.473 212.346 218.709C212.297 225.021 207.257 229.425 199.917 229.425ZM222.054 228.838V201.533H213.197V194.095H238.838V201.533H229.884V228.838H222.054ZM266.225 229.425C256.291 229.425 248.266 221.351 248.266 211.467C248.266 201.582 256.291 193.508 266.225 193.508C276.109 193.508 284.183 201.582 284.183 211.467C284.183 221.351 276.109 229.425 266.225 229.425ZM266.225 221.889C271.852 221.889 276.305 217.094 276.305 211.467C276.305 205.839 271.852 201.044 266.225 201.044C260.549 201.044 256.096 205.839 256.096 211.467C256.096 217.094 260.549 221.889 266.225 221.889ZM288.084 228.838V194.095H309.467V201.533H295.864V207.797H306.483V215.234H295.864V228.838H288.084Z" fill="#395BB6"/>
<path d="M166.296 290.42V302.945H125.107V298.658C125.107 285.125 135.446 279.493 144.188 273.273C148.896 269.91 153.183 266.128 153.183 261.841C153.183 257.974 150.913 254.78 146.122 254.78C141.162 254.78 137.968 258.311 138.052 262.261H125.36C125.36 250.493 134.438 242.256 146.542 242.256C156.629 242.256 165.875 248.56 165.875 260.916C165.875 271.592 160.58 276.887 153.603 282.015C150.745 284.116 144.609 287.394 143.012 290.42H166.296ZM194.467 303.87C181.102 303.87 171.856 293.783 171.856 279.997V266.128C171.856 252.342 181.102 242.256 194.467 242.256C207.748 242.256 216.995 252.342 216.995 266.128V279.997C216.995 293.783 207.748 303.87 194.467 303.87ZM194.467 291.345C200.267 291.345 204.302 287.142 204.302 279.997V266.128C204.302 258.983 200.267 254.78 194.467 254.78C188.583 254.78 184.548 258.983 184.548 266.128V279.997C184.548 287.142 188.583 291.345 194.467 291.345ZM262.958 290.42V302.945H221.77V298.658C221.77 285.125 232.109 279.493 240.851 273.273C245.558 269.91 249.845 266.128 249.845 261.841C249.845 257.974 247.576 254.78 242.784 254.78C237.825 254.78 234.631 258.311 234.715 262.261H222.022C222.022 250.493 231.1 242.256 243.205 242.256C253.292 242.256 262.538 248.56 262.538 260.916C262.538 271.592 257.242 276.887 250.266 282.015C247.408 284.116 241.271 287.394 239.674 290.42H262.958ZM295.165 302.945V290H265.997V279.745L296.425 243.264H307.857V278.4H315.507V290H307.857V302.945H295.165ZM295.165 278.4V261.925L281.463 278.4H295.165Z" fill="#395BB6"/>
</g>
</g>
<rect x="3" y="306.13" width="352" height="24" fill="white"/>
<path d="M3 330.13H355V486.13C355 490.765 351.243 494.522 346.608 494.522H11.392C6.75723 494.522 3 490.765 3 486.13V330.13Z" fill="#395BB6"/>
<rect x="3" y="329.787" width="352.465" height="34.6171" fill="url(#paint1_linear_4_4033)"/>
<path d="M46.256 391.466C40.572 391.466 35.98 386.846 35.98 381.19C35.98 375.534 40.572 370.914 46.256 370.914C50.4 370.914 53.844 373.07 55.552 376.346L51.632 378.474C50.512 376.486 48.748 375.226 46.256 375.226C43.008 375.226 40.46 377.97 40.46 381.19C40.46 384.41 43.008 387.154 46.256 387.154C48.748 387.154 50.512 385.894 51.632 383.906L55.552 386.034C53.844 389.31 50.4 391.466 46.256 391.466ZM64.2867 391.438C60.2547 391.438 56.9227 388.246 56.9227 384.13C56.9227 380.014 60.2547 376.822 64.2867 376.822C68.3187 376.822 71.6507 380.014 71.6507 384.13C71.6507 388.246 68.3187 391.438 64.2867 391.438ZM64.2867 387.49C66.0507 387.49 67.3947 386.118 67.3947 384.13C67.3947 382.142 66.0507 380.77 64.2867 380.77C62.5227 380.77 61.1787 382.142 61.1787 384.13C61.1787 386.118 62.5227 387.49 64.2867 387.49ZM74.2516 391.13V370.13H78.4796V391.13H74.2516ZM81.9626 391.13V370.13H86.1906V391.13H81.9626ZM96.2815 391.438C92.1655 391.438 88.8335 388.638 88.8335 384.13C88.8335 379.958 91.9415 376.822 96.1975 376.822C99.8935 376.822 103.17 379.118 103.17 383.654C103.17 384.018 103.17 384.466 103.086 385.138H92.9215C93.1735 386.818 94.7415 387.602 96.3375 387.602C97.9615 387.602 99.1935 386.818 99.7255 386.006L102.862 388.358C101.546 390.206 99.2215 391.438 96.2815 391.438ZM96.0855 380.266C94.8535 380.266 93.3975 380.826 93.0335 382.366H98.9695C98.6055 380.882 97.3175 380.266 96.0855 380.266ZM111.938 397.262C109.698 397.262 107.15 396.674 105.442 395.19L107.654 392.026C108.914 393.118 110.51 393.566 111.882 393.566C114.122 393.566 115.354 391.97 115.354 390.01V389.226C114.71 390.178 113.254 390.934 111.546 390.934C107.962 390.934 104.994 387.798 104.994 383.878C104.994 379.958 107.962 376.822 111.546 376.822C113.254 376.822 114.71 377.578 115.354 378.53V377.13H119.582V389.954C119.582 395.134 116.306 397.262 111.938 397.262ZM112.47 387.098C114.178 387.098 115.69 385.838 115.69 383.878C115.69 381.918 114.178 380.658 112.47 380.658C110.762 380.658 109.25 381.918 109.25 383.878C109.25 385.838 110.762 387.098 112.47 387.098ZM129.641 391.438C125.525 391.438 122.193 388.638 122.193 384.13C122.193 379.958 125.301 376.822 129.557 376.822C133.253 376.822 136.529 379.118 136.529 383.654C136.529 384.018 136.529 384.466 136.445 385.138H126.281C126.533 386.818 128.101 387.602 129.697 387.602C131.321 387.602 132.553 386.818 133.085 386.006L136.221 388.358C134.905 390.206 132.581 391.438 129.641 391.438ZM129.445 380.266C128.213 380.266 126.757 380.826 126.393 382.366H132.329C131.965 380.882 130.677 380.266 129.445 380.266ZM142.87 391.13L151.382 371.25H155.414L163.926 391.13H159.278L157.514 386.93H149.282L147.518 391.13H142.87ZM150.906 383.066H155.89L153.398 377.074L150.906 383.066ZM168.69 391.13L162.558 377.13H167.234L170.65 385.614L174.038 377.13H178.742L172.61 391.13H168.69ZM186.571 391.438C182.455 391.438 179.123 388.638 179.123 384.13C179.123 379.958 182.231 376.822 186.487 376.822C190.183 376.822 193.459 379.118 193.459 383.654C193.459 384.018 193.459 384.466 193.375 385.138H183.211C183.463 386.818 185.031 387.602 186.627 387.602C188.251 387.602 189.483 386.818 190.015 386.006L193.151 388.358C191.835 390.206 189.511 391.438 186.571 391.438ZM186.375 380.266C185.143 380.266 183.687 380.826 183.323 382.366H189.259C188.895 380.882 187.607 380.266 186.375 380.266Z" fill="white"/>
<path d="M37.2679 430.522V413.392H42.8896C46.0743 413.392 48.0045 415.515 48.0045 417.928C48.0045 419.617 47.2566 420.751 46.1708 421.426C47.8356 422.03 49.1385 423.236 49.1385 425.528C49.1385 428.375 46.8705 430.522 43.3962 430.522H37.2679ZM39.5118 420.751H42.8896C44.7232 420.751 45.8089 419.617 45.8089 418.097C45.8089 416.649 44.7232 415.419 42.8896 415.419H39.5118V420.751ZM39.5118 428.496H43.4927C45.7848 428.496 46.9429 427.289 46.9429 425.6C46.9429 423.936 45.7848 422.681 43.5169 422.681H39.5118V428.496ZM51.187 424.491C51.187 420.968 53.7927 418.217 57.4601 418.217C60.6207 418.217 63.1782 420.413 63.2023 424.273C63.2023 424.491 63.2023 424.635 63.1782 424.901H53.2861C53.3585 427.169 55.0715 428.858 57.4601 428.858C59.3179 428.858 60.476 428.037 61.2239 426.758L62.8645 427.892C61.7788 429.654 59.9452 430.764 57.4359 430.764C53.6962 430.764 51.187 428.037 51.187 424.491ZM57.3877 420.051C55.5782 420.051 53.8169 421.209 53.4308 423.212H61.0791C60.7896 421.233 59.2213 420.051 57.3877 420.051ZM73.9885 427.144C73.9885 429.461 72.203 430.764 69.7903 430.764C67.643 430.764 65.7852 429.847 65.0614 427.965L66.7503 427.024C67.1846 428.254 68.4875 428.93 69.8145 428.93C70.9726 428.93 71.9135 428.351 71.9135 427.313C71.9135 426.445 71.3827 425.914 69.8145 425.431L68.6081 425.045C66.6297 424.466 65.5922 423.212 65.5922 421.523C65.6163 419.448 67.4259 418.217 69.7421 418.217C71.5275 418.217 72.9269 418.965 73.7231 420.317L72.1789 421.378C71.6481 420.606 70.8278 420.003 69.6697 420.003C68.6564 420.003 67.6672 420.558 67.6672 421.45C67.6672 422.174 68.0532 422.777 69.3802 423.188L70.7072 423.598C72.7821 424.225 73.9885 425.311 73.9885 427.144ZM83.4297 430.353C82.923 430.522 82.3198 430.643 81.5719 430.643C79.4728 430.643 77.8805 429.461 77.8805 426.951V420.365H75.323V418.459H77.8805V415.105H79.9554V418.459H83.4297V420.365H79.9554V426.686C79.9554 428.23 80.6551 428.737 81.9579 428.737C82.4646 428.737 83.0437 428.64 83.4297 428.496V430.353ZM97.4492 413.392C101.02 413.392 103.336 415.756 103.336 418.845C103.336 421.933 101.02 424.273 97.4492 424.273H94.4575V430.522H92.2136V413.392H97.4492ZM97.4492 422.198C99.8137 422.198 101.117 420.751 101.117 418.845C101.117 416.939 99.8137 415.491 97.4492 415.491H94.4575V422.198H97.4492ZM105.872 430.522V418.459H107.947V420.799C108.43 419.255 109.925 418.338 111.325 418.338C111.638 418.338 111.928 418.362 112.266 418.435V420.582C111.88 420.437 111.542 420.389 111.132 420.389C109.612 420.389 107.947 421.716 107.947 424.539V430.522H105.872ZM117.217 413.754C117.217 414.574 116.59 415.226 115.769 415.226C114.949 415.226 114.273 414.574 114.273 413.754C114.273 412.958 114.949 412.282 115.769 412.282C116.59 412.282 117.217 412.958 117.217 413.754ZM114.708 430.522V418.459H116.783V430.522H114.708ZM124.48 430.522L118.906 418.459H121.223L125.348 427.579L129.474 418.459H131.79L126.217 430.522H124.48ZM132.71 424.491C132.71 421.04 135.244 418.217 138.621 418.217C140.431 418.217 142.072 419.158 142.868 420.317V418.459H144.943V430.522H142.868V428.664C142.072 429.823 140.431 430.764 138.621 430.764C135.244 430.764 132.71 427.941 132.71 424.491ZM143.037 424.491C143.037 422.054 141.372 420.123 138.935 420.123C136.498 420.123 134.809 422.054 134.809 424.491C134.809 426.927 136.498 428.858 138.935 428.858C141.372 428.858 143.037 426.927 143.037 424.491ZM155.387 430.353C154.88 430.522 154.277 430.643 153.529 430.643C151.43 430.643 149.838 429.461 149.838 426.951V420.365H147.28V418.459H149.838V415.105H151.913V418.459H155.387V420.365H151.913V426.686C151.913 428.23 152.612 428.737 153.915 428.737C154.422 428.737 155.001 428.64 155.387 428.496V430.353ZM156.932 424.491C156.932 420.968 159.537 418.217 163.205 418.217C166.365 418.217 168.923 420.413 168.947 424.273C168.947 424.491 168.947 424.635 168.923 424.901H159.031C159.103 427.169 160.816 428.858 163.205 428.858C165.062 428.858 166.221 428.037 166.968 426.758L168.609 427.892C167.523 429.654 165.69 430.764 163.181 430.764C159.441 430.764 156.932 428.037 156.932 424.491ZM163.132 420.051C161.323 420.051 159.561 421.209 159.175 423.212H166.824C166.534 421.233 164.966 420.051 163.132 420.051ZM176.626 427.724L178.435 426.372C179.352 427.82 180.751 428.713 182.682 428.713C184.443 428.713 185.842 427.748 185.842 426.155C185.842 424.78 184.974 423.863 183.381 423.26L181.113 422.391C178.435 421.402 177.229 420.003 177.229 417.663C177.229 414.864 179.521 413.103 182.585 413.103C184.732 413.103 186.518 414.068 187.579 415.443L185.939 416.89C185.07 415.853 184.009 415.202 182.537 415.202C180.848 415.202 179.449 416.143 179.449 417.566C179.449 419.014 180.293 419.665 182.03 420.317L184.105 421.113C186.638 422.078 188.086 423.525 188.086 426.059C188.086 428.978 185.818 430.812 182.633 430.812C179.81 430.812 177.518 429.485 176.626 427.724ZM197.232 430.353C196.726 430.522 196.122 430.643 195.375 430.643C193.275 430.643 191.683 429.461 191.683 426.951V420.365H189.126V418.459H191.683V415.105H193.758V418.459H197.232V420.365H193.758V426.686C193.758 428.23 194.458 428.737 195.761 428.737C196.267 428.737 196.846 428.64 197.232 428.496V430.353ZM199.714 425.866V418.459H201.789V425.552C201.789 427.579 202.851 428.858 204.515 428.858C206.397 428.858 207.869 427.217 207.869 424.442V418.459H209.944V430.522H207.869V428.664C207.073 430.064 205.673 430.764 204.153 430.764C201.499 430.764 199.714 428.858 199.714 425.866ZM212.914 424.491C212.914 421.04 215.447 418.217 218.825 418.217C220.635 418.217 222.275 419.158 223.071 420.317V412.427H225.146V430.522H223.071V428.664C222.275 429.823 220.635 430.764 218.825 430.764C215.447 430.764 212.914 427.941 212.914 424.491ZM223.24 424.491C223.24 422.054 221.576 420.123 219.139 420.123C216.702 420.123 215.013 422.054 215.013 424.491C215.013 426.927 216.702 428.858 219.139 428.858C221.576 428.858 223.24 426.927 223.24 424.491ZM228.111 424.491C228.111 420.968 230.717 418.217 234.384 418.217C237.545 418.217 240.102 420.413 240.127 424.273C240.127 424.491 240.127 424.635 240.102 424.901H230.21C230.283 427.169 231.996 428.858 234.384 428.858C236.242 428.858 237.4 428.037 238.148 426.758L239.789 427.892C238.703 429.654 236.869 430.764 234.36 430.764C230.62 430.764 228.111 428.037 228.111 424.491ZM234.312 420.051C232.502 420.051 230.741 421.209 230.355 423.212H238.003C237.714 421.233 236.146 420.051 234.312 420.051ZM243.071 430.522V418.459H245.146V420.317C245.967 418.893 247.414 418.217 248.983 418.217C251.685 418.217 253.543 420.099 253.543 423.091V430.522H251.492V423.405C251.492 421.378 250.334 420.123 248.645 420.123C246.69 420.123 245.146 421.716 245.146 424.539V430.522H243.071ZM263.676 430.353C263.169 430.522 262.566 430.643 261.818 430.643C259.719 430.643 258.127 429.461 258.127 426.951V420.365H255.569V418.459H258.127V415.105H260.202V418.459H263.676V420.365H260.202V426.686C260.202 428.23 260.901 428.737 262.204 428.737C262.711 428.737 263.29 428.64 263.676 428.496V430.353ZM37.2679 457.522V440.392H39.5118V455.399H47.7874V457.522H37.2679ZM61.4488 451.491C61.4488 454.965 58.7707 457.764 55.1516 457.764C51.5084 457.764 48.8303 454.965 48.8303 451.491C48.8303 448.016 51.5084 445.217 55.1516 445.217C58.7707 445.217 61.4488 448.016 61.4488 451.491ZM50.9535 451.491C50.9535 453.903 52.6424 455.833 55.1516 455.833C57.6608 455.833 59.3256 453.903 59.3256 451.491C59.3256 449.078 57.6608 447.148 55.1516 447.148C52.6424 447.148 50.9535 449.078 50.9535 451.491ZM63.4862 451.491C63.4862 448.04 66.0195 445.217 69.3973 445.217C71.2069 445.217 72.8475 446.158 73.6437 447.317V445.459H75.7186V457.522H73.6437V455.664C72.8475 456.823 71.2069 457.764 69.3973 457.764C66.0195 457.764 63.4862 454.941 63.4862 451.491ZM73.8126 451.491C73.8126 449.054 72.1478 447.123 69.711 447.123C67.2741 447.123 65.5852 449.054 65.5852 451.491C65.5852 453.927 67.2741 455.858 69.711 455.858C72.1478 455.858 73.8126 453.927 73.8126 451.491ZM79.6244 457.522V445.459H81.6993V447.317C82.5196 445.893 83.9673 445.217 85.5355 445.217C88.2378 445.217 90.0956 447.099 90.0956 450.091V457.522H88.0448V450.405C88.0448 448.378 86.8867 447.123 85.1978 447.123C83.2435 447.123 81.6993 448.716 81.6993 451.539V457.522H79.6244ZM101.673 454.144C101.673 456.461 99.888 457.764 97.4752 457.764C95.3279 457.764 93.4701 456.847 92.7463 454.965L94.4352 454.024C94.8695 455.254 96.1724 455.93 97.4994 455.93C98.6575 455.93 99.5984 455.351 99.5984 454.313C99.5984 453.445 99.0676 452.914 97.4994 452.431L96.293 452.045C94.3146 451.466 93.2771 450.212 93.2771 448.523C93.3013 446.448 95.1108 445.217 97.427 445.217C99.2124 445.217 100.612 445.965 101.408 447.317L99.8638 448.378C99.333 447.606 98.5127 447.003 97.3546 447.003C96.3413 447.003 95.3521 447.558 95.3521 448.45C95.3521 449.174 95.7381 449.777 97.0651 450.188L98.3921 450.598C100.467 451.225 101.673 452.311 101.673 454.144Z" fill="white"/>
</g>
<rect x="1.951" y="1.951" width="354.098" height="493.62" rx="9.44104" stroke="#E6E9F5" stroke-width="2.09801"/>
<defs>
<linearGradient id="paint0_linear_4_4033" x1="73.1056" y1="166.281" x2="152.832" y2="232.34" gradientUnits="userSpaceOnUse">
<stop offset="0.411458" stop-color="#7797EF"/>
<stop offset="0.557292" stop-color="#395BB6" stop-opacity="0.94"/>
</linearGradient>
<linearGradient id="paint1_linear_4_4033" x1="179.233" y1="329.787" x2="179.233" y2="364.404" gradientUnits="userSpaceOnUse">
<stop stop-color="#243F87"/>
<stop offset="1" stop-color="#243F87" stop-opacity="0"/>
</linearGradient>
<clipPath id="clip0_4_4033">
<rect x="3" y="3" width="352" height="491.522" rx="8.39203" fill="white"/>
</clipPath>
<clipPath id="clip1_4_4033">
<rect width="352" height="132.27" fill="white" transform="translate(3 36.5681)"/>
</clipPath>
<clipPath id="clip2_4_4033">
<rect width="352" height="113.292" fill="white" transform="translate(3 192.838)"/>
</clipPath>
<clipPath id="clip3_4_4033">
<rect width="193.017" height="113.292" fill="white" transform="translate(123.927 192.838)"/>
</clipPath>
</defs>
</svg>
