<svg viewBox="0 0 52 52" fill="none" xmlns="http://www.w3.org/2000/svg">
<path d="M12.2731 32.122C12.2731 21.5414 20.8504 12.9641 31.431 12.9641C42.0116 12.9641 50.5889 21.5414 50.5889 32.122C50.5889 42.7026 42.0116 51.2799 31.431 51.2799C20.8504 51.2799 12.2731 42.7026 12.2731 32.122Z" fill="#D1EEF2"/>
<path fill-rule="evenodd" clip-rule="evenodd" d="M50 33.6869C50 31.704 48.693 29.9371 46.8285 29.3972L46.6555 29.3481V17.7944L47.1072 17.3821C47.5589 16.96 47.7799 16.3612 47.7031 15.7428C47.6262 15.1243 47.2802 14.5943 46.7324 14.2998L24.7432 2.22577C24.4741 2.07853 24.1666 2 23.859 2C23.5515 2 23.244 2.07853 22.9749 2.22577L0.985704 14.2998C0.447508 14.5943 0.091914 15.1243 0.0150288 15.7428C-0.0618564 16.3612 0.159188 16.96 0.610889 17.3821L8.93371 25.0584C9.02982 25.1467 9.14514 25.2253 9.27008 25.2645L9.43346 25.3234V35.2771C9.43346 35.2869 9.43346 35.3066 9.43346 35.3164V35.3262C9.43346 35.3458 9.43346 35.3655 9.43346 35.3851C9.43346 35.7385 9.59684 36.0526 9.87555 36.2489L9.88516 36.2587C9.90439 36.2686 9.914 36.2784 9.92361 36.2882C13.9697 39.3705 18.7846 41 23.8398 41C28.895 41 33.7003 39.3705 37.756 36.2882C37.7656 36.2784 37.7849 36.2686 37.7945 36.2587L37.8041 36.2489C38.0924 36.0526 38.2558 35.7287 38.2558 35.3851C38.2558 35.3655 38.2558 35.3458 38.2558 35.3262V35.3164C38.2558 35.2968 38.2558 35.2869 38.2558 35.2771V25.3234L38.4192 25.2645C38.5441 25.2155 38.6594 25.1467 38.7555 25.0584L44.5796 19.6791V29.3383L44.4066 29.3874C42.5421 29.9273 41.2351 31.6942 41.2351 33.6771V36.2391C41.2351 37.2895 42.0712 38.1435 43.0996 38.1435H48.1163C49.1447 38.1435 49.9808 37.2895 49.9808 36.2391V33.6869H50ZM35.8243 35.1593C32.2876 37.6232 28.155 38.9288 23.8687 38.9288C19.5823 38.9288 15.4497 37.6232 11.913 35.1593L11.2691 34.7078H11.9611C12.0187 34.6587 12.0764 34.6096 12.1437 34.5605C12.7203 34.1286 13.6045 33.7163 14.7097 33.363C17.1412 32.5875 20.3992 32.1556 23.8783 32.1556C27.3573 32.1556 30.6057 32.5875 33.0468 33.363C34.152 33.7163 35.0362 34.1286 35.6129 34.5605C35.709 34.6292 35.7955 34.698 35.8627 34.7667L36.0838 34.9728L35.8243 35.1593ZM35.8916 32.3028C35.2669 31.9592 34.5076 31.6549 33.6523 31.3801C31.0286 30.5457 27.5591 30.0843 23.8783 30.0843C20.1974 30.0843 16.7279 30.5457 14.1042 31.3801C13.2489 31.6549 12.4896 31.969 11.865 32.3028L11.5094 32.4893V21.5638L11.6439 21.4951C15.4401 19.6398 19.6688 18.668 23.8783 18.668C28.0877 18.668 32.3164 19.6496 36.1126 21.4951L36.2472 21.5638V32.4893L35.8916 32.3028ZM38.2846 22.7123V21.1123C38.2846 20.6018 38.0059 20.1404 37.5638 19.9147C33.3351 17.7453 28.6067 16.587 23.8783 16.587C19.1498 16.587 14.4118 17.7355 10.1927 19.9147C9.75061 20.1404 9.47191 20.6018 9.47191 21.1123V22.7123L2.19665 16.0078L23.8687 4.1105L23.9167 4.13995L45.5503 16.0176L38.2846 22.7123ZM47.9625 36.0526H43.311V33.6771C43.311 32.3715 44.3586 31.3015 45.6368 31.3015C46.915 31.3015 47.9625 32.3715 47.9625 33.6771V36.0526Z" fill="#00A4B3"/>
</svg>
