<svg viewBox="0 0 38 38" fill="none" xmlns="http://www.w3.org/2000/svg">
<path d="M9.2793 23.978C9.2793 16.246 15.5473 9.97803 23.2793 9.97803C31.0113 9.97803 37.2793 16.246 37.2793 23.978C37.2793 31.71 31.0113 37.978 23.2793 37.978C15.5473 37.978 9.2793 31.71 9.2793 23.978Z" fill="#D1EEF2"/>
<path fill-rule="evenodd" clip-rule="evenodd" d="M23.6638 4.54772C23.6638 4.97005 24.0066 5.31311 24.4292 5.31311C24.8518 5.31311 25.1946 4.9706 25.1946 4.54772V1.26955C25.1946 0.847208 24.8518 0.50415 24.4292 0.50415C24.0069 0.50415 23.6638 0.846928 23.6638 1.26955V4.54772ZM16.9999 30.191C17.7272 32.7448 18.3552 34.95 20.0141 34.95H20.0147C20.0726 34.95 20.1319 34.9471 20.192 34.941C24.6139 34.4714 24.844 28.1379 25.0117 23.5137L25.0133 23.4684L25.0134 23.4673C25.0258 23.1242 25.0379 22.7922 25.0515 22.4746C25.1168 20.9524 25.6512 19.7267 26.2171 18.4288L26.2195 18.4233C26.8418 16.9985 27.4852 15.5245 27.4852 13.6437C27.4852 9.39051 24.0252 5.93027 19.7718 5.93027C18.2882 5.93027 17.2417 6.42364 16.319 6.85881L16.3135 6.86139C15.4752 7.25619 14.7505 7.59749 13.7427 7.59776C12.7328 7.59755 12.0071 7.25536 11.1675 6.85943L11.1662 6.85881L11.1645 6.85799C10.2417 6.42302 9.19632 5.93027 7.71342 5.93027C3.46024 5.93027 0 9.39079 0 13.6437C0 15.5243 0.643261 16.9976 1.2655 18.4228L1.26575 18.4233C1.83281 19.7226 2.36836 20.9502 2.43377 22.4746C2.44719 22.7895 2.45918 23.1188 2.47154 23.4587L2.47154 23.4587L2.47354 23.5137L2.4736 23.5152C2.64159 28.1396 2.8716 34.4714 7.29324 34.941C7.3533 34.9471 7.41258 34.95 7.47078 34.95C9.12944 34.9496 9.75787 32.7438 10.4851 30.1899C11.184 27.7354 12.0544 24.6804 13.7563 24.6273C15.4306 24.6802 16.3004 27.7345 16.9993 30.1889L16.9995 30.1897L16.9999 30.191ZM13.803 23.0973L13.7421 23.0963L13.7421 23.0964C13.7338 23.0964 13.6882 23.0969 13.6807 23.0977C10.8891 23.1863 9.89283 26.6833 9.01359 29.7694L9.01294 29.7717C8.65016 31.0462 7.97442 33.4183 7.4557 33.4183H7.45543C4.35384 33.0896 4.15166 27.5234 4.00402 23.4587L4.00401 23.4584C3.99093 23.0955 3.97811 22.7447 3.9637 22.4094C3.88654 20.6001 3.26782 19.1827 2.66961 17.8122L2.66938 17.8116C2.08393 16.4714 1.53157 15.2054 1.53157 13.6442C1.53157 10.2352 4.30487 7.46187 7.71385 7.46187C8.8544 7.46187 9.66066 7.84176 10.5136 8.24408C11.4357 8.67924 12.3893 9.12909 13.7432 9.12936C15.0965 9.12881 16.0504 8.67925 16.9728 8.24408L16.9737 8.24363C17.8261 7.84176 18.6319 7.46187 19.772 7.46187C23.1809 7.46187 25.9545 10.2352 25.9545 13.6442C25.9545 15.2052 25.4019 16.4715 24.8167 17.8116L24.8159 17.8136C24.2181 19.1836 23.5998 20.6007 23.5224 22.4094C23.5083 22.7312 23.4962 23.0678 23.4836 23.4153L23.4821 23.4584L23.4821 23.4587C23.3345 27.5233 23.1323 33.0897 20.0307 33.4183L20.0141 33.4194C19.5111 33.4194 18.8363 31.0508 18.4727 29.7745L18.4716 29.7706L18.4707 29.7677C17.5917 26.6821 16.5957 23.1857 13.803 23.0973ZM4.52352 19.1268C4.63883 19.4341 4.9301 19.6237 5.24005 19.6237L5.24012 19.6237C5.32982 19.6237 5.42085 19.6077 5.50949 19.5749C5.90515 19.4267 6.10591 18.9848 5.95694 18.5892C5.69662 17.8961 5.4203 17.2626 5.17575 16.703L4.98086 16.2537C4.8143 15.865 4.36469 15.6853 3.97571 15.8511C3.587 16.0179 3.40653 16.4673 3.57312 16.8562C3.63639 17.0039 3.70261 17.1566 3.77255 17.3162C4.00907 17.8577 4.27711 18.4717 4.52352 19.1268ZM3.45754 14.56C3.05227 14.56 2.71428 14.2415 2.69371 13.8324C2.68997 13.7521 2.68784 13.6707 2.68784 13.5882C2.68784 11.1208 4.6952 9.11314 7.16287 9.11314C7.58548 9.11314 7.92826 9.4562 7.92826 9.87854C7.92826 10.3012 7.5852 10.6439 7.16287 10.6439C5.53967 10.6439 4.21897 11.9646 4.21897 13.5878C4.21897 13.6444 4.22004 13.7008 4.22271 13.7563C4.2438 14.1789 3.91836 14.5377 3.49627 14.5588L3.49619 14.5588C3.48314 14.5593 3.47008 14.5599 3.45756 14.5599L3.45754 14.56ZM32.2315 9.77242H28.7403C28.3177 9.77242 27.9749 9.42937 27.9749 9.00703C27.9749 8.58441 28.318 8.24163 28.7403 8.24163H32.2315C32.6541 8.24163 32.9969 8.58469 32.9969 9.00703C32.9972 9.42938 32.6546 9.77242 32.2315 9.77242ZM26.7682 5.59954L27.8505 6.68185L30.5499 3.98331C30.8486 3.6843 30.8486 3.19946 30.5501 2.90045C30.2511 2.60171 29.7663 2.60198 29.4673 2.90019L26.7682 5.59954Z" fill="#00A4B3"/>
</svg>
