<svg viewBox="0 0 38 38" fill="none" xmlns="http://www.w3.org/2000/svg">
<path d="M8.55029 23.5435C8.55029 15.8115 14.8183 9.54346 22.5503 9.54346C30.2823 9.54346 36.5503 15.8115 36.5503 23.5435C36.5503 31.2754 30.2823 37.5435 22.5503 37.5435C14.8183 37.5435 8.55029 31.2754 8.55029 23.5435Z" fill="#D1EEF2"/>
<path d="M26.8932 28.4607C25.6951 28.4607 24.5411 28.8878 23.6434 29.6633L23.399 29.8744L23.1287 29.6954C22.5139 29.2882 21.7864 29.0606 21.0252 29.0374C19.2774 28.9841 17.3868 29.9749 15.7055 31.8191C13.6791 34.0418 11.4789 35.1877 9.16605 35.2259C6.51496 35.2246 4.59842 34.6697 3.46894 33.5765C2.97737 33.1002 2.30515 32.3445 2.14059 31.2786C1.97184 30.1833 2.35417 29.0053 3.31069 27.677L3.57678 27.3073L3.92829 27.6018C4.11666 27.7597 4.35544 27.8464 4.60122 27.8464C4.87501 27.8464 5.1355 27.7412 5.33436 27.5499L7.70886 25.2506L7.95814 25.3381C9.18145 25.7658 10.6589 25.992 12.2303 25.992C14.2764 25.992 16.396 25.5998 18.0443 24.9151C18.5709 24.6958 18.8258 24.0959 18.6115 23.578L18.4554 23.1987L18.844 23.045C23.1399 21.345 26.1376 19.6375 28.0087 17.824L28.0822 17.7523C28.774 17.0847 29.7214 16.1711 29.3356 14.5982C29.323 14.5463 29.3083 14.4923 29.2929 14.437L29.2271 14.1992L29.4112 14.0311C30.0968 13.4038 30.4749 12.5573 30.4749 11.6478C30.4749 9.84051 28.9596 8.37008 27.0963 8.37008C25.2329 8.37008 23.7176 9.84051 23.7176 11.6478C23.7176 13.4551 25.2329 14.9255 27.0963 14.9255C27.1768 14.9255 27.265 14.9214 27.3659 14.9139L27.835 14.8777L27.8182 15.3369C27.8049 15.7038 27.6025 16.0065 26.9527 16.6324L26.8757 16.7068C25.1622 18.3665 22.3536 19.9565 18.2908 21.5677L17.9218 21.714L17.7523 21.3621C17.578 21.0006 17.2012 20.7676 16.7909 20.7676C16.6943 20.7676 16.5997 20.7799 16.5101 20.8045C16.4912 20.81 14.275 21.4024 12.1792 21.4024C10.4734 21.4024 9.72484 21.0245 9.39783 20.7068C9.34321 20.6535 9.28509 20.6023 9.22067 20.5483L9.17935 20.5086C9.12403 20.4458 9.07082 20.3897 9.0085 20.3289C8.45321 19.7919 8.21793 18.6877 8.30966 17.0478C8.38599 15.6819 8.68009 14.2614 8.90836 13.4606C9.04141 12.9966 8.83554 12.5108 8.4077 12.2785L8.06738 12.094L8.23054 11.7489C9.71083 8.61333 11.7114 5.66154 13.5831 3.8522L13.6609 3.77704C14.1629 3.28849 14.5565 2.94274 15.0515 2.94274C15.111 2.94274 15.1769 2.94753 15.2476 2.95778L15.6474 3.01381L15.6061 3.40533C15.5942 3.51465 15.5886 3.62603 15.5886 3.73672C15.5886 5.52215 17.0864 6.97481 18.9266 6.97481C20.7668 6.97481 22.2646 5.52283 22.2646 3.73741C22.2646 1.95198 20.7689 0.5 18.928 0.5C18.0394 0.5 17.2026 0.836176 16.5717 1.44772L16.4002 1.61375L16.167 1.55294C16.034 1.5181 15.9072 1.48735 15.7679 1.45523C15.5235 1.3992 15.2833 1.37051 15.0536 1.37051C13.8534 1.37051 13.0215 2.1802 12.5244 2.66396L12.448 2.73776C10.4181 4.70357 8.26905 7.88426 6.69982 11.2467L6.53177 11.6068L6.06611 11.4189C5.93377 11.3649 5.79512 11.3383 5.65367 11.3383C5.22863 11.3383 4.8456 11.5836 4.67614 11.9642C3.37021 14.9153 3.19445 18.9439 4.249 21.7625L4.34143 22.0091L1.98304 24.294C1.94453 24.3303 1.90812 24.3699 1.87661 24.4081C1.53839 24.8113 1.57831 25.4119 1.96764 25.7754L2.42559 26.2031L2.20502 26.4935C0.993609 28.0883 0.422918 29.6271 0.508347 31.0654C0.586773 32.3732 1.20158 33.5936 2.33596 34.6923C3.79735 36.1074 6.0297 36.7961 9.15975 36.7975H9.16465C11.9635 36.7551 14.567 35.4316 16.9085 32.8631C18.2159 31.4296 19.6668 30.6069 20.8894 30.6069C20.9181 30.6069 20.9461 30.6069 20.9748 30.6083C21.4223 30.6226 21.8298 30.7429 22.1841 30.967L22.474 31.1501L22.3459 31.4631C22.119 32.0193 22.0035 32.6042 22.0035 33.202C22.0035 35.8163 24.1973 37.9433 26.8932 37.9433C29.5891 37.9433 31.7829 35.8163 31.7829 33.202C31.7829 30.5878 29.5891 28.4607 26.8932 28.4607ZM27.0977 13.3533C26.1229 13.3533 25.3296 12.588 25.3296 11.6471C25.3296 10.7062 26.1229 9.94095 27.0977 9.94095C28.0724 9.94095 28.8658 10.7062 28.8658 11.6471C28.8658 12.588 28.0724 13.3533 27.0977 13.3533ZM18.928 2.07156C19.8803 2.07156 20.6555 2.81907 20.6555 3.73809C20.6555 4.65711 19.8803 5.40462 18.928 5.40462C17.9757 5.40462 17.2005 4.65711 17.2005 3.73809C17.2005 2.81907 17.9757 2.07156 18.928 2.07156ZM5.99189 22.2872L5.76641 21.854C5.7475 21.8185 5.7279 21.7782 5.70969 21.7386C4.69995 19.524 4.68035 15.9163 5.66348 13.1606L5.80632 12.7609L6.21106 12.9132C6.6228 13.0677 6.95401 13.1845 7.15918 13.2549L7.5149 13.3772L7.42877 13.7352C7.2439 14.5053 6.933 16.0249 6.9246 17.5452C6.91549 19.2924 7.29362 20.549 8.04847 21.2794C8.09259 21.3224 8.1311 21.3648 8.17242 21.4167L8.22493 21.4816L8.29286 21.5329C8.34607 21.5725 8.39019 21.6101 8.4371 21.6559C9.18846 22.3829 10.4125 22.7362 12.1792 22.7362C13.7687 22.7362 15.4009 22.4287 16.2321 22.2456L16.5941 22.1656L16.7202 22.5066C16.8399 22.8304 16.9534 23.1277 17.0689 23.414L17.2293 23.813L16.814 23.9517C15.4409 24.4102 13.8128 24.6623 12.2303 24.6623C10.6477 24.6623 9.10723 24.4006 7.95114 23.9053C7.92873 23.8964 7.89442 23.8807 7.86011 23.8649L7.42106 23.6545L4.59912 26.3876L3.15383 25.0375L5.99329 22.2872H5.99189ZM26.8932 36.3725C25.0852 36.3725 23.614 34.9512 23.614 33.2041C23.614 31.4569 25.0852 30.0343 26.8932 30.0343C28.7012 30.0343 30.1724 31.4556 30.1724 33.2027C30.1724 34.9499 28.7012 36.3725 26.8932 36.3725Z" fill="#00A4B3"/>
</svg>
