<svg viewBox="0 0 38 38" fill="none" xmlns="http://www.w3.org/2000/svg">
<path d="M8.96875 23.4736C8.96875 15.7416 15.2368 9.47363 22.9688 9.47363C30.7007 9.47363 36.9688 15.7416 36.9688 23.4736C36.9688 31.2056 30.7007 37.4736 22.9688 37.4736C15.2368 37.4736 8.96875 31.2056 8.96875 23.4736Z" fill="#D1EEF2"/>
<path d="M9.62193 18.3494C9.23997 18.3494 8.92944 18.6547 8.92944 19.0302C8.92944 19.4058 9.23997 19.7111 9.62193 19.7111H12.1732C12.5551 19.7111 12.8657 19.4058 12.8657 19.0302C12.8657 18.6547 12.5551 18.3494 12.1732 18.3494H9.62193Z" fill="#00A4B3"/>
<path d="M22.378 8.31567H19.8268C19.4448 8.31567 19.1343 8.62099 19.1343 8.99654C19.1343 9.3721 19.4448 9.67741 19.8268 9.67741H22.378C22.76 9.67741 23.0705 9.3721 23.0705 8.99654C23.0705 8.62099 22.76 8.31567 22.378 8.31567Z" fill="#00A4B3"/>
<path d="M19.8268 18.3494C19.4448 18.3494 19.1343 18.6547 19.1343 19.0302C19.1343 19.4058 19.4448 19.7111 19.8268 19.7111H22.378C22.76 19.7111 23.0705 19.4058 23.0705 19.0302C23.0705 18.6547 22.76 18.3494 22.378 18.3494H19.8268Z" fill="#00A4B3"/>
<path d="M23.0705 14.0134C23.0705 13.6378 22.76 13.3325 22.378 13.3325H19.8268C19.4448 13.3325 19.1343 13.6378 19.1343 14.0134C19.1343 14.3889 19.4448 14.6943 19.8268 14.6943H22.378C22.76 14.6943 23.0705 14.3889 23.0705 14.0134Z" fill="#00A4B3"/>
<path d="M12.1732 8.31567H9.62193C9.23997 8.31567 8.92944 8.62099 8.92944 8.99654C8.92944 9.3721 9.23997 9.67741 9.62193 9.67741H12.1732C12.5551 9.67741 12.8657 9.3721 12.8657 8.99654C12.8657 8.62099 12.5551 8.31567 12.1732 8.31567Z" fill="#00A4B3"/>
<path d="M12.8657 14.0134C12.8657 13.6378 12.5551 13.3325 12.1732 13.3325H9.62193C9.23997 13.3325 8.92944 13.6378 8.92944 14.0134C8.92944 14.3889 9.23997 14.6943 9.62193 14.6943H12.1732C12.5551 14.6943 12.8657 14.3889 12.8657 14.0134Z" fill="#00A4B3"/>
<path d="M31.4205 28.4815C31.7565 28.427 31.9993 28.1446 31.9993 27.8107V7.74223C31.9993 7.36668 31.6887 7.06136 31.3068 7.06136H26.8968V2.7253C26.8968 2.51459 26.7998 2.32037 26.6307 2.19064C26.4594 2.05805 26.2436 2.0129 26.0374 2.06379L15.9993 4.53212L5.96118 2.06379C5.91089 2.0516 5.85913 2.04515 5.80811 2.04444C5.65139 2.04085 5.4954 2.09245 5.37221 2.18849C5.20018 2.32037 5.10323 2.51531 5.10323 2.7253V7.06136H0.692483C0.310524 7.06136 0 7.36668 0 7.74223V27.8099C0 28.1439 0.243462 28.4263 0.57877 28.4808L15.887 30.9893C15.9636 31.0021 16.0372 31.0021 16.1093 30.9893L31.4212 28.4801L31.4205 28.4815ZM16.6925 5.76628L25.5125 3.59825V22.2612L16.6925 24.4293V5.76628ZM6.48747 3.59825L15.3075 5.76628V24.4293L6.48747 22.2612V3.59825ZM15.9045 29.6125L1.38497 27.2323V8.99647C1.38497 8.71982 1.59781 8.42454 1.99144 8.4231H2.33986H5.10251V22.793C5.10251 23.1069 5.31827 23.3786 5.62734 23.4545L15.8331 25.963C15.9366 25.9888 16.0467 25.9888 16.1589 25.963C16.1764 25.9587 16.1939 25.9551 16.2114 25.953L26.3727 23.4553C26.6825 23.3793 26.8982 23.1077 26.8982 22.7937V8.4231H30.6158V27.2323L16.0007 29.6282L15.9045 29.6125Z" fill="#00A4B3"/>
</svg>
