<svg viewBox="0 0 38 38" fill="none" xmlns="http://www.w3.org/2000/svg">
<path d="M8.79602 22.978C8.79602 15.246 15.064 8.97803 22.796 8.97803C30.528 8.97803 36.796 15.246 36.796 22.978C36.796 30.71 30.528 36.978 22.796 36.978C15.064 36.978 8.79602 30.71 8.79602 22.978Z" fill="#D1EEF2"/>
<path d="M1.51101 13.6335C1.68635 13.7341 1.89994 13.7618 2.09696 13.7096C2.29334 13.6568 2.46294 13.526 2.56304 13.3513C2.66314 13.1765 2.68801 12.9652 2.6319 12.7729C2.27485 11.4803 2.26401 10.1154 2.60002 8.82529C2.94687 7.49434 3.65842 6.26965 4.65817 5.28386C6.14312 3.82026 8.10946 3.01427 10.195 3.01364C12.2812 3.01364 14.2469 3.81963 15.7306 5.2826L17.7881 7.30951C17.9303 7.44971 18.1279 7.53081 18.3288 7.53081C18.5296 7.53081 18.7273 7.45033 18.8701 7.31014L20.9263 5.28323C22.4158 3.8146 24.3821 3.00547 26.4619 3.00547C28.543 3.00547 30.51 3.81523 32 5.28448C32.9992 6.27028 33.7107 7.49434 34.0576 8.82592C34.3936 10.116 34.3834 11.4796 34.0276 12.7685L34.0161 12.8093C33.9721 12.9891 34.0002 13.1872 34.0945 13.3519C34.194 13.5267 34.3642 13.6574 34.5606 13.7102C34.757 13.763 34.9706 13.7354 35.1466 13.6342C35.3225 13.5336 35.4526 13.3638 35.503 13.1696C36.3822 9.9846 35.4545 6.5557 33.0827 4.21696L33.0451 4.17987C29.3961 0.620207 23.4742 0.635925 19.8437 4.21508L18.3288 5.70885L16.8126 4.21508C15.0382 2.46731 12.688 1.50415 10.1944 1.50415C7.69885 1.50415 5.34804 2.46794 3.5749 4.21633C1.20305 6.55507 0.275357 9.98397 1.15332 13.1639C1.20497 13.3619 1.33504 13.5323 1.51101 13.6335Z" fill="#00A4B3"/>
<path d="M34.7516 15.827H34.7452H23.3993C23.1461 15.827 22.9096 15.9502 22.7668 16.1565L20.2024 19.8689L17.2688 11.3778C17.2191 11.2332 17.1273 11.1087 17.0029 11.0169C16.8792 10.9251 16.732 10.8735 16.577 10.8673L16.5101 10.8647C16.2723 10.871 16.0529 10.9911 15.9127 11.1942L12.7132 15.8251H1.77404C1.57192 15.8226 1.37108 15.9018 1.22635 16.0439C1.08225 16.1848 1 16.3796 1 16.5796C1 16.7795 1.08225 16.9744 1.22635 17.1152C1.37172 17.2579 1.56937 17.3378 1.76894 17.334H13.1174C13.3706 17.334 13.6071 17.2108 13.7499 17.0046L16.3143 13.2921L19.2479 21.7833C19.3097 21.9618 19.4353 22.1102 19.6024 22.2013C19.7694 22.2925 19.9639 22.3183 20.1495 22.2749C20.335 22.2315 20.4969 22.1215 20.6047 21.9662L23.8041 17.3359H34.7427C34.9486 17.3359 35.1488 17.256 35.2904 17.1171C35.4345 16.9763 35.5167 16.7814 35.5167 16.5815C35.5167 16.3815 35.4345 16.1866 35.2904 16.0458C35.1482 15.9069 34.9518 15.827 34.7516 15.827Z" fill="#00A4B3"/>
<path d="M29.1625 19.3107C28.9553 19.3113 28.7615 19.3918 28.6168 19.5364L18.3279 29.6835L8.0391 19.5382C7.89373 19.3911 7.69289 19.3069 7.48695 19.3069H7.44805C7.26251 19.3144 7.07761 19.3955 6.94308 19.5301C6.80026 19.6722 6.71992 19.8683 6.72184 20.0682C6.72375 20.2682 6.80855 20.4631 6.95392 20.6026L17.7866 31.2848C17.9288 31.425 18.1265 31.5054 18.3279 31.5054C18.5294 31.5054 18.7264 31.425 18.8692 31.2848L29.2327 21.0641L29.4762 20.8201L29.6988 20.6045C29.8435 20.4643 29.9264 20.2694 29.9277 20.0695C29.9283 19.8696 29.8467 19.674 29.7039 19.5326C29.5617 19.3924 29.364 19.3119 29.1625 19.3119V19.3107Z" fill="#00A4B3"/>
</svg>
