<svg viewBox="0 0 38 38" fill="none" xmlns="http://www.w3.org/2000/svg">
<path d="M9.3125 23.1875C9.3125 15.4555 15.5805 9.1875 23.3125 9.1875C31.0445 9.1875 37.3125 15.4555 37.3125 23.1875C37.3125 30.9195 31.0445 37.1875 23.3125 37.1875C15.5805 37.1875 9.3125 30.9195 9.3125 23.1875Z" fill="#D1EEF2"/>
<path d="M35.276 17.7149L35.1923 17.5322H35.1947L29.1207 4.08073C29.0003 3.80898 28.7317 3.63422 28.4359 3.63422H21.4922L21.4691 3.54444C21.0418 1.87704 19.551 0.713867 17.8441 0.713867C16.1373 0.713867 14.6465 1.87704 14.2192 3.54364L14.1961 3.63342H7.25239C6.95264 3.63342 6.68398 3.79856 6.56758 4.05428L0.413905 17.6748L0.408324 17.6957C0.362883 17.8472 0.34375 17.9097 0.34375 18.0163C0.34375 21.8514 3.44251 24.9721 7.25239 24.9721C11.0623 24.9721 14.161 21.8602 14.161 18.034C14.161 17.9234 14.1395 17.8256 14.0933 17.7245L8.41791 5.1461H14.1658L14.1857 5.2423C14.4759 6.65799 15.5801 7.78829 16.9991 8.12177L17.0916 8.14341V26.5177H13.0832C11.6642 26.5177 10.4652 27.7233 10.4652 29.1502V30.9916C10.4652 31.3892 10.8183 31.7131 11.2528 31.7131H24.3494C24.7839 31.7131 25.137 31.3892 25.137 30.9916V29.1502C25.137 27.7233 23.938 26.5177 22.519 26.5177H18.5975V8.14341L18.69 8.12177C20.1011 7.78829 21.206 6.65799 21.5041 5.2415L21.5241 5.1461H27.2712L27.2457 5.20302L21.5966 17.7229C21.552 17.8207 21.5289 17.925 21.5289 18.0324C21.5289 21.8626 24.6276 24.9793 28.4375 24.9793C32.2474 24.9793 35.3461 21.8634 35.3461 18.0324C35.3461 17.9185 35.323 17.8119 35.2784 17.7141L35.276 17.7149ZM12.5754 18.9647C12.1433 21.5507 9.85529 23.5011 7.25239 23.5019C4.65348 23.5019 2.36149 21.5515 1.92064 18.9655L1.89672 18.8252H12.5993L12.5762 18.9655L12.5754 18.9647ZM12.2421 17.3117H2.26264L7.25239 6.25637L12.2421 17.3117ZM22.5166 28.0312C23.1097 28.0312 23.6303 28.5546 23.6303 29.151V30.2004H11.9687V29.151C11.9687 28.5546 12.4893 28.0312 13.0824 28.0312H22.5166ZM17.8441 6.71089C16.6148 6.71089 15.6143 5.70484 15.6143 4.46872C15.6143 3.2326 16.6148 2.22655 17.8441 2.22655C19.0735 2.22655 20.074 3.2326 20.074 4.46872C20.074 5.70484 19.0735 6.71089 17.8441 6.71089ZM23.4709 17.254L28.4351 6.25556L33.4249 17.3109H23.4446L23.4701 17.254H23.4709ZM33.7581 18.9639C33.326 21.5499 31.038 23.5003 28.4351 23.5011C25.8362 23.5011 23.5442 21.5507 23.1034 18.9647L23.0794 18.8244H33.782L33.7589 18.9647L33.7581 18.9639Z" fill="#00A4B3"/>
</svg>
