<svg viewBox="0 0 38 38" fill="none" xmlns="http://www.w3.org/2000/svg">
<path d="M8.64648 23.5532C8.64648 15.8212 14.9145 9.55322 22.6465 9.55322C30.3785 9.55322 36.6465 15.8212 36.6465 23.5532C36.6465 31.2852 30.3785 37.5532 22.6465 37.5532C14.9145 37.5532 8.64648 31.2852 8.64648 23.5532Z" fill="#D1EEF2"/>
<path d="M31.57 33.9H31.59H35.69C35.79 33.9 35.9 33.87 35.99 33.82C36.16 33.74 36.28 33.6 36.34 33.43C36.4 33.26 36.39 33.08 36.31 32.92L34.32 28.94V21.91H34.3V21.75C34.3 21.49 34.16 21.25 33.92 21.14L20.8 14.54C20.61 14.44 20.38 14.43 20.19 14.54L11.26 19.02H1.38V12.21L1.65 12.44C2.51 13.18 3.6 13.59 4.73 13.59H7.03V14.69C7.03 15.07 7.34 15.37 7.71 15.37C7.89 15.37 8.06 15.3 8.19 15.17C8.32 15.04 8.39 14.87 8.39 14.69V13.59H14.84V14.69C14.84 15.07 15.15 15.37 15.52 15.37C15.7 15.37 15.87 15.3 16 15.17C16.13 15.04 16.2 14.87 16.2 14.69V13.59H18.33C19.47 13.59 20.58 13.18 21.44 12.43L21.71 12.19V13.26C21.71 13.64 22.02 13.94 22.39 13.94C22.57 13.94 22.75 13.87 22.87 13.74C23 13.61 23.07 13.44 23.07 13.26V4.59001C23.07 4.41001 23 4.24001 22.87 4.11001C22.74 3.98001 22.57 3.91001 22.39 3.91001H15.24H8.82V1.94001C8.82 1.80001 8.87 1.66001 8.97 1.55001C9.08 1.44001 9.22 1.39001 9.37 1.39001C9.37 1.39001 9.37 1.39001 9.38 1.39001H14.15C14.29 1.39001 14.44 1.44001 14.54 1.55001C14.65 1.65001 14.71 1.79001 14.71 1.94001C14.71 2.30001 15 2.59001 15.36 2.59001H15.44C15.8 2.59001 16.08 2.30001 16.08 1.94001C16.08 1.43001 15.87 0.93001 15.51 0.58001C15.16 0.22001 14.67 0.0100098 14.16 0.0100098H9.36C8.85 0.0100098 8.36 0.22001 8 0.58001C7.64 0.94001 7.43 1.44001 7.43 1.95001V3.92001H0.69C0.31 3.91001 0 4.21001 0 4.59001V8.86001C0 8.86001 0 8.90001 0 8.92001V8.99001V19.72C0 20.1 0.31 20.4 0.68 20.4H8.51L6.98 21.17C6.89 21.23 6.81 21.32 6.76 21.42C6.59 21.76 6.73 22.17 7.06 22.34L20.2 28.94C20.39 29.05 20.62 29.05 20.81 28.94L29.71 24.47V24.55L29.69 29.55L29.62 29.6C27.26 31.15 23.76 32.07 20.27 32.07C16.78 32.07 13.76 31.23 11.25 29.59L11.18 29.54V26.03C11.18 25.85 11.11 25.68 10.98 25.55C10.85 25.42 10.68 25.35 10.5 25.35C10.12 25.35 9.82 25.66 9.82 26.03V30.26L10.11 30.47C13.62 32.95 17.58 33.47 20.28 33.47C24.26 33.47 28.2 32.35 30.81 30.46L31.09 30.25V23.78L32.96 22.84V29L32.94 29.02L31 32.86C30.94 32.97 30.9 33.09 30.9 33.22C30.9 33.59 31.21 33.9 31.58 33.9H31.57ZM1.38 5.27001H21.74V8.86001C21.74 9.75001 21.37 10.61 20.74 11.23C20.11 11.87 19.26 12.22 18.37 12.22H16.23V11.25C16.23 11.07 16.16 10.9 16.03 10.77C15.9 10.64 15.73 10.57 15.55 10.57C15.17 10.57 14.87 10.88 14.87 11.25V12.22H8.42V11.25C8.42 11.07 8.35 10.9 8.22 10.77C8.09 10.64 7.92 10.57 7.74 10.57C7.36 10.57 7.06 10.88 7.06 11.25V12.22H4.74C3.84 12.22 3 11.86 2.37 11.23C1.83 10.69 1.49 9.97001 1.41 9.21001V5.28001L1.38 5.27001ZM32 21.79L30.18 22.7V22.68C30.1 22.71 30.02 22.75 29.95 22.81L29.92 22.83L20.5 27.57L20.43 27.53L8.9 21.74L8.99 21.7L11.65 20.36C11.71 20.34 11.76 20.31 11.8 20.28H11.81L20.49 15.9L20.56 15.94L32.08 21.74L31.99 21.78L32 21.79ZM32.72 32.45L33.64 30.63L33.68 30.72L34.57 32.52H32.67L32.71 32.45H32.72Z" fill="#00A4B3"/>
</svg>
