<svg viewBox="0 0 38 38" fill="none" xmlns="http://www.w3.org/2000/svg">
<path d="M8.96875 23C8.96875 15.268 15.2368 9 22.9688 9C30.7007 9 36.9687 15.268 36.9687 23C36.9687 30.732 30.7007 37 22.9687 37C15.2368 37 8.96875 30.732 8.96875 23Z" fill="#D1EEF2"/>
<path fill-rule="evenodd" clip-rule="evenodd" d="M11.6863 13.6302C12.0835 13.5619 12.3542 13.1778 12.2937 12.7679C12.2133 12.2589 12.1727 11.7439 12.1724 11.2284C12.1724 7.93825 13.878 4.89845 16.6466 3.25311C19.4153 1.60777 22.8264 1.60808 25.5953 3.25311C28.3643 4.89814 30.0699 7.93802 30.0699 11.2284C30.0763 13.1959 29.4633 15.1129 28.3222 16.692C28.1574 16.9243 28.1325 17.232 28.2579 17.4889C28.3833 17.7461 28.6379 17.9094 28.9174 17.9124C29.1527 17.913 29.3739 17.7975 29.5125 17.6017C30.8369 15.7575 31.5454 13.5217 31.5323 11.2284C31.5261 8.23185 30.302 5.37455 28.1565 3.34858C26.011 1.32261 23.1398 0.312937 20.2382 0.563815C17.3365 0.814678 14.6693 2.30333 12.8822 4.66904C11.0953 7.03483 10.3518 10.0623 10.8314 13.0178C10.9057 13.4281 11.2865 13.7009 11.6864 13.6302L11.6863 13.6302ZM6.41081 17.0326L2.68135 19.732C2.60068 19.7904 2.50876 19.8316 2.4123 19.853L1.78588 20.0258C1.59268 20.0755 1.38807 20.0433 1.21795 19.9359C1.04812 19.8288 0.927403 19.6555 0.882973 19.4558C0.83854 19.2558 0.873911 19.0458 0.981769 18.8732C1.08934 18.7008 1.25945 18.5802 1.45471 18.5384L1.94292 18.3998L5.60104 15.7477L5.6975 15.6873C7.02571 15.0069 8.55691 14.8757 9.97603 15.3209L22.0695 19.0941C22.8269 19.3292 23.4273 19.9263 23.6816 20.6973C23.9362 21.468 23.8137 22.318 23.3524 22.9795C22.8912 23.6409 22.1479 24.0328 21.3569 24.0316H21.202L13.5802 23.5356C13.1707 23.5082 12.8603 23.1443 12.8869 22.7225C12.8998 22.5201 12.9901 22.3312 13.1383 22.1973C13.2862 22.0635 13.48 21.9958 13.6767 22.009L21.2865 22.5048C21.7799 22.542 22.2213 22.1901 22.3095 21.6893C22.3978 21.1881 22.1049 20.6994 21.6302 20.5559L9.53674 16.7827C8.50149 16.4575 7.38478 16.5469 6.41081 17.0326ZM35.2405 17.8954C35.8763 18.1634 36.396 18.6597 36.7029 19.2923C37.0303 19.9676 37.0897 20.7471 36.8685 21.4667C36.6472 22.1859 36.1625 22.7886 35.5171 23.1472L21.4958 30.9438C20.2848 31.6224 18.8429 31.7127 17.5609 31.1896C9.44811 27.9208 5.74789 26.5023 4.87218 26.2261L3.05478 27.0339C2.6809 27.2066 2.24216 27.0348 2.07438 26.6501C1.9066 26.2657 2.0735 25.8139 2.44706 25.6412L4.49508 24.7212C4.58774 24.6791 4.68712 24.6557 4.78855 24.6523L4.7908 24.6524C5.02982 24.6565 5.45693 24.6638 18.1013 29.7622C18.9785 30.1163 19.9627 30.0546 20.7916 29.5941L34.8085 21.8021C35.2004 21.5756 35.4568 21.1629 35.4913 20.7015C35.5261 20.2404 35.3346 19.7919 34.9809 19.5061C34.6276 19.2204 34.1587 19.1353 33.7314 19.2793L26.0255 22.009C25.6382 22.1435 25.2176 21.932 25.0828 21.5347C25.0177 21.3431 25.0296 21.1328 25.1162 20.9505C25.203 20.768 25.3567 20.629 25.5438 20.5643L33.2459 17.8349C33.8959 17.6057 34.6048 17.6271 35.2405 17.8954ZM21.6182 15.8606C21.489 15.9935 21.3136 16.0678 21.131 16.0666C20.7647 16.0693 20.4616 15.7746 20.4438 15.3983V14.6736C19.8789 14.5416 19.3767 14.211 19.0233 13.7387C18.6699 13.2665 18.4875 12.682 18.508 12.0865C18.508 11.6957 18.8155 11.3793 19.1951 11.3793C19.5745 11.3793 19.8823 11.6957 19.8823 12.0865V12.0862C19.8823 13.216 20.951 13.3799 21.2777 13.3799C21.6118 13.3628 21.9301 13.2271 22.1786 12.9964C22.3055 12.8911 22.3791 12.7326 22.3797 12.565L22.3794 12.5647C22.3794 12.0474 22.3794 11.6765 21.0176 11.3402C19.2118 10.8963 18.776 9.83119 18.7298 9.01179C18.7202 8.3645 18.9683 7.74096 19.417 7.28706C19.6991 7.00431 20.0566 6.81511 20.4439 6.74352V6.07094C20.4439 5.68021 20.7514 5.36377 21.1311 5.36377C21.5105 5.36377 21.8183 5.68021 21.8183 6.07094V6.84698C22.2716 6.96039 22.6829 7.20704 23.002 7.55716C23.3215 7.90699 23.5346 8.34524 23.6159 8.81779C23.6618 9.00729 23.6293 9.20763 23.5264 9.37186C23.4235 9.53579 23.2596 9.64889 23.0728 9.68409C22.8863 9.71929 22.6937 9.67356 22.5411 9.55745C22.3885 9.44165 22.2891 9.26598 22.2666 9.07227C22.2659 9.06878 22.2651 9.06515 22.2643 9.06138C22.2203 8.85058 22.0863 8.20841 20.9089 8.12774C20.7066 8.09796 20.502 8.16624 20.3558 8.31333C20.196 8.47842 20.0992 8.69733 20.0834 8.92976C20.0856 8.94567 20.0876 8.96271 20.0896 8.98073C20.1187 9.23628 20.1705 9.69075 21.3406 9.96467C22.5937 10.258 23.7585 10.7886 23.7585 12.5522C23.7552 13.1053 23.5255 13.6314 23.1256 14.0011C22.757 14.3488 22.3063 14.5912 21.8182 14.704V15.3595C21.8193 15.5471 21.7471 15.7279 21.6182 15.8606Z" fill="#00A4B3"/>
</svg>
