<svg viewBox="0 0 49 49" fill="none" xmlns="http://www.w3.org/2000/svg">
<path fill-rule="evenodd" clip-rule="evenodd" d="M35.0843 22.274H34.5242V6.4994C34.5242 3.4566 32.0692 0.980469 29.0523 0.980469H6.43253C3.4157 0.980469 0.960693 3.4566 0.960693 6.4994V39.9606C0.960693 43.0034 3.4157 45.4795 6.43253 45.4795H26.7714L26.9256 45.6056C29.2333 47.4863 32.1312 48.5215 35.0843 48.5215C42.2589 48.5215 48.0961 42.634 48.0961 35.3977C48.0961 28.1614 42.2589 22.274 35.0843 22.274ZM6.43253 43.5675C4.46095 43.5675 2.85645 41.9492 2.85645 39.9606V6.4994C2.85645 4.51084 4.46095 2.89254 6.43253 2.89254H29.0523C31.0239 2.89254 32.6284 4.51084 32.6284 6.4994V22.513L32.1933 22.6129C29.3669 23.263 26.799 24.8813 24.9627 27.1689C23.0988 29.4903 22.0725 32.4131 22.0725 35.3986C22.0725 38.0033 22.8334 40.5247 24.2733 42.6888L24.8584 43.5683H6.43253V43.5675ZM35.0843 46.6094C28.955 46.6094 23.9683 41.5798 23.9683 35.3977C23.9683 29.2156 28.955 24.186 35.0843 24.186C41.2136 24.186 46.2003 29.2156 46.2003 35.3977C46.2003 41.5798 41.2136 46.6094 35.0843 46.6094ZM7.79092 19.4216H27.3948C27.9178 19.4216 28.3426 18.9932 28.3426 18.4656V7.81886C28.3426 7.2913 27.9178 6.86282 27.3948 6.86282H7.79092C7.26787 6.86282 6.84305 7.2913 6.84305 7.81886V18.4656C6.84305 18.9932 7.26787 19.4216 7.79092 19.4216ZM8.7388 8.77489H26.4469V17.5096H8.7388V8.77489ZM7.79092 23.5295H10.8069C11.33 23.5295 11.7548 23.958 11.7548 24.4855C11.7548 25.0131 11.33 25.4416 10.8069 25.4416H7.79092C7.26787 25.4416 6.84305 25.0131 6.84305 24.4855C6.84305 23.958 7.26787 23.5295 7.79092 23.5295ZM19.6304 23.5295H16.6145C16.0914 23.5295 15.6666 23.958 15.6666 24.4855C15.6666 25.0131 16.0914 25.4416 16.6145 25.4416H19.6304C20.1535 25.4416 20.5783 25.0131 20.5783 24.4855C20.5783 23.958 20.1535 23.5295 19.6304 23.5295ZM7.79092 29.4118H10.8069C11.33 29.4118 11.7548 29.8403 11.7548 30.3679C11.7548 30.8954 11.33 31.3239 10.8069 31.3239H7.79092C7.26787 31.3239 6.84305 30.8954 6.84305 30.3679C6.84305 29.8403 7.26787 29.4118 7.79092 29.4118ZM18.8764 29.4118H16.6145C16.0914 29.4118 15.6666 29.8403 15.6666 30.3679C15.6666 30.8954 16.0914 31.3239 16.6145 31.3239H18.8764C19.3995 31.3239 19.8243 30.8954 19.8243 30.3679C19.8243 29.8403 19.3995 29.4118 18.8764 29.4118ZM7.79092 36.2746H10.8069C11.33 36.2746 11.7548 36.7031 11.7548 37.2306C11.7548 37.7582 11.33 38.1867 10.8069 38.1867H7.79092C7.26787 38.1867 6.84305 37.7582 6.84305 37.2306C6.84305 36.7031 7.26787 36.2746 7.79092 36.2746ZM18.1224 36.2746H16.6145C16.0914 36.2746 15.6666 36.7031 15.6666 37.2306C15.6666 37.7582 16.0914 38.1867 16.6145 38.1867H18.1224C18.6455 38.1867 19.0703 37.7582 19.0703 37.2306C19.0703 36.7031 18.6455 36.2746 18.1224 36.2746ZM12.8618 11.7648H12.8687C13.4865 11.7648 13.9889 12.2715 13.9889 12.8946C13.9889 13.5178 13.4882 14.0245 12.8687 14.0245C12.2491 14.0245 11.745 13.5178 11.745 12.8946C11.745 12.2715 12.2465 11.7648 12.8618 11.7648ZM18.751 11.7648H18.7441C18.1289 11.7648 17.6274 12.2715 17.6274 12.8946C17.6274 13.5178 18.1315 14.0245 18.751 14.0245C19.3706 14.0245 19.8712 13.5178 19.8712 12.8946C19.8712 12.2715 19.3689 11.7648 18.751 11.7648ZM35.6494 42.2654C35.471 42.4406 35.2289 42.5386 34.9766 42.537C34.4709 42.5405 34.0525 42.1521 34.0279 41.6561V40.7011C33.2478 40.5271 32.5544 40.0914 32.0665 39.469C31.5786 38.8466 31.3267 38.0764 31.355 37.2914C31.355 36.7765 31.7796 36.3594 32.3038 36.3594C32.8277 36.3594 33.2526 36.7765 33.2526 37.2914V37.291C33.2526 38.78 34.7281 38.9961 35.1793 38.9961C35.6406 38.9735 36.0801 38.7947 36.4231 38.4907C36.5983 38.3519 36.7 38.143 36.7008 37.9222L36.7004 37.9218C36.7004 37.24 36.7004 36.7512 34.8201 36.308C32.3268 35.7229 31.7251 34.3192 31.6613 33.2393C31.648 32.3862 31.9906 31.5644 32.6101 30.9662C32.9996 30.5936 33.4932 30.3442 34.0279 30.2499V29.3634C34.0279 28.8485 34.4525 28.4314 34.9768 28.4314C35.5006 28.4314 35.9256 28.8485 35.9256 29.3634V30.3862C36.5515 30.5357 37.1193 30.8607 37.5601 31.3222C38.0012 31.7832 38.2954 32.3608 38.4076 32.9836C38.4709 33.2333 38.4261 33.4974 38.2841 33.7138C38.142 33.9299 37.9156 34.0789 37.6577 34.1253C37.4002 34.1717 37.1343 34.1114 36.9236 33.9584C36.7129 33.8058 36.5757 33.5743 36.5446 33.319C36.5436 33.3144 36.5426 33.3096 36.5415 33.3046C36.4807 33.0268 36.2956 32.1805 34.67 32.0742C34.3907 32.0349 34.1082 32.1249 33.9064 32.3187C33.6857 32.5363 33.5521 32.8248 33.5303 33.1312C33.5333 33.1521 33.536 33.1746 33.5388 33.1983C33.579 33.5351 33.6505 34.1341 35.2661 34.4951C36.9962 34.8816 38.6044 35.581 38.6044 37.9052C38.6 38.6341 38.2828 39.3275 37.7307 39.8147C37.2218 40.273 36.5994 40.5925 35.9254 40.7412V41.605C35.927 41.8523 35.8274 42.0906 35.6494 42.2654Z" fill="white"/>
</svg>
