<svg viewBox="0 0 38 38" fill="none" xmlns="http://www.w3.org/2000/svg">
<path d="M8.96875 23.4736C8.96875 15.7416 15.2368 9.47363 22.9688 9.47363C30.7007 9.47363 36.9687 15.7416 36.9687 23.4736C36.9687 31.2056 30.7007 37.4736 22.9687 37.4736C15.2368 37.4736 8.96875 31.2056 8.96875 23.4736Z" fill="#D1EEF2"/>
<path fill-rule="evenodd" clip-rule="evenodd" d="M23.2595 14.8848H22.8942V4.59872C22.8942 2.61461 21.2934 1 19.3262 1H4.57656C2.60938 1 1.00854 2.61461 1.00854 4.59872V26.4177C1.00854 28.4018 2.60938 30.0165 4.57656 30.0165H17.8389L17.9395 30.0986C19.4442 31.325 21.3339 32 23.2595 32C27.9378 32 31.744 28.161 31.744 23.4424C31.744 18.7238 27.9378 14.8848 23.2595 14.8848ZM4.57656 28.7697C3.29095 28.7697 2.24471 27.7144 2.24471 26.4177V4.59872C2.24471 3.30205 3.29095 2.2468 4.57656 2.2468H19.3262C20.6118 2.2468 21.6581 3.30205 21.6581 4.59872V15.0407L21.3743 15.1058C19.5313 15.5298 17.8569 16.585 16.6595 18.0766C15.4441 19.5904 14.7749 21.4963 14.7749 23.443C14.7749 25.1415 15.2711 26.7855 16.21 28.1967L16.5915 28.7702H4.57656V28.7697ZM23.2595 30.7532C19.2627 30.7532 16.0111 27.4735 16.0111 23.4424C16.0111 19.4113 19.2627 16.1316 23.2595 16.1316C27.2562 16.1316 30.5079 19.4113 30.5079 23.4424C30.5079 27.4735 27.2562 30.7532 23.2595 30.7532ZM5.55987 13.1563H18.3429C18.684 13.1563 18.961 12.8769 18.961 12.5329V5.59049C18.961 5.24649 18.684 4.96709 18.3429 4.96709H5.55987C5.2188 4.96709 4.94179 5.24649 4.94179 5.59049V12.5329C4.94179 12.8769 5.2188 13.1563 5.55987 13.1563ZM6.17795 6.21389H17.7248V11.9095H6.17795V6.21389ZM5.55987 15.8766H7.52649C7.86756 15.8766 8.14457 16.156 8.14457 16.5C8.14457 16.844 7.86756 17.1234 7.52649 17.1234H5.55987C5.2188 17.1234 4.94179 16.844 4.94179 16.5C4.94179 16.156 5.2188 15.8766 5.55987 15.8766ZM12.9347 15.8766H10.9681C10.627 15.8766 10.35 16.156 10.35 16.5C10.35 16.844 10.627 17.1234 10.9681 17.1234H12.9347C13.2758 17.1234 13.5528 16.844 13.5528 16.5C13.5528 16.156 13.2758 15.8766 12.9347 15.8766ZM5.55987 19.8437H7.52649C7.86756 19.8437 8.14457 20.1231 8.14457 20.4671C8.14457 20.8111 7.86756 21.0905 7.52649 21.0905H5.55987C5.2188 21.0905 4.94179 20.8111 4.94179 20.4671C4.94179 20.1231 5.2188 19.8437 5.55987 19.8437ZM12.443 19.8437H10.9681C10.627 19.8437 10.35 20.1231 10.35 20.4671C10.35 20.8111 10.627 21.0905 10.9681 21.0905H12.443C12.7841 21.0905 13.0611 20.8111 13.0611 20.4671C13.0611 20.1231 12.7841 19.8437 12.443 19.8437ZM5.55987 23.8108H7.52649C7.86756 23.8108 8.14457 24.0902 8.14457 24.4342C8.14457 24.7782 7.86756 25.0576 7.52649 25.0576H5.55987C5.2188 25.0576 4.94179 24.7782 4.94179 24.4342C4.94179 24.0902 5.2188 23.8108 5.55987 23.8108ZM11.9514 23.8108H10.9681C10.627 23.8108 10.35 24.0902 10.35 24.4342C10.35 24.7782 10.627 25.0576 10.9681 25.0576H11.9514C12.2925 25.0576 12.5695 24.7782 12.5695 24.4342C12.5695 24.0902 12.2925 23.8108 11.9514 23.8108ZM9.00034 8.31872H9.00483C9.40771 8.31872 9.73529 8.64912 9.73529 9.05547C9.73529 9.46181 9.40883 9.79221 9.00483 9.79221C8.60083 9.79221 8.27212 9.46181 8.27212 9.05547C8.27212 8.64912 8.59914 8.31872 9.00034 8.31872ZM12.4526 8.32495H12.4481C12.0469 8.32495 11.7199 8.65536 11.7199 9.0617C11.7199 9.46804 12.0486 9.79845 12.4526 9.79845C12.8566 9.79845 13.1831 9.46804 13.1831 9.0617C13.1831 8.65536 12.8555 8.32495 12.4526 8.32495ZM23.7376 27.735C23.6213 27.8492 23.4634 27.9131 23.2989 27.9121C22.9692 27.9144 22.6963 27.6611 22.6803 27.3377V26.715C22.1716 26.6015 21.7195 26.3174 21.4013 25.9115C21.0831 25.5057 20.9189 25.0034 20.9374 24.4916C20.9374 24.1558 21.2142 23.8839 21.556 23.8839C21.8976 23.8839 22.1747 24.1558 22.1747 24.4916V24.4914C22.1747 25.4623 23.1368 25.6032 23.4311 25.6032C23.7318 25.5884 24.0184 25.4718 24.2421 25.2736C24.3563 25.1831 24.4226 25.0469 24.4232 24.9029L24.4229 24.9026C24.4229 24.458 24.4229 24.1393 23.1968 23.8503C21.571 23.4688 21.1787 22.5535 21.1371 21.8493C21.1284 21.293 21.3518 20.7572 21.7558 20.3671C22.0098 20.1241 22.3316 19.9615 22.6803 19.9V19.322C22.6803 18.9862 22.9571 18.7143 23.299 18.7143C23.6406 18.7143 23.9177 18.9862 23.9177 19.322V19.9889C24.3258 20.0864 24.6961 20.2983 24.9835 20.5992C25.2711 20.8999 25.463 21.2765 25.5361 21.6826C25.5774 21.8454 25.5482 22.0176 25.4556 22.1587C25.363 22.2996 25.2153 22.3968 25.0472 22.4271C24.8793 22.4573 24.7058 22.418 24.5685 22.3182C24.4311 22.2187 24.3416 22.0678 24.3214 21.9013C24.3207 21.8983 24.32 21.8952 24.3193 21.8919C24.2797 21.7108 24.159 21.1589 23.0989 21.0896C22.9168 21.064 22.7326 21.1227 22.601 21.2491C22.4571 21.3909 22.37 21.5791 22.3558 21.7788C22.3578 21.7925 22.3595 21.8071 22.3614 21.8226C22.3876 22.0422 22.4342 22.4328 23.4876 22.6682C24.6158 22.9203 25.6645 23.3763 25.6645 24.8918C25.6616 25.3671 25.4548 25.8193 25.0947 26.137C24.7629 26.4358 24.3571 26.6441 23.9176 26.7411V27.3043C23.9186 27.4656 23.8537 27.621 23.7376 27.735Z" fill="#00A4B3"/>
</svg>
