<svg width="52" height="52" viewBox="0 0 52 52" fill="none" xmlns="http://www.w3.org/2000/svg">
<path d="M13 32.1579C13 21.5773 21.5773 13 32.1579 13C42.7385 13 51.3158 21.5773 51.3158 32.1579C51.3158 42.7385 42.7385 51.3158 32.1579 51.3158C21.5773 51.3158 13 42.7385 13 32.1579Z" fill="#D1EEF2"/>
<g clip-path="url(#clip0_1515_20329)">
<path fill-rule="evenodd" clip-rule="evenodd" d="M37.4354 3.42123H40.9962L40.9953 3.42036C43.7581 3.42036 46 5.6062 46 8.33328V37.0584C46 39.7864 43.7572 42 40.9953 42H5.00465C2.24189 42 0 39.7855 0 37.0584V8.33328C0 5.6062 2.24189 3.42123 5.00465 3.42036H9.23942V1.13983C9.23942 0.513445 9.75941 0 10.3938 0C11.0282 0 11.5482 0.512577 11.5482 1.13983V3.42036H22.3281V1.16406C22.3281 0.521168 22.8493 0 23.4922 0C24.1351 0 24.6562 0.521169 24.6562 1.16406V3.42036H35.1267V1.13983C35.1267 0.513445 35.6467 0 36.2811 0C36.9154 0 37.4354 0.512577 37.4354 1.13983V3.42123ZM22.3281 5.70263V7.35156C22.3281 7.99446 22.8493 8.51562 23.4922 8.51562C24.1351 8.51562 24.6562 7.99446 24.6562 7.35156V5.70263H35.1258V7.38458C35.1258 8.01183 35.6458 8.52441 36.2802 8.52441C36.9146 8.52441 37.4354 8.01096 37.4354 7.38458V5.70263H40.9962C42.4779 5.70263 43.6904 6.87113 43.6904 8.33502V13.7796H2.30963V13.7788V8.33415C2.30963 6.87113 3.5124 5.70176 5.00377 5.70176H9.23766V7.38371C9.23766 8.01096 9.75766 8.52441 10.392 8.52441C11.0264 8.52441 11.5464 8.01096 11.5464 7.38458V5.70263H22.3281ZM40.9962 39.7195C42.4876 39.7195 43.6904 38.5223 43.6904 37.0593V16.0593H2.31051V37.0593C2.31051 38.5223 3.52296 39.7195 5.00465 39.7195H40.9962Z" fill="#00A4B3"/>
<path d="M20.2227 19.8996H17.4457C16.848 19.8996 16.3613 20.3863 16.3613 20.984C16.3613 21.5818 16.848 22.0684 17.4457 22.0684H20.2227C20.8205 22.0684 21.3071 21.5818 21.3071 20.984C21.3071 20.6941 21.195 20.4223 20.9897 20.217C20.7845 20.0118 20.5126 19.8996 20.2227 19.8996Z" fill="#00A4B3"/>
<path d="M25.7777 22.0684H28.5548C29.1525 22.0684 29.6391 21.5818 29.6391 20.984C29.6391 20.6941 29.527 20.4212 29.3218 20.217C29.1165 20.0118 28.8446 19.8996 28.5548 19.8996H25.7777C25.18 19.8996 24.6934 20.3863 24.6934 20.984C24.6934 21.5818 25.18 22.0695 25.7777 22.0695V22.0684Z" fill="#00A4B3"/>
<path d="M34.1078 22.0684H36.8848C37.4826 22.0684 37.9692 21.5818 37.9692 20.984C37.9692 20.6941 37.8571 20.4212 37.6518 20.217C37.4466 20.0118 37.1747 19.8996 36.8848 19.8996H34.1078C33.5101 19.8996 33.0234 20.3863 33.0234 20.984C33.0234 21.5818 33.5101 22.0695 34.1078 22.0695V22.0684Z" fill="#00A4B3"/>
<path d="M11.8927 25.4539H9.11562C8.51789 25.4539 8.03125 25.9405 8.03125 26.5383C8.03125 27.136 8.51789 27.6226 9.11562 27.6226H11.8927C12.4904 27.6226 12.977 27.136 12.977 26.5383C12.977 26.2484 12.8649 25.9765 12.6597 25.7712C12.4544 25.566 12.1825 25.4539 11.8927 25.4539Z" fill="#00A4B3"/>
<path d="M20.2227 25.4539H17.4457C16.848 25.4539 16.3613 25.9405 16.3613 26.5383C16.3613 27.136 16.848 27.6226 17.4457 27.6226H20.2227C20.8205 27.6226 21.3071 27.136 21.3071 26.5383C21.3071 26.2484 21.195 25.9765 20.9897 25.7712C20.7845 25.566 20.5126 25.4539 20.2227 25.4539Z" fill="#00A4B3"/>
<path d="M28.5548 25.4539H25.7777C25.18 25.4539 24.6934 25.9405 24.6934 26.5383C24.6934 27.136 25.18 27.6226 25.7777 27.6226H28.5548C29.1525 27.6226 29.6391 27.136 29.6391 26.5383C29.6391 26.2484 29.527 25.9765 29.3218 25.7712C29.1165 25.566 28.8446 25.4539 28.5548 25.4539Z" fill="#00A4B3"/>
<path d="M36.8848 25.4539H34.1078C33.5101 25.4539 33.0234 25.9405 33.0234 26.5383C33.0234 27.136 33.5101 27.6226 34.1078 27.6226H36.8848C37.4826 27.6226 37.9692 27.136 37.9692 26.5383C37.9692 26.2484 37.8571 25.9765 37.6518 25.7712C37.4466 25.566 37.1747 25.4539 36.8848 25.4539Z" fill="#00A4B3"/>
<path d="M11.8927 31.0081H9.11562C8.51789 31.0081 8.03125 31.4947 8.03125 32.0925C8.03125 32.6902 8.51789 33.1768 9.11562 33.1768H11.8927C12.4904 33.1768 12.977 32.6902 12.977 32.0925C12.977 31.8026 12.8649 31.5307 12.6597 31.3254C12.4544 31.1202 12.1825 31.0081 11.8927 31.0081Z" fill="#00A4B3"/>
<path d="M20.2227 31.0081H17.4457C16.848 31.0081 16.3613 31.4947 16.3613 32.0925C16.3613 32.6902 16.848 33.1768 17.4457 33.1768H20.2227C20.8205 33.1768 21.3071 32.6902 21.3071 32.0925C21.3071 31.8026 21.195 31.5307 20.9897 31.3254C20.7845 31.1202 20.5126 31.0081 20.2227 31.0081Z" fill="#00A4B3"/>
<path d="M28.5548 31.0081H25.7777C25.18 31.0081 24.6934 31.4947 24.6934 32.0925C24.6934 32.6902 25.18 33.1768 25.7777 33.1768H28.5548C29.1525 33.1768 29.6391 32.6902 29.6391 32.0925C29.6391 31.8026 29.527 31.5307 29.3218 31.3254C29.1165 31.1202 28.8446 31.0081 28.5548 31.0081Z" fill="#00A4B3"/>
<path d="M36.8848 31.0081H34.1078C33.5101 31.0081 33.0234 31.4947 33.0234 32.0925C33.0234 32.6902 33.5101 33.1768 34.1078 33.1768H36.8848C37.4826 33.1768 37.9692 32.6902 37.9692 32.0925C37.9692 31.8026 37.8571 31.5307 37.6518 31.3254C37.4466 31.1202 37.1747 31.0081 36.8848 31.0081Z" fill="#00A4B3"/>
</g>
<defs>
<clipPath id="clip0_1515_20329">
<rect width="46" height="42" fill="white"/>
</clipPath>
</defs>
</svg>
