<svg width="52" height="52" viewBox="0 0 52 52" fill="none" xmlns="http://www.w3.org/2000/svg">
<path d="M13 32.1579C13 21.5773 21.5773 13 32.1579 13C42.7385 13 51.3158 21.5773 51.3158 32.1579C51.3158 42.7385 42.7385 51.3158 32.1579 51.3158C21.5773 51.3158 13 42.7385 13 32.1579Z" fill="#D1EEF2"/>
<path fill-rule="evenodd" clip-rule="evenodd" d="M20.4927 36.8278H4.57789C3.97429 36.8278 3.44467 36.3 3.44467 35.6985V11.3792H38.9356C39.5365 11.3792 40.0255 10.8919 40.0255 10.2931C40.0255 9.69426 39.5365 9.20695 38.9356 9.20695H3.44467V4.25113C3.44467 3.64964 3.97429 3.12187 4.57789 3.12187H41.2093C41.8129 3.12187 42.3425 3.64964 42.3425 4.25113V6.16441C42.3425 6.7632 42.8315 7.25051 43.4324 7.25051C44.0333 7.25051 44.5223 6.7632 44.5223 6.16441V4.25113C44.5223 2.45833 43.0589 1 41.2598 1H4.57699C2.7779 1 1.31445 2.45833 1.31445 4.25113V35.7507L1.31626 35.7516C1.3722 37.4257 2.777 38.8427 4.56165 39H4.57789H20.4936C21.0945 39 21.5835 38.5127 21.5835 37.9139C21.5835 37.3151 21.0936 36.8278 20.4927 36.8278ZM6.50423 5.11691C6.21461 5.10612 5.92498 5.2212 5.71205 5.43339C5.5289 5.6159 5.40619 5.90901 5.40619 6.16435C5.40619 6.4197 5.5289 6.7137 5.71205 6.89532C5.89521 7.07783 6.18934 7.20011 6.44558 7.20011C6.70182 7.20011 6.99686 7.07783 7.17911 6.89532C7.36227 6.7128 7.48497 6.4197 7.48497 6.16435C7.48497 5.90901 7.36407 5.6204 7.18452 5.43788C7.0131 5.24098 6.77129 5.1268 6.50423 5.11691ZM13.9433 5.43809C14.1219 5.23309 14.3908 5.11621 14.6822 5.11621C14.9736 5.11621 15.2425 5.23309 15.4212 5.43809C15.6007 5.6206 15.7216 5.90921 15.7216 6.16456C15.7216 6.4199 15.5989 6.71301 15.4157 6.89552C15.2335 7.07804 14.9385 7.20031 14.6822 7.20031C14.426 7.20031 14.1318 7.07804 13.9487 6.89552C13.7655 6.7139 13.6428 6.4181 13.6428 6.16456C13.6428 5.91101 13.7628 5.6206 13.9433 5.43809ZM10.6627 5.11981C10.3487 5.09373 10.0275 5.21061 9.80464 5.43359C9.62149 5.61611 9.49878 5.90921 9.49878 6.16456C9.49878 6.4199 9.62149 6.7139 9.80464 6.89552C9.9878 7.07804 10.2819 7.20031 10.5382 7.20031C10.8179 7.20031 11.0723 7.09512 11.2717 6.89552C11.4549 6.713 11.5776 6.4199 11.5776 6.16456C11.5776 5.90921 11.4594 5.6269 11.2825 5.44348C11.1427 5.25557 10.9234 5.14049 10.6627 5.11891V5.11981ZM22.4137 22.1123C22.9695 22.1123 23.4224 22.5996 23.4224 23.1984C23.4224 23.7972 22.9704 24.2836 22.4137 24.2836H7.42723C6.8904 24.2836 6.41852 23.7963 6.41852 23.1975C6.41852 22.5987 6.87055 22.1123 7.42723 22.1123H22.4137ZM51.3009 14.0897L51.2998 14.0832C51.2957 14.0587 51.2919 14.0361 51.2919 14.0187C51.2919 13.9459 51.2757 13.8811 51.2612 13.8245L51.2596 13.8177C51.2502 13.7798 51.2414 13.7438 51.2414 13.7166L51.2242 13.6105C51.1773 13.374 51.1187 13.0791 50.9725 12.7851C50.211 11.0175 48.9208 9.75069 47.1406 9.01972C46.8113 8.87947 46.4486 8.82102 46.1563 8.77517L46.0372 8.75629L45.9226 8.75359C45.3361 8.65289 44.7804 8.8453 44.3139 9.31013L31.3801 22.1987L28.2935 25.2232C27.4364 26.1277 26.5639 26.9971 25.7203 27.8378C25.4334 28.1237 25.2205 28.5085 25.1663 28.8331C25.0413 29.4137 24.9169 30.0023 24.7921 30.5928L24.7918 30.5941L24.7125 30.9693C24.5609 31.6877 24.4085 32.407 24.256 33.1173L24.1053 33.9175C23.9934 34.4192 24.1017 34.929 24.3958 35.2805C24.6891 35.6312 25.1483 35.8487 25.5958 35.8487C25.6689 35.8487 25.7339 35.8326 25.7907 35.8182L25.7974 35.8165L25.7975 35.8165C25.8356 35.8072 25.8717 35.7984 25.899 35.7984L26.9501 35.5925C27.6541 35.4308 28.3877 35.2804 29.0996 35.1345L29.1001 35.1344L29.1371 35.1268L29.2444 35.1048C29.8155 34.9876 30.4034 34.867 30.985 34.7384C31.3522 34.6835 31.7465 34.4776 32.0397 34.1845L32.0398 34.1844C36.0594 30.1788 46.7356 19.54 50.6838 15.6559C51.0284 15.3125 51.2314 14.8782 51.2883 14.3666C51.3298 14.2606 51.3136 14.1626 51.3009 14.0897ZM40.8664 22.3524C36.8442 26.3489 32.6857 30.4811 30.5735 32.6201L30.5582 32.6237C29.8681 32.7822 29.1486 32.9298 28.4507 33.0731L28.3711 33.0894C27.7648 33.2135 27.1378 33.3421 26.5179 33.4796L26.333 33.521C26.572 32.1849 26.8644 30.8084 27.2253 29.3159L33.126 23.4349C35.8622 20.7092 39.8369 16.7484 42.8219 13.7738L42.8261 13.7696L46.1581 17.09C44.6273 18.6154 42.8372 20.3941 41.0039 22.2158L40.8664 22.3524ZM47.5755 15.6775L44.2435 12.3572C44.8616 11.7413 45.3614 11.2459 45.7755 10.8755C46.0074 10.8782 46.1852 10.9276 46.3016 10.9654C47.5503 11.4644 48.4498 12.3455 48.9767 13.5853L48.9812 13.5952C49.0236 13.6797 49.0769 13.8919 49.1193 14.0619L49.1319 14.1113L49.14 14.1194L47.5764 15.6775H47.5755ZM28.678 15.71C29.2284 15.71 29.6759 16.1973 29.6759 16.7961C29.6759 17.3949 29.2284 17.8822 28.678 17.8822H7.41549C6.86512 17.8822 6.4176 17.3949 6.4176 16.7961C6.4176 16.1973 6.86512 15.71 7.41549 15.71H28.678Z" fill="#00A4B3"/>
</svg>
