<svg viewBox="0 0 38 38" fill="none" xmlns="http://www.w3.org/2000/svg">
<path d="M9.34961 23.4436C9.34961 15.7116 15.6176 9.4436 23.3496 9.4436C31.0816 9.4436 37.3496 15.7116 37.3496 23.4436C37.3496 31.1756 31.0816 37.4436 23.3496 37.4436C15.6176 37.4436 9.34961 31.1756 9.34961 23.4436Z" fill="#D1EEF2"/>
<path d="M22.1341 0.576904C20.1924 0.576904 18.5253 1.73039 17.7462 3.38184C15.1682 3.49924 13.1018 5.61958 13.1018 8.22935C13.1018 9.68909 13.7601 10.9859 14.78 11.8794C12.4495 12.1982 10.2588 12.9597 8.41608 14.1087C7.56863 13.4544 6.53734 13.0992 5.45936 13.0992C5.07529 13.0992 4.76449 13.4104 4.76449 13.795C4.76449 14.7549 5.0583 15.6945 5.60032 16.4968C4.66861 17.5857 4.01078 18.7986 3.66876 20.0561H3.37495C1.84192 20.0561 0.595459 21.304 0.595459 22.8387C0.595459 24.387 1.37919 25.8002 2.69145 26.6201L7.54346 29.6468V33.274C7.54346 33.6585 7.85426 33.9697 8.2381 33.9697H11.0171C11.2805 33.9697 11.5205 33.8209 11.6387 33.5852L12.4611 31.9384C15.536 32.7876 19.0049 32.7876 22.0796 31.9384L22.902 33.5852C23.0202 33.8209 23.2602 33.9697 23.5236 33.9697H26.3026C26.6867 33.9697 26.9975 33.6585 26.9975 33.274V29.5904C29.6518 27.6352 31.1663 24.9388 31.1663 22.1432C31.1663 21.1295 30.9634 20.1524 30.6028 19.2251C31.0737 18.6993 31.5573 18.0145 31.9267 17.1247C32.3529 17.2212 32.7979 17.2733 33.2506 17.2733C33.6347 17.2733 33.9452 16.9621 33.9452 16.5778C33.945 16.1935 33.6342 15.8823 33.2501 15.8823C32.9347 15.8823 32.6313 15.8504 32.3452 15.7926C32.4776 15.1933 32.5555 14.5283 32.5555 13.7952C32.5555 12.6443 31.6205 11.7082 30.4711 11.7082C29.3217 11.7082 28.3867 12.6443 28.3867 13.7952C28.3867 14.9387 29.3008 16.0174 30.6116 16.6621C30.4108 17.1289 30.1722 17.5205 29.9254 17.8566C28.2314 15.047 24.9312 12.904 20.906 12.0825C21.5092 11.6166 22.0007 11.0091 22.3364 10.2961C24.9224 10.1874 26.9979 8.06234 26.9979 5.44679C26.9979 2.76183 24.8154 0.576904 22.1341 0.576904ZM22.1341 1.96819C24.0496 1.96819 25.608 3.52883 25.608 5.44677C25.608 7.36471 24.0496 8.92511 22.1341 8.92511C20.2187 8.92511 18.6603 7.36471 18.6603 5.44677C18.6603 3.52883 20.2189 1.96819 22.1341 1.96819ZM22.1341 3.35948C21.7501 3.35948 21.4393 3.67068 21.4393 4.05501V6.83782C21.4393 7.22239 21.7501 7.53358 22.1341 7.53358C22.5182 7.53358 22.8288 7.22239 22.8288 6.83782V4.05501C22.8288 3.67044 22.518 3.35948 22.1341 3.35948ZM17.3336 4.8237C17.3068 5.02984 17.2705 5.23319 17.2705 5.44653C17.2705 5.80082 17.3131 6.14438 17.3852 6.47748C17.3189 6.58416 17.2705 6.70295 17.2705 6.83805V9.62087C17.2705 10.0054 17.5813 10.3164 17.9654 10.3164C18.3495 10.3164 18.66 10.0052 18.66 9.62087V8.84407C19.2533 9.45199 20.0082 9.88944 20.8489 10.1219C20.2184 11.0912 19.1455 11.708 17.9652 11.708C16.0497 11.708 14.4911 10.1473 14.4911 8.2294C14.4911 6.53948 15.7026 5.13091 17.3336 4.8237ZM17.2705 13.0992C24.1663 13.0992 29.7768 17.1563 29.7768 22.1432C29.7768 24.6148 28.4029 26.9293 25.9072 28.6602C25.7199 28.7907 25.608 29.004 25.608 29.2323V32.5783H23.9531L23.0624 30.7948C22.9097 30.4885 22.5568 30.3389 22.2325 30.4423C19.0911 31.4302 15.45 31.4302 12.3085 30.4423C11.9814 30.3417 11.6313 30.4906 11.4787 30.7948L10.5879 32.5783H8.93301V29.2609C8.93301 29.0203 8.80948 28.7976 8.60593 28.6704L3.4266 25.4392C2.52353 24.8753 1.98475 23.903 1.98475 22.8386C1.98475 22.0715 2.60846 21.4473 3.37426 21.4473H4.21896C4.55139 21.4473 4.83707 21.2115 4.90079 20.8847C5.16739 19.5144 5.89552 18.176 7.00614 17.0144C7.25505 16.7542 7.26389 16.3459 7.02661 16.0747C6.63788 15.631 6.37384 15.1237 6.24497 14.5807C6.8517 14.7228 7.41275 15.0284 7.87269 15.4754C8.1109 15.7065 8.47448 15.7384 8.7467 15.5516C11.0751 13.97 14.1026 13.0992 17.2705 13.0992ZM30.4718 13.0992C30.8552 13.0992 31.1664 13.411 31.1664 13.7949C31.1664 14.3446 31.1148 14.8471 31.0259 15.305C30.2538 14.8654 29.7767 14.2589 29.7767 13.7949C29.7767 13.411 30.0884 13.0992 30.4718 13.0992ZM17.2705 15.1007C15.4577 15.1007 13.6447 15.3394 12.1906 15.8172C11.8256 15.9367 11.6274 16.3301 11.7467 16.6949C11.8674 17.0604 12.2617 17.2616 12.6235 17.1393C15.2562 16.2737 19.2852 16.2737 21.9174 17.1393C21.9893 17.1631 22.0621 17.1738 22.134 17.1738C22.4264 17.1738 22.6979 16.9884 22.7942 16.6949C22.9136 16.3301 22.7156 15.9369 22.3506 15.8172C20.8962 15.3395 19.0835 15.1007 17.2705 15.1007ZM8.13917 18.6645C7.37314 18.6645 6.74967 19.2891 6.74967 20.0558C6.74967 20.8229 7.37337 21.4471 8.13917 21.4471C8.90521 21.4471 9.52868 20.8229 9.52868 20.0558C9.52868 19.2888 8.90521 18.6645 8.13917 18.6645Z" fill="#00A4B3"/>
</svg>
