<svg viewBox="0 0 38 38" fill="none" xmlns="http://www.w3.org/2000/svg">
<path d="M8.96045 23.4736C8.96045 15.7416 15.2285 9.47363 22.9604 9.47363C30.6924 9.47363 36.9604 15.7416 36.9604 23.4736C36.9604 31.2056 30.6924 37.4736 22.9604 37.4736C15.2285 37.4736 8.96045 31.2056 8.96045 23.4736Z" fill="#D1EEF2"/>
<path d="M31.0238 26.6229L24.7821 20.8218C26.2118 18.629 26.9666 16.0929 26.9666 13.4835C26.9666 6.04858 20.9181 0 13.4834 0C6.04867 0 0.000244141 6.04858 0.000244141 13.4827V13.5343C0.0285701 20.9459 6.06616 26.9662 13.4834 26.9662C16.0927 26.9662 18.6287 26.2114 20.8215 24.7817L26.6225 31.0236C27.2048 31.6401 27.9921 31.9867 28.8427 32H28.8886C29.7192 32 30.4998 31.6759 31.088 31.0885C31.6762 30.5012 32.0119 29.6905 31.9994 28.8416C31.9869 27.9943 31.6403 27.2061 31.0238 26.6229ZM13.4826 25.459C6.87929 25.459 1.50652 20.0861 1.50652 13.4827C1.50652 6.87922 6.87929 1.50631 13.4826 1.50631C20.0858 1.50631 25.4586 6.87922 25.4586 13.4827C25.4586 20.0861 20.0858 25.459 13.4826 25.459ZM30.0216 30.0221C29.7242 30.3196 29.3009 30.4912 28.8627 30.492C28.4253 30.4862 28.0188 30.3071 27.718 29.9888L22.0462 23.8836C22.7152 23.3312 23.3333 22.7138 23.884 22.0457L29.9883 27.7177C30.3065 28.0184 30.4856 28.4242 30.4915 28.8624C30.4981 29.3006 30.3307 29.7122 30.0216 30.0221Z" fill="#00A4B3"/>
<path d="M18.9095 8.85293H17.1241V7.73402C17.1241 6.90755 16.4518 6.23438 15.6245 6.23438H11.3398C10.5133 6.23438 9.84015 6.90672 9.84015 7.73402V8.85293H8.05478C7.07087 8.85293 6.26941 9.65357 6.26941 10.6383V17.4459C6.26941 18.4307 7.07003 19.2313 8.05478 19.2313H18.9095C19.8942 19.2313 20.6948 18.4307 20.6948 17.4459V10.6383C20.6948 9.65357 19.8942 8.85293 18.9095 8.85293ZM11.2206 7.73402C11.2206 7.66821 11.2739 7.61488 11.3398 7.61488H15.6245C15.6903 7.61488 15.7436 7.66821 15.7436 7.73402V8.85293H11.2215V7.73402H11.2206ZM19.3135 17.4459C19.3135 17.6692 19.1319 17.8508 18.9086 17.8508H8.05561C7.83234 17.8508 7.65072 17.6692 7.65072 17.4459V14.4166C7.79568 14.4533 7.92648 14.4699 8.05561 14.4699H18.9095C19.0386 14.4699 19.1694 14.4524 19.3143 14.4166V17.4459H19.3135ZM19.3135 12.6854C19.3135 12.9086 19.1319 13.0894 18.9086 13.0894H8.05644C7.83317 13.0894 7.65155 12.9078 7.65155 12.6854V10.6383C7.65155 10.4151 7.83317 10.2334 8.05644 10.2334H18.9095C19.1327 10.2334 19.3143 10.4151 19.3143 10.6383V12.6854H19.3135Z" fill="#00A4B3"/>
</svg>
