<svg width="52" height="52" viewBox="0 0 52 52" fill="none" xmlns="http://www.w3.org/2000/svg">
<path d="M14.5889 33.4852C14.5889 23.4306 22.7397 15.2798 32.7943 15.2798C42.8488 15.2798 50.9996 23.4306 50.9996 33.4852C50.9996 43.5397 42.8488 51.6906 32.7943 51.6906C22.7397 51.6906 14.5889 43.5397 14.5889 33.4852Z" fill="#D1EEF2"/>
<path fill-rule="evenodd" clip-rule="evenodd" d="M32.3035 20.7378H32.8426C39.7479 20.7378 45.3659 26.4042 45.3659 33.3689C45.3659 40.3336 39.7479 46 32.8426 46C30.0004 46 27.2113 45.0037 24.9902 43.1936L24.8418 43.0723H5.26643C2.36284 43.0723 0 40.6891 0 37.7605V5.5554C0 2.62683 2.36284 0.243652 5.26643 0.243652H27.0371C29.9407 0.243652 32.3035 2.62683 32.3035 5.5554V20.7378ZM1.82459 37.7605C1.82459 39.6744 3.36886 41.232 5.26643 41.232V41.2328H23.0006L22.4375 40.3863C21.0516 38.3034 20.3193 35.8767 20.3193 33.3697C20.3193 30.4964 21.3071 27.6832 23.101 25.449C24.8683 23.2473 27.3398 21.6897 30.0601 21.064L30.4789 20.9678V5.5554C30.4789 3.6415 28.9347 2.08394 27.0371 2.08394H5.26643C3.36886 2.08394 1.82459 3.6415 1.82459 5.5554V37.7605ZM22.1439 33.3689C22.1439 39.3189 26.9434 44.1597 32.8426 44.1597C38.7418 44.1597 43.5413 39.3189 43.5413 33.3689C43.5413 27.4189 38.7418 22.5781 32.8426 22.5781C26.9434 22.5781 22.1439 27.4189 22.1439 33.3689ZM25.5857 18.1865H6.71781C6.21439 18.1865 5.80551 17.7741 5.80551 17.2663V7.01927C5.80551 6.51152 6.21439 6.09913 6.71781 6.09913H25.5857C26.0891 6.09913 26.498 6.51152 26.498 7.01927V17.2663C26.498 17.7741 26.0891 18.1865 25.5857 18.1865ZM24.6734 7.93942H7.6301V16.3462H24.6734V7.93942ZM9.62056 22.2017H6.71781C6.21439 22.2017 5.80551 22.6141 5.80551 23.1218C5.80551 23.6296 6.21439 24.042 6.71781 24.042H9.62056C10.124 24.042 10.5329 23.6296 10.5329 23.1218C10.5329 22.6141 10.124 22.2017 9.62056 22.2017ZM14.7004 22.2017H17.6031C18.1066 22.2017 18.5154 22.6141 18.5154 23.1218C18.5154 23.6296 18.1066 24.042 17.6031 24.042H14.7004C14.197 24.042 13.7881 23.6296 13.7881 23.1218C13.7881 22.6141 14.197 22.2017 14.7004 22.2017ZM9.62056 28.0572H6.71781C6.21439 28.0572 5.80551 28.4695 5.80551 28.9773C5.80551 29.4851 6.21439 29.8974 6.71781 29.8974H9.62056C10.124 29.8974 10.5329 29.4851 10.5329 28.9773C10.5329 28.4695 10.124 28.0572 9.62056 28.0572ZM14.7004 28.0572H16.8775C17.3809 28.0572 17.7898 28.4695 17.7898 28.9773C17.7898 29.4851 17.3809 29.8974 16.8775 29.8974H14.7004C14.197 29.8974 13.7881 29.4851 13.7881 28.9773C13.7881 28.4695 14.197 28.0572 14.7004 28.0572ZM9.62056 33.9126H6.71781C6.21439 33.9126 5.80551 34.325 5.80551 34.8328C5.80551 35.3405 6.21439 35.7529 6.71781 35.7529H9.62056C10.124 35.7529 10.5329 35.3405 10.5329 34.8328C10.5329 34.325 10.124 33.9126 9.62056 33.9126ZM14.7004 33.9126H16.1518C16.6552 33.9126 17.0641 34.325 17.0641 34.8328C17.0641 35.3405 16.6552 35.7529 16.1518 35.7529H14.7004C14.197 35.7529 13.7881 35.3405 13.7881 34.8328C13.7881 34.325 14.197 33.9126 14.7004 33.9126ZM11.8026 11.0462H11.796C11.2038 11.0462 10.7211 11.5338 10.7211 12.1336C10.7211 12.7334 11.2063 13.2211 11.8026 13.2211C12.3989 13.2211 12.8808 12.7334 12.8808 12.1336C12.8808 11.5338 12.3973 11.0462 11.8026 11.0462ZM16.8849 11.0554H16.8916C17.4862 11.0554 17.9697 11.543 17.9697 12.1428C17.9697 12.7426 17.4879 13.2303 16.8916 13.2303C16.2952 13.2303 15.8101 12.7426 15.8101 12.1428C15.8101 11.543 16.2928 11.0554 16.8849 11.0554Z" fill="#00A4B3"/>
<path d="M37.3779 36.6934C37.3779 37.4528 36.7624 38.0684 36.0029 38.0684C35.2435 38.0684 34.6279 37.4528 34.6279 36.6934C34.6279 35.9339 35.2435 35.3184 36.0029 35.3184C36.7624 35.3184 37.3779 35.9339 37.3779 36.6934Z" fill="#00A4B3"/>
<path d="M30.9609 30.2769C30.9609 31.0363 30.3454 31.6519 29.5859 31.6519C28.8265 31.6519 28.2109 31.0363 28.2109 30.2769C28.2109 29.5174 28.8265 28.9019 29.5859 28.9019C30.3454 28.9019 30.9609 29.5174 30.9609 30.2769Z" fill="#00A4B3"/>
<path d="M37.1026 29.1769C36.736 28.8102 36.186 28.8102 35.8193 29.1769L28.4859 36.5102C28.1193 36.8769 28.1193 37.4269 28.4859 37.7935C28.6693 37.9769 28.8526 38.0685 29.1276 38.0685C29.4026 38.0685 29.5859 37.9769 29.7693 37.7935L37.1026 30.4602C37.4693 30.0935 37.4693 29.5435 37.1026 29.1769Z" fill="#00A4B3"/>
</svg>
