<svg viewBox="0 0 38 38" fill="none" xmlns="http://www.w3.org/2000/svg">
<path d="M7.96875 22.4736C7.96875 14.7416 14.2368 8.47363 21.9688 8.47363C29.7007 8.47363 35.9688 14.7416 35.9688 22.4736C35.9688 30.2056 29.7007 36.4736 21.9688 36.4736C14.2368 36.4736 7.96875 30.2056 7.96875 22.4736Z" fill="#D1EEF2"/>
<path d="M8.86289 29.9875L8.89582 30.006C11.2331 31.3219 13.8541 32.0002 16.5003 32.0002C17.551 32.0002 18.6053 31.8937 19.6482 31.6769C23.3176 30.916 26.5852 28.853 28.8495 25.8674C31.1143 22.8824 32.2201 19.1796 31.9644 15.4415C31.7082 11.7027 30.1079 8.18552 27.4575 5.53698C24.8071 2.88844 21.2886 1.28997 17.5498 1.03614C13.8116 0.782298 10.1094 1.89045 7.1255 4.15703C4.14165 6.42302 2.08037 9.69178 1.32183 13.3611C0.563295 17.0303 1.15839 20.8487 2.99875 24.1127L3.01731 24.1456L1.7026 28.6746C1.56011 29.1631 1.59842 29.6863 1.80976 30.1491C2.0217 30.6119 2.39288 30.9831 2.85567 31.195C3.31845 31.4063 3.8417 31.4446 4.33023 31.3022L8.86229 29.9875H8.86289ZM3.28373 29.7121C3.11789 29.5462 3.05922 29.305 3.13106 29.0817L4.53498 24.2462C4.59485 24.045 4.56791 23.8265 4.46015 23.6469C2.87662 20.9846 2.21687 17.8266 2.60302 14.7536C2.976 11.7836 4.32305 8.96439 6.3987 6.80437H6.3963L6.60225 6.59663C9.09338 4.10495 12.4035 2.65196 15.9238 2.50588C19.4435 2.35921 22.8632 3.53261 25.5531 5.80937C28.2424 8.08614 29.9636 11.2651 30.4 14.7614C30.8371 18.257 29.9504 21.7617 27.9041 24.6305C25.8578 27.4982 22.8314 29.4768 19.3836 30.2012C18.4335 30.4006 17.4618 30.5017 16.4949 30.5017C13.9829 30.5017 11.5097 29.8198 9.34184 28.5291C9.16223 28.4213 8.94371 28.3938 8.74255 28.4543L3.91115 29.8659C3.68964 29.9372 3.44837 29.8785 3.28253 29.7127L3.28373 29.7121Z" fill="#00A4B3"/>
<path d="M23.1472 24.4819L23.9351 23.694C24.3949 23.2336 24.6044 22.5763 24.4961 21.9351C24.3871 21.2939 23.9722 20.7419 23.3867 20.4594L19.2162 18.4478C18.9235 18.3065 18.5756 18.3694 18.3505 18.6035L17.0262 19.972L16.9322 19.9696L16.9215 19.9655C15.1613 19.2656 13.7484 17.8557 13.0456 16.0968L13.0234 16.0417L14.4064 14.6588C14.6297 14.4343 14.6878 14.0913 14.5501 13.8057L12.5259 9.60898C12.2403 9.03784 11.6931 8.63254 11.0627 8.52537C10.4215 8.41642 9.76357 8.62595 9.30378 9.08633L8.52249 9.85803C7.64302 10.7399 7.03835 11.8498 6.77433 13.0669C6.51031 14.2846 6.60011 15.5448 7.03476 16.7129C7.83041 18.8411 9.04874 20.7354 10.6556 22.3422C12.2565 23.9431 14.143 25.1584 16.2611 25.954L16.2857 25.963C17.4531 26.4006 18.7145 26.4928 19.9341 26.23C21.153 25.9666 22.2641 25.3619 23.1478 24.4813L23.1472 24.4819ZM18.5415 24.8734C17.95 24.8734 17.3675 24.7686 16.8101 24.5627C14.8847 23.8419 13.1719 22.7397 11.7189 21.2867C10.2659 19.8338 9.16309 18.1209 8.44287 16.1956C8.1082 15.2976 8.03875 14.3277 8.24171 13.3908C8.44466 12.4539 8.90984 11.5996 9.58696 10.9213L10.3754 10.1328C10.494 10.0215 10.6592 9.97237 10.8185 9.99991C10.9771 10.028 11.116 10.1304 11.189 10.2735L12.9815 13.9703L11.9476 15.0042C11.75 15.2054 11.6159 15.458 11.5596 15.7352C11.5034 16.0118 11.5285 16.2974 11.6321 16.5608C12.4732 18.737 14.1974 20.4815 16.3629 21.3484L16.4587 21.3849C16.7347 21.4951 17.0334 21.5202 17.3226 21.458C17.6124 21.3951 17.8734 21.249 18.0781 21.0347L19.045 20.0289L22.7293 21.8046C22.8736 21.8782 22.976 22.0165 23.0035 22.1752C23.0317 22.3338 22.982 22.4991 22.8718 22.6164L22.0821 23.4066C21.405 24.0849 20.5525 24.5525 19.6162 24.7579C19.2635 24.8351 18.9025 24.8746 18.5427 24.8746L18.5415 24.8734Z" fill="#00A4B3"/>
<path d="M22.8203 10.9477C22.8203 10.7477 22.7425 10.5591 22.6006 10.4178C22.4593 10.2766 22.2713 10.1987 22.0708 10.1987C21.8702 10.1987 21.6822 10.2766 21.5409 10.4178L19.9209 12.0109C19.706 12.2252 19.6419 12.5455 19.7586 12.8269C19.8742 13.1059 20.1442 13.2873 20.4459 13.2885L20.4603 13.2849H20.4699C20.668 13.2891 20.853 13.2173 20.9967 13.0814L22.6006 11.4775C22.7425 11.3362 22.8203 11.1476 22.8203 10.9477Z" fill="#00A4B3"/>
<path d="M21.2554 15.9065V15.9125C21.2332 16.3184 21.5499 16.6716 21.9618 16.6943L24.0105 16.8081H24.0524C24.2536 16.8141 24.4446 16.741 24.5907 16.6033C24.7361 16.4657 24.8194 16.2801 24.8247 16.0807C24.8361 15.6682 24.5098 15.3228 24.0973 15.3114L22.0462 15.1977C21.8457 15.1869 21.6523 15.2539 21.5032 15.388C21.3559 15.5203 21.2655 15.7095 21.256 15.9071L21.2554 15.9065Z" fill="#00A4B3"/>
<path d="M17.4393 8.39612C17.2897 8.26262 17.0975 8.19617 16.8993 8.20694C16.4868 8.23029 16.1695 8.58471 16.1929 8.99719L16.3066 11.0453C16.3306 11.4392 16.6586 11.7481 17.0538 11.7481H17.061H17.1023C17.5106 11.7254 17.8261 11.3727 17.8039 10.9608L17.6902 8.91278C17.6788 8.71282 17.5902 8.52903 17.4399 8.39493L17.4393 8.39612Z" fill="#00A4B3"/>
</svg>
