<svg width="129" height="48" viewBox="0 0 129 48" fill="none" xmlns="http://www.w3.org/2000/svg">
<g clip-path="url(#clip0_3823_9549)">
<path d="M115 0H14C6.26801 0 0 6.26801 0 14V34C0 41.732 6.26801 48 14 48H115C122.732 48 129 41.732 129 34V14C129 6.26801 122.732 0 115 0Z" fill="#002769"/>
<path d="M28.8009 23.312C28.8009 21.624 29.7509 20.041 31.2289 19.091C30.2789 17.719 28.8009 16.981 27.2189 16.875C25.5289 16.664 23.8409 17.93 22.9969 17.93C22.1519 17.93 20.7799 16.875 19.3029 16.98C18.3799 17.0326 17.4838 17.3101 16.6927 17.7883C15.9015 18.2666 15.2394 18.9312 14.7639 19.724C12.7589 23.101 14.2369 28.166 16.1369 30.91C17.0869 32.282 18.1419 33.76 19.6189 33.76C20.9909 33.654 21.5189 32.81 23.3129 32.81C25.0019 32.81 25.5299 33.76 27.0069 33.654C28.4849 33.654 29.4349 32.282 30.3839 30.91C31.0368 29.9219 31.5686 28.859 31.9679 27.744C30.0679 27.111 28.8009 25.317 28.8009 23.312ZM26.0569 15.08C26.9019 14.13 27.3239 12.864 27.2179 11.492C25.9519 11.598 24.7909 12.232 23.9459 13.181C23.1019 14.131 22.6799 15.397 22.7859 16.558C24.0519 16.664 25.2129 16.136 26.0569 15.081V15.08ZM46.6379 30.276H41.7829L40.6229 33.653H38.6169L43.1549 20.99H45.2659L49.8039 33.653H47.6939L46.6379 30.276ZM42.4169 28.693H46.2169L44.3169 23.1L42.4169 28.693ZM59.7249 29.116C59.7249 31.965 58.1409 33.864 55.9249 33.864C55.3466 33.9126 54.7668 33.7882 54.2593 33.5065C53.7519 33.2248 53.3396 32.7986 53.0749 32.282V36.819H51.1749V24.472H52.9699V26.055C53.6029 25 54.6589 24.367 55.9249 24.473C58.2469 24.367 59.7249 26.266 59.7249 29.116ZM57.8249 29.116C57.8249 27.216 56.8749 26.056 55.3969 26.056C53.9199 26.056 52.9699 27.322 52.9699 29.116C52.9699 31.016 53.9199 32.176 55.3969 32.176C56.8749 32.176 57.8249 31.016 57.8249 29.116ZM69.8569 29.116C69.8569 31.965 68.2739 33.864 66.0569 33.864C65.4787 33.9124 64.8992 33.7879 64.3919 33.5062C63.8846 33.2245 63.4725 32.7984 63.2079 32.282V36.819H61.3079V24.472H63.1029V26.055C63.7359 25 64.7909 24.367 66.0579 24.473C68.3799 24.367 69.8569 26.266 69.8569 29.116ZM67.9569 29.116C67.9569 27.216 67.0069 26.056 65.5299 26.056C64.0529 26.056 63.1029 27.322 63.1029 29.116C63.1029 31.016 64.0529 32.176 65.5299 32.176C67.0079 32.176 67.9569 31.016 67.9569 29.116ZM76.6129 30.17C76.7179 31.437 77.9849 32.281 79.6729 32.281C81.2559 32.281 82.4169 31.437 82.4169 30.276C82.4169 29.326 81.6779 28.693 80.0949 28.271L78.4069 27.849C76.0849 27.321 75.0289 26.16 75.0289 24.472C75.0289 22.256 76.9289 20.779 79.6729 20.779C82.3119 20.779 84.2109 22.256 84.2109 24.472H82.3109C82.2059 23.206 81.1509 22.467 79.6729 22.467C78.1959 22.467 77.1399 23.206 77.1399 24.367C77.1399 25.211 77.7729 25.738 79.4619 26.16L80.8339 26.477C83.4729 27.11 84.5279 28.165 84.5279 29.959C84.5279 32.281 82.6279 33.759 79.6729 33.759C76.8229 33.759 75.0289 32.281 74.8179 30.065L76.6129 30.17ZM88.4319 22.362V24.578H90.2259V26.055H88.4319V31.12C88.4319 31.859 88.7489 32.281 89.5919 32.281H90.2259V33.653C89.9089 33.758 89.4869 33.758 89.1709 33.758C87.2709 33.758 86.5319 33.02 86.5319 31.226V25.95H85.1599V24.472H86.5319V22.256H88.4319V22.362ZM91.1759 29.116C91.1759 26.266 92.8639 24.366 95.5029 24.366C98.1409 24.366 99.8299 26.161 99.8299 29.116C99.8299 32.07 98.1409 33.864 95.5029 33.864C92.8639 33.864 91.1759 31.964 91.1759 29.116ZM98.0359 29.116C98.0359 27.111 97.0859 25.95 95.6089 25.95C94.1309 25.95 93.1809 27.11 93.1809 29.116C93.1809 31.121 94.1309 32.281 95.6089 32.281C97.0859 32.281 98.0359 31.121 98.0359 29.116ZM101.52 24.473H103.314V26.055C103.525 25 104.475 24.367 105.53 24.367C105.741 24.367 105.952 24.367 106.163 24.472V26.266C105.847 26.161 105.636 26.161 105.319 26.161C104.264 26.161 103.419 26.9 103.314 27.955V33.759H101.414L101.52 24.473ZM114.924 31.015C114.713 32.704 113.024 33.865 110.913 33.865C108.275 33.865 106.586 32.07 106.586 29.221C106.586 26.372 108.275 24.473 110.808 24.473C113.341 24.473 114.924 26.266 114.924 29.01V29.643H108.38V29.749C108.275 31.121 109.224 32.281 110.596 32.387H110.913C111.863 32.492 112.707 31.965 113.024 31.121L114.924 31.015ZM108.591 28.271H113.235C113.341 27.005 112.391 26.055 111.124 25.95H110.913C110.299 25.9555 109.712 26.2018 109.277 26.6358C108.843 27.0699 108.597 27.6571 108.591 28.271ZM42.0999 11.598C43.5769 11.492 44.8429 12.653 44.9489 14.131V14.658C44.9489 16.558 43.8929 17.719 42.0989 17.719H39.8829V11.598H42.0999ZM40.8329 16.769H41.9929C43.0489 16.875 43.9989 16.031 43.9989 14.975V14.553C44.1039 13.498 43.3659 12.548 42.3099 12.443H40.8329V16.769ZM46.0049 15.397C45.8989 14.237 46.7439 13.181 48.0099 13.075C49.1709 12.97 50.2269 13.815 50.3319 15.081V15.503C50.4379 16.663 49.5929 17.719 48.4319 17.825C47.2719 17.825 46.2159 16.98 46.0049 15.82V15.397ZM49.4879 15.397C49.4879 14.447 49.0659 13.814 48.2209 13.814C47.4829 13.814 46.9549 14.447 46.9549 15.397C46.9549 16.347 47.3769 16.98 48.2209 16.98C48.9609 16.875 49.4879 16.347 49.4879 15.397ZM56.1359 17.614H55.1859L54.2359 14.236H54.1309L53.1809 17.614H52.2309L50.9649 13.076H51.9149L52.7589 16.558H52.8649L53.8149 13.076H54.6589L55.6089 16.558H55.7139L56.5589 13.076H57.5089L56.1359 17.614ZM58.4589 13.075H59.3029V13.815H59.4089C59.6189 13.287 60.1479 12.97 60.7809 12.97C61.6249 12.864 62.3639 13.498 62.3639 14.342V17.614H61.4139V14.87C61.4139 14.13 61.0969 13.814 60.4639 13.814C59.9369 13.814 59.4089 14.236 59.4089 14.764V17.614H58.4589V13.075ZM63.7339 11.281H64.6839V17.614H63.7339V11.28V11.281ZM65.9519 15.397C65.8469 14.237 66.6909 13.181 67.9569 13.075C69.1189 12.97 70.1739 13.815 70.2789 15.081V15.503C70.3849 16.663 69.5409 17.719 68.3789 17.825C67.2189 17.93 66.1629 17.086 66.0579 15.925C65.9519 15.608 65.9519 15.503 65.9519 15.397ZM69.3299 15.397C69.3299 14.447 68.9069 13.814 68.0629 13.814C67.3239 13.814 66.7969 14.447 66.7969 15.397C66.7969 16.347 67.2189 16.98 68.0629 16.98C68.9069 16.875 69.3299 16.347 69.3299 15.397ZM71.2279 16.347C71.2279 15.503 71.8619 15.081 72.9179 14.975L74.1839 14.87V14.448C74.1839 13.92 73.8669 13.708 73.2339 13.708C72.7059 13.708 72.3899 13.92 72.2839 14.236H71.4399C71.5449 13.498 72.2839 12.97 73.3399 12.97C74.4999 12.97 75.1329 13.498 75.1329 14.553V17.719H74.2889V17.086H74.1839C73.8669 17.508 73.3389 17.825 72.8119 17.825C72.0719 17.93 71.3339 17.403 71.3339 16.558C71.2279 16.453 71.2279 16.347 71.2279 16.347ZM74.1839 15.925V15.503L73.0229 15.609C72.3899 15.609 72.0729 15.819 72.0729 16.242C72.0729 16.664 72.3899 16.875 72.9169 16.875C73.5499 16.981 74.0779 16.558 74.1839 15.925ZM76.2949 15.397C76.2949 13.92 77.0339 13.075 78.1949 13.075C78.8279 13.075 79.3549 13.392 79.5669 13.92H79.6719V11.28H80.6219V17.613H79.7779V16.874H79.6719C79.5228 17.1332 79.3074 17.3479 79.0478 17.4962C78.7883 17.6446 78.4939 17.7211 78.1949 17.718C76.9279 17.718 76.2949 16.768 76.2949 15.396V15.397ZM77.1389 15.397C77.1389 16.347 77.5609 16.98 78.4059 16.98C79.1439 16.98 79.6719 16.347 79.6719 15.397C79.6719 14.447 79.1439 13.814 78.4059 13.814C77.6669 13.814 77.1389 14.342 77.1389 15.397ZM84.2099 15.397C84.1049 14.237 84.9489 13.181 86.2149 13.075C87.3759 12.97 88.4319 13.815 88.5369 15.081V15.503C88.6429 16.663 87.7979 17.719 86.6369 17.825C85.4769 17.93 84.4209 17.086 84.3159 15.925C84.2099 15.608 84.2099 15.503 84.2099 15.397ZM87.6929 15.397C87.6929 14.447 87.2709 13.814 86.4259 13.814C85.6879 13.814 85.1599 14.447 85.1599 15.397C85.1599 16.347 85.5819 16.98 86.4259 16.98C87.1659 16.875 87.6929 16.347 87.6929 15.397ZM89.8029 13.075H90.6469V13.815H90.7529C90.9629 13.287 91.4909 12.97 92.1249 12.97C92.9689 12.864 93.7079 13.498 93.7079 14.342V17.614H92.7579V14.87C92.7579 14.13 92.4409 13.814 91.8079 13.814C91.2799 13.814 90.7529 14.236 90.7529 14.764V17.614H89.8029V13.075ZM98.7749 11.915V13.075H99.7249V13.815H98.7749V16.136C98.7749 16.664 98.9849 16.875 99.4079 16.875H99.7249V17.614H99.1969C98.1409 17.614 97.8249 17.297 97.8249 16.347V13.71H97.0849V13.077H97.9299V11.916H98.7749V11.915ZM100.99 11.281H101.835V13.814H101.94C102.151 13.287 102.784 12.97 103.312 12.97C104.157 12.97 104.895 13.603 104.895 14.447V17.72H103.945V14.976C103.945 14.237 103.629 13.921 102.996 13.921C102.362 13.921 101.94 14.343 101.835 14.871V17.721H100.885L100.99 11.281ZM110.278 16.453C110.067 17.297 109.223 17.825 108.273 17.825C107.112 17.825 106.162 16.981 106.162 15.82V15.503C106.057 14.343 106.796 13.287 107.957 13.076H108.273C109.54 13.076 110.278 13.92 110.278 15.398V15.714H107.007C106.901 16.347 107.429 16.981 108.062 16.981H108.168C108.59 17.086 109.012 16.769 109.223 16.453H110.278ZM107.112 14.975H109.434C109.434 14.342 109.012 13.815 108.379 13.815H108.273C107.64 13.709 107.112 14.236 107.112 14.975C107.112 14.87 107.112 14.87 107.112 14.975Z" fill="white"/>
</g>
<defs>
<clipPath id="clip0_3823_9549">
<rect width="129" height="48" fill="white"/>
</clipPath>
</defs>
</svg>
