<svg viewBox="0 0 38 38" fill="none" xmlns="http://www.w3.org/2000/svg">
<path d="M8.96875 23.4736C8.96875 15.7416 15.2368 9.47363 22.9688 9.47363C30.7007 9.47363 36.9688 15.7416 36.9688 23.4736C36.9688 31.2056 30.7007 37.4736 22.9688 37.4736C15.2368 37.4736 8.96875 31.2056 8.96875 23.4736Z" fill="#D1EEF2"/>
<path d="M18.7806 22.9294C18.9667 22.9294 19.1491 22.8541 19.2814 22.723C19.4159 22.5889 19.49 22.4115 19.49 22.2224C19.49 22.0333 19.4137 21.853 19.2814 21.7218C19.1469 21.5885 18.9689 21.5161 18.7784 21.5154H5.30395H5.23126V21.519C4.87508 21.5559 4.59668 21.8573 4.59668 22.2217C4.59668 22.61 4.91433 22.9272 5.30395 22.9287H18.7806V22.9294Z" fill="#00A4B3"/>
<path d="M35.2913 2.00435H14.4817C14.4708 2.00435 14.4599 2.00362 14.4483 2.00362L14.4454 2L14.404 2.00435C14.0398 2.04057 13.7657 2.34337 13.7657 2.70774V9.92567H1.70582C1.51683 9.92639 1.33874 10.0003 1.20572 10.1343C1.07197 10.2683 0.999279 10.4465 1.00001 10.6349V26.5753C0.998552 26.965 1.31475 27.283 1.70582 27.2845H5.1404V32.2937C5.1404 32.5798 5.31195 32.8363 5.57726 32.9457C5.66595 32.9819 5.75826 33 5.84985 33C6.03303 33 6.2133 32.929 6.34923 32.7943L11.8773 27.2845H23.1034C23.2902 27.2845 23.4727 27.2084 23.605 27.0759C23.7387 26.9418 23.8122 26.7636 23.8107 26.5753V19.3588H25.705L31.2272 24.8672C31.4307 25.0736 31.7353 25.1352 32.0035 25.0243C32.2718 24.9135 32.4433 24.6556 32.4411 24.3666V19.3581H35.292C35.4803 19.3581 35.6576 19.2856 35.7914 19.1531C35.9259 19.0205 36 18.843 36.0007 18.654V2.70846C35.9993 2.32019 35.6809 2.00507 35.292 2.00507L35.2913 2.00435ZM31.0237 18.654V22.6657L26.4995 18.1534L26.4777 18.1324H26.4769C26.3476 18.0136 26.1738 17.9455 25.9965 17.9455H15.1854V3.4162H34.5811V17.9455H31.7295C31.3384 17.947 31.0222 18.265 31.0237 18.6547V18.654ZM6.55785 26.5449H6.55712C6.54912 26.3667 6.47571 26.2015 6.3485 26.0762C6.21475 25.9436 6.03739 25.8712 5.84985 25.8712H2.41745V11.3382H13.7665V18.6547C13.7665 18.6779 13.7679 18.7018 13.7708 18.7235C13.8064 19.0879 14.1096 19.3624 14.4759 19.3624H22.3918V25.8704H11.5792C11.391 25.8719 11.2151 25.9458 11.0828 26.0791L6.55857 30.5834V26.5449H6.55785Z" fill="#00A4B3"/>
<path d="M24.9468 13.8845C24.5027 13.8845 24.1276 14.2569 24.1276 14.6973C24.1276 15.1377 24.5027 15.5151 24.9468 15.5151C25.391 15.5151 25.761 15.1406 25.761 14.6973C25.761 14.254 25.3881 13.8845 24.9468 13.8845Z" fill="#00A4B3"/>
<path d="M25.1896 5.85745V5.85528L25.1177 5.85166C24.6503 5.8292 24.1967 5.90744 23.7678 6.08492C22.5975 6.56954 21.8445 7.69598 21.8496 8.95354C21.8459 9.14189 21.9201 9.32806 22.0531 9.46207C22.1854 9.59609 22.37 9.67287 22.5583 9.67287H22.5605C22.7502 9.67215 22.9341 9.59391 23.0664 9.45845C23.1987 9.32299 23.2714 9.13682 23.2663 8.94992C23.2634 8.26609 23.6733 7.65324 24.3108 7.38884C24.9461 7.12588 25.6701 7.27004 26.1571 7.75683C26.642 8.24073 26.783 8.96296 26.5169 9.59536C26.2633 10.1988 25.6723 10.6016 25.0137 10.6211H25.0065C24.9817 10.6182 24.9563 10.6175 24.9301 10.6175C24.5638 10.6247 24.265 10.9044 24.236 11.2731V11.2883V11.2955C24.236 11.302 24.2352 11.3086 24.2345 11.3158C24.2345 11.3223 24.2345 11.3296 24.2345 11.3361C24.2345 11.3419 24.2345 11.3477 24.2345 11.3506V12.8139C24.2301 13.0029 24.3036 13.1884 24.4366 13.3231C24.5689 13.4579 24.7535 13.5354 24.9432 13.5354C25.1329 13.5354 25.3176 13.4579 25.4499 13.3231C25.5822 13.1884 25.6563 13.0022 25.6519 12.8153V11.9547C26.6303 11.7316 27.4401 11.0579 27.8254 10.143C28.3153 8.97817 28.0543 7.64817 27.161 6.75571C26.6333 6.22907 25.9354 5.91106 25.1889 5.85601L25.1896 5.85745Z" fill="#00A4B3"/>
<path d="M9.82526 17.9463H5.3018C4.91945 17.955 4.60834 18.2715 4.60834 18.6526C4.60834 19.0336 4.91945 19.3502 5.30325 19.3589H9.82672C10.2091 19.3502 10.5194 19.0336 10.5194 18.6526C10.5194 18.2715 10.2083 17.955 9.82526 17.9463Z" fill="#00A4B3"/>
<path d="M5.28357 15.3072C5.29012 15.3072 5.29666 15.3072 5.30393 15.3072H9.82376C10.0135 15.313 10.1996 15.2384 10.3355 15.1058C10.4714 14.974 10.5492 14.79 10.5492 14.6009C10.5492 14.4119 10.4714 14.2279 10.3355 14.096C10.2003 13.9635 10.012 13.891 9.82521 13.8946H5.30756C5.28285 13.8932 5.25886 13.8932 5.23415 13.8946H5.23269C4.85107 13.9229 4.55668 14.2561 4.57631 14.6364C4.59593 15.0102 4.91213 15.3072 5.28357 15.3072Z" fill="#00A4B3"/>
</svg>
