<svg viewBox="0 0 129 48" fill="none" xmlns="http://www.w3.org/2000/svg">
<g clip-path="url(#clip0_609_17970)">
<path d="M115 0H14C6.26801 0 0 6.26801 0 14V34C0 41.732 6.26801 48 14 48H115C122.732 48 129 41.732 129 34V14C129 6.26801 122.732 0 115 0Z" fill="white"/>
<path d="M46.8498 14.3339C46.8498 15.0719 46.6378 15.7059 46.2158 16.1279C45.6878 16.6549 45.0558 16.9719 44.2108 16.9719C43.4579 16.9632 42.7383 16.6603 42.2058 16.1279C41.6778 15.5999 41.3608 14.9669 41.3608 14.1229C41.3608 13.2779 41.6778 12.6449 42.2058 12.1169C42.7328 11.5899 43.3658 11.2729 44.2108 11.2729C44.6328 11.2729 44.9498 11.3789 45.2658 11.4839C45.5828 11.5899 45.8998 11.8009 46.1108 12.1169L45.6888 12.5389C45.3718 12.1169 44.8438 11.9059 44.2108 11.9059C43.6828 11.9059 43.1558 12.1169 42.7328 12.5389C42.3108 12.9619 42.0998 13.4889 42.0998 14.1229C42.0998 14.7559 42.3108 15.2829 42.7328 15.7059C43.1558 16.1279 43.6828 16.339 44.2108 16.339C44.8438 16.339 45.2658 16.1279 45.6878 15.7059C45.8998 15.4949 46.1108 15.0719 46.1108 14.6499H44.2108V14.0169H46.8488L46.8498 14.3339ZM50.9648 12.1169H48.5378V13.8059H50.7538V14.4389H48.5378V16.1279H50.9648V16.7609H47.7998V11.4839H50.9658L50.9648 12.1169ZM53.8158 16.867H53.0768V12.1169H51.5998V11.4839H55.2938V12.1169H53.8158V16.867ZM58.0368 16.867V11.4839H58.7758V16.867H58.0368ZM61.7298 16.867H60.9908V12.1169H59.5138V11.4839H63.2078V12.1169H61.7298V16.867ZM70.1728 16.1279C69.6448 16.6549 69.0128 16.9719 68.1678 16.9719C67.415 16.9631 66.6954 16.6602 66.1628 16.1279C65.6348 15.5999 65.4228 14.9669 65.4228 14.1229C65.4228 13.3829 65.6348 12.6449 66.1628 12.1169C66.6898 11.5899 67.3228 11.2729 68.1678 11.2729C68.9068 11.2729 69.6448 11.5899 70.1728 12.1169C70.7008 12.6449 71.0168 13.2779 71.0168 14.1229C71.0168 14.9669 70.7008 15.5999 70.1728 16.1279ZM66.7958 15.7059C67.2178 16.1279 67.6398 16.339 68.2728 16.339C68.8008 16.339 69.3288 16.1279 69.7508 15.7059C70.1728 15.2839 70.3838 14.7559 70.3838 14.1229C70.3838 13.4889 70.1738 12.9619 69.7508 12.5389C69.3288 12.1169 68.9068 11.9059 68.2728 11.9059C67.7458 11.9059 67.2178 12.1169 66.7958 12.5389C66.3738 12.9619 66.1628 13.4889 66.1628 14.1229C66.1628 14.7559 66.3728 15.2829 66.7958 15.7059ZM71.9688 16.867V11.4839H72.8128L75.4518 15.5999V11.4849H76.1898V16.867H75.4518L72.7068 12.5389V16.9719H71.9688V16.867ZM65.3198 24.6749C63.2078 24.6749 61.5198 26.2579 61.5198 28.4739C61.5198 30.6899 63.2078 32.2729 65.3198 32.2729C67.4298 32.2729 69.1188 30.6899 69.1188 28.4729C69.1188 26.2579 67.4298 24.6749 65.3198 24.6749ZM65.3198 30.7949C64.1578 30.7949 63.2078 29.8449 63.2078 28.4739C63.2078 27.1019 64.1578 26.1519 65.3188 26.1519C66.4798 26.1519 67.4288 27.1019 67.4288 28.4739C67.4288 29.8459 66.4808 30.7949 65.3198 30.7949ZM56.9808 24.6749C54.8708 24.6749 53.1808 26.2579 53.1808 28.4739C53.1808 30.6899 54.8708 32.2729 56.9808 32.2729C59.0918 32.2729 60.7808 30.6899 60.7808 28.4729C60.7808 26.2579 59.0918 24.6749 56.9808 24.6749ZM56.9808 30.7949C55.8208 30.7949 54.8708 29.8449 54.8708 28.4739C54.8708 27.1019 55.8208 26.1519 56.9808 26.1519C58.1418 26.1519 59.0918 27.1019 59.0918 28.4739C59.1213 28.7682 59.0885 29.0654 58.9958 29.3462C58.903 29.627 58.7523 29.8852 58.5533 30.104C58.3544 30.3228 58.1117 30.4974 57.841 30.6164C57.5703 30.7355 57.2766 30.7963 56.9808 30.7949ZM47.1658 25.8349V27.4179H51.0708C50.9658 28.368 50.6488 29.0009 50.2268 29.423C49.6988 29.951 48.7488 30.584 47.2718 30.584C44.9498 30.584 43.0498 28.6839 43.0498 26.2579C43.0498 23.8309 44.9498 21.9309 47.2718 21.9309C48.5378 21.9309 49.4878 22.4589 50.2268 23.0909L51.3868 21.9309C50.4368 20.9809 49.1708 20.3479 47.3768 20.3479C44.1048 20.3479 41.3608 22.9859 41.3608 26.2579C41.3608 29.5279 44.1048 32.1679 47.3768 32.1679C49.1708 32.1679 50.4368 31.639 51.4928 30.478C52.5488 29.423 52.8648 27.9459 52.8648 26.6799C52.8648 26.2579 52.8648 25.9409 52.7598 25.6249H47.1658V25.8349ZM87.5878 27.1019C87.2718 26.2579 86.3218 24.6749 84.3158 24.6749C82.3108 24.6749 80.7278 26.2579 80.7278 28.4739C80.7278 30.584 82.3108 32.2729 84.5278 32.2729C86.2158 32.2729 87.2718 31.2169 87.6938 30.584L86.4268 29.7399C86.0048 30.3729 85.3718 30.7949 84.5268 30.7949C83.6828 30.7949 83.0498 30.3729 82.7328 29.6349L87.7988 27.5239L87.5878 27.1019ZM82.4168 28.368C82.4168 26.891 83.5768 26.1519 84.4218 26.1519C85.0548 26.1519 85.6888 26.4689 85.7938 26.9959L82.4168 28.368ZM78.2998 32.062H79.9878V20.8759H78.2998V32.062ZM75.5558 25.5189C75.1328 25.0969 74.3948 24.6749 73.5498 24.6749C71.6498 24.6749 69.9618 26.3629 69.9618 28.4739C69.9618 30.584 71.6508 32.2729 73.5498 32.2729C74.4998 32.2729 75.1328 31.8499 75.5558 31.4279H75.6608V31.9559C75.6608 33.4329 74.9218 34.172 73.6558 34.172C72.5998 34.172 71.9668 33.4329 71.7558 32.7999L70.2778 33.4329C70.7008 34.4889 71.7558 35.6489 73.6558 35.6489C75.6608 35.6489 77.2438 34.4889 77.2438 31.7449V24.8849H75.6608V25.5189H75.5558ZM73.6558 30.7949C72.4948 30.7949 71.5448 29.8449 71.5448 28.4739C71.5448 27.1019 72.4948 26.1519 73.6548 26.1519C74.8168 26.1519 75.6608 27.1019 75.6608 28.4739C75.6608 29.74 74.8168 30.7949 73.6558 30.7949ZM95.3968 20.8749H91.3868V32.062H93.0748V27.84H95.3968C97.2968 27.84 99.0908 26.4679 99.0908 24.3569C99.0908 22.247 97.2968 20.8749 95.3968 20.8749ZM95.3968 26.2579H93.0748V22.4579H95.3968C96.6638 22.4579 97.4018 23.5139 97.4018 24.3579C97.4018 25.2019 96.6638 26.2579 95.3968 26.2579ZM105.74 24.6749C104.579 24.6749 103.313 25.202 102.785 26.363L104.263 26.9959C104.579 26.3629 105.213 26.1519 105.74 26.1519C106.585 26.1519 107.429 26.6799 107.534 27.6289V27.735C107.218 27.524 106.585 27.313 105.846 27.313C104.263 27.313 102.68 28.157 102.68 29.846C102.68 31.323 103.946 32.2729 105.424 32.2729C106.585 32.2729 107.112 31.7449 107.534 31.2169H107.64V32.062H109.223V27.735C109.118 25.73 107.64 24.6749 105.74 24.6749ZM105.529 30.7949C105.001 30.7949 104.263 30.4789 104.263 29.8449C104.263 29.0009 105.213 28.6849 106.057 28.6849C106.796 28.6849 107.112 28.7899 107.534 29.1069C107.429 30.0569 106.479 30.7949 105.529 30.7949ZM115.028 24.8849L113.128 29.7399H113.023L111.017 24.8859H109.223L112.178 31.639L110.49 35.4389H112.178L116.716 24.8859L115.028 24.8849ZM99.9348 32.062H101.624V20.8759H99.9348V32.062Z" fill="#1D252C"/>
<path d="M13.8151 11.906C13.4981 12.223 13.3931 12.645 13.3931 13.172V32.906C13.3931 33.433 13.4981 33.856 13.8151 34.172L13.9201 34.278L25.0021 23.198V22.986L13.8151 11.906Z" fill="#1D252C" stroke="white" stroke-width="0.5" stroke-miterlimit="10"/>
<path d="M28.59 26.89L24.896 23.197V22.986L28.59 19.293H28.696L33.023 21.826C34.29 22.564 34.29 23.725 33.023 24.358L28.59 26.891V26.89Z" fill="#1D252C" stroke="white" stroke-width="0.5" stroke-miterlimit="10"/>
<path d="M28.696 26.89L24.896 23.092L13.814 34.172C14.237 34.594 14.87 34.7 15.714 34.277L28.696 26.891V26.89ZM28.696 19.293L15.609 11.906C14.869 11.484 14.237 11.484 13.815 11.906L24.896 23.092L28.696 19.293Z" fill="#1D252C"/>
<path d="M24.896 23.092L28.696 26.89V26.891L15.714 34.277C14.87 34.7 14.237 34.594 13.814 34.172L24.896 23.092ZM24.896 23.092L13.815 11.906C14.237 11.484 14.869 11.484 15.609 11.906L28.696 19.293L24.896 23.092Z" stroke="white" stroke-width="0.5" stroke-miterlimit="10"/>
<path opacity="0.2" d="M28.59 26.785L15.61 34.172C14.87 34.594 14.238 34.594 13.816 34.172L13.71 34.278L13.816 34.383C14.238 34.805 14.871 34.805 15.61 34.383L28.59 26.785Z" fill="#1D252C" stroke="white" stroke-width="0.5" stroke-miterlimit="10"/>
<path opacity="0.12" d="M13.8151 34.068C13.6041 33.751 13.3931 33.328 13.3931 32.801V32.907C13.3931 33.434 13.4981 33.857 13.8151 34.173V34.068ZM33.1281 24.253L28.6951 26.786L28.8011 26.891L33.1281 24.358C33.7611 24.042 34.0781 23.514 34.0781 23.092C33.9721 23.514 33.6561 23.937 33.1281 24.253Z" fill="#1D252C" stroke="white" stroke-width="0.5" stroke-miterlimit="10"/>
<path opacity="0.25" d="M15.7141 12.011L33.1291 21.931C33.6561 22.247 33.9731 22.669 34.0791 23.091C34.0791 22.669 33.7621 22.141 33.1291 21.825L15.7151 11.905C14.4481 11.167 13.3931 11.8 13.3931 13.172V13.278C13.3931 11.906 14.4481 11.273 15.7141 12.011Z" fill="#1D252C" stroke="white" stroke-width="0.5" stroke-miterlimit="10"/>
</g>
<defs>
<clipPath id="clip0_609_17970">
<rect width="129" height="48" fill="white"/>
</clipPath>
</defs>
</svg>
