<svg width="20" height="20" viewBox="0 0 20 20" fill="none" xmlns="http://www.w3.org/2000/svg">
  <path fill-rule="evenodd" clip-rule="evenodd" d="M2.7 7.3V2.7H7.3V7.3H2.7ZM1 2C1 1.44772 1.44772 1 2 1H8C8.55228 1 9 1.44772 9 2V8C9 8.55228 8.55228 9 8 9H2C1.44772 9 1 8.55228 1 8V2ZM2.7 17.3V12.7H7.3V17.3H2.7ZM1 12C1 11.4477 1.44772 11 2 11H8C8.55228 11 9 11.4477 9 12V18C9 18.5523 8.55228 19 8 19H2C1.44772 19 1 18.5523 1 18V12ZM12.7 2.7V7.3H17.3V2.7H12.7ZM12 1C11.4477 1 11 1.44772 11 2V8C11 8.55228 11.4477 9 12 9H18C18.5523 9 19 8.55228 19 8V2C19 1.44772 18.5523 1 18 1H12ZM12.7 17.3V12.7H17.3V17.3H12.7ZM11 12C11 11.4477 11.4477 11 12 11H18C18.5523 11 19 11.4477 19 12V18C19 18.5523 18.5523 19 18 19H12C11.4477 19 11 18.5523 11 18V12Z" fill="#00818A" />
</svg>