<svg viewBox="0 0 38 38" fill="none" xmlns="http://www.w3.org/2000/svg">
<path d="M8.96875 23.4736C8.96875 15.7416 15.2368 9.47363 22.9688 9.47363C30.7007 9.47363 36.9688 15.7416 36.9688 23.4736C36.9688 31.2056 30.7007 37.4736 22.9688 37.4736C15.2368 37.4736 8.96875 31.2056 8.96875 23.4736Z" fill="#D1EEF2"/>
<path fill-rule="evenodd" clip-rule="evenodd" d="M20.7499 2H32.2811V2.0002C32.6874 2.0002 33 2.34396 33 2.71889V30.0625C33 30.4686 32.6876 30.7812 32.2813 30.7812H20.7501C19.375 30.7812 18.5313 31.7188 18.1875 32.1563L17.9063 32.5312C17.7812 32.6875 17.5937 32.8438 17.4063 32.8438C16.9999 32.8438 16.625 32.1875 16.625 32.1563C16.2813 31.7188 15.4375 30.7813 14.0624 30.7813L2.71869 30.781C2.31259 30.781 2 30.4687 2 30.0623V2.71869C2 2.31259 2.31238 2 2.71869 2H14.0624C15.4375 2 16.6876 2.71869 17.406 3.78136C18.1249 2.6875 19.3748 2 20.7499 2ZM3.43744 3.43749V29.3437L16.7185 29.3436C16.6873 29.2811 16.6873 6.06243 16.6873 6.06243C16.6873 4.62505 15.5 3.43749 14.0624 3.43749H3.43744ZM18.0936 29.3437H31.5623L31.5622 3.43755H20.7497C19.3124 3.43755 18.1248 4.62488 18.1248 6.06249C18.1248 6.06249 18.1248 29.2811 18.0936 29.3437ZM6.28112 7.0624H13.8436C14.2499 7.0624 14.5623 7.40617 14.5623 7.78131V13.3124C14.5623 13.7185 14.2499 14.0311 13.8436 14.0311H6.28112C5.87502 14.0311 5.56243 13.7187 5.56243 13.3124V7.78109C5.56243 7.37499 5.8748 7.0624 6.28112 7.0624ZM6.99992 12.5937H13.1249V8.50001H6.99992V12.5937ZM13.8437 18.125H6.24994C5.84362 18.125 5.53125 18.4376 5.53125 18.8437C5.53125 19.25 5.84383 19.5624 6.24994 19.5624H13.8437C14.25 19.5624 14.5624 19.2498 14.5624 18.8437C14.5626 18.4376 14.2502 18.125 13.8439 18.125H13.8437ZM21.4374 23.9687H29.0311H29.0313C29.4376 23.9687 29.75 24.2813 29.7498 24.6874C29.7498 25.0935 29.4374 25.4061 29.0311 25.4061H21.4374C21.0313 25.4061 20.7187 25.0937 20.7187 24.6874C20.7187 24.2813 21.031 23.9687 21.4374 23.9687ZM29.0311 18.4375H21.4374C21.031 18.4375 20.7187 18.75 20.7187 19.1561C20.7187 19.5625 21.0313 19.8748 21.4374 19.8748H29.0311C29.4374 19.8748 29.7498 19.5623 29.7498 19.1561C29.75 18.7498 29.4376 18.4375 29.0313 18.4375H29.0311ZM21.4374 12.9375H29.0311H29.0313C29.4376 12.9375 29.75 13.2501 29.7498 13.6562C29.7498 14.0623 29.4374 14.3749 29.0311 14.3749H21.4374C21.0313 14.3749 20.7187 14.0625 20.7187 13.6562C20.7187 13.2501 21.031 12.9375 21.4374 12.9375ZM21.4374 8.84376H29.0311C29.4374 8.84376 29.7498 8.53117 29.7498 8.12506C29.7498 7.71875 29.4372 7.40637 29.0311 7.40637L21.4374 7.40616C21.031 7.40616 20.7187 7.71874 20.7187 8.12485C20.7187 8.53116 21.0313 8.84376 21.4374 8.84376ZM6.24994 23.625H13.8437H13.8439C14.2502 23.625 14.5626 23.9687 14.5624 24.3437C14.5624 24.7498 14.25 25.0623 13.8437 25.0623H6.24994C5.84383 25.0623 5.53125 24.75 5.53125 24.3437C5.53125 23.9375 5.84362 23.625 6.24994 23.625Z" fill="#00A4B3"/>
</svg>
