<svg width="20" height="21" viewBox="0 0 20 21" fill="none" xmlns="http://www.w3.org/2000/svg">
<path fill-rule="evenodd" clip-rule="evenodd" d="M18 12.971C18 13.5013 17.7894 14.0099 17.4145 14.3849L13.8995 17.9014C13.5244 18.2766 13.0156 18.4874 12.485 18.4874L7.51496 18.4874C6.98439 18.4874 6.47555 18.2766 6.10045 17.9014L2.58549 14.3849C2.2106 14.0099 2 13.5013 2 12.971L2 7.99718C2 7.46689 2.2106 6.95831 2.58549 6.58326L6.10045 3.06683C6.47555 2.69158 6.98439 2.48075 7.51497 2.48075L12.485 2.48075C13.0156 2.48075 13.5245 2.69158 13.8995 3.06683L17.4145 6.58327C17.7894 6.95831 18 7.4669 18 7.99718L18 12.971ZM14.728 19.9022C14.3529 20.2775 13.844 20.4883 13.3135 20.4883L6.68654 20.4883C6.15596 20.4883 5.64712 20.2775 5.27203 19.9022L0.585492 15.2137C0.210598 14.8387 5.38143e-07 14.3301 5.84482e-07 13.7998L1.16397e-06 7.16841C1.21031e-06 6.63812 0.210599 6.12954 0.585492 5.75449L5.27203 1.06599C5.64713 0.690739 6.15596 0.479911 6.68654 0.479911L13.3135 0.479911C13.844 0.479911 14.3529 0.69074 14.728 1.06599L19.4145 5.75449C19.7894 6.12954 20 6.63812 20 7.16841L20 13.7998C20 14.3301 19.7894 14.8387 19.4145 15.2137L14.728 19.9022ZM11.1042 9.93179C11.1042 10.5419 10.6098 11.0364 10 11.0364C9.39019 11.0364 8.89583 10.5419 8.89583 9.93179L8.89583 6.6179C8.89583 6.00783 9.39019 5.51327 10 5.51327C10.6098 5.51327 11.1042 6.00783 11.1042 6.6179L11.1042 9.93179ZM11.3802 14.0741C11.3802 14.8367 10.7623 15.4549 10 15.4549C9.23773 15.4549 8.61979 14.8367 8.61979 14.0741C8.61979 13.3116 9.23773 12.6934 10 12.6934C10.7623 12.6934 11.3802 13.3116 11.3802 14.0741Z" fill="#A40000"/>
</svg>
