<svg width="17" height="12" viewBox="0 0 17 12" fill="none" xmlns="http://www.w3.org/2000/svg">
<path fill-rule="evenodd" clip-rule="evenodd" d="M5.95056 8.65129L14.2882 0.564076L14.2951 0.564133L14.3513 0.517514C14.7018 0.227045 15.182 0.127255 15.6266 0.25453C16.0711 0.381698 16.415 0.716974 16.5445 1.14129C16.6734 1.56244 16.5746 2.01906 16.2797 2.35598L6.91998 11.4169C6.66556 11.6618 6.32003 11.8002 5.95851 11.8002C5.59705 11.8002 5.25127 11.6615 4.99684 11.4167L0.320151 6.8893C0.0253335 6.55243 -0.0733298 6.09577 0.0553625 5.67449C0.184887 5.25021 0.529015 4.91504 0.973293 4.78785C1.41542 4.66127 1.893 4.75929 2.24257 5.04595L5.95056 8.65129Z" fill="#00A4B3"/>
</svg>
