<?xml version="1.0" encoding="UTF-8"?>
<svg id="Layer_1" data-name="Layer 1" xmlns="http://www.w3.org/2000/svg" viewBox="0 0 210 60">
  <defs>
    <style>
      .cls-1 {
        fill: #00acbb;
      }

      .cls-2 {
        fill: #242e68;
      }
    </style>
  </defs>
  <path class="cls-1" d="m190.28,11.62h-57.76v33.56h57.76l14.72-16.38-14.72-17.18Zm-38.18,28.84l-1.72-6.62h-7.7l-1.79,6.62h-3.11l6.96-24.12h3.98l6.49,24.12h-3.11Zm11.42,0h-3.78l-5.88-24.12h3.11l4.73,20.7h.07l4.73-20.7h3.1l-6.08,24.12Zm20.5,0h-12.87v-24.12h12.47v2.63h-9.49v7.57h8.95v2.63h-8.95v8.65h9.89v2.64Zm-37.39-20.71l-3.35,11.65h6.49l-3.07-11.65h-.07Z"/>
  <g>
    <path class="cls-2" d="m22.77,31.26c-.15,4.36-.9,9.36-6.26,9.36-6.1,0-6.9-6.7-6.9-14.96s.8-14.97,6.9-14.97c4.56,0,5.86,3.45,5.96,7.51h4.61c-.2-7.01-3.26-11.12-10.57-11.12-9.86,0-11.51,9.56-11.51,18.58s1.35,18.57,11.51,18.57c7.81,0,10.47-6.21,10.87-12.97h-4.61Z"/>
    <path class="cls-2" d="m38.76,15.99c-7.71,0-9.66,6.56-9.66,14.12s1.9,14.12,9.66,14.12,9.66-6.56,9.66-14.12-1.9-14.12-9.66-14.12Zm-.1,24.93c-4.31,0-5.16-5-5.16-10.81s.9-10.81,5.16-10.81c4.5,0,5.35,5,5.35,10.81s-.9,10.81-5.35,10.81Z"/>
    <path class="cls-2" d="m50.94,7.78v35.75h4.2V7.78h-4.2Z"/>
    <path class="cls-2" d="m58.7,7.78v35.75h4.21V7.78h-4.21Z"/>
    <path class="cls-2" d="m84.11,28.91c0-5.76-.75-12.92-8.96-12.92s-9.56,7.76-9.56,14.47c0,9.21,2.75,13.77,9.31,13.77,7.31,0,9.01-6.66,9.01-9.51h-4.21c0,2-.55,6.2-4.55,6.2-5.16,0-5.16-6.2-5.16-10.31h14.12v-1.7Zm-4.41-1.6h-9.56v-1c0-1.61.5-7.01,4.91-7.01,3.7,0,4.65,3.55,4.65,6.56v1.45Z"/>
    <path class="cls-2" d="m100.48,16.69v3.41h-.1c-.55-2.1-2.9-4.11-5.81-4.11-6.81,0-8.76,6.86-8.76,14.12,0,3.56.5,13.42,8.31,13.42,2.65,0,5.16-1.35,6.06-3.61h.1v3.51c0,1.85.2,6.01-5.21,6.01-2.2,0-4.1-.96-4.3-3.41h-4.21c.7,6.71,7.16,6.71,8.81,6.71,5.41,0,9.11-2.9,9.11-10.91v-25.14h-4Zm-5.41,23.23c-4.2,0-4.85-5.45-4.85-9.81,0-6.41,1-10.51,4.9-10.51,4.51,0,5.41,5.3,5.41,10.51,0,5.51-.9,9.81-5.46,9.81Z"/>
    <path class="cls-2" d="m125.57,28.91c0-5.76-.75-12.92-8.96-12.92s-9.57,7.76-9.57,14.47c0,9.21,2.76,13.77,9.32,13.77,7.3,0,9.01-6.66,9.01-9.51h-4.21c0,2-.55,6.2-4.55,6.2-5.16,0-5.16-6.2-5.16-10.31h14.12v-1.7Zm-4.41-1.6h-9.56v-1c0-1.61.5-7.01,4.9-7.01,3.71,0,4.66,3.55,4.66,6.56v1.45Z"/>
  </g>
  <path class="cls-1" d="m200.87,14.43c.29-.03.53-.13.72-.29.19-.16.29-.41.29-.76,0-.37-.11-.64-.33-.83-.22-.18-.56-.27-1.01-.27h-1.49v3.84h.6v-1.65h.63l1.05,1.65h.64l-1.1-1.69Zm-.6-.44h-.62v-1.23h.79c.1,0,.2.01.3.03.1.01.2.04.27.08.08.04.15.1.2.18.05.07.07.17.07.3,0,.16-.03.27-.08.36-.06.08-.13.15-.23.19-.09.04-.2.06-.32.07-.12.01-.24.02-.38.02Zm.6.44c.29-.03.53-.13.72-.29.19-.16.29-.41.29-.76,0-.37-.11-.64-.33-.83-.22-.18-.56-.27-1.01-.27h-1.49v3.84h.6v-1.65h.63l1.05,1.65h.64l-1.1-1.69Zm-.6-.44h-.62v-1.23h.79c.1,0,.2.01.3.03.1.01.2.04.27.08.08.04.15.1.2.18.05.07.07.17.07.3,0,.16-.03.27-.08.36-.06.08-.13.15-.23.19-.09.04-.2.06-.32.07-.12.01-.24.02-.38.02Zm.6.44c.29-.03.53-.13.72-.29.19-.16.29-.41.29-.76,0-.37-.11-.64-.33-.83-.22-.18-.56-.27-1.01-.27h-1.49v3.84h.6v-1.65h.63l1.05,1.65h.64l-1.1-1.69Zm-.6-.44h-.62v-1.23h.79c.1,0,.2.01.3.03.1.01.2.04.27.08.08.04.15.1.2.18.05.07.07.17.07.3,0,.16-.03.27-.08.36-.06.08-.13.15-.23.19-.09.04-.2.06-.32.07-.12.01-.24.02-.38.02Zm.6.44c.29-.03.53-.13.72-.29.19-.16.29-.41.29-.76,0-.37-.11-.64-.33-.83-.22-.18-.56-.27-1.01-.27h-1.49v3.84h.6v-1.65h.63l1.05,1.65h.64l-1.1-1.69Zm-.6-.44h-.62v-1.23h.79c.1,0,.2.01.3.03.1.01.2.04.27.08.08.04.15.1.2.18.05.07.07.17.07.3,0,.16-.03.27-.08.36-.06.08-.13.15-.23.19-.09.04-.2.06-.32.07-.12.01-.24.02-.38.02Zm3.09-1.09c-.17-.4-.41-.75-.71-1.04-.3-.29-.64-.52-1.04-.69-.4-.17-.83-.25-1.28-.25s-.87.08-1.28.25c-.4.17-.75.4-1.05.69-.3.29-.54.64-.72,1.04-.17.4-.26.83-.26,1.29s.09.91.26,1.31c.18.4.42.75.72,1.05.3.29.65.52,1.05.69.41.16.83.24,1.28.24s.88-.08,1.28-.24c.4-.17.74-.4,1.04-.69.3-.3.54-.65.71-1.05.18-.4.27-.84.27-1.31s-.09-.89-.27-1.29Zm-.54,2.41c-.13.34-.32.64-.57.89-.24.25-.53.45-.85.59-.33.15-.69.22-1.07.22s-.74-.07-1.07-.22c-.34-.14-.62-.34-.87-.59-.24-.25-.43-.55-.57-.89-.13-.34-.2-.72-.2-1.12s.07-.76.2-1.1c.14-.34.33-.63.57-.88.25-.25.53-.45.87-.59.33-.15.69-.22,1.07-.22s.74.07,1.07.22c.32.14.61.34.85.59.25.25.44.54.57.88.14.34.21.71.21,1.1s-.07.78-.21,1.12Zm-1.23-1.17c.19-.16.29-.41.29-.76,0-.37-.11-.64-.33-.83-.22-.18-.56-.27-1.01-.27h-1.49v3.84h.6v-1.65h.63l1.05,1.65h.64l-1.1-1.69c.29-.03.53-.13.72-.29Zm-1.32-.15h-.62v-1.23h.79c.1,0,.2.01.3.03.1.01.2.04.27.08.08.04.15.1.2.18.05.07.07.17.07.3,0,.16-.03.27-.08.36-.06.08-.13.15-.23.19-.09.04-.2.06-.32.07-.12.01-.24.02-.38.02Zm.6.44c.29-.03.53-.13.72-.29.19-.16.29-.41.29-.76,0-.37-.11-.64-.33-.83-.22-.18-.56-.27-1.01-.27h-1.49v3.84h.6v-1.65h.63l1.05,1.65h.64l-1.1-1.69Zm-.6-.44h-.62v-1.23h.79c.1,0,.2.01.3.03.1.01.2.04.27.08.08.04.15.1.2.18.05.07.07.17.07.3,0,.16-.03.27-.08.36-.06.08-.13.15-.23.19-.09.04-.2.06-.32.07-.12.01-.24.02-.38.02Zm.6.44c.29-.03.53-.13.72-.29.19-.16.29-.41.29-.76,0-.37-.11-.64-.33-.83-.22-.18-.56-.27-1.01-.27h-1.49v3.84h.6v-1.65h.63l1.05,1.65h.64l-1.1-1.69Zm-.6-.44h-.62v-1.23h.79c.1,0,.2.01.3.03.1.01.2.04.27.08.08.04.15.1.2.18.05.07.07.17.07.3,0,.16-.03.27-.08.36-.06.08-.13.15-.23.19-.09.04-.2.06-.32.07-.12.01-.24.02-.38.02Z"/>
</svg>