<svg viewBox="0 0 20 20" fill="none" xmlns="http://www.w3.org/2000/svg">
<mask id="mask0_702_2629" style="mask-type:luminance" maskUnits="userSpaceOnUse" x="1" y="1" width="18" height="18">
<path d="M19 1H1V19H19V1Z" fill="white"/>
</mask>
<g mask="url(#mask0_702_2629)">
<path d="M18.5757 17.3543L14.41 13.2529L14.5 13.1371C16.7628 10.1929 16.4671 5.97572 13.8314 3.35286C12.43 1.93857 10.5657 1.15429 8.58569 1.15429C6.60569 1.15429 4.7414 1.93857 3.32711 3.35286C0.434256 6.25857 0.434256 11.0029 3.32711 13.9086C4.72854 15.3229 6.59283 16.0943 8.57283 16.0943C10.2314 16.0943 11.7743 15.5671 13.0471 14.5771L13.1628 14.4871L17.3543 18.5629C17.5214 18.73 17.74 18.82 17.9714 18.82C18.2028 18.82 18.4343 18.7171 18.5885 18.5629C18.91 18.2414 18.8971 17.6757 18.5628 17.3414L18.5757 17.3543ZM12.6357 12.6871C11.5814 13.7671 10.1543 14.3586 8.59854 14.3586C7.04283 14.3586 5.67997 13.78 4.5614 12.6871C2.34997 10.4629 2.34997 6.82429 4.5614 4.57429C5.6414 3.49429 7.06854 2.90286 8.59854 2.90286C10.1285 2.90286 11.5171 3.48143 12.6357 4.57429C13.7157 5.62858 14.3071 7.06858 14.3071 8.63715C14.3071 10.2057 13.7285 11.5686 12.6485 12.6871H12.6357Z" fill="#fff"/>
</g>
</svg>