<svg viewBox="0 0 52 52" fill="none" xmlns="http://www.w3.org/2000/svg">
<path d="M12.2734 31.4738C12.2734 20.8932 20.8507 12.3159 31.4313 12.3159C42.0119 12.3159 50.5892 20.8932 50.5892 31.4738C50.5892 42.0544 42.0119 50.6317 31.4313 50.6317C20.8507 50.6317 12.2734 42.0544 12.2734 31.4738Z" fill="#D1EEF2"/>
<g clip-path="url(#clip0_1515_22194)">
<path d="M46.6723 16.8311C46.8836 16.6241 47 16.358 47 16.0819C47 15.8059 46.8836 15.5408 46.6723 15.3327L43.4141 12.14C42.9782 11.7129 42.3208 11.7129 41.886 12.14L38.198 15.7538V4.59912C38.198 4.57012 38.1959 4.54111 38.1939 4.5131C38.0857 1.98148 35.9758 0 33.3912 0H4.52198C4.44134 0 4.35764 0.0100024 4.27291 0.0290071C1.83431 0.297073 0 2.30856 0 4.71115V8.52008C0 9.11023 0.489966 9.59034 1.09222 9.59034H7.43115V40.4479C7.43115 40.4859 7.43319 40.5229 7.43728 40.5589C7.49954 41.8002 8.08546 42.9925 9.04498 43.8327C9.98408 44.6549 11.1774 45.067 12.4074 44.991H12.5248H40.8203C43.4712 44.991 45.6281 42.9025 45.6281 40.3359V37.6472C45.6281 37.0571 45.1381 36.5769 44.5359 36.5769H38.1969V25.3242C38.1969 25.2792 38.1929 25.2322 38.1847 25.1762L38.1806 25.1511L38.199 25.1331L46.6713 16.8311H46.6723ZM7.43115 7.44982H2.18443V4.71115C2.18443 3.2938 3.36239 2.14052 4.80881 2.14052C6.25523 2.14052 7.41992 3.2608 7.43115 4.69015V7.44882V7.44982ZM14.8623 37.6472V40.3359C14.8623 41.7532 13.6854 42.9065 12.2389 42.9065C10.7925 42.9065 9.61559 41.7532 9.61559 40.3359V4.72015V4.71115V4.59912C9.61559 4.57012 9.61252 4.54111 9.61048 4.5131C9.57578 3.6979 9.32569 2.90471 8.88778 2.21754L8.83878 2.14052H33.3892C34.8356 2.14052 36.0125 3.2938 36.0125 4.71115V17.8954L27.2513 26.4805C27.0288 26.6445 26.9236 26.8516 26.9236 27.1176L26.5807 30.6515C26.5807 30.9896 26.7001 31.3036 26.9083 31.5077C27.1166 31.7118 27.3911 31.8288 27.6729 31.8288H27.7872L31.3834 31.4927C31.6539 31.4257 31.9009 31.3057 32.0377 31.1716L36.0115 27.2777V36.5779H15.9545C15.3523 36.5779 14.8623 37.0581 14.8623 37.6482V37.6472ZM43.4437 38.7175V40.2798C43.4437 41.6972 42.2667 42.8505 40.8203 42.8505H16.2638L16.3118 42.7745C16.7926 42.0083 17.0478 41.1651 17.0478 40.3359V38.7175H43.4437ZM30.725 29.3492L28.8733 29.5252L29.0529 27.7108L42.5924 14.4435L44.2654 16.0829L30.726 29.3502L30.725 29.3492Z" fill="#00A4B3"/>
<path d="M21.6705 29.8555H14.811C14.2087 29.8555 13.7188 30.3356 13.7188 30.9257C13.7188 31.5159 14.2087 31.996 14.811 31.996H21.6705C22.2727 31.996 22.7627 31.5159 22.7627 30.9257C22.7627 30.3356 22.2727 29.8555 21.6705 29.8555Z" fill="#00A4B3"/>
<path d="M23.957 23.1338H14.811C14.2087 23.1338 13.7188 23.6139 13.7188 24.2041C13.7188 24.7942 14.2087 25.2743 14.811 25.2743H23.957C24.5592 25.2743 25.0492 24.7942 25.0492 24.2041C25.0492 23.6139 24.5592 23.1338 23.957 23.1338Z" fill="#00A4B3"/>
<path d="M14.811 18.5526H31.3882C31.9904 18.5526 32.4804 18.0725 32.4804 17.4824C32.4804 16.8922 31.9904 16.4121 31.3882 16.4121H14.811C14.2087 16.4121 13.7188 16.8922 13.7188 17.4824C13.7188 18.0725 14.2087 18.5526 14.811 18.5526Z" fill="#00A4B3"/>
<path d="M14.811 11.831H31.3882C31.9904 11.831 32.4804 11.3508 32.4804 10.7607C32.4804 10.1705 31.9904 9.69043 31.3882 9.69043H14.811C14.2087 9.69043 13.7188 10.1705 13.7188 10.7607C13.7188 11.3508 14.2087 11.831 14.811 11.831Z" fill="#00A4B3"/>
</g>
<defs>
<clipPath id="clip0_1515_22194">
<rect width="47" height="45" fill="white"/>
</clipPath>
</defs>
</svg>
