<svg width="199" height="180" viewBox="0 0 199 180" fill="none" xmlns="http://www.w3.org/2000/svg">
<g clip-path="url(#clip0_337_41074)">
<path d="M196.262 86.569H2.08C0.931 86.569 0 85.638 0 84.489V2.08C0 0.931 0.931 0 2.08 0H196.262C197.411 0 198.342 0.931 198.342 2.08V84.489C198.342 85.638 197.411 86.569 196.262 86.569Z" fill="white"/>
<path d="M49.5398 25V13.1H55.0648C56.4248 13.1 57.4958 13.474 58.1758 14.154C58.7198 14.698 58.9918 15.361 58.9918 16.177V16.211C58.9918 17.554 58.2778 18.302 57.4278 18.778C58.8048 19.305 59.6548 20.104 59.6548 21.702V21.736C59.6548 23.912 57.8868 25 55.2008 25H49.5398ZM56.3908 16.653V16.619C56.3908 15.837 55.7788 15.395 54.6738 15.395H52.0898V17.911H54.5038C55.6598 17.911 56.3908 17.537 56.3908 16.653ZM57.0538 21.379C57.0538 20.58 56.4588 20.087 55.1158 20.087H52.0898V22.705H55.2008C56.3568 22.705 57.0538 22.297 57.0538 21.413V21.379ZM65.8544 25.204C63.1174 25.204 61.0944 23.283 61.0944 20.495V20.461C61.0944 17.86 62.9474 15.718 65.5994 15.718C68.6424 15.718 70.0364 18.081 70.0364 20.665C70.0364 20.869 70.0194 21.107 70.0024 21.345H63.6614C63.9164 22.518 64.7324 23.13 65.8884 23.13C66.7554 23.13 67.3844 22.858 68.0984 22.195L69.5774 23.504C68.7274 24.558 67.5034 25.204 65.8544 25.204ZM63.6274 19.73H67.5204C67.3674 18.574 66.6874 17.792 65.5994 17.792C64.5284 17.792 63.8314 18.557 63.6274 19.73ZM75.1582 25.17C73.8832 25.17 72.4552 24.745 71.2482 23.793L72.3532 22.093C73.3392 22.807 74.3762 23.181 75.2262 23.181C75.9742 23.181 76.3142 22.909 76.3142 22.501V22.467C76.3142 21.906 75.4302 21.719 74.4272 21.413C73.1522 21.039 71.7072 20.444 71.7072 18.676V18.642C71.7072 16.789 73.2032 15.752 75.0392 15.752C76.1952 15.752 77.4532 16.143 78.4392 16.806L77.4532 18.591C76.5522 18.064 75.6512 17.741 74.9882 17.741C74.3592 17.741 74.0362 18.013 74.0362 18.37V18.404C74.0362 18.914 74.9032 19.152 75.8892 19.492C77.1642 19.917 78.6432 20.529 78.6432 22.195V22.229C78.6432 24.252 77.1302 25.17 75.1582 25.17ZM83.4063 25.153C81.8253 25.153 80.7543 24.524 80.7543 22.416V18.098H79.6663V15.888H80.7543V13.559H83.3383V15.888H85.4803V18.098H83.3383V21.991C83.3383 22.586 83.5933 22.875 84.1713 22.875C84.6473 22.875 85.0723 22.756 85.4463 22.552V24.626C84.9023 24.949 84.2733 25.153 83.4063 25.153ZM92.7537 25V13.1H97.6157C100.455 13.1 102.172 14.783 102.172 17.214V17.248C102.172 20.002 100.03 21.43 97.3607 21.43H95.3717V25H92.7537ZM95.3717 19.101H97.4457C98.7547 19.101 99.5197 18.319 99.5197 17.299V17.265C99.5197 16.092 98.7037 15.463 97.3947 15.463H95.3717V19.101ZM103.837 25V15.888H106.421V17.724C106.948 16.466 107.798 15.65 109.328 15.718V18.421H109.192C107.475 18.421 106.421 19.458 106.421 21.634V25H103.837ZM110.994 14.885V12.59H113.714V14.885H110.994ZM111.062 25V15.888H113.646V25H111.062ZM118.844 25.068L115.257 15.888H117.994L120.034 21.991L122.091 15.888H124.777L121.19 25.068H118.844ZM128.418 25.17C126.701 25.17 125.29 24.184 125.29 22.382V22.348C125.29 20.359 126.803 19.441 128.962 19.441C129.88 19.441 130.543 19.594 131.189 19.815V19.662C131.189 18.591 130.526 17.996 129.234 17.996C128.248 17.996 127.551 18.183 126.718 18.489L126.072 16.517C127.075 16.075 128.061 15.786 129.608 15.786C131.019 15.786 132.039 16.16 132.685 16.806C133.365 17.486 133.671 18.489 133.671 19.713V25H131.172V24.014C130.543 24.711 129.676 25.17 128.418 25.17ZM129.2 23.385C130.407 23.385 131.223 22.722 131.223 21.787V21.328C130.781 21.124 130.203 20.988 129.574 20.988C128.469 20.988 127.789 21.43 127.789 22.246V22.28C127.789 22.977 128.367 23.385 129.2 23.385ZM138.889 25.153C137.308 25.153 136.237 24.524 136.237 22.416V18.098H135.149V15.888H136.237V13.559H138.821V15.888H140.963V18.098H138.821V21.991C138.821 22.586 139.076 22.875 139.654 22.875C140.13 22.875 140.555 22.756 140.929 22.552V24.626C140.385 24.949 139.756 25.153 138.889 25.153ZM146.936 25.204C144.199 25.204 142.176 23.283 142.176 20.495V20.461C142.176 17.86 144.029 15.718 146.681 15.718C149.724 15.718 151.118 18.081 151.118 20.665C151.118 20.869 151.101 21.107 151.084 21.345H144.743C144.998 22.518 145.814 23.13 146.97 23.13C147.837 23.13 148.466 22.858 149.18 22.195L150.659 23.504C149.809 24.558 148.585 25.204 146.936 25.204ZM144.709 19.73H148.602C148.449 18.574 147.769 17.792 146.681 17.792C145.61 17.792 144.913 18.557 144.709 19.73ZM47.9706 45.17C46.1686 45.17 44.3496 44.541 42.9216 43.266L44.4686 41.413C45.5396 42.297 46.6616 42.858 48.0216 42.858C49.0926 42.858 49.7386 42.433 49.7386 41.736V41.702C49.7386 41.039 49.3306 40.699 47.3416 40.189C44.9446 39.577 43.3976 38.914 43.3976 36.551V36.517C43.3976 34.358 45.1316 32.93 47.5626 32.93C49.2966 32.93 50.7756 33.474 51.9826 34.443L50.6226 36.415C49.5686 35.684 48.5316 35.242 47.5286 35.242C46.5256 35.242 45.9986 35.701 45.9986 36.279V36.313C45.9986 37.095 46.5086 37.35 48.5656 37.877C50.9796 38.506 52.3396 39.373 52.3396 41.447V41.481C52.3396 43.844 50.5376 45.17 47.9706 45.17ZM57.3336 45.153C55.7526 45.153 54.6816 44.524 54.6816 42.416V38.098H53.5936V35.888H54.6816V33.559H57.2656V35.888H59.4076V38.098H57.2656V41.991C57.2656 42.586 57.5206 42.875 58.0986 42.875C58.5746 42.875 58.9996 42.756 59.3736 42.552V44.626C58.8296 44.949 58.2006 45.153 57.3336 45.153ZM64.3383 45.17C62.3833 45.17 61.2443 43.878 61.2443 41.787V35.888H63.8283V40.971C63.8283 42.195 64.4062 42.824 65.3923 42.824C66.3783 42.824 67.0073 42.195 67.0073 40.971V35.888H69.5913V45H67.0073V43.708C66.4123 44.473 65.6473 45.17 64.3383 45.17ZM75.644 45.17C73.519 45.17 71.496 43.504 71.496 40.461V40.427C71.496 37.384 73.485 35.718 75.644 35.718C77.021 35.718 77.871 36.347 78.483 37.078V32.59H81.067V45H78.483V43.691C77.854 44.541 76.987 45.17 75.644 45.17ZM76.307 42.977C77.514 42.977 78.517 41.974 78.517 40.461V40.427C78.517 38.914 77.514 37.911 76.307 37.911C75.1 37.911 74.08 38.897 74.08 40.427V40.461C74.08 41.974 75.1 42.977 76.307 42.977ZM87.6937 45.204C84.9567 45.204 82.9337 43.283 82.9337 40.495V40.461C82.9337 37.86 84.7867 35.718 87.4387 35.718C90.4817 35.718 91.8757 38.081 91.8757 40.665C91.8757 40.869 91.8587 41.107 91.8417 41.345H85.5007C85.7557 42.518 86.5717 43.13 87.7277 43.13C88.5947 43.13 89.2237 42.858 89.9377 42.195L91.4167 43.504C90.5667 44.558 89.3427 45.204 87.6937 45.204ZM85.4667 39.73H89.3597C89.2067 38.574 88.5267 37.792 87.4387 37.792C86.3677 37.792 85.6707 38.557 85.4667 39.73ZM93.8015 45V35.888H96.3855V37.18C96.9805 36.415 97.7455 35.718 99.0545 35.718C101.01 35.718 102.149 37.01 102.149 39.101V45H99.5645V39.917C99.5645 38.693 98.9865 38.064 98.0005 38.064C97.0145 38.064 96.3855 38.693 96.3855 39.917V45H93.8015ZM107.47 45.153C105.889 45.153 104.818 44.524 104.818 42.416V38.098H103.73V35.888H104.818V33.559H107.402V35.888H109.544V38.098H107.402V41.991C107.402 42.586 107.657 42.875 108.235 42.875C108.711 42.875 109.136 42.756 109.51 42.552V44.626C108.966 44.949 108.337 45.153 107.47 45.153ZM116.818 45V33.1H119.436V42.62H125.369V45H116.818ZM131.376 45.204C128.554 45.204 126.463 43.113 126.463 40.495V40.461C126.463 37.843 128.571 35.718 131.41 35.718C134.232 35.718 136.323 37.809 136.323 40.427V40.461C136.323 43.079 134.215 45.204 131.376 45.204ZM131.41 42.977C132.889 42.977 133.773 41.838 133.773 40.495V40.461C133.773 39.118 132.804 37.945 131.376 37.945C129.897 37.945 129.013 39.084 129.013 40.427V40.461C129.013 41.804 129.982 42.977 131.41 42.977ZM140.778 45.17C139.061 45.17 137.65 44.184 137.65 42.382V42.348C137.65 40.359 139.163 39.441 141.322 39.441C142.24 39.441 142.903 39.594 143.549 39.815V39.662C143.549 38.591 142.886 37.996 141.594 37.996C140.608 37.996 139.911 38.183 139.078 38.489L138.432 36.517C139.435 36.075 140.421 35.786 141.968 35.786C143.379 35.786 144.399 36.16 145.045 36.806C145.725 37.486 146.031 38.489 146.031 39.713V45H143.532V44.014C142.903 44.711 142.036 45.17 140.778 45.17ZM141.56 43.385C142.767 43.385 143.583 42.722 143.583 41.787V41.328C143.141 41.124 142.563 40.988 141.934 40.988C140.829 40.988 140.149 41.43 140.149 42.246V42.28C140.149 42.977 140.727 43.385 141.56 43.385ZM148.255 45V35.888H150.839V37.18C151.434 36.415 152.199 35.718 153.508 35.718C155.463 35.718 156.602 37.01 156.602 39.101V45H154.018V39.917C154.018 38.693 153.44 38.064 152.454 38.064C151.468 38.064 150.839 38.693 150.839 39.917V45H148.255Z" fill="#00682C"/>
<path d="M81.8763 64.156C79.1073 64.156 77.2483 61.985 77.2483 59.476V59.45C77.2483 56.941 79.1333 54.744 81.9023 54.744C84.6713 54.744 86.5303 56.915 86.5303 59.424V59.45C86.5303 61.959 84.6453 64.156 81.8763 64.156ZM81.9023 63.207C83.9823 63.207 85.4643 61.543 85.4643 59.476V59.45C85.4643 57.383 83.9563 55.693 81.8763 55.693C79.7963 55.693 78.3143 57.357 78.3143 59.424V59.45C78.3143 61.517 79.8223 63.207 81.9023 63.207ZM90.7762 64.052L87.8642 57.279H88.9692L91.2312 62.856L93.5062 57.279H94.5852L91.6602 64.052H90.7762ZM98.7015 64.156C96.8555 64.156 95.3475 62.739 95.3475 60.659V60.633C95.3475 58.696 96.7125 57.136 98.5715 57.136C100.561 57.136 101.705 58.722 101.705 60.685C101.705 60.815 101.705 60.893 101.692 61.01H96.3615C96.5045 62.466 97.5315 63.285 98.7275 63.285C99.6505 63.285 100.301 62.908 100.847 62.336L101.471 62.895C100.795 63.649 99.9755 64.156 98.7015 64.156ZM96.3615 60.269H100.691C100.587 59.047 99.8845 57.981 98.5455 57.981C97.3755 57.981 96.4915 58.956 96.3615 60.269ZM103.457 64V57.279H104.458V59.034C104.952 57.916 105.927 57.11 107.201 57.162V58.241H107.123C105.654 58.241 104.458 59.294 104.458 61.322V64H103.457ZM110.397 64.143C109.149 64.143 107.888 63.428 107.888 62.05V62.024C107.888 60.607 109.058 59.853 110.761 59.853C111.619 59.853 112.23 59.97 112.828 60.139V59.905C112.828 58.696 112.087 58.072 110.826 58.072C110.033 58.072 109.409 58.28 108.785 58.566L108.486 57.747C109.227 57.409 109.955 57.188 110.93 57.188C111.879 57.188 112.607 57.435 113.101 57.929C113.556 58.384 113.79 59.034 113.79 59.892V64H112.828V62.986C112.36 63.597 111.58 64.143 110.397 64.143ZM110.592 63.35C111.827 63.35 112.841 62.596 112.841 61.53V60.88C112.347 60.737 111.684 60.594 110.865 60.594C109.604 60.594 108.902 61.14 108.902 61.985V62.011C108.902 62.856 109.682 63.35 110.592 63.35ZM116.015 64V54.51H117.016V64H116.015ZM119.43 64V54.51H120.431V64H119.43Z" fill="#00682C"/>
<g clip-path="url(#clip1_337_41074)">
<path d="M135.195 80.7053C136.367 80.7053 137.32 81.7034 137.32 82.9398V175.707C137.32 176.62 136.608 177.3 135.806 177.3C135.616 177.3 135.419 177.261 135.229 177.176L99.9916 163.031L64.7544 177.176C64.5637 177.261 64.3675 177.3 64.1769 177.3C63.3808 177.3 62.6631 176.626 62.6631 175.707V82.9398C62.6631 81.7034 63.6162 80.7053 64.788 80.7053H135.184M135.184 78H64.7992C62.1529 78 60 80.2175 60 82.9398V175.707C60 178.077 61.8782 180.006 64.1825 180.006C64.7319 180.006 65.2646 179.898 65.7748 179.682L99.9972 165.941L134.22 179.682C134.73 179.898 135.262 180.006 135.812 180.006C138.122 180.006 139.994 178.077 139.994 175.707V82.9398C139.994 80.2175 137.841 78 135.195 78H135.184Z" fill="white"/>
<path d="M135.195 80.6939H64.7824C63.6106 80.6939 62.6575 81.6978 62.6575 82.9285V175.718C62.6575 176.852 63.7508 177.618 64.7487 177.187L99.9916 163.037L135.234 177.187C136.232 177.618 137.326 176.852 137.326 175.718V82.9285C137.326 81.6921 136.373 80.6939 135.201 80.6939H135.195Z" fill="#267F4C"/>
<path d="M62.6574 146.817V175.712C62.6574 176.847 63.7507 177.612 64.7487 177.181L99.9915 163.031L62.6574 146.817Z" fill="#00682C"/>
<path d="M81.0193 123.541H81.9331L85.8802 132.712H84.8261L83.8113 130.307H79.0962L78.0702 132.712H77.0667L81.0137 123.541H81.0193ZM83.4301 129.383L81.4622 124.738L79.4831 129.383H83.4301Z" fill="white"/>
<path d="M86.5417 125.986H87.5565L89.2385 131.385L90.9597 125.957H91.7502L93.4827 131.385L95.1646 125.986H96.157L93.9032 132.763H93.0734L91.3522 127.454L89.6197 132.763H88.7788L86.5361 125.986H86.5417Z" fill="white"/>
<path d="M97.2559 130.761V130.733C97.2559 129.315 98.3716 128.56 99.9919 128.56C100.81 128.56 101.388 128.68 101.96 128.844V128.611C101.96 127.403 101.253 126.774 100.054 126.774C99.2966 126.774 98.7024 126.984 98.1081 127.267L97.8221 126.445C98.5285 126.105 99.2182 125.884 100.149 125.884C101.08 125.884 101.747 126.133 102.218 126.626C102.649 127.08 102.874 127.732 102.874 128.589V132.701H101.96V131.685C101.517 132.298 100.771 132.842 99.6443 132.842C98.4557 132.842 97.2559 132.128 97.2559 130.75V130.761ZM101.971 130.239V129.587C101.5 129.445 100.866 129.303 100.087 129.303C98.8874 129.303 98.2202 129.848 98.2202 130.693V130.721C98.2202 131.566 98.9603 132.06 99.8293 132.06C101.007 132.06 101.971 131.305 101.971 130.239Z" fill="white"/>
<path d="M105.156 125.985H106.109V127.744C106.58 126.626 107.505 125.815 108.721 125.872V126.95H108.648C107.252 126.95 106.109 128.004 106.109 130.035V132.717H105.156V125.991V125.985Z" fill="white"/>
<path d="M109.781 129.366V129.337C109.781 127.137 111.306 125.838 112.836 125.838C114.025 125.838 114.793 126.513 115.287 127.267V123.207H116.24V132.706H115.287V131.351C114.765 132.156 114.014 132.848 112.836 132.848C111.3 132.848 109.781 131.572 109.781 129.36V129.366ZM115.326 129.354V129.326C115.326 127.778 114.199 126.734 113.01 126.734C111.822 126.734 110.756 127.698 110.756 129.326V129.354C110.756 130.942 111.794 131.958 113.01 131.958C114.227 131.958 115.326 130.903 115.326 129.354Z" fill="white"/>
<path d="M118.084 131.855L118.566 131.141C119.262 131.685 120.024 131.997 120.781 131.997C121.538 131.997 122.104 131.583 122.104 130.931V130.903C122.104 130.228 121.347 129.967 120.506 129.717C119.503 129.417 118.393 129.054 118.393 127.817V127.789C118.393 126.632 119.307 125.861 120.568 125.861C121.347 125.861 122.216 126.144 122.872 126.604L122.441 127.358C121.846 126.955 121.168 126.706 120.546 126.706C119.789 126.706 119.307 127.12 119.307 127.681V127.71C119.307 128.345 120.097 128.594 120.955 128.867C121.947 129.179 123.007 129.581 123.007 130.795V130.823C123.007 132.099 122.003 132.842 120.731 132.842C119.817 132.842 118.802 132.462 118.084 131.855Z" fill="white"/>
<path d="M76.0057 111.183H79.6948C80.6871 111.183 81.4665 111.484 81.9598 111.989C82.3187 112.38 82.5149 112.862 82.5149 113.446V113.475C82.5149 114.66 81.8197 115.272 81.1413 115.584C82.1673 115.908 82.997 116.531 82.997 117.785V117.813C82.997 119.373 81.7468 120.297 79.8518 120.297H76.0001V111.189L76.0057 111.183ZM81.5281 113.588C81.5281 112.692 80.8497 112.102 79.6107 112.102H76.9756V115.238H79.5378C80.7152 115.238 81.5281 114.677 81.5281 113.611V113.582V113.588ZM79.7116 116.151H76.9756V119.367H79.8854C81.1973 119.367 82.0159 118.755 82.0159 117.739V117.711C82.0159 116.724 81.2254 116.151 79.7116 116.151Z" fill="white"/>
<path d="M84.6342 116.951V116.923C84.6342 114.983 85.9349 113.424 87.7009 113.424C89.596 113.424 90.6836 115.012 90.6836 116.974C90.6836 117.104 90.6836 117.184 90.6724 117.297H85.5985C85.733 118.755 86.7142 119.571 87.8523 119.571C88.7326 119.571 89.3493 119.191 89.8707 118.624L90.465 119.186C89.8202 119.94 89.0409 120.45 87.8299 120.45C86.075 120.45 84.6342 119.033 84.6342 116.951ZM89.7193 116.56C89.6184 115.335 88.9512 114.269 87.6785 114.269C86.5628 114.269 85.7218 115.244 85.5985 116.56H89.7193Z" fill="white"/>
<path d="M92.0741 119.435L92.5563 118.721C93.2515 119.265 94.014 119.577 94.7709 119.577C95.5277 119.577 96.094 119.163 96.094 118.511V118.482C96.094 117.807 95.3371 117.547 94.4961 117.297C93.4926 116.996 92.3825 116.633 92.3825 115.397V115.369C92.3825 114.212 93.2963 113.44 94.5634 113.44C95.3427 113.44 96.2117 113.724 96.8677 114.183L96.436 114.938C95.8417 114.535 95.1633 114.286 94.541 114.286C93.7841 114.286 93.3019 114.7 93.3019 115.261V115.289C93.3019 115.925 94.0925 116.174 94.9503 116.446C95.9426 116.758 97.0023 117.161 97.0023 118.375V118.403C97.0023 119.679 95.9987 120.422 94.726 120.422C93.8121 120.422 92.7973 120.042 92.0797 119.435H92.0741Z" fill="white"/>
<path d="M99.2224 118.511V114.45H98.331V113.565H99.2224V111.535H100.176V113.565H102.205V114.45H100.176V118.38C100.176 119.203 100.607 119.498 101.252 119.498C101.572 119.498 101.846 119.435 102.183 119.265V120.121C101.846 120.303 101.487 120.405 101.033 120.405C100.007 120.405 99.228 119.872 99.228 118.505L99.2224 118.511Z" fill="white"/>
<path d="M103.876 115.857H107.318V116.911H103.876V115.857Z" fill="white"/>
<path d="M109.213 115.766V115.737C109.213 113.225 111.007 111.025 113.642 111.025C116.278 111.025 118.049 113.197 118.049 115.709V115.737C118.049 118.25 116.255 120.445 113.62 120.445C110.985 120.445 109.213 118.273 109.213 115.76V115.766ZM117.034 115.766V115.737C117.034 113.667 115.599 111.977 113.62 111.977C111.641 111.977 110.228 113.645 110.228 115.709V115.737C110.228 117.808 111.663 119.498 113.642 119.498C115.622 119.498 117.034 117.83 117.034 115.766Z" fill="white"/>
<path d="M120.561 114.45H119.681V113.577H120.561V112.993C120.561 112.227 120.757 111.637 121.116 111.263C121.436 110.922 121.907 110.741 122.49 110.741C122.933 110.741 123.23 110.792 123.544 110.911V111.785C123.196 111.682 122.938 111.614 122.613 111.614C121.873 111.614 121.497 112.085 121.497 113.044V113.588H123.527V114.444H121.509V120.286H120.555V114.444L120.561 114.45Z" fill="white"/>
<path d="M128.096 93.619H127.177L127.059 92.5471C127.048 92.4507 126.975 92.3826 126.885 92.3826H125.859C125.786 92.3826 125.73 92.445 125.73 92.5187V93.619L125.741 94.7703V96.7609C125.741 97.0105 125.769 97.243 125.82 97.4472C125.876 97.6513 125.96 97.8271 126.083 97.9746C126.207 98.1221 126.369 98.2355 126.571 98.3149C126.773 98.3943 127.025 98.434 127.328 98.434C127.485 98.434 127.642 98.417 127.793 98.3943C127.905 98.3716 128.001 98.3489 128.085 98.3262C128.141 98.3092 128.18 98.2525 128.175 98.1958L128.163 97.3394C128.163 97.2543 128.085 97.1919 128.006 97.209C127.99 97.209 127.973 97.2146 127.956 97.2203C127.877 97.2316 127.799 97.2373 127.726 97.2373C127.519 97.2373 127.373 97.1806 127.289 97.0728C127.21 96.9594 127.165 96.7949 127.165 96.5738V94.7703H128.085C128.158 94.7703 128.214 94.7079 128.214 94.6341V93.7551C128.214 93.6814 128.158 93.619 128.085 93.619H128.096Z" fill="white"/>
<path d="M88.0988 94.0501C87.9699 93.8686 87.8017 93.7268 87.5886 93.6134C87.3868 93.5056 87.1401 93.4489 86.8486 93.4432H86.8205C86.8205 93.4432 86.7869 93.4432 86.7757 93.4432C86.4449 93.4489 86.159 93.5169 85.9235 93.6417C85.7104 93.7551 85.5366 93.8742 85.4021 94.0047L85.318 93.7041C85.2955 93.6247 85.2283 93.5737 85.1498 93.5737H84.1686C84.0957 93.5737 84.0397 93.636 84.0397 93.7098V98.1391C84.0397 98.2129 84.0957 98.2752 84.1686 98.2752H85.3909C85.4637 98.2752 85.5198 98.2129 85.5198 98.1391V95.7231C85.5198 95.5927 85.5366 95.4622 85.5703 95.3431C85.6039 95.2184 85.6544 95.1106 85.716 95.0199C85.7833 94.9235 85.8618 94.8497 85.9627 94.7987C86.0636 94.7476 86.1758 94.7193 86.3103 94.7193C86.4449 94.7193 86.5514 94.7476 86.6355 94.7987C86.7196 94.8497 86.7869 94.9235 86.8373 95.0142C86.8878 95.1049 86.9214 95.2127 86.9383 95.3318C86.9607 95.4509 86.9719 95.5757 86.9719 95.7118V98.1448C86.9719 98.2185 87.028 98.2809 87.1009 98.2809H88.3231C88.396 98.2809 88.452 98.2185 88.452 98.1448V95.3715C88.452 95.139 88.424 94.9064 88.3679 94.6739C88.3119 94.4414 88.2166 94.2372 88.0876 94.0557L88.0988 94.0501Z" fill="white"/>
<path d="M101.97 91.7359H100.753C100.68 91.7359 100.624 91.7983 100.624 91.872V94.0782H100.607C100.484 93.9194 100.304 93.7776 100.074 93.6415C99.8446 93.5111 99.5699 93.443 99.2391 93.443C98.9083 93.443 98.6224 93.5111 98.3645 93.6415C98.1066 93.772 97.8823 93.9534 97.6973 94.1803C97.5123 94.4071 97.3721 94.668 97.2768 94.9686C97.1759 95.2692 97.131 95.5811 97.131 95.9101C97.131 96.239 97.1815 96.5509 97.2768 96.8515C97.3721 97.1521 97.5123 97.4187 97.6917 97.6512C97.8767 97.8837 98.0954 98.0652 98.3589 98.2013C98.6224 98.3374 98.9195 98.4112 99.2559 98.4112C99.2952 98.4112 99.3344 98.4112 99.3737 98.4112C99.7213 98.4055 100.024 98.3374 100.271 98.207C100.484 98.0936 100.658 97.9745 100.792 97.8497L100.887 98.1559C100.91 98.2297 100.977 98.2864 101.056 98.2864H101.964C102.037 98.2864 102.093 98.224 102.093 98.1503V91.8777C102.093 91.804 102.037 91.7416 101.964 91.7416L101.97 91.7359ZM100.613 96.3581C100.562 96.5056 100.489 96.6303 100.4 96.7438C100.304 96.8572 100.192 96.9479 100.063 97.016C99.9287 97.084 99.7829 97.1181 99.6147 97.1181C99.4466 97.1181 99.2896 97.084 99.155 97.016C99.0205 96.9479 98.9139 96.8572 98.8242 96.7438C98.7345 96.6303 98.6672 96.4999 98.6224 96.3524C98.5775 96.205 98.5551 96.0575 98.5551 95.9044C98.5551 95.7513 98.5775 95.6038 98.6224 95.462C98.6672 95.3146 98.7345 95.1898 98.8242 95.082C98.9139 94.9743 99.0261 94.8835 99.155 94.8155C99.284 94.7474 99.4409 94.7134 99.6147 94.7134C99.7886 94.7134 99.9343 94.7474 100.063 94.8155C100.192 94.8835 100.304 94.9743 100.4 95.0877C100.495 95.2011 100.562 95.3316 100.613 95.4734C100.663 95.6208 100.691 95.7683 100.691 95.9157C100.691 96.0632 100.663 96.2163 100.613 96.3581Z" fill="white"/>
<path d="M110.032 93.5737H108.781C108.725 93.5737 108.675 93.6134 108.658 93.6757L107.901 96.5511H107.884L107.083 93.6757C107.066 93.619 107.015 93.5793 106.959 93.5793H105.67C105.614 93.5793 105.563 93.619 105.546 93.6757L104.773 96.5511H104.745L103.999 93.6757C103.982 93.619 103.932 93.5737 103.876 93.5737H102.564C102.474 93.5737 102.412 93.6644 102.44 93.7551L103.898 98.1845C103.915 98.2412 103.965 98.2752 104.021 98.2752H105.317C105.373 98.2752 105.423 98.2355 105.44 98.1788L106.275 95.3488H106.292L107.144 98.1788C107.161 98.2355 107.212 98.2752 107.268 98.2752H108.563C108.619 98.2752 108.664 98.2412 108.686 98.1845L110.149 93.7551C110.177 93.6644 110.116 93.5737 110.026 93.5737H110.032Z" fill="white"/>
<path d="M117.449 91.7359H116.205C116.132 91.7359 116.076 91.7983 116.076 91.872V98.1446C116.076 98.2183 116.132 98.2807 116.205 98.2807H117.449C117.522 98.2807 117.578 98.2183 117.578 98.1446V91.872C117.578 91.7983 117.522 91.7359 117.449 91.7359Z" fill="white"/>
<path d="M119.905 91.7359H118.66C118.587 91.7359 118.531 91.7983 118.531 91.872V98.1446C118.531 98.2183 118.587 98.2807 118.66 98.2807H119.905C119.978 98.2807 120.034 98.2183 120.034 98.1446V91.872C120.034 91.7983 119.978 91.7359 119.905 91.7359Z" fill="white"/>
<path d="M115.005 93.4147H113.979C113.9 93.4147 113.833 93.4657 113.811 93.5451L113.693 93.9705C113.564 93.8514 113.401 93.7436 113.205 93.6359C112.953 93.5054 112.644 93.4374 112.28 93.4374C111.955 93.4374 111.663 93.5054 111.405 93.6359C111.147 93.7663 110.923 93.9478 110.738 94.1746C110.553 94.4015 110.413 94.6624 110.318 94.963C110.217 95.2635 110.172 95.5755 110.172 95.9044C110.172 96.2334 110.222 96.5453 110.318 96.8459C110.413 97.1464 110.553 97.413 110.733 97.6455C110.918 97.8781 111.136 98.0595 111.4 98.1957C111.663 98.3318 111.96 98.4055 112.297 98.4055C112.375 98.4055 112.448 98.4055 112.527 98.3942C112.801 98.3715 113.042 98.3034 113.244 98.2013C113.485 98.0766 113.676 97.9348 113.816 97.7873L113.928 98.1503C113.951 98.224 114.018 98.2807 114.096 98.2807H115.005C115.078 98.2807 115.134 98.2183 115.134 98.1446V93.5508C115.134 93.4771 115.078 93.4147 115.005 93.4147ZM113.648 96.3581C113.597 96.5056 113.525 96.6304 113.435 96.7438C113.34 96.8572 113.227 96.9479 113.098 97.016C112.964 97.0841 112.818 97.1181 112.65 97.1181C112.482 97.1181 112.325 97.0841 112.19 97.016C112.056 96.9479 111.949 96.8572 111.859 96.7438C111.77 96.6304 111.702 96.4999 111.658 96.3525C111.613 96.205 111.59 96.0575 111.59 95.9044C111.59 95.7513 111.613 95.6038 111.658 95.462C111.702 95.3146 111.77 95.1898 111.859 95.0821C111.949 94.9743 112.061 94.8836 112.19 94.8155C112.319 94.7474 112.476 94.7134 112.65 94.7134C112.824 94.7134 112.97 94.7474 113.098 94.8155C113.227 94.8836 113.34 94.9743 113.435 95.0877C113.53 95.2012 113.597 95.3316 113.648 95.4734C113.698 95.6208 113.726 95.7683 113.726 95.9158C113.726 96.0632 113.698 96.2163 113.648 96.3581Z" fill="white"/>
<path d="M96.974 93.4546H96.9628L96.9796 93.4432C96.9403 93.4432 96.9067 93.4432 96.8675 93.4432C96.8394 93.4432 96.8058 93.4432 96.7778 93.4432C96.5815 93.4432 96.4077 93.4829 96.2451 93.5566C96.1779 93.5793 96.1106 93.6077 96.0489 93.6417C95.8134 93.7665 95.6228 93.9026 95.4882 94.0501L95.3985 93.7154C95.3761 93.636 95.3088 93.5793 95.2303 93.5793H94.2548C94.1819 93.5793 94.1259 93.6417 94.1259 93.7154V98.1391C94.1259 98.2129 94.1819 98.2752 94.2548 98.2752H95.4714C95.5443 98.2752 95.6004 98.2129 95.6004 98.1391V95.8649C95.6004 95.7685 95.6172 95.6607 95.6564 95.536C95.6901 95.4112 95.7518 95.2921 95.8302 95.19C95.9087 95.0823 96.0209 94.9915 96.1554 94.9178C96.29 94.8441 96.4582 94.8044 96.6544 94.8044C96.7161 94.8044 96.7778 94.8044 96.8394 94.8157H96.9011C96.974 94.8327 97.0357 94.776 97.0413 94.7023L97.0917 93.6077C97.0973 93.534 97.0469 93.4659 96.9796 93.4602L96.974 93.4546Z" fill="white"/>
<path d="M92.9877 94.1011C92.7915 93.8799 92.556 93.7098 92.2757 93.5963C92.001 93.4772 91.6982 93.4205 91.3674 93.4205C91.0366 93.4205 90.7114 93.4829 90.4143 93.602C90.1228 93.7211 89.8649 93.8912 89.6518 94.1067C89.4388 94.3223 89.265 94.5888 89.1416 94.9007C89.0183 95.2127 88.951 95.5586 88.951 95.9443C88.951 96.3299 89.0127 96.6929 89.1416 96.9992C89.2706 97.3054 89.4444 97.5663 89.6742 97.7761C89.8985 97.986 90.162 98.1448 90.4592 98.2582C90.7563 98.366 91.0759 98.4227 91.4123 98.4227C91.8664 98.4227 92.2645 98.3376 92.6121 98.1618C92.8251 98.054 93.0101 97.9236 93.1671 97.7591C93.2288 97.6967 93.2288 97.5947 93.1671 97.5323L92.5336 96.8574C92.4775 96.795 92.3766 96.795 92.3205 96.8574C92.2364 96.9481 92.1355 97.0275 92.0234 97.0899C91.8608 97.1806 91.6646 97.226 91.4291 97.226C91.2945 97.226 91.1712 97.2033 91.0478 97.158C90.9245 97.1126 90.8124 97.0502 90.7171 96.9765C90.6161 96.8971 90.5376 96.8063 90.476 96.6986C90.4143 96.5908 90.3751 96.4717 90.3638 96.3413H93.6044C93.61 96.2846 93.6156 96.2222 93.6156 96.1598V95.9726C93.6156 95.57 93.5596 95.2127 93.4474 94.8951C93.3353 94.5831 93.1839 94.3109 92.9877 94.0897V94.1011ZM90.3638 95.3828C90.3694 95.2637 90.3975 95.1503 90.4535 95.0369C90.5096 94.9291 90.5769 94.8327 90.6666 94.7476C90.7563 94.6682 90.8628 94.6002 90.9806 94.5548C91.0983 94.5094 91.2329 94.4867 91.373 94.4867C91.6646 94.4867 91.8888 94.5775 92.0346 94.7533C92.1804 94.9291 92.2533 95.1389 92.2533 95.3885H90.3582L90.3638 95.3828Z" fill="white"/>
<path d="M124.626 94.1011C124.429 93.8799 124.194 93.7098 123.914 93.5963C123.639 93.4772 123.336 93.4205 123.005 93.4205C122.675 93.4205 122.349 93.4829 122.052 93.602C121.761 93.7211 121.503 93.8912 121.29 94.1067C121.077 94.3223 120.903 94.5888 120.779 94.9007C120.656 95.2127 120.589 95.5586 120.589 95.9443C120.589 96.3299 120.651 96.6929 120.779 96.9992C120.908 97.3054 121.082 97.5663 121.312 97.7761C121.536 97.986 121.8 98.1448 122.097 98.2582C122.394 98.366 122.714 98.4227 123.05 98.4227C123.504 98.4227 123.902 98.3376 124.25 98.1618C124.463 98.054 124.648 97.9236 124.805 97.7591C124.867 97.6967 124.867 97.5947 124.805 97.5323L124.171 96.8574C124.115 96.795 124.014 96.795 123.958 96.8574C123.874 96.9481 123.773 97.0275 123.661 97.0899C123.499 97.1806 123.302 97.226 123.067 97.226C122.932 97.226 122.809 97.2033 122.686 97.158C122.562 97.1126 122.45 97.0502 122.355 96.9765C122.254 96.8971 122.176 96.8063 122.114 96.6986C122.052 96.5908 122.013 96.4717 122.002 96.3413H125.242C125.248 96.2846 125.254 96.2222 125.254 96.1598V95.9726C125.254 95.57 125.197 95.2127 125.085 94.8951C124.973 94.5831 124.822 94.3109 124.626 94.0897V94.1011ZM122.002 95.3828C122.007 95.2637 122.035 95.1503 122.091 95.0369C122.147 94.9291 122.215 94.8327 122.304 94.7476C122.394 94.6682 122.501 94.6002 122.618 94.5548C122.736 94.5094 122.871 94.4867 123.011 94.4867C123.302 94.4867 123.527 94.5775 123.672 94.7533C123.818 94.9291 123.891 95.1389 123.891 95.3885H121.996L122.002 95.3828Z" fill="white"/>
<path d="M80.6982 90.29H78.0463C77.9341 90.29 77.8444 90.3864 77.8444 90.4998V93.4943L74.8729 90.375C74.8729 90.375 74.8225 90.3297 74.7889 90.3183C74.7832 90.3183 74.7776 90.3127 74.772 90.3127C74.7384 90.3013 74.7048 90.2956 74.6711 90.2956H71.9351C71.823 90.2956 71.7333 90.3921 71.7333 90.5055V93.5V99.7045C71.7333 99.7612 71.7557 99.8179 71.7893 99.8519C71.823 99.8916 71.8734 99.9143 71.9295 99.9143H74.5814C74.6935 99.9143 74.7832 99.8179 74.7832 99.7045V96.71L77.7547 99.8293C77.7547 99.8293 77.8052 99.8746 77.8388 99.8916H77.8556C77.8893 99.9143 77.9229 99.92 77.9566 99.92H80.6926C80.8047 99.92 80.8944 99.8236 80.8944 99.7102V93.5057V90.5112C80.8944 90.3921 80.8047 90.3013 80.6926 90.3013L80.6982 90.29Z" fill="white"/>
<path d="M83.9481 147.349V145.875L86.7649 143.565C87.8167 142.695 88.2277 142.236 88.2277 141.535C88.2277 140.821 87.7562 140.434 87.0913 140.434C86.4385 140.434 85.9912 140.797 85.3626 141.571L84.057 140.519C84.8911 139.383 85.7011 138.766 87.2122 138.766C88.9651 138.766 90.1257 139.794 90.1257 141.377V141.402C90.1257 142.816 89.4004 143.517 87.9013 144.678L86.5231 145.742H90.2103V147.349H83.9481ZM95.2883 147.494C93.0277 147.494 91.5407 145.596 91.5407 143.142V143.118C91.5407 140.664 93.0639 138.742 95.3125 138.742C97.549 138.742 99.0601 140.64 99.0601 143.094V143.118C99.0601 145.572 97.549 147.494 95.2883 147.494ZM95.3125 145.814C96.4368 145.814 97.1501 144.678 97.1501 143.142V143.118C97.1501 141.583 96.4005 140.422 95.2883 140.422C94.1761 140.422 93.4508 141.547 93.4508 143.094V143.118C93.4508 144.666 94.1882 145.814 95.3125 145.814ZM100.193 147.349V145.875L103.01 143.565C104.061 142.695 104.472 142.236 104.472 141.535C104.472 140.821 104.001 140.434 103.336 140.434C102.683 140.434 102.236 140.797 101.607 141.571L100.302 140.519C101.136 139.383 101.946 138.766 103.457 138.766C105.21 138.766 106.37 139.794 106.37 141.377V141.402C106.37 142.816 105.645 143.517 104.146 144.678L102.768 145.742H106.455V147.349H100.193ZM111.767 147.349V145.524H107.633L107.33 144.206L111.973 138.827H113.544V144.013H114.681V145.524H113.544V147.349H111.767ZM109.518 144.013H111.767V141.377L109.518 144.013Z" fill="white"/>
</g>
</g>
<defs>
<clipPath id="clip0_337_41074">
<rect width="198.342" height="179.527" fill="white"/>
</clipPath>
<clipPath id="clip1_337_41074">
<rect width="80" height="102" fill="white" transform="translate(60 78)"/>
</clipPath>
</defs>
</svg>
