<svg viewBox="0 0 38 38" fill="none" xmlns="http://www.w3.org/2000/svg">
<path d="M8.96875 23.4736C8.96875 15.7416 15.2368 9.47363 22.9688 9.47363C30.7007 9.47363 36.9688 15.7416 36.9688 23.4736C36.9688 31.2056 30.7007 37.4736 22.9688 37.4736C15.2368 37.4736 8.96875 31.2056 8.96875 23.4736Z" fill="#D1EEF2"/>
<path d="M8.12099 22.6922C8.18191 22.4561 8.13259 22.2091 7.98608 22.0154C7.83885 21.821 7.61619 21.7078 7.37394 21.7048C7.35073 21.7034 7.3326 21.7034 7.3152 21.7034C7.30577 21.7034 7.29634 21.7034 7.28763 21.7034C7.20133 21.7151 7.11429 21.7421 7.03306 21.7838L7.02291 21.7889L1.70948 24.2591C1.50422 24.3366 1.34031 24.4966 1.25763 24.6983C1.17495 24.9008 1.1793 25.1302 1.26996 25.329C1.36062 25.5278 1.53033 25.6805 1.73704 25.7492C1.94302 25.8172 2.17003 25.796 2.36006 25.6908L2.37964 25.6806L7.66768 23.2206C7.89542 23.1205 8.06006 22.9282 8.12099 22.6915V22.6922Z" fill="#00A4B3"/>
<path d="M9.58826 9.51101C9.71953 9.68787 9.91609 9.80407 10.1279 9.82965C10.3397 9.85523 10.5551 9.79238 10.7197 9.65498C10.8843 9.51832 10.9873 9.31661 11.0026 9.10247C11.0178 8.88834 10.9445 8.67421 10.8017 8.51489L10.7915 8.50319L7.13172 3.99543C6.97869 3.8003 6.75167 3.68994 6.51161 3.68994C6.4855 3.68994 6.45938 3.6914 6.43327 3.6936C6.24325 3.71333 6.06701 3.80249 5.93718 3.945C5.80736 4.08751 5.73483 4.27241 5.7312 4.46535C5.7283 4.65902 5.79503 4.84612 5.91977 4.99228L9.58753 9.50955L9.58826 9.51101Z" fill="#00A4B3"/>
<path d="M34.8782 13.8893C34.7331 13.6577 34.4843 13.5188 34.2116 13.5188C34.1732 13.5188 34.134 13.5217 34.0956 13.5268C34.0622 13.5305 34.0426 13.5334 34.023 13.5371L31.5788 13.9471C31.3714 13.9821 31.1908 14.0969 31.069 14.2694C30.9471 14.4418 30.8985 14.6523 30.9341 14.8613C30.9689 15.0704 31.0827 15.2531 31.2539 15.3766C31.4251 15.4994 31.634 15.5476 31.8414 15.5125L34.2878 15.1018C34.567 15.0689 34.8027 14.9023 34.9202 14.6552C35.0384 14.4082 35.0218 14.1217 34.8767 13.8893H34.8782Z" fill="#00A4B3"/>
<path d="M23.0771 20.3462L27.3164 16.0745C27.4317 15.9583 27.5013 15.8034 27.5122 15.6389C27.5231 15.4745 27.4737 15.3123 27.3744 15.1814C27.275 15.0506 27.1321 14.9607 26.9718 14.9286L21.1681 13.7563L18.0741 8.69313C18.0073 8.58277 17.9131 8.49361 17.8006 8.43587C17.7063 8.38764 17.6005 8.36206 17.4946 8.36206C17.4764 8.36206 17.4576 8.36279 17.4394 8.36425C17.2255 8.38325 17.0318 8.5053 16.9209 8.68947L13.8246 13.7563L8.02091 14.9286C7.86063 14.9607 7.71775 15.0506 7.61838 15.1814C7.51902 15.3123 7.4697 15.4752 7.48058 15.6397C7.49146 15.8041 7.56108 15.9583 7.6764 16.0753L11.9157 20.347L11.144 26.1403C11.123 26.2996 11.1585 26.4618 11.2441 26.597C11.3304 26.733 11.4617 26.8331 11.614 26.8806C11.7663 26.9274 11.9309 26.9186 12.0781 26.855L17.4967 24.5112L17.6396 24.5734L22.9146 26.855C23.0611 26.9186 23.2258 26.9274 23.3788 26.8799C23.5311 26.8323 23.6624 26.7322 23.7487 26.597C23.835 26.4618 23.8705 26.2996 23.8495 26.1395L23.0778 20.3455L23.0771 20.3462ZM21.7027 20.1847L22.3641 25.1339L17.7644 23.157C17.5932 23.0825 17.3988 23.0825 17.2291 23.1563L12.6272 25.1346L13.2879 20.1884C13.3169 19.9772 13.2466 19.7616 13.0986 19.6125L9.52588 16.0124L14.3802 15.0309C14.5637 14.9936 14.7254 14.8803 14.8233 14.7196L17.496 10.3404L20.168 14.7188C20.2659 14.8803 20.4276 14.9944 20.6111 15.0309L25.4654 16.0124L21.8912 19.6139C21.744 19.763 21.6736 19.9772 21.7027 20.1869V20.1847Z" fill="#00A4B3"/>
<path d="M9.85805 29.6454C9.72097 29.5372 9.54908 29.4773 9.37501 29.4773C9.35833 29.4773 9.34165 29.4773 9.32424 29.4788C9.06821 29.4992 8.8383 29.6468 8.7092 29.8734L7.46461 31.9607C7.33044 32.1419 7.27967 32.3699 7.32318 32.5884C7.3667 32.807 7.50015 32.9977 7.68945 33.1124C7.87948 33.2265 8.10939 33.255 8.32045 33.1892C8.53151 33.1241 8.70702 32.9714 8.80059 32.769L8.81437 32.7419L10.0401 30.6832C10.1424 30.5151 10.1793 30.3178 10.1453 30.127C10.1112 29.9363 10.0089 29.7652 9.85732 29.6454H9.85805Z" fill="#00A4B3"/>
<path d="M17.4931 28.6487C17.4714 28.6501 17.4467 28.6531 17.4235 28.6567C17.219 28.6808 17.0362 28.7751 16.9078 28.9227C16.7794 29.0704 16.7105 29.2604 16.7134 29.4562V35.1933C16.7105 35.4074 16.7925 35.6157 16.939 35.7648C17.0848 35.9139 17.2886 35.9994 17.4967 35.9994C17.7049 35.9994 17.9087 35.9139 18.0545 35.7648C18.201 35.615 18.2829 35.4089 18.28 35.1991V29.4614C18.2844 29.2443 18.2017 29.0338 18.0538 28.8825C17.9102 28.7364 17.7063 28.6509 17.4931 28.6479V28.6487Z" fill="#00A4B3"/>
<path d="M16.9375 3.84271C17.0833 3.9918 17.2871 4.07804 17.4953 4.07804C17.7034 4.07804 17.9072 3.99253 18.053 3.84271C18.1995 3.69289 18.2815 3.48679 18.2786 3.27705V0.813415C18.2829 0.596358 18.2003 0.385879 18.0523 0.234597C17.9058 0.0855072 17.7078 0 17.5091 0H17.4938C17.4735 0.00146166 17.4467 0.00438499 17.422 0.00803914C17.2175 0.0321566 17.0347 0.126434 16.9063 0.274062C16.778 0.421689 16.7091 0.611705 16.712 0.807568V3.27047C16.7091 3.4846 16.791 3.69289 16.9375 3.84198V3.84271Z" fill="#00A4B3"/>
<path d="M3.88752 15.2355C4.06594 15.0177 4.11671 14.7174 4.0188 14.4528C3.92088 14.1882 3.68807 13.9938 3.41174 13.9471L0.975508 13.5378C0.910232 13.5246 0.858737 13.5188 0.807242 13.5181C0.797088 13.5188 0.770978 13.5217 0.745593 13.5254L0.725285 13.5283C0.458381 13.5517 0.22484 13.703 0.0979149 13.9332C-0.0290097 14.1634 -0.0333614 14.4411 0.0863104 14.6757C0.205982 14.9103 0.432271 15.0689 0.691197 15.0996L0.705702 15.1018L3.14846 15.5118C3.42624 15.5585 3.70838 15.4526 3.88752 15.2348V15.2355Z" fill="#00A4B3"/>
<path d="M33.2862 24.2598L33.2651 24.2511L27.9764 21.7918C27.8712 21.7414 27.7544 21.7151 27.6398 21.7151C27.6261 21.7151 27.613 21.7151 27.5992 21.7165C27.3671 21.7319 27.1553 21.851 27.0183 22.0425C26.8812 22.234 26.8369 22.4759 26.8964 22.7046C26.9559 22.9334 27.1126 23.1212 27.3258 23.2206L32.632 25.6893C32.8249 25.796 33.0519 25.8172 33.2572 25.7493C33.4631 25.6806 33.6336 25.5278 33.7242 25.329C33.8149 25.1303 33.8192 24.9 33.7366 24.6983C33.6539 24.4966 33.49 24.3366 33.2869 24.2598H33.2862Z" fill="#00A4B3"/>
<path d="M27.5115 31.9365L26.2872 29.8807C26.2125 29.7499 26.1059 29.6447 25.9789 29.5745C25.8643 29.5116 25.7323 29.4788 25.596 29.4788C25.5851 29.4788 25.5749 29.4788 25.5641 29.4788C25.295 29.4956 25.0484 29.6585 24.9222 29.9026C24.796 30.1467 24.8061 30.4449 24.949 30.6795L26.1893 32.766C26.285 32.9714 26.4598 33.1241 26.6709 33.1892C26.8826 33.2542 27.1125 33.2265 27.3026 33.1125C27.4919 32.9984 27.6253 32.807 27.6688 32.5884C27.7116 32.3699 27.6609 32.1426 27.5289 31.9643L27.5107 31.9373L27.5115 31.9365Z" fill="#00A4B3"/>
<path d="M24.2716 9.655C24.4355 9.79093 24.6509 9.85451 24.8635 9.82967C25.0752 9.80409 25.2696 9.69081 25.3973 9.51833L25.406 9.50737L29.0643 5.00107C29.1992 4.84028 29.2659 4.6393 29.2529 4.43467C29.2398 4.22931 29.1492 4.04002 28.9983 3.9019C28.854 3.76962 28.6661 3.69653 28.4703 3.69653H28.4478C28.2193 3.70384 28.0054 3.812 27.8618 3.99252L24.1969 8.5054C24.0475 8.6713 23.9721 8.88836 23.9873 9.10249C24.0025 9.31662 24.1063 9.51833 24.2702 9.655H24.2716Z" fill="#00A4B3"/>
</svg>
