<svg xmlns="http://www.w3.org/2000/svg" viewBox="0 0 45 30" fill="none">
<path d="M18.8233 11.1783H11.706L11.1766 1.11458C11.1508 0.625109 10.8242 0.202935 10.3568 0.0548086C9.88948 -0.092887 9.37946 0.0642455 9.07659 0.449907L0.253169 11.6253C0.0890433 11.8329 0 12.0901 0 12.3548V28.8237C0 29.1355 0.123917 29.4346 0.34466 29.6554C0.565414 29.8761 0.864528 30 1.17637 30H18.8232C19.1355 30 19.4346 29.8761 19.6553 29.6554C19.8761 29.4346 20 29.1355 20 28.8237V12.3548C20 12.0425 19.8761 11.7434 19.6553 11.5227C19.4346 11.3024 19.1355 11.1785 18.8232 11.1785L18.8233 11.1783Z" fill="#00A4B3"/>
<path d="M43.8237 11.1783H36.706L36.1766 1.11458C36.1508 0.625109 35.8242 0.202935 35.3568 0.0548086C34.8895 -0.092887 34.3795 0.0642455 34.0766 0.449907L25.2532 11.6253C25.089 11.8329 25 12.0901 25 12.3548V28.8237C25 29.1355 25.1239 29.4346 25.3447 29.6554C25.5654 29.8761 25.8645 30 26.1768 30H43.8236C44.1355 30 44.4346 29.8761 44.6553 29.6554C44.8761 29.4346 45 29.1355 45 28.8237V12.3548C45 12.0425 44.8761 11.7434 44.6553 11.5227C44.4346 11.3024 44.1355 11.1785 43.8236 11.1785L43.8237 11.1783Z" fill="#00A4B3"/>
</svg>