<svg viewBox="0 0 52 52" fill="none" xmlns="http://www.w3.org/2000/svg">
<path d="M11.7006 32.2175C11.7006 21.6369 20.2778 13.0596 30.8585 13.0596C41.4391 13.0596 50.0163 21.6369 50.0163 32.2175C50.0163 42.7981 41.4391 51.3754 30.8585 51.3754C20.2778 51.3754 11.7006 42.7981 11.7006 32.2175Z" fill="#D1EEF2"/>
<g clip-path="url(#clip0_975_4483)">
<path d="M45 7.78378C45 5.69741 43.3026 4 41.2162 4H6.78378C4.69741 4 3 5.69741 3 7.78378V34.2703C3 36.3566 4.69741 38.0541 6.78378 38.0541H18.4522L17.028 42.3267C16.7253 43.2348 16.8698 44.2269 17.4132 44.9806C17.8801 45.6284 18.5801 46 19.3346 46H28.6662C29.4206 46 30.1206 45.6292 30.5861 44.9822C31.1302 44.2269 31.2739 43.2341 30.9712 42.3267L29.547 38.0541H41.2162C43.3026 38.0541 45 36.3566 45 34.2703V7.78378ZM28.7471 43.6518L28.6904 43.7297H28.6518L19.3633 43.7555L19.3119 43.7154C19.1938 43.623 19.0826 43.3385 19.181 43.0449L20.9707 37.6764L21.1122 38.0541H27.1549L28.8183 43.0449C28.9098 43.3196 28.8168 43.5549 28.7471 43.6518ZM42.7297 34.2703C42.7297 35.105 42.0509 35.7838 41.2162 35.7838H6.78378C5.94908 35.7838 5.27027 35.105 5.27027 34.2703V7.78378C5.27027 6.94908 5.94908 6.27027 6.78378 6.27027H41.2162C42.0509 6.27027 42.7297 6.94908 42.7297 7.78378V34.2703Z" fill="#00A4B3"/>
<path fill-rule="evenodd" clip-rule="evenodd" d="M37.089 18.998C38.1939 18.9489 39.0471 18.0159 38.998 16.911C38.9489 15.8061 38.0159 14.9529 36.911 15.002C35.8061 15.0511 34.9529 15.9841 35.002 17.089C35.005 17.1562 35.0113 17.2225 35.0206 17.2877L27.0825 23.3174C26.7462 23.1008 26.3417 22.9829 25.911 23.002C25.67 23.0127 25.4409 23.0655 25.2306 23.153L21.9363 19.5038C21.9851 19.3151 22.0071 19.116 21.998 18.911C21.9489 17.8061 21.0159 16.9529 19.911 17.002C18.8061 17.0511 17.9529 17.9841 18.002 19.089C18.0028 19.1065 18.0038 19.124 18.005 19.1414L12.0025 23.2684C11.6829 23.0832 11.308 22.9844 10.911 23.002C9.80612 23.0511 8.95291 23.9841 9.00202 25.089C9.05112 26.1939 9.98413 27.0471 11.089 26.998C12.0922 26.9534 12.888 26.18 12.9891 25.211L19.2977 20.8736C19.5429 20.9654 19.8105 21.0104 20.089 20.998C20.1803 20.9939 20.2699 20.9838 20.3573 20.9681L24 25.0031C24.0001 25.0316 24.0007 25.0603 24.002 25.089C24.0467 26.0937 24.8222 26.8903 25.7933 26.9896L25.8027 27L25.8138 26.9916C25.904 26.9999 25.9959 27.0021 26.089 26.998C27.0421 26.9556 27.808 26.2555 27.9688 25.3546L36.4394 18.9206C36.6447 18.9804 36.8633 19.008 37.089 18.998Z" fill="#00A4B3"/>
</g>
<defs>
<clipPath id="clip0_975_4483">
<rect width="42" height="42" fill="white" transform="translate(3 4)"/>
</clipPath>
</defs>
</svg>
