<svg viewBox="0 0 52 52" fill="none" xmlns="http://www.w3.org/2000/svg">
<path d="M11.7007 32.2175C11.7007 21.6369 20.278 13.0596 30.8586 13.0596C41.4392 13.0596 50.0165 21.6369 50.0165 32.2175C50.0165 42.7981 41.4392 51.3754 30.8586 51.3754C20.278 51.3754 11.7007 42.7981 11.7007 32.2175Z" fill="#D1EEF2"/>
<g clip-path="url(#clip0_975_4497)">
<path d="M45 7.78378C45 5.69741 43.3026 4 41.2162 4H6.78378C4.69741 4 3 5.69741 3 7.78378V34.2703C3 36.3566 4.69741 38.0541 6.78378 38.0541H18.4522L17.028 42.3267C16.7253 43.2348 16.8698 44.2269 17.4132 44.9806C17.8801 45.6284 18.5801 46 19.3346 46H28.6662C29.4206 46 30.1206 45.6292 30.5861 44.9822C31.1302 44.2269 31.2739 43.2341 30.9712 42.3267L29.547 38.0541H41.2162C43.3026 38.0541 45 36.3566 45 34.2703V7.78378ZM28.7471 43.6518L28.6904 43.7297H28.6518L19.3633 43.7555L19.3119 43.7154C19.1938 43.623 19.0826 43.3385 19.181 43.0449L20.9707 37.6764L21.1122 38.0541H27.1549L28.8183 43.0449C28.9098 43.3196 28.8168 43.5549 28.7471 43.6518ZM42.7297 34.2703C42.7297 35.105 42.0509 35.7838 41.2162 35.7838H6.78378C5.94908 35.7838 5.27027 35.105 5.27027 34.2703V7.78378C5.27027 6.94908 5.94908 6.27027 6.78378 6.27027H41.2162C42.0509 6.27027 42.7297 6.94908 42.7297 7.78378V34.2703Z" fill="#00A4B3"/>
<path fill-rule="evenodd" clip-rule="evenodd" d="M16.7324 22C16.3866 22.5978 15.7403 23 15 23C13.8954 23 13 22.1046 13 21C13 19.8954 13.8954 19 15 19C15.7403 19 16.3866 19.4022 16.7324 20H32.2676C32.6134 19.4022 33.2597 19 34 19C35.1046 19 36 19.8954 36 21C36 22.1046 35.1046 23 34 23C33.2597 23 32.6134 22.5978 32.2676 22H16.7324Z" fill="#00A4B3"/>
</g>
<defs>
<clipPath id="clip0_975_4497">
<rect width="42" height="42" fill="white" transform="translate(3 4)"/>
</clipPath>
</defs>
</svg>
