<svg viewBox="0 0 38 38" fill="none" xmlns="http://www.w3.org/2000/svg">
<path d="M8.95996 23.4736C8.95996 15.7416 15.228 9.47363 22.96 9.47363C30.6919 9.47363 36.96 15.7416 36.96 23.4736C36.96 31.2056 30.6919 37.4736 22.96 37.4736C15.228 37.4736 8.95996 31.2056 8.95996 23.4736Z" fill="#D1EEF2"/>
<path d="M22.0381 27.3298H20.9966C20.6193 27.3298 20.3145 27.6363 20.3145 28.0139C20.3145 28.3914 20.6193 28.6979 20.9966 28.6979H22.0381C22.219 28.6979 22.3928 28.6259 22.5207 28.4977C22.6486 28.3695 22.7203 28.196 22.7203 28.0139C22.7203 27.8317 22.6486 27.6589 22.5207 27.5307C22.3928 27.4025 22.219 27.3298 22.0381 27.3298Z" fill="#00A4B3"/>
<path d="M31.288 26.9186C30.5848 27.1922 29.8372 27.3313 29.0825 27.3297H24.4026C24.0253 27.3297 23.7205 27.6362 23.7205 28.0138C23.7205 28.3913 24.0253 28.6978 24.4026 28.6978H29.0833C30.0063 28.6993 30.9208 28.5289 31.7815 28.1951C32.1331 28.0583 32.3077 27.6628 32.1713 27.3102C32.0348 26.9576 31.6404 26.7825 31.2888 26.9193L31.288 26.9186Z" fill="#00A4B3"/>
<path d="M31.5998 3.40399C30.7049 2.50656 29.491 2.00156 28.225 2H5.77501C4.50895 2.00156 3.29513 2.50656 2.40015 3.40399C1.50518 4.30143 1.00156 5.51859 1 6.78812V21.1736C1.00156 22.4431 1.50518 23.6603 2.40015 24.5577C3.29513 25.4552 4.50895 25.9602 5.77501 25.9617H7.41762V30.316C7.41762 30.5818 7.5712 30.8241 7.81131 30.9359C8.05143 31.0477 8.3352 31.0109 8.5379 30.8397L14.3295 25.9617H28.225C29.491 25.9602 30.7049 25.4552 31.5998 24.5577C32.4948 23.6603 32.9984 22.4431 33 21.1736V6.78812C32.9984 5.51859 32.4948 4.30143 31.5998 3.40399ZM31.6357 21.1736C31.6349 22.0804 31.2755 22.9497 30.6355 23.5907C29.9962 24.2317 29.1293 24.5929 28.225 24.5937H14.0808C13.9202 24.5937 13.7651 24.6508 13.6419 24.7539L8.78191 28.8487V25.2777C8.78191 25.0963 8.71019 24.9228 8.58233 24.7946C8.45448 24.6664 8.28141 24.5937 8.09976 24.5937H5.77501C4.87068 24.5929 4.00378 24.2325 3.36451 23.5907C2.72524 22.9497 2.36507 22.0804 2.36429 21.1736V6.78812C2.36507 5.88131 2.72446 5.01202 3.36451 4.371C4.00378 3.72998 4.87068 3.3696 5.77501 3.36804H28.225C29.1293 3.3696 29.9962 3.72998 30.6355 4.371C31.2748 5.01202 31.6349 5.88131 31.6357 6.78812V21.1736Z" fill="#00A4B3"/>
<path d="M14.8519 12.4033L14.5447 14.3092C14.5104 14.521 14.597 14.7313 14.7708 14.858C14.9439 14.9846 15.1707 15.0018 15.361 14.9033L17.0776 14.0207L18.7943 14.8994C18.9853 14.9979 19.2114 14.9807 19.3852 14.854C19.5591 14.7274 19.6456 14.5171 19.6113 14.3053L19.5536 13.9472L19.3041 12.3994L20.6723 11.0353C20.8251 10.8836 20.8797 10.6616 20.8134 10.4568C20.7472 10.252 20.5733 10.1042 20.3613 10.0714L18.4536 9.77434L17.5844 8.0514C17.4768 7.87551 17.2834 7.76685 17.0776 7.76685C16.8718 7.76685 16.6785 7.87551 16.5709 8.0514L15.7016 9.77434L13.7948 10.0714C13.5819 10.1042 13.4089 10.252 13.3426 10.4568C13.2763 10.6616 13.3301 10.8836 13.4829 11.0345L14.8511 12.4025L14.8519 12.4033ZM16.1632 10.8508C16.3425 10.8226 16.4984 10.7093 16.5802 10.5475L17.0776 9.56171L17.5805 10.5443C17.6623 10.7069 17.8182 10.8203 17.9975 10.8484L19.0874 11.0212L18.3063 11.7998C18.1776 11.928 18.1184 12.1125 18.1464 12.2923L18.3187 13.3836L17.3372 12.8786C17.1805 12.7981 16.9934 12.7957 16.8344 12.8724L16.8211 12.8794L15.8396 13.3844L16.0119 12.2931C16.04 12.118 15.9846 11.939 15.863 11.8115L15.0709 11.022L16.1616 10.8524L16.1632 10.8508Z" fill="#00A4B3"/>
<path d="M29.0809 10.4419C29.0116 10.2293 28.8268 10.0722 28.6015 10.037L26.7141 9.74304L25.8519 8.03417C25.7412 7.84968 25.533 7.73242 25.3124 7.73242C25.0918 7.73242 24.8836 7.84968 24.7698 8.03964L23.9107 9.74304L22.0233 10.037C21.7964 10.0722 21.6109 10.2293 21.5399 10.4489C21.4705 10.6639 21.5243 10.8953 21.6803 11.0571L21.6904 11.0673L23.0438 12.4174L22.7397 14.3037C22.7031 14.5304 22.7959 14.7547 22.9814 14.89C23.1669 15.0252 23.4086 15.044 23.6129 14.9384L25.3124 14.0653L27.0103 14.9353C27.2138 15.0401 27.4563 15.0221 27.6418 14.8869C27.8274 14.7516 27.9194 14.5273 27.8827 14.3006L27.5787 12.4142L28.9336 11.0642C29.0747 10.9235 29.1363 10.7257 29.1036 10.5334L29.0809 10.4427V10.4419ZM26.513 11.7748C26.3758 11.9124 26.3118 12.1086 26.3422 12.3009L26.5028 13.3163L25.5899 12.8465C25.4215 12.7605 25.222 12.7582 25.0512 12.8403L25.0388 12.8465L24.1258 13.3163L24.2864 12.3009C24.3176 12.1086 24.2537 11.9116 24.1157 11.7748L23.3891 11.0509L24.4026 10.8898C24.5944 10.8601 24.7612 10.7382 24.8493 10.5654L25.3124 9.64689L25.7747 10.5623C25.862 10.7358 26.0288 10.857 26.2206 10.8867L27.2333 11.0478L26.5122 11.7748H26.513Z" fill="#00A4B3"/>
<path d="M5.86461 11.749L5.9566 11.6622L6.69644 12.3994L6.3885 14.3091C6.3542 14.521 6.44151 14.7313 6.61458 14.8579C6.78765 14.9853 7.01373 15.0025 7.20396 14.904L8.9214 14.0215L10.6396 14.9001C10.8306 14.9986 11.0567 14.9806 11.2298 14.8548C11.4036 14.7281 11.4902 14.5179 11.4559 14.306L11.3982 13.948L11.1487 12.4001L12.5169 11.036C12.6697 10.8844 12.7243 10.6623 12.658 10.4575C12.5917 10.2527 12.4187 10.105 12.2058 10.0721L10.2982 9.77507L9.42892 8.05213C9.32133 7.87624 9.12721 7.76758 8.92218 7.76758C8.71715 7.76758 8.52303 7.87624 8.41544 8.05213L7.54698 9.77507L5.64009 10.0721C5.42726 10.105 5.25419 10.2527 5.18792 10.4575C5.12166 10.6631 5.17545 10.8844 5.32825 11.036L5.95427 11.6598L5.86461 11.7497V11.749ZM8.00694 10.8515C8.18624 10.8234 8.34216 10.71 8.42402 10.5482L8.92062 9.56244L9.42346 10.5451C9.50532 10.7077 9.66124 10.821 9.84054 10.8492L10.9304 11.0219L10.1493 11.8005C10.0206 11.9288 9.96138 12.1132 9.99022 12.2923L10.0479 12.6503L10.0464 12.6487L10.1625 13.3836L9.18101 12.8786C9.02197 12.7973 8.83331 12.7957 8.67349 12.8746L8.66569 12.8786L7.68418 13.3836L7.85648 12.2923C7.88454 12.1164 7.82841 11.9366 7.70601 11.8091L6.91473 11.0212L8.0046 10.8515H8.00694Z" fill="#00A4B3"/>
<path d="M14.632 16.7153H6.26149C5.88495 16.7153 5.57935 17.0218 5.57935 17.3993C5.57935 17.7769 5.88495 18.0834 6.26149 18.0834H14.632C15.0085 18.0834 15.3141 17.7769 15.3141 17.3993C15.3141 17.0218 15.0085 16.7153 14.632 16.7153Z" fill="#00A4B3"/>
<path d="M21.4534 19.1685H6.26149C5.88495 19.1685 5.57935 19.4749 5.57935 19.8525C5.57935 20.2301 5.88495 20.5365 6.26149 20.5365H21.4534C21.83 20.5365 22.1356 20.2301 22.1356 19.8525C22.1356 19.4749 21.83 19.1685 21.4534 19.1685Z" fill="#00A4B3"/>
</svg>
