<svg width="31" height="31" viewBox="0 0 31 31" fill="none" xmlns="http://www.w3.org/2000/svg">
<circle cx="15.5" cy="15.5" r="15.5" fill="white"/>
<path fill-rule="evenodd" clip-rule="evenodd" d="M13.7626 14.9415L13.7804 14.9562C13.5509 14.7291 13.5896 14.7586 13.7626 14.9415ZM22.3668 10.3333H17.5966C17.4384 10.3333 17.2868 10.3954 17.175 10.5061C17.0631 10.6167 17.0003 10.7668 17.0003 10.9233V11.2183C17.0003 11.3748 17.0631 11.5249 17.175 11.6355C17.2868 11.7462 17.4384 11.8084 17.5966 11.8084H20.405L15.9151 16.2484C15.8597 16.3033 15.794 16.3468 15.7216 16.3765C15.6492 16.4062 15.5716 16.4215 15.4932 16.4215C15.4149 16.4215 15.3373 16.4062 15.2649 16.3765C15.1925 16.3468 15.1268 16.3033 15.0714 16.2484L13.7626 14.9415C13.6216 14.8101 13.4344 14.7381 13.2408 14.7409C13.0471 14.7436 12.8621 14.8209 12.725 14.9562L8.253 19.3816C8.15103 19.4854 8.08136 19.6161 8.05231 19.758C8.02325 19.8999 8.03603 20.0471 8.08913 20.182C8.14222 20.3169 8.23339 20.4339 8.35178 20.519C8.47016 20.6041 8.61077 20.6537 8.75685 20.662C8.84504 20.6732 8.93465 20.6638 9.01852 20.6346C9.10239 20.6054 9.17818 20.5572 9.23983 20.4938L12.8264 16.9447C12.8818 16.8898 12.9475 16.8463 13.0199 16.8166C13.0923 16.7869 13.1699 16.7716 13.2483 16.7716C13.3266 16.7716 13.4042 16.7869 13.4766 16.8166C13.549 16.8463 13.6148 16.8898 13.6701 16.9447L14.976 18.2369C15.608 18.8623 16.3951 17.9065 16.2311 18.0274L16.0493 18.2074C16.1048 18.1426 16.1657 18.0824 16.2311 18.0274L21.4724 12.8409V15.6437C21.4724 15.8001 21.5352 15.9502 21.647 16.0609C21.7588 16.1715 21.9105 16.2337 22.0686 16.2337H22.3668C22.5249 16.2337 22.6766 16.1715 22.7884 16.0609C22.9002 15.9502 22.963 15.8001 22.963 15.6437V10.9233C22.963 10.7668 22.9002 10.6167 22.7884 10.5061C22.6766 10.3954 22.5249 10.3333 22.3668 10.3333Z" fill="#002769"/>
</svg>
