<svg width="20" height="20" viewBox="0 0 20 20" fill="none" xmlns="http://www.w3.org/2000/svg">
<path fill-rule="evenodd" clip-rule="evenodd" d="M4.57416 3.26409C4.22269 2.91262 3.65284 2.91262 3.30137 3.26409C2.9499 3.61556 2.9499 4.18541 3.30137 4.53688L8.74611 9.98162L3.30137 15.4264C2.9499 15.7778 2.9499 16.3477 3.30137 16.6992C3.65284 17.0506 4.22269 17.0506 4.57416 16.6992L10.0189 11.2544L15.4636 16.6991C15.8151 17.0506 16.3849 17.0506 16.7364 16.6991C17.0879 16.3476 17.0879 15.7778 16.7364 15.4263L11.2917 9.98162L16.7364 4.53692C17.0879 4.18545 17.0879 3.6156 16.7364 3.26413C16.3849 2.91266 15.8151 2.91266 15.4636 3.26413L10.0189 8.70883L4.57416 3.26409Z" fill="white"/>
</svg>
